%TF.GenerationSoftware,KiCad,Pcbnew,7.0.9*%
%TF.CreationDate,2023-12-25T18:28:00-06:00*%
%TF.ProjectId,fujinet-adam-devkit-smd,66756a69-6e65-4742-9d61-64616d2d6465,1.1*%
%TF.SameCoordinates,Original*%
%TF.FileFunction,Soldermask,Top*%
%TF.FilePolarity,Negative*%
%FSLAX46Y46*%
G04 Gerber Fmt 4.6, Leading zero omitted, Abs format (unit mm)*
G04 Created by KiCad (PCBNEW 7.0.9) date 2023-12-25 18:28:00*
%MOMM*%
%LPD*%
G01*
G04 APERTURE LIST*
G04 Aperture macros list*
%AMRoundRect*
0 Rectangle with rounded corners*
0 $1 Rounding radius*
0 $2 $3 $4 $5 $6 $7 $8 $9 X,Y pos of 4 corners*
0 Add a 4 corners polygon primitive as box body*
4,1,4,$2,$3,$4,$5,$6,$7,$8,$9,$2,$3,0*
0 Add four circle primitives for the rounded corners*
1,1,$1+$1,$2,$3*
1,1,$1+$1,$4,$5*
1,1,$1+$1,$6,$7*
1,1,$1+$1,$8,$9*
0 Add four rect primitives between the rounded corners*
20,1,$1+$1,$2,$3,$4,$5,0*
20,1,$1+$1,$4,$5,$6,$7,0*
20,1,$1+$1,$6,$7,$8,$9,0*
20,1,$1+$1,$8,$9,$2,$3,0*%
G04 Aperture macros list end*
%ADD10C,3.250000*%
%ADD11R,1.520000X1.520000*%
%ADD12C,1.520000*%
%ADD13RoundRect,0.250000X0.450000X-0.350000X0.450000X0.350000X-0.450000X0.350000X-0.450000X-0.350000X0*%
%ADD14RoundRect,0.150000X0.150000X-0.587500X0.150000X0.587500X-0.150000X0.587500X-0.150000X-0.587500X0*%
%ADD15RoundRect,0.250000X-0.350000X-0.450000X0.350000X-0.450000X0.350000X0.450000X-0.350000X0.450000X0*%
%ADD16RoundRect,0.200000X0.200000X0.800000X-0.200000X0.800000X-0.200000X-0.800000X0.200000X-0.800000X0*%
%ADD17C,1.100000*%
%ADD18C,1.600000*%
%ADD19R,1.000000X1.500000*%
%ADD20R,0.700000X1.500000*%
%ADD21R,1.500000X2.800000*%
%ADD22RoundRect,0.250000X0.350000X0.450000X-0.350000X0.450000X-0.350000X-0.450000X0.350000X-0.450000X0*%
%ADD23RoundRect,0.250000X0.650000X-1.000000X0.650000X1.000000X-0.650000X1.000000X-0.650000X-1.000000X0*%
%ADD24C,2.700000*%
%ADD25R,1.530000X1.530000*%
%ADD26C,1.530000*%
%ADD27RoundRect,0.250000X-0.875000X-1.025000X0.875000X-1.025000X0.875000X1.025000X-0.875000X1.025000X0*%
%ADD28RoundRect,0.250001X-0.924999X0.499999X-0.924999X-0.499999X0.924999X-0.499999X0.924999X0.499999X0*%
%ADD29R,1.800000X1.800000*%
%ADD30C,1.800000*%
%ADD31RoundRect,0.250000X-0.450000X0.350000X-0.450000X-0.350000X0.450000X-0.350000X0.450000X0.350000X0*%
%ADD32RoundRect,0.250000X-0.650000X1.000000X-0.650000X-1.000000X0.650000X-1.000000X0.650000X1.000000X0*%
G04 APERTURE END LIST*
D10*
%TO.C,J1*%
X117470000Y-125984000D03*
X127630000Y-125984000D03*
D11*
X119380000Y-117094000D03*
D12*
X120650000Y-119634000D03*
X121920000Y-117094000D03*
X123190000Y-119634000D03*
X124460000Y-117094000D03*
X125730000Y-119634000D03*
%TD*%
D10*
%TO.C,J2*%
X102616000Y-125984000D03*
X112776000Y-125984000D03*
D11*
X104526000Y-117094000D03*
D12*
X105796000Y-119634000D03*
X107066000Y-117094000D03*
X108336000Y-119634000D03*
X109606000Y-117094000D03*
X110876000Y-119634000D03*
%TD*%
D13*
%TO.C,R21*%
X101600000Y-107045000D03*
X101600000Y-105045000D03*
%TD*%
D14*
%TO.C,Q2*%
X145100000Y-103172500D03*
X147000000Y-103172500D03*
X146050000Y-101297500D03*
%TD*%
D13*
%TO.C,R10*%
X138430000Y-114665000D03*
X138430000Y-112665000D03*
%TD*%
D15*
%TO.C,R1*%
X134890000Y-88265000D03*
X136890000Y-88265000D03*
%TD*%
D16*
%TO.C,SW3*%
X107510000Y-106045000D03*
X103310000Y-106045000D03*
%TD*%
D13*
%TO.C,R20*%
X120015000Y-107172000D03*
X120015000Y-105172000D03*
%TD*%
D15*
%TO.C,R4*%
X134890000Y-98425000D03*
X136890000Y-98425000D03*
%TD*%
D17*
%TO.C,J3*%
X126623000Y-99748000D03*
D18*
X105623000Y-99748000D03*
D19*
X108248000Y-102548000D03*
X110748000Y-102548000D03*
X113248000Y-102548000D03*
X115748000Y-102548000D03*
X118248000Y-102548000D03*
X120748000Y-102548000D03*
X123178000Y-102548000D03*
X124878000Y-102548000D03*
X105748000Y-102548000D03*
D20*
X126178000Y-102548000D03*
X127378000Y-102548000D03*
D21*
X128773000Y-100748000D03*
X128773000Y-79248000D03*
X103673000Y-100748000D03*
X101473000Y-79248000D03*
%TD*%
D22*
%TO.C,R12*%
X142605000Y-98425000D03*
X140605000Y-98425000D03*
%TD*%
D15*
%TO.C,R14*%
X149495000Y-93980000D03*
X151495000Y-93980000D03*
%TD*%
D14*
%TO.C,Q1*%
X149545000Y-98092500D03*
X151445000Y-98092500D03*
X150495000Y-96217500D03*
%TD*%
D15*
%TO.C,R17*%
X134890000Y-102235000D03*
X136890000Y-102235000D03*
%TD*%
D23*
%TO.C,D4*%
X135890000Y-129000000D03*
X135890000Y-125000000D03*
%TD*%
D16*
%TO.C,SW1*%
X128465000Y-106045000D03*
X124265000Y-106045000D03*
%TD*%
D24*
%TO.C,H2*%
X155702000Y-79883000D03*
%TD*%
D25*
%TO.C,U1*%
X131445000Y-84455000D03*
D26*
X131445000Y-86995000D03*
X131445000Y-89535000D03*
X131445000Y-92075000D03*
X131445000Y-94615000D03*
X131445000Y-97155000D03*
X131445000Y-99695000D03*
X131445000Y-102235000D03*
X131445000Y-104775000D03*
X131445000Y-107315000D03*
X131445000Y-109855000D03*
X131445000Y-112395000D03*
X131445000Y-114935000D03*
X131445000Y-117475000D03*
X131445000Y-120015000D03*
X131445000Y-122555000D03*
X131445000Y-125095000D03*
X131445000Y-127635000D03*
X131445000Y-130175000D03*
X156845000Y-130175000D03*
X156845000Y-127635000D03*
X156845000Y-125095000D03*
X156845000Y-122555000D03*
X156845000Y-120015000D03*
X156845000Y-117475000D03*
X156845000Y-114935000D03*
X156845000Y-112395000D03*
X156845000Y-109855000D03*
X156845000Y-107315000D03*
X156845000Y-104775000D03*
X156845000Y-102235000D03*
X156845000Y-99695000D03*
X156845000Y-97155000D03*
X156845000Y-94615000D03*
X156845000Y-92075000D03*
X156845000Y-89535000D03*
X156845000Y-86995000D03*
X156845000Y-84455000D03*
%TD*%
D27*
%TO.C,C2*%
X135230000Y-120015000D03*
X141630000Y-120015000D03*
%TD*%
D16*
%TO.C,SW2*%
X117987500Y-106045000D03*
X113787500Y-106045000D03*
%TD*%
D28*
%TO.C,C1*%
X110490000Y-105055000D03*
X110490000Y-108305000D03*
%TD*%
D29*
%TO.C,D2*%
X115887500Y-111755000D03*
D30*
X115887500Y-114295000D03*
%TD*%
D13*
%TO.C,R8*%
X112395000Y-113395000D03*
X112395000Y-111395000D03*
%TD*%
%TO.C,R19*%
X121920000Y-107172000D03*
X121920000Y-105172000D03*
%TD*%
D15*
%TO.C,R5*%
X134890000Y-95885000D03*
X136890000Y-95885000D03*
%TD*%
D22*
%TO.C,R18*%
X140700000Y-102235000D03*
X138700000Y-102235000D03*
%TD*%
D13*
%TO.C,R7*%
X122555000Y-113395000D03*
X122555000Y-111395000D03*
%TD*%
%TO.C,R9*%
X101600000Y-113395000D03*
X101600000Y-111395000D03*
%TD*%
D15*
%TO.C,R6*%
X134890000Y-85725000D03*
X136890000Y-85725000D03*
%TD*%
D13*
%TO.C,R16*%
X151765000Y-103235000D03*
X151765000Y-101235000D03*
%TD*%
D31*
%TO.C,R15*%
X149860000Y-101235000D03*
X149860000Y-103235000D03*
%TD*%
D13*
%TO.C,R11*%
X135890000Y-114665000D03*
X135890000Y-112665000D03*
%TD*%
D29*
%TO.C,D1*%
X126365000Y-111755000D03*
D30*
X126365000Y-114295000D03*
%TD*%
D32*
%TO.C,D5*%
X143510000Y-125000000D03*
X143510000Y-129000000D03*
%TD*%
D29*
%TO.C,D3*%
X105410000Y-111760000D03*
D30*
X105410000Y-114300000D03*
%TD*%
D15*
%TO.C,R3*%
X134890000Y-93345000D03*
X136890000Y-93345000D03*
%TD*%
D22*
%TO.C,R13*%
X142605000Y-95885000D03*
X140605000Y-95885000D03*
%TD*%
D15*
%TO.C,R2*%
X134890000Y-90805000D03*
X136890000Y-90805000D03*
%TD*%
D24*
%TO.C,H1*%
X132588000Y-79883000D03*
%TD*%
M02*
