%TF.GenerationSoftware,KiCad,Pcbnew,8.0.5*%
%TF.CreationDate,2024-11-23T20:38:19-06:00*%
%TF.ProjectId,fujinet-adam-devkit-smd,66756a69-6e65-4742-9d61-64616d2d6465,1.2*%
%TF.SameCoordinates,Original*%
%TF.FileFunction,Legend,Bot*%
%TF.FilePolarity,Positive*%
%FSLAX46Y46*%
G04 Gerber Fmt 4.6, Leading zero omitted, Abs format (unit mm)*
G04 Created by KiCad (PCBNEW 8.0.5) date 2024-11-23 20:38:19*
%MOMM*%
%LPD*%
G01*
G04 APERTURE LIST*
%ADD10C,0.150000*%
G04 APERTURE END LIST*
D10*
X152381612Y-126002820D02*
X153381612Y-126002820D01*
X153381612Y-126002820D02*
X153381612Y-125621868D01*
X153381612Y-125621868D02*
X153333993Y-125526630D01*
X153333993Y-125526630D02*
X153286374Y-125479011D01*
X153286374Y-125479011D02*
X153191136Y-125431392D01*
X153191136Y-125431392D02*
X153048279Y-125431392D01*
X153048279Y-125431392D02*
X152953041Y-125479011D01*
X152953041Y-125479011D02*
X152905422Y-125526630D01*
X152905422Y-125526630D02*
X152857803Y-125621868D01*
X152857803Y-125621868D02*
X152857803Y-126002820D01*
X152476851Y-124431392D02*
X152429232Y-124479011D01*
X152429232Y-124479011D02*
X152381612Y-124621868D01*
X152381612Y-124621868D02*
X152381612Y-124717106D01*
X152381612Y-124717106D02*
X152429232Y-124859963D01*
X152429232Y-124859963D02*
X152524470Y-124955201D01*
X152524470Y-124955201D02*
X152619708Y-125002820D01*
X152619708Y-125002820D02*
X152810184Y-125050439D01*
X152810184Y-125050439D02*
X152953041Y-125050439D01*
X152953041Y-125050439D02*
X153143517Y-125002820D01*
X153143517Y-125002820D02*
X153238755Y-124955201D01*
X153238755Y-124955201D02*
X153333993Y-124859963D01*
X153333993Y-124859963D02*
X153381612Y-124717106D01*
X153381612Y-124717106D02*
X153381612Y-124621868D01*
X153381612Y-124621868D02*
X153333993Y-124479011D01*
X153333993Y-124479011D02*
X153286374Y-124431392D01*
X152905422Y-123669487D02*
X152857803Y-123526630D01*
X152857803Y-123526630D02*
X152810184Y-123479011D01*
X152810184Y-123479011D02*
X152714946Y-123431392D01*
X152714946Y-123431392D02*
X152572089Y-123431392D01*
X152572089Y-123431392D02*
X152476851Y-123479011D01*
X152476851Y-123479011D02*
X152429232Y-123526630D01*
X152429232Y-123526630D02*
X152381612Y-123621868D01*
X152381612Y-123621868D02*
X152381612Y-124002820D01*
X152381612Y-124002820D02*
X153381612Y-124002820D01*
X153381612Y-124002820D02*
X153381612Y-123669487D01*
X153381612Y-123669487D02*
X153333993Y-123574249D01*
X153333993Y-123574249D02*
X153286374Y-123526630D01*
X153286374Y-123526630D02*
X153191136Y-123479011D01*
X153191136Y-123479011D02*
X153095898Y-123479011D01*
X153095898Y-123479011D02*
X153000660Y-123526630D01*
X153000660Y-123526630D02*
X152953041Y-123574249D01*
X152953041Y-123574249D02*
X152905422Y-123669487D01*
X152905422Y-123669487D02*
X152905422Y-124002820D01*
X152381612Y-122240915D02*
X153381612Y-122240915D01*
X153000660Y-122240915D02*
X153048279Y-122145677D01*
X153048279Y-122145677D02*
X153048279Y-121955201D01*
X153048279Y-121955201D02*
X153000660Y-121859963D01*
X153000660Y-121859963D02*
X152953041Y-121812344D01*
X152953041Y-121812344D02*
X152857803Y-121764725D01*
X152857803Y-121764725D02*
X152572089Y-121764725D01*
X152572089Y-121764725D02*
X152476851Y-121812344D01*
X152476851Y-121812344D02*
X152429232Y-121859963D01*
X152429232Y-121859963D02*
X152381612Y-121955201D01*
X152381612Y-121955201D02*
X152381612Y-122145677D01*
X152381612Y-122145677D02*
X152429232Y-122240915D01*
X153048279Y-121431391D02*
X152381612Y-121193296D01*
X153048279Y-120955201D02*
X152381612Y-121193296D01*
X152381612Y-121193296D02*
X152143517Y-121288534D01*
X152143517Y-121288534D02*
X152095898Y-121336153D01*
X152095898Y-121336153D02*
X152048279Y-121431391D01*
X152476851Y-119240915D02*
X152429232Y-119288534D01*
X152429232Y-119288534D02*
X152381612Y-119431391D01*
X152381612Y-119431391D02*
X152381612Y-119526629D01*
X152381612Y-119526629D02*
X152429232Y-119669486D01*
X152429232Y-119669486D02*
X152524470Y-119764724D01*
X152524470Y-119764724D02*
X152619708Y-119812343D01*
X152619708Y-119812343D02*
X152810184Y-119859962D01*
X152810184Y-119859962D02*
X152953041Y-119859962D01*
X152953041Y-119859962D02*
X153143517Y-119812343D01*
X153143517Y-119812343D02*
X153238755Y-119764724D01*
X153238755Y-119764724D02*
X153333993Y-119669486D01*
X153333993Y-119669486D02*
X153381612Y-119526629D01*
X153381612Y-119526629D02*
X153381612Y-119431391D01*
X153381612Y-119431391D02*
X153333993Y-119288534D01*
X153333993Y-119288534D02*
X153286374Y-119240915D01*
X152381612Y-118812343D02*
X153381612Y-118812343D01*
X152381612Y-118383772D02*
X152905422Y-118383772D01*
X152905422Y-118383772D02*
X153000660Y-118431391D01*
X153000660Y-118431391D02*
X153048279Y-118526629D01*
X153048279Y-118526629D02*
X153048279Y-118669486D01*
X153048279Y-118669486D02*
X153000660Y-118764724D01*
X153000660Y-118764724D02*
X152953041Y-118812343D01*
X152381612Y-117907581D02*
X153048279Y-117907581D01*
X152857803Y-117907581D02*
X152953041Y-117859962D01*
X152953041Y-117859962D02*
X153000660Y-117812343D01*
X153000660Y-117812343D02*
X153048279Y-117717105D01*
X153048279Y-117717105D02*
X153048279Y-117621867D01*
X152381612Y-117288533D02*
X153048279Y-117288533D01*
X153381612Y-117288533D02*
X153333993Y-117336152D01*
X153333993Y-117336152D02*
X153286374Y-117288533D01*
X153286374Y-117288533D02*
X153333993Y-117240914D01*
X153333993Y-117240914D02*
X153381612Y-117288533D01*
X153381612Y-117288533D02*
X153286374Y-117288533D01*
X152429232Y-116859962D02*
X152381612Y-116764724D01*
X152381612Y-116764724D02*
X152381612Y-116574248D01*
X152381612Y-116574248D02*
X152429232Y-116479010D01*
X152429232Y-116479010D02*
X152524470Y-116431391D01*
X152524470Y-116431391D02*
X152572089Y-116431391D01*
X152572089Y-116431391D02*
X152667327Y-116479010D01*
X152667327Y-116479010D02*
X152714946Y-116574248D01*
X152714946Y-116574248D02*
X152714946Y-116717105D01*
X152714946Y-116717105D02*
X152762565Y-116812343D01*
X152762565Y-116812343D02*
X152857803Y-116859962D01*
X152857803Y-116859962D02*
X152905422Y-116859962D01*
X152905422Y-116859962D02*
X153000660Y-116812343D01*
X153000660Y-116812343D02*
X153048279Y-116717105D01*
X153048279Y-116717105D02*
X153048279Y-116574248D01*
X153048279Y-116574248D02*
X153000660Y-116479010D01*
X153381612Y-115383771D02*
X153381612Y-114812343D01*
X152381612Y-115098057D02*
X153381612Y-115098057D01*
X152429232Y-114098057D02*
X152381612Y-114193295D01*
X152381612Y-114193295D02*
X152381612Y-114383771D01*
X152381612Y-114383771D02*
X152429232Y-114479009D01*
X152429232Y-114479009D02*
X152524470Y-114526628D01*
X152524470Y-114526628D02*
X152905422Y-114526628D01*
X152905422Y-114526628D02*
X153000660Y-114479009D01*
X153000660Y-114479009D02*
X153048279Y-114383771D01*
X153048279Y-114383771D02*
X153048279Y-114193295D01*
X153048279Y-114193295D02*
X153000660Y-114098057D01*
X153000660Y-114098057D02*
X152905422Y-114050438D01*
X152905422Y-114050438D02*
X152810184Y-114050438D01*
X152810184Y-114050438D02*
X152714946Y-114526628D01*
X152381612Y-113621866D02*
X153048279Y-113621866D01*
X152857803Y-113621866D02*
X152953041Y-113574247D01*
X152953041Y-113574247D02*
X153000660Y-113526628D01*
X153000660Y-113526628D02*
X153048279Y-113431390D01*
X153048279Y-113431390D02*
X153048279Y-113336152D01*
X152429232Y-113050437D02*
X152381612Y-112955199D01*
X152381612Y-112955199D02*
X152381612Y-112764723D01*
X152381612Y-112764723D02*
X152429232Y-112669485D01*
X152429232Y-112669485D02*
X152524470Y-112621866D01*
X152524470Y-112621866D02*
X152572089Y-112621866D01*
X152572089Y-112621866D02*
X152667327Y-112669485D01*
X152667327Y-112669485D02*
X152714946Y-112764723D01*
X152714946Y-112764723D02*
X152714946Y-112907580D01*
X152714946Y-112907580D02*
X152762565Y-113002818D01*
X152762565Y-113002818D02*
X152857803Y-113050437D01*
X152857803Y-113050437D02*
X152905422Y-113050437D01*
X152905422Y-113050437D02*
X153000660Y-113002818D01*
X153000660Y-113002818D02*
X153048279Y-112907580D01*
X153048279Y-112907580D02*
X153048279Y-112764723D01*
X153048279Y-112764723D02*
X153000660Y-112669485D01*
X153048279Y-112336151D02*
X153048279Y-111955199D01*
X153381612Y-112193294D02*
X152524470Y-112193294D01*
X152524470Y-112193294D02*
X152429232Y-112145675D01*
X152429232Y-112145675D02*
X152381612Y-112050437D01*
X152381612Y-112050437D02*
X152381612Y-111955199D01*
X152429232Y-111240913D02*
X152381612Y-111336151D01*
X152381612Y-111336151D02*
X152381612Y-111526627D01*
X152381612Y-111526627D02*
X152429232Y-111621865D01*
X152429232Y-111621865D02*
X152524470Y-111669484D01*
X152524470Y-111669484D02*
X152905422Y-111669484D01*
X152905422Y-111669484D02*
X153000660Y-111621865D01*
X153000660Y-111621865D02*
X153048279Y-111526627D01*
X153048279Y-111526627D02*
X153048279Y-111336151D01*
X153048279Y-111336151D02*
X153000660Y-111240913D01*
X153000660Y-111240913D02*
X152905422Y-111193294D01*
X152905422Y-111193294D02*
X152810184Y-111193294D01*
X152810184Y-111193294D02*
X152714946Y-111669484D01*
X152429232Y-110383770D02*
X152381612Y-110479008D01*
X152381612Y-110479008D02*
X152381612Y-110669484D01*
X152381612Y-110669484D02*
X152429232Y-110764722D01*
X152429232Y-110764722D02*
X152524470Y-110812341D01*
X152524470Y-110812341D02*
X152905422Y-110812341D01*
X152905422Y-110812341D02*
X153000660Y-110764722D01*
X153000660Y-110764722D02*
X153048279Y-110669484D01*
X153048279Y-110669484D02*
X153048279Y-110479008D01*
X153048279Y-110479008D02*
X153000660Y-110383770D01*
X153000660Y-110383770D02*
X152905422Y-110336151D01*
X152905422Y-110336151D02*
X152810184Y-110336151D01*
X152810184Y-110336151D02*
X152714946Y-110812341D01*
X153048279Y-109479008D02*
X152238755Y-109479008D01*
X152238755Y-109479008D02*
X152143517Y-109526627D01*
X152143517Y-109526627D02*
X152095898Y-109574246D01*
X152095898Y-109574246D02*
X152048279Y-109669484D01*
X152048279Y-109669484D02*
X152048279Y-109812341D01*
X152048279Y-109812341D02*
X152095898Y-109907579D01*
X152429232Y-109479008D02*
X152381612Y-109574246D01*
X152381612Y-109574246D02*
X152381612Y-109764722D01*
X152381612Y-109764722D02*
X152429232Y-109859960D01*
X152429232Y-109859960D02*
X152476851Y-109907579D01*
X152476851Y-109907579D02*
X152572089Y-109955198D01*
X152572089Y-109955198D02*
X152857803Y-109955198D01*
X152857803Y-109955198D02*
X152953041Y-109907579D01*
X152953041Y-109907579D02*
X153000660Y-109859960D01*
X153000660Y-109859960D02*
X153048279Y-109764722D01*
X153048279Y-109764722D02*
X153048279Y-109574246D01*
X153048279Y-109574246D02*
X153000660Y-109479008D01*
X151438335Y-125574249D02*
X150628811Y-125574249D01*
X150628811Y-125574249D02*
X150533573Y-125621868D01*
X150533573Y-125621868D02*
X150485954Y-125669487D01*
X150485954Y-125669487D02*
X150438335Y-125764725D01*
X150438335Y-125764725D02*
X150438335Y-125907582D01*
X150438335Y-125907582D02*
X150485954Y-126002820D01*
X150819288Y-125574249D02*
X150771668Y-125669487D01*
X150771668Y-125669487D02*
X150771668Y-125859963D01*
X150771668Y-125859963D02*
X150819288Y-125955201D01*
X150819288Y-125955201D02*
X150866907Y-126002820D01*
X150866907Y-126002820D02*
X150962145Y-126050439D01*
X150962145Y-126050439D02*
X151247859Y-126050439D01*
X151247859Y-126050439D02*
X151343097Y-126002820D01*
X151343097Y-126002820D02*
X151390716Y-125955201D01*
X151390716Y-125955201D02*
X151438335Y-125859963D01*
X151438335Y-125859963D02*
X151438335Y-125669487D01*
X151438335Y-125669487D02*
X151390716Y-125574249D01*
X150771668Y-125098058D02*
X151438335Y-125098058D01*
X151771668Y-125098058D02*
X151724049Y-125145677D01*
X151724049Y-125145677D02*
X151676430Y-125098058D01*
X151676430Y-125098058D02*
X151724049Y-125050439D01*
X151724049Y-125050439D02*
X151771668Y-125098058D01*
X151771668Y-125098058D02*
X151676430Y-125098058D01*
X151438335Y-124764725D02*
X151438335Y-124383773D01*
X151771668Y-124621868D02*
X150914526Y-124621868D01*
X150914526Y-124621868D02*
X150819288Y-124574249D01*
X150819288Y-124574249D02*
X150771668Y-124479011D01*
X150771668Y-124479011D02*
X150771668Y-124383773D01*
X150771668Y-124050439D02*
X151771668Y-124050439D01*
X150771668Y-123621868D02*
X151295478Y-123621868D01*
X151295478Y-123621868D02*
X151390716Y-123669487D01*
X151390716Y-123669487D02*
X151438335Y-123764725D01*
X151438335Y-123764725D02*
X151438335Y-123907582D01*
X151438335Y-123907582D02*
X151390716Y-124002820D01*
X151390716Y-124002820D02*
X151343097Y-124050439D01*
X151438335Y-122717106D02*
X150771668Y-122717106D01*
X151438335Y-123145677D02*
X150914526Y-123145677D01*
X150914526Y-123145677D02*
X150819288Y-123098058D01*
X150819288Y-123098058D02*
X150771668Y-123002820D01*
X150771668Y-123002820D02*
X150771668Y-122859963D01*
X150771668Y-122859963D02*
X150819288Y-122764725D01*
X150819288Y-122764725D02*
X150866907Y-122717106D01*
X150771668Y-122240915D02*
X151771668Y-122240915D01*
X151390716Y-122240915D02*
X151438335Y-122145677D01*
X151438335Y-122145677D02*
X151438335Y-121955201D01*
X151438335Y-121955201D02*
X151390716Y-121859963D01*
X151390716Y-121859963D02*
X151343097Y-121812344D01*
X151343097Y-121812344D02*
X151247859Y-121764725D01*
X151247859Y-121764725D02*
X150962145Y-121764725D01*
X150962145Y-121764725D02*
X150866907Y-121812344D01*
X150866907Y-121812344D02*
X150819288Y-121859963D01*
X150819288Y-121859963D02*
X150771668Y-121955201D01*
X150771668Y-121955201D02*
X150771668Y-122145677D01*
X150771668Y-122145677D02*
X150819288Y-122240915D01*
X150866907Y-121336153D02*
X150819288Y-121288534D01*
X150819288Y-121288534D02*
X150771668Y-121336153D01*
X150771668Y-121336153D02*
X150819288Y-121383772D01*
X150819288Y-121383772D02*
X150866907Y-121336153D01*
X150866907Y-121336153D02*
X150771668Y-121336153D01*
X150819288Y-120431392D02*
X150771668Y-120526630D01*
X150771668Y-120526630D02*
X150771668Y-120717106D01*
X150771668Y-120717106D02*
X150819288Y-120812344D01*
X150819288Y-120812344D02*
X150866907Y-120859963D01*
X150866907Y-120859963D02*
X150962145Y-120907582D01*
X150962145Y-120907582D02*
X151247859Y-120907582D01*
X151247859Y-120907582D02*
X151343097Y-120859963D01*
X151343097Y-120859963D02*
X151390716Y-120812344D01*
X151390716Y-120812344D02*
X151438335Y-120717106D01*
X151438335Y-120717106D02*
X151438335Y-120526630D01*
X151438335Y-120526630D02*
X151390716Y-120431392D01*
X150771668Y-119859963D02*
X150819288Y-119955201D01*
X150819288Y-119955201D02*
X150866907Y-120002820D01*
X150866907Y-120002820D02*
X150962145Y-120050439D01*
X150962145Y-120050439D02*
X151247859Y-120050439D01*
X151247859Y-120050439D02*
X151343097Y-120002820D01*
X151343097Y-120002820D02*
X151390716Y-119955201D01*
X151390716Y-119955201D02*
X151438335Y-119859963D01*
X151438335Y-119859963D02*
X151438335Y-119717106D01*
X151438335Y-119717106D02*
X151390716Y-119621868D01*
X151390716Y-119621868D02*
X151343097Y-119574249D01*
X151343097Y-119574249D02*
X151247859Y-119526630D01*
X151247859Y-119526630D02*
X150962145Y-119526630D01*
X150962145Y-119526630D02*
X150866907Y-119574249D01*
X150866907Y-119574249D02*
X150819288Y-119621868D01*
X150819288Y-119621868D02*
X150771668Y-119717106D01*
X150771668Y-119717106D02*
X150771668Y-119859963D01*
X150771668Y-119098058D02*
X151438335Y-119098058D01*
X151343097Y-119098058D02*
X151390716Y-119050439D01*
X151390716Y-119050439D02*
X151438335Y-118955201D01*
X151438335Y-118955201D02*
X151438335Y-118812344D01*
X151438335Y-118812344D02*
X151390716Y-118717106D01*
X151390716Y-118717106D02*
X151295478Y-118669487D01*
X151295478Y-118669487D02*
X150771668Y-118669487D01*
X151295478Y-118669487D02*
X151390716Y-118621868D01*
X151390716Y-118621868D02*
X151438335Y-118526630D01*
X151438335Y-118526630D02*
X151438335Y-118383773D01*
X151438335Y-118383773D02*
X151390716Y-118288534D01*
X151390716Y-118288534D02*
X151295478Y-118240915D01*
X151295478Y-118240915D02*
X150771668Y-118240915D01*
X151819288Y-117050440D02*
X150533573Y-117907582D01*
X150771668Y-116288535D02*
X151771668Y-116288535D01*
X150819288Y-116288535D02*
X150771668Y-116383773D01*
X150771668Y-116383773D02*
X150771668Y-116574249D01*
X150771668Y-116574249D02*
X150819288Y-116669487D01*
X150819288Y-116669487D02*
X150866907Y-116717106D01*
X150866907Y-116717106D02*
X150962145Y-116764725D01*
X150962145Y-116764725D02*
X151247859Y-116764725D01*
X151247859Y-116764725D02*
X151343097Y-116717106D01*
X151343097Y-116717106D02*
X151390716Y-116669487D01*
X151390716Y-116669487D02*
X151438335Y-116574249D01*
X151438335Y-116574249D02*
X151438335Y-116383773D01*
X151438335Y-116383773D02*
X151390716Y-116288535D01*
X151438335Y-115812344D02*
X150581192Y-115812344D01*
X150581192Y-115812344D02*
X150485954Y-115859963D01*
X150485954Y-115859963D02*
X150438335Y-115955201D01*
X150438335Y-115955201D02*
X150438335Y-116002820D01*
X151771668Y-115812344D02*
X151724049Y-115859963D01*
X151724049Y-115859963D02*
X151676430Y-115812344D01*
X151676430Y-115812344D02*
X151724049Y-115764725D01*
X151724049Y-115764725D02*
X151771668Y-115812344D01*
X151771668Y-115812344D02*
X151676430Y-115812344D01*
X151438335Y-115479011D02*
X151438335Y-115098059D01*
X151771668Y-115336154D02*
X150914526Y-115336154D01*
X150914526Y-115336154D02*
X150819288Y-115288535D01*
X150819288Y-115288535D02*
X150771668Y-115193297D01*
X150771668Y-115193297D02*
X150771668Y-115098059D01*
X150819288Y-114383773D02*
X150771668Y-114479011D01*
X150771668Y-114479011D02*
X150771668Y-114669487D01*
X150771668Y-114669487D02*
X150819288Y-114764725D01*
X150819288Y-114764725D02*
X150914526Y-114812344D01*
X150914526Y-114812344D02*
X151295478Y-114812344D01*
X151295478Y-114812344D02*
X151390716Y-114764725D01*
X151390716Y-114764725D02*
X151438335Y-114669487D01*
X151438335Y-114669487D02*
X151438335Y-114479011D01*
X151438335Y-114479011D02*
X151390716Y-114383773D01*
X151390716Y-114383773D02*
X151295478Y-114336154D01*
X151295478Y-114336154D02*
X151200240Y-114336154D01*
X151200240Y-114336154D02*
X151105002Y-114812344D01*
X150771668Y-113907582D02*
X151438335Y-113907582D01*
X151247859Y-113907582D02*
X151343097Y-113859963D01*
X151343097Y-113859963D02*
X151390716Y-113812344D01*
X151390716Y-113812344D02*
X151438335Y-113717106D01*
X151438335Y-113717106D02*
X151438335Y-113621868D01*
X150819288Y-113336153D02*
X150771668Y-113240915D01*
X150771668Y-113240915D02*
X150771668Y-113050439D01*
X150771668Y-113050439D02*
X150819288Y-112955201D01*
X150819288Y-112955201D02*
X150914526Y-112907582D01*
X150914526Y-112907582D02*
X150962145Y-112907582D01*
X150962145Y-112907582D02*
X151057383Y-112955201D01*
X151057383Y-112955201D02*
X151105002Y-113050439D01*
X151105002Y-113050439D02*
X151105002Y-113193296D01*
X151105002Y-113193296D02*
X151152621Y-113288534D01*
X151152621Y-113288534D02*
X151247859Y-113336153D01*
X151247859Y-113336153D02*
X151295478Y-113336153D01*
X151295478Y-113336153D02*
X151390716Y-113288534D01*
X151390716Y-113288534D02*
X151438335Y-113193296D01*
X151438335Y-113193296D02*
X151438335Y-113050439D01*
X151438335Y-113050439D02*
X151390716Y-112955201D01*
X151438335Y-112621867D02*
X151438335Y-112240915D01*
X151771668Y-112479010D02*
X150914526Y-112479010D01*
X150914526Y-112479010D02*
X150819288Y-112431391D01*
X150819288Y-112431391D02*
X150771668Y-112336153D01*
X150771668Y-112336153D02*
X150771668Y-112240915D01*
X150819288Y-111526629D02*
X150771668Y-111621867D01*
X150771668Y-111621867D02*
X150771668Y-111812343D01*
X150771668Y-111812343D02*
X150819288Y-111907581D01*
X150819288Y-111907581D02*
X150914526Y-111955200D01*
X150914526Y-111955200D02*
X151295478Y-111955200D01*
X151295478Y-111955200D02*
X151390716Y-111907581D01*
X151390716Y-111907581D02*
X151438335Y-111812343D01*
X151438335Y-111812343D02*
X151438335Y-111621867D01*
X151438335Y-111621867D02*
X151390716Y-111526629D01*
X151390716Y-111526629D02*
X151295478Y-111479010D01*
X151295478Y-111479010D02*
X151200240Y-111479010D01*
X151200240Y-111479010D02*
X151105002Y-111955200D01*
X150819288Y-110669486D02*
X150771668Y-110764724D01*
X150771668Y-110764724D02*
X150771668Y-110955200D01*
X150771668Y-110955200D02*
X150819288Y-111050438D01*
X150819288Y-111050438D02*
X150914526Y-111098057D01*
X150914526Y-111098057D02*
X151295478Y-111098057D01*
X151295478Y-111098057D02*
X151390716Y-111050438D01*
X151390716Y-111050438D02*
X151438335Y-110955200D01*
X151438335Y-110955200D02*
X151438335Y-110764724D01*
X151438335Y-110764724D02*
X151390716Y-110669486D01*
X151390716Y-110669486D02*
X151295478Y-110621867D01*
X151295478Y-110621867D02*
X151200240Y-110621867D01*
X151200240Y-110621867D02*
X151105002Y-111098057D01*
X151438335Y-109764724D02*
X150628811Y-109764724D01*
X150628811Y-109764724D02*
X150533573Y-109812343D01*
X150533573Y-109812343D02*
X150485954Y-109859962D01*
X150485954Y-109859962D02*
X150438335Y-109955200D01*
X150438335Y-109955200D02*
X150438335Y-110098057D01*
X150438335Y-110098057D02*
X150485954Y-110193295D01*
X150819288Y-109764724D02*
X150771668Y-109859962D01*
X150771668Y-109859962D02*
X150771668Y-110050438D01*
X150771668Y-110050438D02*
X150819288Y-110145676D01*
X150819288Y-110145676D02*
X150866907Y-110193295D01*
X150866907Y-110193295D02*
X150962145Y-110240914D01*
X150962145Y-110240914D02*
X151247859Y-110240914D01*
X151247859Y-110240914D02*
X151343097Y-110193295D01*
X151343097Y-110193295D02*
X151390716Y-110145676D01*
X151390716Y-110145676D02*
X151438335Y-110050438D01*
X151438335Y-110050438D02*
X151438335Y-109859962D01*
X151438335Y-109859962D02*
X151390716Y-109764724D01*
X150819288Y-108859962D02*
X150771668Y-108955200D01*
X150771668Y-108955200D02*
X150771668Y-109145676D01*
X150771668Y-109145676D02*
X150819288Y-109240914D01*
X150819288Y-109240914D02*
X150866907Y-109288533D01*
X150866907Y-109288533D02*
X150962145Y-109336152D01*
X150962145Y-109336152D02*
X151247859Y-109336152D01*
X151247859Y-109336152D02*
X151343097Y-109288533D01*
X151343097Y-109288533D02*
X151390716Y-109240914D01*
X151390716Y-109240914D02*
X151438335Y-109145676D01*
X151438335Y-109145676D02*
X151438335Y-108955200D01*
X151438335Y-108955200D02*
X151390716Y-108859962D01*
X151819288Y-107717105D02*
X150533573Y-108574247D01*
X151438335Y-107526628D02*
X151438335Y-107145676D01*
X150771668Y-107383771D02*
X151628811Y-107383771D01*
X151628811Y-107383771D02*
X151724049Y-107336152D01*
X151724049Y-107336152D02*
X151771668Y-107240914D01*
X151771668Y-107240914D02*
X151771668Y-107145676D01*
X151438335Y-106383771D02*
X150771668Y-106383771D01*
X151438335Y-106812342D02*
X150914526Y-106812342D01*
X150914526Y-106812342D02*
X150819288Y-106764723D01*
X150819288Y-106764723D02*
X150771668Y-106669485D01*
X150771668Y-106669485D02*
X150771668Y-106526628D01*
X150771668Y-106526628D02*
X150819288Y-106431390D01*
X150819288Y-106431390D02*
X150866907Y-106383771D01*
X151438335Y-105907580D02*
X150581192Y-105907580D01*
X150581192Y-105907580D02*
X150485954Y-105955199D01*
X150485954Y-105955199D02*
X150438335Y-106050437D01*
X150438335Y-106050437D02*
X150438335Y-106098056D01*
X151771668Y-105907580D02*
X151724049Y-105955199D01*
X151724049Y-105955199D02*
X151676430Y-105907580D01*
X151676430Y-105907580D02*
X151724049Y-105859961D01*
X151724049Y-105859961D02*
X151771668Y-105907580D01*
X151771668Y-105907580D02*
X151676430Y-105907580D01*
X150771668Y-105431390D02*
X151438335Y-105431390D01*
X151771668Y-105431390D02*
X151724049Y-105479009D01*
X151724049Y-105479009D02*
X151676430Y-105431390D01*
X151676430Y-105431390D02*
X151724049Y-105383771D01*
X151724049Y-105383771D02*
X151771668Y-105431390D01*
X151771668Y-105431390D02*
X151676430Y-105431390D01*
X151438335Y-104955200D02*
X150771668Y-104955200D01*
X151343097Y-104955200D02*
X151390716Y-104907581D01*
X151390716Y-104907581D02*
X151438335Y-104812343D01*
X151438335Y-104812343D02*
X151438335Y-104669486D01*
X151438335Y-104669486D02*
X151390716Y-104574248D01*
X151390716Y-104574248D02*
X151295478Y-104526629D01*
X151295478Y-104526629D02*
X150771668Y-104526629D01*
X150819288Y-103669486D02*
X150771668Y-103764724D01*
X150771668Y-103764724D02*
X150771668Y-103955200D01*
X150771668Y-103955200D02*
X150819288Y-104050438D01*
X150819288Y-104050438D02*
X150914526Y-104098057D01*
X150914526Y-104098057D02*
X151295478Y-104098057D01*
X151295478Y-104098057D02*
X151390716Y-104050438D01*
X151390716Y-104050438D02*
X151438335Y-103955200D01*
X151438335Y-103955200D02*
X151438335Y-103764724D01*
X151438335Y-103764724D02*
X151390716Y-103669486D01*
X151390716Y-103669486D02*
X151295478Y-103621867D01*
X151295478Y-103621867D02*
X151200240Y-103621867D01*
X151200240Y-103621867D02*
X151105002Y-104098057D01*
X151438335Y-103336152D02*
X151438335Y-102955200D01*
X151771668Y-103193295D02*
X150914526Y-103193295D01*
X150914526Y-103193295D02*
X150819288Y-103145676D01*
X150819288Y-103145676D02*
X150771668Y-103050438D01*
X150771668Y-103050438D02*
X150771668Y-102955200D01*
X151152621Y-102621866D02*
X151152621Y-101859962D01*
X150771668Y-100955200D02*
X151295478Y-100955200D01*
X151295478Y-100955200D02*
X151390716Y-101002819D01*
X151390716Y-101002819D02*
X151438335Y-101098057D01*
X151438335Y-101098057D02*
X151438335Y-101288533D01*
X151438335Y-101288533D02*
X151390716Y-101383771D01*
X150819288Y-100955200D02*
X150771668Y-101050438D01*
X150771668Y-101050438D02*
X150771668Y-101288533D01*
X150771668Y-101288533D02*
X150819288Y-101383771D01*
X150819288Y-101383771D02*
X150914526Y-101431390D01*
X150914526Y-101431390D02*
X151009764Y-101431390D01*
X151009764Y-101431390D02*
X151105002Y-101383771D01*
X151105002Y-101383771D02*
X151152621Y-101288533D01*
X151152621Y-101288533D02*
X151152621Y-101050438D01*
X151152621Y-101050438D02*
X151200240Y-100955200D01*
X150771668Y-100050438D02*
X151771668Y-100050438D01*
X150819288Y-100050438D02*
X150771668Y-100145676D01*
X150771668Y-100145676D02*
X150771668Y-100336152D01*
X150771668Y-100336152D02*
X150819288Y-100431390D01*
X150819288Y-100431390D02*
X150866907Y-100479009D01*
X150866907Y-100479009D02*
X150962145Y-100526628D01*
X150962145Y-100526628D02*
X151247859Y-100526628D01*
X151247859Y-100526628D02*
X151343097Y-100479009D01*
X151343097Y-100479009D02*
X151390716Y-100431390D01*
X151390716Y-100431390D02*
X151438335Y-100336152D01*
X151438335Y-100336152D02*
X151438335Y-100145676D01*
X151438335Y-100145676D02*
X151390716Y-100050438D01*
X150771668Y-99145676D02*
X151295478Y-99145676D01*
X151295478Y-99145676D02*
X151390716Y-99193295D01*
X151390716Y-99193295D02*
X151438335Y-99288533D01*
X151438335Y-99288533D02*
X151438335Y-99479009D01*
X151438335Y-99479009D02*
X151390716Y-99574247D01*
X150819288Y-99145676D02*
X150771668Y-99240914D01*
X150771668Y-99240914D02*
X150771668Y-99479009D01*
X150771668Y-99479009D02*
X150819288Y-99574247D01*
X150819288Y-99574247D02*
X150914526Y-99621866D01*
X150914526Y-99621866D02*
X151009764Y-99621866D01*
X151009764Y-99621866D02*
X151105002Y-99574247D01*
X151105002Y-99574247D02*
X151152621Y-99479009D01*
X151152621Y-99479009D02*
X151152621Y-99240914D01*
X151152621Y-99240914D02*
X151200240Y-99145676D01*
X150771668Y-98669485D02*
X151438335Y-98669485D01*
X151343097Y-98669485D02*
X151390716Y-98621866D01*
X151390716Y-98621866D02*
X151438335Y-98526628D01*
X151438335Y-98526628D02*
X151438335Y-98383771D01*
X151438335Y-98383771D02*
X151390716Y-98288533D01*
X151390716Y-98288533D02*
X151295478Y-98240914D01*
X151295478Y-98240914D02*
X150771668Y-98240914D01*
X151295478Y-98240914D02*
X151390716Y-98193295D01*
X151390716Y-98193295D02*
X151438335Y-98098057D01*
X151438335Y-98098057D02*
X151438335Y-97955200D01*
X151438335Y-97955200D02*
X151390716Y-97859961D01*
X151390716Y-97859961D02*
X151295478Y-97812342D01*
X151295478Y-97812342D02*
X150771668Y-97812342D01*
X151152621Y-97336152D02*
X151152621Y-96574248D01*
X150771668Y-96098057D02*
X151771668Y-96098057D01*
X150771668Y-95669486D02*
X151295478Y-95669486D01*
X151295478Y-95669486D02*
X151390716Y-95717105D01*
X151390716Y-95717105D02*
X151438335Y-95812343D01*
X151438335Y-95812343D02*
X151438335Y-95955200D01*
X151438335Y-95955200D02*
X151390716Y-96050438D01*
X151390716Y-96050438D02*
X151343097Y-96098057D01*
X150771668Y-94764724D02*
X151295478Y-94764724D01*
X151295478Y-94764724D02*
X151390716Y-94812343D01*
X151390716Y-94812343D02*
X151438335Y-94907581D01*
X151438335Y-94907581D02*
X151438335Y-95098057D01*
X151438335Y-95098057D02*
X151390716Y-95193295D01*
X150819288Y-94764724D02*
X150771668Y-94859962D01*
X150771668Y-94859962D02*
X150771668Y-95098057D01*
X150771668Y-95098057D02*
X150819288Y-95193295D01*
X150819288Y-95193295D02*
X150914526Y-95240914D01*
X150914526Y-95240914D02*
X151009764Y-95240914D01*
X151009764Y-95240914D02*
X151105002Y-95193295D01*
X151105002Y-95193295D02*
X151152621Y-95098057D01*
X151152621Y-95098057D02*
X151152621Y-94859962D01*
X151152621Y-94859962D02*
X151200240Y-94764724D01*
X150771668Y-94288533D02*
X151438335Y-94288533D01*
X151247859Y-94288533D02*
X151343097Y-94240914D01*
X151343097Y-94240914D02*
X151390716Y-94193295D01*
X151390716Y-94193295D02*
X151438335Y-94098057D01*
X151438335Y-94098057D02*
X151438335Y-94002819D01*
X150771668Y-93240914D02*
X151771668Y-93240914D01*
X150819288Y-93240914D02*
X150771668Y-93336152D01*
X150771668Y-93336152D02*
X150771668Y-93526628D01*
X150771668Y-93526628D02*
X150819288Y-93621866D01*
X150819288Y-93621866D02*
X150866907Y-93669485D01*
X150866907Y-93669485D02*
X150962145Y-93717104D01*
X150962145Y-93717104D02*
X151247859Y-93717104D01*
X151247859Y-93717104D02*
X151343097Y-93669485D01*
X151343097Y-93669485D02*
X151390716Y-93621866D01*
X151390716Y-93621866D02*
X151438335Y-93526628D01*
X151438335Y-93526628D02*
X151438335Y-93336152D01*
X151438335Y-93336152D02*
X151390716Y-93240914D01*
X151438335Y-92859961D02*
X150771668Y-92669485D01*
X150771668Y-92669485D02*
X151247859Y-92479009D01*
X151247859Y-92479009D02*
X150771668Y-92288533D01*
X150771668Y-92288533D02*
X151438335Y-92098057D01*
X150771668Y-91288533D02*
X151295478Y-91288533D01*
X151295478Y-91288533D02*
X151390716Y-91336152D01*
X151390716Y-91336152D02*
X151438335Y-91431390D01*
X151438335Y-91431390D02*
X151438335Y-91621866D01*
X151438335Y-91621866D02*
X151390716Y-91717104D01*
X150819288Y-91288533D02*
X150771668Y-91383771D01*
X150771668Y-91383771D02*
X150771668Y-91621866D01*
X150771668Y-91621866D02*
X150819288Y-91717104D01*
X150819288Y-91717104D02*
X150914526Y-91764723D01*
X150914526Y-91764723D02*
X151009764Y-91764723D01*
X151009764Y-91764723D02*
X151105002Y-91717104D01*
X151105002Y-91717104D02*
X151152621Y-91621866D01*
X151152621Y-91621866D02*
X151152621Y-91383771D01*
X151152621Y-91383771D02*
X151200240Y-91288533D01*
X150771668Y-90812342D02*
X151438335Y-90812342D01*
X151247859Y-90812342D02*
X151343097Y-90764723D01*
X151343097Y-90764723D02*
X151390716Y-90717104D01*
X151390716Y-90717104D02*
X151438335Y-90621866D01*
X151438335Y-90621866D02*
X151438335Y-90526628D01*
X150819288Y-89812342D02*
X150771668Y-89907580D01*
X150771668Y-89907580D02*
X150771668Y-90098056D01*
X150771668Y-90098056D02*
X150819288Y-90193294D01*
X150819288Y-90193294D02*
X150914526Y-90240913D01*
X150914526Y-90240913D02*
X151295478Y-90240913D01*
X151295478Y-90240913D02*
X151390716Y-90193294D01*
X151390716Y-90193294D02*
X151438335Y-90098056D01*
X151438335Y-90098056D02*
X151438335Y-89907580D01*
X151438335Y-89907580D02*
X151390716Y-89812342D01*
X151390716Y-89812342D02*
X151295478Y-89764723D01*
X151295478Y-89764723D02*
X151200240Y-89764723D01*
X151200240Y-89764723D02*
X151105002Y-90240913D01*
X150161724Y-125812344D02*
X150161724Y-125621868D01*
X150161724Y-125621868D02*
X150114105Y-125526630D01*
X150114105Y-125526630D02*
X150018867Y-125431392D01*
X150018867Y-125431392D02*
X149828391Y-125383773D01*
X149828391Y-125383773D02*
X149495058Y-125383773D01*
X149495058Y-125383773D02*
X149304582Y-125431392D01*
X149304582Y-125431392D02*
X149209344Y-125526630D01*
X149209344Y-125526630D02*
X149161724Y-125621868D01*
X149161724Y-125621868D02*
X149161724Y-125812344D01*
X149161724Y-125812344D02*
X149209344Y-125907582D01*
X149209344Y-125907582D02*
X149304582Y-126002820D01*
X149304582Y-126002820D02*
X149495058Y-126050439D01*
X149495058Y-126050439D02*
X149828391Y-126050439D01*
X149828391Y-126050439D02*
X150018867Y-126002820D01*
X150018867Y-126002820D02*
X150114105Y-125907582D01*
X150114105Y-125907582D02*
X150161724Y-125812344D01*
X149161724Y-124955201D02*
X149828391Y-124955201D01*
X149637915Y-124955201D02*
X149733153Y-124907582D01*
X149733153Y-124907582D02*
X149780772Y-124859963D01*
X149780772Y-124859963D02*
X149828391Y-124764725D01*
X149828391Y-124764725D02*
X149828391Y-124669487D01*
X149161724Y-124336153D02*
X149828391Y-124336153D01*
X150161724Y-124336153D02*
X150114105Y-124383772D01*
X150114105Y-124383772D02*
X150066486Y-124336153D01*
X150066486Y-124336153D02*
X150114105Y-124288534D01*
X150114105Y-124288534D02*
X150161724Y-124336153D01*
X150161724Y-124336153D02*
X150066486Y-124336153D01*
X149828391Y-123431392D02*
X149018867Y-123431392D01*
X149018867Y-123431392D02*
X148923629Y-123479011D01*
X148923629Y-123479011D02*
X148876010Y-123526630D01*
X148876010Y-123526630D02*
X148828391Y-123621868D01*
X148828391Y-123621868D02*
X148828391Y-123764725D01*
X148828391Y-123764725D02*
X148876010Y-123859963D01*
X149209344Y-123431392D02*
X149161724Y-123526630D01*
X149161724Y-123526630D02*
X149161724Y-123717106D01*
X149161724Y-123717106D02*
X149209344Y-123812344D01*
X149209344Y-123812344D02*
X149256963Y-123859963D01*
X149256963Y-123859963D02*
X149352201Y-123907582D01*
X149352201Y-123907582D02*
X149637915Y-123907582D01*
X149637915Y-123907582D02*
X149733153Y-123859963D01*
X149733153Y-123859963D02*
X149780772Y-123812344D01*
X149780772Y-123812344D02*
X149828391Y-123717106D01*
X149828391Y-123717106D02*
X149828391Y-123526630D01*
X149828391Y-123526630D02*
X149780772Y-123431392D01*
X149161724Y-122955201D02*
X149828391Y-122955201D01*
X150161724Y-122955201D02*
X150114105Y-123002820D01*
X150114105Y-123002820D02*
X150066486Y-122955201D01*
X150066486Y-122955201D02*
X150114105Y-122907582D01*
X150114105Y-122907582D02*
X150161724Y-122955201D01*
X150161724Y-122955201D02*
X150066486Y-122955201D01*
X149828391Y-122479011D02*
X149161724Y-122479011D01*
X149733153Y-122479011D02*
X149780772Y-122431392D01*
X149780772Y-122431392D02*
X149828391Y-122336154D01*
X149828391Y-122336154D02*
X149828391Y-122193297D01*
X149828391Y-122193297D02*
X149780772Y-122098059D01*
X149780772Y-122098059D02*
X149685534Y-122050440D01*
X149685534Y-122050440D02*
X149161724Y-122050440D01*
X149161724Y-121145678D02*
X149685534Y-121145678D01*
X149685534Y-121145678D02*
X149780772Y-121193297D01*
X149780772Y-121193297D02*
X149828391Y-121288535D01*
X149828391Y-121288535D02*
X149828391Y-121479011D01*
X149828391Y-121479011D02*
X149780772Y-121574249D01*
X149209344Y-121145678D02*
X149161724Y-121240916D01*
X149161724Y-121240916D02*
X149161724Y-121479011D01*
X149161724Y-121479011D02*
X149209344Y-121574249D01*
X149209344Y-121574249D02*
X149304582Y-121621868D01*
X149304582Y-121621868D02*
X149399820Y-121621868D01*
X149399820Y-121621868D02*
X149495058Y-121574249D01*
X149495058Y-121574249D02*
X149542677Y-121479011D01*
X149542677Y-121479011D02*
X149542677Y-121240916D01*
X149542677Y-121240916D02*
X149590296Y-121145678D01*
X149161724Y-120526630D02*
X149209344Y-120621868D01*
X149209344Y-120621868D02*
X149304582Y-120669487D01*
X149304582Y-120669487D02*
X150161724Y-120669487D01*
X149161724Y-118955201D02*
X150161724Y-118955201D01*
X149209344Y-118955201D02*
X149161724Y-119050439D01*
X149161724Y-119050439D02*
X149161724Y-119240915D01*
X149161724Y-119240915D02*
X149209344Y-119336153D01*
X149209344Y-119336153D02*
X149256963Y-119383772D01*
X149256963Y-119383772D02*
X149352201Y-119431391D01*
X149352201Y-119431391D02*
X149637915Y-119431391D01*
X149637915Y-119431391D02*
X149733153Y-119383772D01*
X149733153Y-119383772D02*
X149780772Y-119336153D01*
X149780772Y-119336153D02*
X149828391Y-119240915D01*
X149828391Y-119240915D02*
X149828391Y-119050439D01*
X149828391Y-119050439D02*
X149780772Y-118955201D01*
X149209344Y-118098058D02*
X149161724Y-118193296D01*
X149161724Y-118193296D02*
X149161724Y-118383772D01*
X149161724Y-118383772D02*
X149209344Y-118479010D01*
X149209344Y-118479010D02*
X149304582Y-118526629D01*
X149304582Y-118526629D02*
X149685534Y-118526629D01*
X149685534Y-118526629D02*
X149780772Y-118479010D01*
X149780772Y-118479010D02*
X149828391Y-118383772D01*
X149828391Y-118383772D02*
X149828391Y-118193296D01*
X149828391Y-118193296D02*
X149780772Y-118098058D01*
X149780772Y-118098058D02*
X149685534Y-118050439D01*
X149685534Y-118050439D02*
X149590296Y-118050439D01*
X149590296Y-118050439D02*
X149495058Y-118526629D01*
X149209344Y-117669486D02*
X149161724Y-117574248D01*
X149161724Y-117574248D02*
X149161724Y-117383772D01*
X149161724Y-117383772D02*
X149209344Y-117288534D01*
X149209344Y-117288534D02*
X149304582Y-117240915D01*
X149304582Y-117240915D02*
X149352201Y-117240915D01*
X149352201Y-117240915D02*
X149447439Y-117288534D01*
X149447439Y-117288534D02*
X149495058Y-117383772D01*
X149495058Y-117383772D02*
X149495058Y-117526629D01*
X149495058Y-117526629D02*
X149542677Y-117621867D01*
X149542677Y-117621867D02*
X149637915Y-117669486D01*
X149637915Y-117669486D02*
X149685534Y-117669486D01*
X149685534Y-117669486D02*
X149780772Y-117621867D01*
X149780772Y-117621867D02*
X149828391Y-117526629D01*
X149828391Y-117526629D02*
X149828391Y-117383772D01*
X149828391Y-117383772D02*
X149780772Y-117288534D01*
X149161724Y-116812343D02*
X149828391Y-116812343D01*
X150161724Y-116812343D02*
X150114105Y-116859962D01*
X150114105Y-116859962D02*
X150066486Y-116812343D01*
X150066486Y-116812343D02*
X150114105Y-116764724D01*
X150114105Y-116764724D02*
X150161724Y-116812343D01*
X150161724Y-116812343D02*
X150066486Y-116812343D01*
X149828391Y-115907582D02*
X149018867Y-115907582D01*
X149018867Y-115907582D02*
X148923629Y-115955201D01*
X148923629Y-115955201D02*
X148876010Y-116002820D01*
X148876010Y-116002820D02*
X148828391Y-116098058D01*
X148828391Y-116098058D02*
X148828391Y-116240915D01*
X148828391Y-116240915D02*
X148876010Y-116336153D01*
X149209344Y-115907582D02*
X149161724Y-116002820D01*
X149161724Y-116002820D02*
X149161724Y-116193296D01*
X149161724Y-116193296D02*
X149209344Y-116288534D01*
X149209344Y-116288534D02*
X149256963Y-116336153D01*
X149256963Y-116336153D02*
X149352201Y-116383772D01*
X149352201Y-116383772D02*
X149637915Y-116383772D01*
X149637915Y-116383772D02*
X149733153Y-116336153D01*
X149733153Y-116336153D02*
X149780772Y-116288534D01*
X149780772Y-116288534D02*
X149828391Y-116193296D01*
X149828391Y-116193296D02*
X149828391Y-116002820D01*
X149828391Y-116002820D02*
X149780772Y-115907582D01*
X149828391Y-115431391D02*
X149161724Y-115431391D01*
X149733153Y-115431391D02*
X149780772Y-115383772D01*
X149780772Y-115383772D02*
X149828391Y-115288534D01*
X149828391Y-115288534D02*
X149828391Y-115145677D01*
X149828391Y-115145677D02*
X149780772Y-115050439D01*
X149780772Y-115050439D02*
X149685534Y-115002820D01*
X149685534Y-115002820D02*
X149161724Y-115002820D01*
X149161724Y-113764724D02*
X150161724Y-113764724D01*
X149780772Y-113764724D02*
X149828391Y-113669486D01*
X149828391Y-113669486D02*
X149828391Y-113479010D01*
X149828391Y-113479010D02*
X149780772Y-113383772D01*
X149780772Y-113383772D02*
X149733153Y-113336153D01*
X149733153Y-113336153D02*
X149637915Y-113288534D01*
X149637915Y-113288534D02*
X149352201Y-113288534D01*
X149352201Y-113288534D02*
X149256963Y-113336153D01*
X149256963Y-113336153D02*
X149209344Y-113383772D01*
X149209344Y-113383772D02*
X149161724Y-113479010D01*
X149161724Y-113479010D02*
X149161724Y-113669486D01*
X149161724Y-113669486D02*
X149209344Y-113764724D01*
X149828391Y-112955200D02*
X149161724Y-112717105D01*
X149828391Y-112479010D02*
X149161724Y-112717105D01*
X149161724Y-112717105D02*
X148923629Y-112812343D01*
X148923629Y-112812343D02*
X148876010Y-112859962D01*
X148876010Y-112859962D02*
X148828391Y-112955200D01*
X149161724Y-111336152D02*
X149828391Y-111336152D01*
X149733153Y-111336152D02*
X149780772Y-111288533D01*
X149780772Y-111288533D02*
X149828391Y-111193295D01*
X149828391Y-111193295D02*
X149828391Y-111050438D01*
X149828391Y-111050438D02*
X149780772Y-110955200D01*
X149780772Y-110955200D02*
X149685534Y-110907581D01*
X149685534Y-110907581D02*
X149161724Y-110907581D01*
X149685534Y-110907581D02*
X149780772Y-110859962D01*
X149780772Y-110859962D02*
X149828391Y-110764724D01*
X149828391Y-110764724D02*
X149828391Y-110621867D01*
X149828391Y-110621867D02*
X149780772Y-110526628D01*
X149780772Y-110526628D02*
X149685534Y-110479009D01*
X149685534Y-110479009D02*
X149161724Y-110479009D01*
X149161724Y-109859962D02*
X149209344Y-109955200D01*
X149209344Y-109955200D02*
X149256963Y-110002819D01*
X149256963Y-110002819D02*
X149352201Y-110050438D01*
X149352201Y-110050438D02*
X149637915Y-110050438D01*
X149637915Y-110050438D02*
X149733153Y-110002819D01*
X149733153Y-110002819D02*
X149780772Y-109955200D01*
X149780772Y-109955200D02*
X149828391Y-109859962D01*
X149828391Y-109859962D02*
X149828391Y-109717105D01*
X149828391Y-109717105D02*
X149780772Y-109621867D01*
X149780772Y-109621867D02*
X149733153Y-109574248D01*
X149733153Y-109574248D02*
X149637915Y-109526629D01*
X149637915Y-109526629D02*
X149352201Y-109526629D01*
X149352201Y-109526629D02*
X149256963Y-109574248D01*
X149256963Y-109574248D02*
X149209344Y-109621867D01*
X149209344Y-109621867D02*
X149161724Y-109717105D01*
X149161724Y-109717105D02*
X149161724Y-109859962D01*
X149828391Y-109193295D02*
X149828391Y-108669486D01*
X149828391Y-108669486D02*
X149161724Y-109193295D01*
X149161724Y-109193295D02*
X149161724Y-108669486D01*
X149828391Y-108383771D02*
X149828391Y-107859962D01*
X149828391Y-107859962D02*
X149161724Y-108383771D01*
X149161724Y-108383771D02*
X149161724Y-107859962D01*
X149828391Y-107574247D02*
X149161724Y-107383771D01*
X149161724Y-107383771D02*
X149637915Y-107193295D01*
X149637915Y-107193295D02*
X149161724Y-107002819D01*
X149161724Y-107002819D02*
X149828391Y-106812343D01*
X149161724Y-106002819D02*
X149685534Y-106002819D01*
X149685534Y-106002819D02*
X149780772Y-106050438D01*
X149780772Y-106050438D02*
X149828391Y-106145676D01*
X149828391Y-106145676D02*
X149828391Y-106336152D01*
X149828391Y-106336152D02*
X149780772Y-106431390D01*
X149209344Y-106002819D02*
X149161724Y-106098057D01*
X149161724Y-106098057D02*
X149161724Y-106336152D01*
X149161724Y-106336152D02*
X149209344Y-106431390D01*
X149209344Y-106431390D02*
X149304582Y-106479009D01*
X149304582Y-106479009D02*
X149399820Y-106479009D01*
X149399820Y-106479009D02*
X149495058Y-106431390D01*
X149495058Y-106431390D02*
X149542677Y-106336152D01*
X149542677Y-106336152D02*
X149542677Y-106098057D01*
X149542677Y-106098057D02*
X149590296Y-106002819D01*
X149161724Y-105383771D02*
X149209344Y-105479009D01*
X149209344Y-105479009D02*
X149304582Y-105526628D01*
X149304582Y-105526628D02*
X150161724Y-105526628D01*
X149161724Y-104574247D02*
X150161724Y-104574247D01*
X149209344Y-104574247D02*
X149161724Y-104669485D01*
X149161724Y-104669485D02*
X149161724Y-104859961D01*
X149161724Y-104859961D02*
X149209344Y-104955199D01*
X149209344Y-104955199D02*
X149256963Y-105002818D01*
X149256963Y-105002818D02*
X149352201Y-105050437D01*
X149352201Y-105050437D02*
X149637915Y-105050437D01*
X149637915Y-105050437D02*
X149733153Y-105002818D01*
X149733153Y-105002818D02*
X149780772Y-104955199D01*
X149780772Y-104955199D02*
X149828391Y-104859961D01*
X149828391Y-104859961D02*
X149828391Y-104669485D01*
X149828391Y-104669485D02*
X149780772Y-104574247D01*
X148218447Y-126145677D02*
X148218447Y-125764725D01*
X147551780Y-126002820D02*
X148408923Y-126002820D01*
X148408923Y-126002820D02*
X148504161Y-125955201D01*
X148504161Y-125955201D02*
X148551780Y-125859963D01*
X148551780Y-125859963D02*
X148551780Y-125764725D01*
X148218447Y-125002820D02*
X147551780Y-125002820D01*
X148218447Y-125431391D02*
X147694638Y-125431391D01*
X147694638Y-125431391D02*
X147599400Y-125383772D01*
X147599400Y-125383772D02*
X147551780Y-125288534D01*
X147551780Y-125288534D02*
X147551780Y-125145677D01*
X147551780Y-125145677D02*
X147599400Y-125050439D01*
X147599400Y-125050439D02*
X147647019Y-125002820D01*
X148218447Y-124526629D02*
X147361304Y-124526629D01*
X147361304Y-124526629D02*
X147266066Y-124574248D01*
X147266066Y-124574248D02*
X147218447Y-124669486D01*
X147218447Y-124669486D02*
X147218447Y-124717105D01*
X148551780Y-124526629D02*
X148504161Y-124574248D01*
X148504161Y-124574248D02*
X148456542Y-124526629D01*
X148456542Y-124526629D02*
X148504161Y-124479010D01*
X148504161Y-124479010D02*
X148551780Y-124526629D01*
X148551780Y-124526629D02*
X148456542Y-124526629D01*
X147551780Y-124050439D02*
X148218447Y-124050439D01*
X148551780Y-124050439D02*
X148504161Y-124098058D01*
X148504161Y-124098058D02*
X148456542Y-124050439D01*
X148456542Y-124050439D02*
X148504161Y-124002820D01*
X148504161Y-124002820D02*
X148551780Y-124050439D01*
X148551780Y-124050439D02*
X148456542Y-124050439D01*
X148218447Y-123574249D02*
X147551780Y-123574249D01*
X148123209Y-123574249D02*
X148170828Y-123526630D01*
X148170828Y-123526630D02*
X148218447Y-123431392D01*
X148218447Y-123431392D02*
X148218447Y-123288535D01*
X148218447Y-123288535D02*
X148170828Y-123193297D01*
X148170828Y-123193297D02*
X148075590Y-123145678D01*
X148075590Y-123145678D02*
X147551780Y-123145678D01*
X147599400Y-122288535D02*
X147551780Y-122383773D01*
X147551780Y-122383773D02*
X147551780Y-122574249D01*
X147551780Y-122574249D02*
X147599400Y-122669487D01*
X147599400Y-122669487D02*
X147694638Y-122717106D01*
X147694638Y-122717106D02*
X148075590Y-122717106D01*
X148075590Y-122717106D02*
X148170828Y-122669487D01*
X148170828Y-122669487D02*
X148218447Y-122574249D01*
X148218447Y-122574249D02*
X148218447Y-122383773D01*
X148218447Y-122383773D02*
X148170828Y-122288535D01*
X148170828Y-122288535D02*
X148075590Y-122240916D01*
X148075590Y-122240916D02*
X147980352Y-122240916D01*
X147980352Y-122240916D02*
X147885114Y-122717106D01*
X148218447Y-121955201D02*
X148218447Y-121574249D01*
X148551780Y-121812344D02*
X147694638Y-121812344D01*
X147694638Y-121812344D02*
X147599400Y-121764725D01*
X147599400Y-121764725D02*
X147551780Y-121669487D01*
X147551780Y-121669487D02*
X147551780Y-121574249D01*
X148218447Y-121336153D02*
X147551780Y-121145677D01*
X147551780Y-121145677D02*
X148027971Y-120955201D01*
X148027971Y-120955201D02*
X147551780Y-120764725D01*
X147551780Y-120764725D02*
X148218447Y-120574249D01*
X147551780Y-120193296D02*
X148218447Y-120193296D01*
X148551780Y-120193296D02*
X148504161Y-120240915D01*
X148504161Y-120240915D02*
X148456542Y-120193296D01*
X148456542Y-120193296D02*
X148504161Y-120145677D01*
X148504161Y-120145677D02*
X148551780Y-120193296D01*
X148551780Y-120193296D02*
X148456542Y-120193296D01*
X148218447Y-119859963D02*
X148218447Y-119479011D01*
X147551780Y-119717106D02*
X148408923Y-119717106D01*
X148408923Y-119717106D02*
X148504161Y-119669487D01*
X148504161Y-119669487D02*
X148551780Y-119574249D01*
X148551780Y-119574249D02*
X148551780Y-119479011D01*
X147551780Y-119145677D02*
X148218447Y-119145677D01*
X148551780Y-119145677D02*
X148504161Y-119193296D01*
X148504161Y-119193296D02*
X148456542Y-119145677D01*
X148456542Y-119145677D02*
X148504161Y-119098058D01*
X148504161Y-119098058D02*
X148551780Y-119145677D01*
X148551780Y-119145677D02*
X148456542Y-119145677D01*
X147647019Y-118669487D02*
X147599400Y-118621868D01*
X147599400Y-118621868D02*
X147551780Y-118669487D01*
X147551780Y-118669487D02*
X147599400Y-118717106D01*
X147599400Y-118717106D02*
X147647019Y-118669487D01*
X147647019Y-118669487D02*
X147551780Y-118669487D01*
X148218447Y-117764726D02*
X147408923Y-117764726D01*
X147408923Y-117764726D02*
X147313685Y-117812345D01*
X147313685Y-117812345D02*
X147266066Y-117859964D01*
X147266066Y-117859964D02*
X147218447Y-117955202D01*
X147218447Y-117955202D02*
X147218447Y-118098059D01*
X147218447Y-118098059D02*
X147266066Y-118193297D01*
X147599400Y-117764726D02*
X147551780Y-117859964D01*
X147551780Y-117859964D02*
X147551780Y-118050440D01*
X147551780Y-118050440D02*
X147599400Y-118145678D01*
X147599400Y-118145678D02*
X147647019Y-118193297D01*
X147647019Y-118193297D02*
X147742257Y-118240916D01*
X147742257Y-118240916D02*
X148027971Y-118240916D01*
X148027971Y-118240916D02*
X148123209Y-118193297D01*
X148123209Y-118193297D02*
X148170828Y-118145678D01*
X148170828Y-118145678D02*
X148218447Y-118050440D01*
X148218447Y-118050440D02*
X148218447Y-117859964D01*
X148218447Y-117859964D02*
X148170828Y-117764726D01*
X147551780Y-117288535D02*
X148218447Y-117288535D01*
X148551780Y-117288535D02*
X148504161Y-117336154D01*
X148504161Y-117336154D02*
X148456542Y-117288535D01*
X148456542Y-117288535D02*
X148504161Y-117240916D01*
X148504161Y-117240916D02*
X148551780Y-117288535D01*
X148551780Y-117288535D02*
X148456542Y-117288535D01*
X148218447Y-116955202D02*
X148218447Y-116574250D01*
X148551780Y-116812345D02*
X147694638Y-116812345D01*
X147694638Y-116812345D02*
X147599400Y-116764726D01*
X147599400Y-116764726D02*
X147551780Y-116669488D01*
X147551780Y-116669488D02*
X147551780Y-116574250D01*
X147551780Y-116240916D02*
X148551780Y-116240916D01*
X147551780Y-115812345D02*
X148075590Y-115812345D01*
X148075590Y-115812345D02*
X148170828Y-115859964D01*
X148170828Y-115859964D02*
X148218447Y-115955202D01*
X148218447Y-115955202D02*
X148218447Y-116098059D01*
X148218447Y-116098059D02*
X148170828Y-116193297D01*
X148170828Y-116193297D02*
X148123209Y-116240916D01*
X148218447Y-114907583D02*
X147551780Y-114907583D01*
X148218447Y-115336154D02*
X147694638Y-115336154D01*
X147694638Y-115336154D02*
X147599400Y-115288535D01*
X147599400Y-115288535D02*
X147551780Y-115193297D01*
X147551780Y-115193297D02*
X147551780Y-115050440D01*
X147551780Y-115050440D02*
X147599400Y-114955202D01*
X147599400Y-114955202D02*
X147647019Y-114907583D01*
X147551780Y-114431392D02*
X148551780Y-114431392D01*
X148170828Y-114431392D02*
X148218447Y-114336154D01*
X148218447Y-114336154D02*
X148218447Y-114145678D01*
X148218447Y-114145678D02*
X148170828Y-114050440D01*
X148170828Y-114050440D02*
X148123209Y-114002821D01*
X148123209Y-114002821D02*
X148027971Y-113955202D01*
X148027971Y-113955202D02*
X147742257Y-113955202D01*
X147742257Y-113955202D02*
X147647019Y-114002821D01*
X147647019Y-114002821D02*
X147599400Y-114050440D01*
X147599400Y-114050440D02*
X147551780Y-114145678D01*
X147551780Y-114145678D02*
X147551780Y-114336154D01*
X147551780Y-114336154D02*
X147599400Y-114431392D01*
X147647019Y-113526630D02*
X147599400Y-113479011D01*
X147599400Y-113479011D02*
X147551780Y-113526630D01*
X147551780Y-113526630D02*
X147599400Y-113574249D01*
X147599400Y-113574249D02*
X147647019Y-113526630D01*
X147647019Y-113526630D02*
X147551780Y-113526630D01*
X147551780Y-113050440D02*
X148218447Y-113050440D01*
X148551780Y-113050440D02*
X148504161Y-113098059D01*
X148504161Y-113098059D02*
X148456542Y-113050440D01*
X148456542Y-113050440D02*
X148504161Y-113002821D01*
X148504161Y-113002821D02*
X148551780Y-113050440D01*
X148551780Y-113050440D02*
X148456542Y-113050440D01*
X147551780Y-112431393D02*
X147599400Y-112526631D01*
X147599400Y-112526631D02*
X147647019Y-112574250D01*
X147647019Y-112574250D02*
X147742257Y-112621869D01*
X147742257Y-112621869D02*
X148027971Y-112621869D01*
X148027971Y-112621869D02*
X148123209Y-112574250D01*
X148123209Y-112574250D02*
X148170828Y-112526631D01*
X148170828Y-112526631D02*
X148218447Y-112431393D01*
X148218447Y-112431393D02*
X148218447Y-112288536D01*
X148218447Y-112288536D02*
X148170828Y-112193298D01*
X148170828Y-112193298D02*
X148123209Y-112145679D01*
X148123209Y-112145679D02*
X148027971Y-112098060D01*
X148027971Y-112098060D02*
X147742257Y-112098060D01*
X147742257Y-112098060D02*
X147647019Y-112145679D01*
X147647019Y-112145679D02*
X147599400Y-112193298D01*
X147599400Y-112193298D02*
X147551780Y-112288536D01*
X147551780Y-112288536D02*
X147551780Y-112431393D01*
X123372380Y-130629819D02*
X123372380Y-129629819D01*
X122896190Y-129963152D02*
X122896190Y-130629819D01*
X122896190Y-130058390D02*
X122848571Y-130010771D01*
X122848571Y-130010771D02*
X122753333Y-129963152D01*
X122753333Y-129963152D02*
X122610476Y-129963152D01*
X122610476Y-129963152D02*
X122515238Y-130010771D01*
X122515238Y-130010771D02*
X122467619Y-130106009D01*
X122467619Y-130106009D02*
X122467619Y-130629819D01*
X108783333Y-129629819D02*
X108592857Y-129629819D01*
X108592857Y-129629819D02*
X108497619Y-129677438D01*
X108497619Y-129677438D02*
X108402381Y-129772676D01*
X108402381Y-129772676D02*
X108354762Y-129963152D01*
X108354762Y-129963152D02*
X108354762Y-130296485D01*
X108354762Y-130296485D02*
X108402381Y-130486961D01*
X108402381Y-130486961D02*
X108497619Y-130582200D01*
X108497619Y-130582200D02*
X108592857Y-130629819D01*
X108592857Y-130629819D02*
X108783333Y-130629819D01*
X108783333Y-130629819D02*
X108878571Y-130582200D01*
X108878571Y-130582200D02*
X108973809Y-130486961D01*
X108973809Y-130486961D02*
X109021428Y-130296485D01*
X109021428Y-130296485D02*
X109021428Y-129963152D01*
X109021428Y-129963152D02*
X108973809Y-129772676D01*
X108973809Y-129772676D02*
X108878571Y-129677438D01*
X108878571Y-129677438D02*
X108783333Y-129629819D01*
X107497619Y-129963152D02*
X107497619Y-130629819D01*
X107926190Y-129963152D02*
X107926190Y-130486961D01*
X107926190Y-130486961D02*
X107878571Y-130582200D01*
X107878571Y-130582200D02*
X107783333Y-130629819D01*
X107783333Y-130629819D02*
X107640476Y-130629819D01*
X107640476Y-130629819D02*
X107545238Y-130582200D01*
X107545238Y-130582200D02*
X107497619Y-130534580D01*
X107164285Y-129963152D02*
X106783333Y-129963152D01*
X107021428Y-129629819D02*
X107021428Y-130486961D01*
X107021428Y-130486961D02*
X106973809Y-130582200D01*
X106973809Y-130582200D02*
X106878571Y-130629819D01*
X106878571Y-130629819D02*
X106783333Y-130629819D01*
M02*
