%TF.GenerationSoftware,KiCad,Pcbnew,8.0.5*%
%TF.CreationDate,2024-11-23T20:38:19-06:00*%
%TF.ProjectId,fujinet-adam-devkit-smd,66756a69-6e65-4742-9d61-64616d2d6465,1.2*%
%TF.SameCoordinates,Original*%
%TF.FileFunction,Copper,L2,Bot*%
%TF.FilePolarity,Positive*%
%FSLAX46Y46*%
G04 Gerber Fmt 4.6, Leading zero omitted, Abs format (unit mm)*
G04 Created by KiCad (PCBNEW 8.0.5) date 2024-11-23 20:38:19*
%MOMM*%
%LPD*%
G01*
G04 APERTURE LIST*
%TA.AperFunction,ComponentPad*%
%ADD10R,1.520000X1.520000*%
%TD*%
%TA.AperFunction,ComponentPad*%
%ADD11C,1.520000*%
%TD*%
%TA.AperFunction,ComponentPad*%
%ADD12C,1.308000*%
%TD*%
%TA.AperFunction,ComponentPad*%
%ADD13C,2.100000*%
%TD*%
%TA.AperFunction,ComponentPad*%
%ADD14R,1.530000X1.530000*%
%TD*%
%TA.AperFunction,ComponentPad*%
%ADD15C,1.530000*%
%TD*%
%TA.AperFunction,ComponentPad*%
%ADD16R,1.800000X1.800000*%
%TD*%
%TA.AperFunction,ComponentPad*%
%ADD17C,1.800000*%
%TD*%
%TA.AperFunction,ViaPad*%
%ADD18C,0.800000*%
%TD*%
%TA.AperFunction,ViaPad*%
%ADD19C,1.000000*%
%TD*%
%TA.AperFunction,ViaPad*%
%ADD20C,0.600000*%
%TD*%
%TA.AperFunction,Conductor*%
%ADD21C,0.250000*%
%TD*%
%TA.AperFunction,Conductor*%
%ADD22C,0.700000*%
%TD*%
%TA.AperFunction,Conductor*%
%ADD23C,0.500000*%
%TD*%
G04 APERTURE END LIST*
D10*
%TO.P,J1,1*%
%TO.N,/ADAMNET_DATA*%
X119380000Y-117094000D03*
D11*
%TO.P,J1,2*%
%TO.N,/ADAMNET_RESET*%
X120650000Y-119634000D03*
%TO.P,J1,3*%
%TO.N,GND*%
X121920000Y-117094000D03*
%TO.P,J1,4*%
X123190000Y-119634000D03*
%TO.P,J1,5*%
X124460000Y-117094000D03*
%TO.P,J1,6*%
%TO.N,/ADAMNET_5V*%
X125730000Y-119634000D03*
%TD*%
D12*
%TO.P,S1,1,1*%
%TO.N,Net-(D4-A)*%
X142126200Y-130175000D03*
%TO.P,S1,2,2*%
%TO.N,unconnected-(S1-Pad2)*%
X146126200Y-130175000D03*
%TO.P,S1,COM,COM*%
%TO.N,/ADAMNET_5V*%
X144126200Y-130175000D03*
D13*
%TO.P,S1,M1*%
%TO.N,N/C*%
X139976200Y-130175000D03*
%TO.P,S1,M2*%
X148276200Y-130175000D03*
%TD*%
D14*
%TO.P,U1,1,3V3*%
%TO.N,+3.3V*%
X131445000Y-84455000D03*
D15*
%TO.P,U1,2,EN*%
%TO.N,unconnected-(U1-EN-Pad2)*%
X131445000Y-86995000D03*
%TO.P,U1,3,SENSOR_VP*%
%TO.N,unconnected-(U1-SENSOR_VP-Pad3)*%
X131445000Y-89535000D03*
%TO.P,U1,4,SENSOR_VN*%
%TO.N,unconnected-(U1-SENSOR_VN-Pad4)*%
X131445000Y-92075000D03*
%TO.P,U1,5,IO34*%
%TO.N,/IO34*%
X131445000Y-94615000D03*
%TO.P,U1,6,IO35*%
%TO.N,Net-(U1-IO35)*%
X131445000Y-97155000D03*
%TO.P,U1,7,IO32*%
%TO.N,unconnected-(U1-IO32-Pad7)*%
X131445000Y-99695000D03*
%TO.P,U1,8,IO33*%
%TO.N,/ADAMNET_DATA*%
X131445000Y-102235000D03*
%TO.P,U1,9,IO25*%
%TO.N,unconnected-(U1-IO25-Pad9)*%
X131445000Y-104775000D03*
%TO.P,U1,10,IO26*%
%TO.N,Net-(U1-IO26)*%
X131445000Y-107315000D03*
%TO.P,U1,11,IO27*%
%TO.N,unconnected-(U1-IO27-Pad11)*%
X131445000Y-109855000D03*
%TO.P,U1,12,IO14*%
%TO.N,/IO14{slash}TMS*%
X131445000Y-112395000D03*
%TO.P,U1,13,IO12*%
%TO.N,unconnected-(U1-IO12-Pad13)*%
X131445000Y-114935000D03*
%TO.P,U1,14,GND1*%
%TO.N,GND*%
X131445000Y-117475000D03*
%TO.P,U1,15,IO13*%
%TO.N,/IO13{slash}LED3{slash}TCK*%
X131445000Y-120015000D03*
%TO.P,U1,16,SD2*%
%TO.N,unconnected-(U1-SD2-Pad16)*%
X131445000Y-122555000D03*
%TO.P,U1,17,SD3*%
%TO.N,unconnected-(U1-SD3-Pad17)*%
X131445000Y-125095000D03*
%TO.P,U1,18,CMD*%
%TO.N,unconnected-(U1-CMD-Pad18)*%
X131445000Y-127635000D03*
%TO.P,U1,19,EXT_5V*%
%TO.N,+5V*%
X131445000Y-130175000D03*
%TO.P,U1,20,CLK*%
%TO.N,unconnected-(U1-CLK-Pad20)*%
X156845000Y-130175000D03*
%TO.P,U1,21,SD0*%
%TO.N,unconnected-(U1-SD0-Pad21)*%
X156845000Y-127635000D03*
%TO.P,U1,22,SD1*%
%TO.N,unconnected-(U1-SD1-Pad22)*%
X156845000Y-125095000D03*
%TO.P,U1,23,IO15*%
%TO.N,/IO15{slash}TDO*%
X156845000Y-122555000D03*
%TO.P,U1,24,IO2*%
%TO.N,/IO2{slash}LED1*%
X156845000Y-120015000D03*
%TO.P,U1,25,IO0*%
%TO.N,/IO0*%
X156845000Y-117475000D03*
%TO.P,U1,26,IO4*%
%TO.N,/IO4{slash}LED2*%
X156845000Y-114935000D03*
%TO.P,U1,27,IO16*%
%TO.N,unconnected-(U1-IO16-Pad27)*%
X156845000Y-112395000D03*
%TO.P,U1,28,IO17*%
%TO.N,unconnected-(U1-IO17-Pad28)*%
X156845000Y-109855000D03*
%TO.P,U1,29,IO5*%
%TO.N,/IO5{slash}SPI_CS*%
X156845000Y-107315000D03*
%TO.P,U1,30,IO18*%
%TO.N,/IO18{slash}SPI_CLK*%
X156845000Y-104775000D03*
%TO.P,U1,31,IO19*%
%TO.N,/IO19{slash}SPI_MISO*%
X156845000Y-102235000D03*
%TO.P,U1,32,GND2*%
%TO.N,GND*%
X156845000Y-99695000D03*
%TO.P,U1,33,IO21*%
%TO.N,/IO21{slash}ADAMNET_TX*%
X156845000Y-97155000D03*
%TO.P,U1,34,RXD0*%
%TO.N,unconnected-(U1-RXD0-Pad34)*%
X156845000Y-94615000D03*
%TO.P,U1,35,TXD0*%
%TO.N,unconnected-(U1-TXD0-Pad35)*%
X156845000Y-92075000D03*
%TO.P,U1,36,IO22*%
%TO.N,unconnected-(U1-IO22-Pad36)*%
X156845000Y-89535000D03*
%TO.P,U1,37,IO23*%
%TO.N,/IO23{slash}SPI_MOSI*%
X156845000Y-86995000D03*
%TO.P,U1,38,GND3*%
%TO.N,GND*%
X156845000Y-84455000D03*
%TD*%
D16*
%TO.P,D2,1,K*%
%TO.N,Net-(D2-K)*%
X115887500Y-111755000D03*
D17*
%TO.P,D2,2,A*%
%TO.N,+3.3V*%
X115887500Y-114295000D03*
%TD*%
D10*
%TO.P,J2,1*%
%TO.N,/ADAMNET_5V*%
X104526000Y-117094000D03*
D11*
%TO.P,J2,2*%
%TO.N,GND*%
X105796000Y-119634000D03*
%TO.P,J2,3*%
X107066000Y-117094000D03*
%TO.P,J2,4*%
X108336000Y-119634000D03*
%TO.P,J2,5*%
%TO.N,/ADAMNET_RESET*%
X109606000Y-117094000D03*
%TO.P,J2,6*%
%TO.N,/ADAMNET_DATA*%
X110876000Y-119634000D03*
%TD*%
D16*
%TO.P,D1,1,K*%
%TO.N,Net-(D1-K)*%
X126365000Y-111755000D03*
D17*
%TO.P,D1,2,A*%
%TO.N,+3.3V*%
X126365000Y-114295000D03*
%TD*%
D16*
%TO.P,D3,1,K*%
%TO.N,Net-(D3-K)*%
X105410000Y-111760000D03*
D17*
%TO.P,D3,2,A*%
%TO.N,+3.3V*%
X105410000Y-114300000D03*
%TD*%
D18*
%TO.N,+3.3V*%
X137795000Y-85725000D03*
D19*
X115824000Y-101092000D03*
D18*
X110490000Y-106045000D03*
X137795000Y-95885000D03*
X137795000Y-88265000D03*
X137795000Y-90805000D03*
X137795000Y-93345000D03*
X137795000Y-98425000D03*
D20*
%TO.N,/ADAMNET_5V*%
X139700000Y-114300000D03*
X143510000Y-98425000D03*
%TO.N,Net-(D5-K)*%
X146431000Y-115697000D03*
X146431000Y-103124000D03*
D18*
%TO.N,GND*%
X149479000Y-106934000D03*
D20*
X154432000Y-122301000D03*
D18*
X127635000Y-130810000D03*
D19*
X136906000Y-103505000D03*
D18*
X146050000Y-90678000D03*
D20*
X113157000Y-106045000D03*
D18*
X109728000Y-112395000D03*
D20*
X123571000Y-106045000D03*
D18*
X120777000Y-101346000D03*
D20*
X102616000Y-106045000D03*
D18*
X113030000Y-130810000D03*
X146050000Y-88138000D03*
X117475000Y-130810000D03*
X141605000Y-117475000D03*
X127381000Y-91186000D03*
X128778000Y-102997000D03*
X119888000Y-112395000D03*
X102235000Y-130810000D03*
X112014000Y-108331000D03*
D20*
X133350000Y-122809000D03*
D18*
X141605000Y-122555000D03*
D19*
X142621000Y-94234000D03*
D18*
X108966000Y-108331000D03*
D19*
X152781000Y-98044000D03*
D18*
X113284000Y-101346000D03*
X139700000Y-120015000D03*
X149479000Y-109855000D03*
D20*
%TO.N,/ADAMNET_DATA*%
X133350000Y-113665000D03*
%TO.N,Net-(J3-DAT1)*%
X126238000Y-96012000D03*
X124841000Y-101346000D03*
%TO.N,/IO5{slash}SPI_CS*%
X108331000Y-101473000D03*
X154940000Y-86995000D03*
X108458000Y-88265000D03*
%TO.N,/IO23{slash}SPI_MOSI*%
X110744000Y-89154000D03*
X110744000Y-101473000D03*
%TO.N,/IO19{slash}SPI_MISO*%
X126238000Y-93345000D03*
X155575000Y-92075000D03*
X123190000Y-101346000D03*
%TO.N,Net-(J3-DAT2)*%
X106934000Y-85725000D03*
X106934000Y-101346000D03*
%TO.N,/IO15{slash}TDO*%
X153670000Y-99695000D03*
X126111000Y-101346000D03*
X126238000Y-98425000D03*
%TO.N,Net-(Q1-C)*%
X150495000Y-98551752D03*
X149860000Y-100330000D03*
%TO.N,/IO13{slash}LED3{slash}TCK*%
X112395000Y-123190000D03*
X112395000Y-112295500D03*
%TO.N,Net-(U1-IO26)*%
X134620000Y-112395000D03*
X134620000Y-107315000D03*
%TO.N,/IO0*%
X154940000Y-111125000D03*
%TO.N,/IO34*%
X126301500Y-94678500D03*
X120015000Y-106271500D03*
%TO.N,/IO14{slash}TMS*%
X129641600Y-108077000D03*
%TD*%
D21*
%TO.N,+3.3V*%
X137795000Y-90805000D02*
X137795000Y-88265000D01*
D22*
X115824000Y-101092000D02*
X115824000Y-98806000D01*
D21*
X137795000Y-85725000D02*
X137795000Y-88265000D01*
D22*
X130175000Y-84455000D02*
X131445000Y-84455000D01*
D23*
X110490000Y-109220000D02*
X105410000Y-114300000D01*
D22*
X115824000Y-98806000D02*
X130175000Y-84455000D01*
D23*
X110490000Y-106045000D02*
X110490000Y-109220000D01*
D21*
X137795000Y-93345000D02*
X137795000Y-90805000D01*
X137795000Y-98425000D02*
X137795000Y-95885000D01*
X137795000Y-95885000D02*
X137795000Y-93345000D01*
%TO.N,/ADAMNET_5V*%
X139700000Y-114300000D02*
X143510000Y-110490000D01*
X143510000Y-110490000D02*
X143510000Y-98425000D01*
%TO.N,Net-(D5-K)*%
X146431000Y-115697000D02*
X146431000Y-103124000D01*
%TO.N,/ADAMNET_DATA*%
X133350000Y-104140000D02*
X133350000Y-113665000D01*
X131445000Y-102235000D02*
X133350000Y-104140000D01*
%TO.N,Net-(J3-DAT1)*%
X124841000Y-101346000D02*
X124841000Y-97155000D01*
X124841000Y-97155000D02*
X126111000Y-95885000D01*
%TO.N,/IO5{slash}SPI_CS*%
X154940000Y-86995000D02*
X154940000Y-105410000D01*
X108331000Y-88392000D02*
X108458000Y-88265000D01*
X108331000Y-101473000D02*
X108331000Y-88392000D01*
X154940000Y-105410000D02*
X156845000Y-107315000D01*
%TO.N,/IO23{slash}SPI_MOSI*%
X110744000Y-101473000D02*
X110744000Y-89154000D01*
%TO.N,/IO19{slash}SPI_MISO*%
X123190000Y-101346000D02*
X123190000Y-96393000D01*
X155575000Y-100965000D02*
X155575000Y-92075000D01*
X156845000Y-102235000D02*
X155575000Y-100965000D01*
X123190000Y-96393000D02*
X126238000Y-93345000D01*
%TO.N,Net-(J3-DAT2)*%
X106934000Y-101346000D02*
X106934000Y-85725000D01*
%TO.N,/IO15{slash}TDO*%
X154305000Y-120015000D02*
X156845000Y-122555000D01*
X153670000Y-103505000D02*
X154305000Y-104140000D01*
X154305000Y-104140000D02*
X154305000Y-120015000D01*
X125698000Y-100933000D02*
X125698000Y-98965000D01*
X125698000Y-98965000D02*
X126238000Y-98425000D01*
X126111000Y-101346000D02*
X125698000Y-100933000D01*
X153670000Y-99695000D02*
X153670000Y-103505000D01*
%TO.N,Net-(Q1-C)*%
X149860000Y-99186752D02*
X150495000Y-98551752D01*
X149860000Y-100330000D02*
X149860000Y-99186752D01*
%TO.N,/IO13{slash}LED3{slash}TCK*%
X112395000Y-112295500D02*
X112395000Y-123190000D01*
%TO.N,Net-(U1-IO26)*%
X134620000Y-112395000D02*
X134620000Y-107315000D01*
%TO.N,/IO0*%
X154940000Y-115570000D02*
X156845000Y-117475000D01*
X154940000Y-111125000D02*
X154940000Y-115570000D01*
%TO.N,/IO34*%
X124216000Y-102070500D02*
X120015000Y-106271500D01*
X126301500Y-94678500D02*
X124216000Y-96764000D01*
X124216000Y-96764000D02*
X124216000Y-102070500D01*
%TO.N,/IO14{slash}TMS*%
X129641600Y-110591600D02*
X131445000Y-112395000D01*
X129641600Y-108077000D02*
X129641600Y-110591600D01*
%TD*%
%TA.AperFunction,Conductor*%
%TO.N,GND*%
G36*
X134309039Y-77007085D02*
G01*
X134354794Y-77059889D01*
X134366000Y-77111400D01*
X134366000Y-79392889D01*
X134346315Y-79459928D01*
X134293511Y-79505683D01*
X134224353Y-79515627D01*
X134160797Y-79486602D01*
X134124069Y-79431208D01*
X134071239Y-79268616D01*
X134029747Y-79187184D01*
X133956870Y-79044155D01*
X133937952Y-79018117D01*
X133808798Y-78840350D01*
X133808794Y-78840345D01*
X133630654Y-78662205D01*
X133630649Y-78662201D01*
X133426848Y-78514132D01*
X133426847Y-78514131D01*
X133426845Y-78514130D01*
X133356747Y-78478413D01*
X133202383Y-78399760D01*
X132962785Y-78321910D01*
X132713962Y-78282500D01*
X132462038Y-78282500D01*
X132337626Y-78302205D01*
X132213214Y-78321910D01*
X131973616Y-78399760D01*
X131749151Y-78514132D01*
X131545350Y-78662201D01*
X131545345Y-78662205D01*
X131367205Y-78840345D01*
X131367201Y-78840350D01*
X131219132Y-79044151D01*
X131104760Y-79268616D01*
X131026910Y-79508214D01*
X130987500Y-79757038D01*
X130987500Y-80008961D01*
X131026910Y-80257785D01*
X131104760Y-80497383D01*
X131219132Y-80721848D01*
X131367201Y-80925649D01*
X131367205Y-80925654D01*
X131545345Y-81103794D01*
X131545350Y-81103798D01*
X131723117Y-81232952D01*
X131749155Y-81251870D01*
X131892184Y-81324747D01*
X131973616Y-81366239D01*
X131973618Y-81366239D01*
X131973621Y-81366241D01*
X132213215Y-81444090D01*
X132462038Y-81483500D01*
X132462039Y-81483500D01*
X132713961Y-81483500D01*
X132713962Y-81483500D01*
X132962785Y-81444090D01*
X133202379Y-81366241D01*
X133426845Y-81251870D01*
X133630656Y-81103793D01*
X133808793Y-80925656D01*
X133956870Y-80721845D01*
X134071241Y-80497379D01*
X134124069Y-80334792D01*
X134163507Y-80277116D01*
X134227865Y-80249918D01*
X134296712Y-80261833D01*
X134348187Y-80309077D01*
X134366000Y-80373110D01*
X134366000Y-83058000D01*
X153797000Y-83058000D01*
X153797000Y-79757038D01*
X154101500Y-79757038D01*
X154101500Y-80008961D01*
X154140910Y-80257785D01*
X154218760Y-80497383D01*
X154333132Y-80721848D01*
X154481201Y-80925649D01*
X154481205Y-80925654D01*
X154659345Y-81103794D01*
X154659350Y-81103798D01*
X154837117Y-81232952D01*
X154863155Y-81251870D01*
X155006184Y-81324747D01*
X155087616Y-81366239D01*
X155087618Y-81366239D01*
X155087621Y-81366241D01*
X155327215Y-81444090D01*
X155576038Y-81483500D01*
X155576039Y-81483500D01*
X155827961Y-81483500D01*
X155827962Y-81483500D01*
X156076785Y-81444090D01*
X156316379Y-81366241D01*
X156540845Y-81251870D01*
X156744656Y-81103793D01*
X156922793Y-80925656D01*
X157070870Y-80721845D01*
X157185241Y-80497379D01*
X157263090Y-80257785D01*
X157302500Y-80008962D01*
X157302500Y-79757038D01*
X157263090Y-79508215D01*
X157185241Y-79268621D01*
X157185239Y-79268618D01*
X157185239Y-79268616D01*
X157143747Y-79187184D01*
X157070870Y-79044155D01*
X157051952Y-79018117D01*
X156922798Y-78840350D01*
X156922794Y-78840345D01*
X156744654Y-78662205D01*
X156744649Y-78662201D01*
X156540848Y-78514132D01*
X156540847Y-78514131D01*
X156540845Y-78514130D01*
X156470747Y-78478413D01*
X156316383Y-78399760D01*
X156076785Y-78321910D01*
X155827962Y-78282500D01*
X155576038Y-78282500D01*
X155451626Y-78302205D01*
X155327214Y-78321910D01*
X155087616Y-78399760D01*
X154863151Y-78514132D01*
X154659350Y-78662201D01*
X154659345Y-78662205D01*
X154481205Y-78840345D01*
X154481201Y-78840350D01*
X154333132Y-79044151D01*
X154218760Y-79268616D01*
X154140910Y-79508214D01*
X154101500Y-79757038D01*
X153797000Y-79757038D01*
X153797000Y-77111400D01*
X153816685Y-77044361D01*
X153869489Y-76998606D01*
X153921000Y-76987400D01*
X157960000Y-76987400D01*
X158027039Y-77007085D01*
X158072794Y-77059889D01*
X158084000Y-77111400D01*
X158084000Y-83635529D01*
X158064315Y-83702568D01*
X158011511Y-83748323D01*
X157949193Y-83759057D01*
X157898894Y-83754656D01*
X157336127Y-84317423D01*
X157320245Y-84258147D01*
X157253102Y-84141853D01*
X157158147Y-84046898D01*
X157041853Y-83979755D01*
X156982575Y-83963872D01*
X157545342Y-83401105D01*
X157545341Y-83401103D01*
X157479919Y-83355295D01*
X157279309Y-83261749D01*
X157279300Y-83261745D01*
X157065509Y-83204461D01*
X157065499Y-83204459D01*
X156845001Y-83185168D01*
X156844999Y-83185168D01*
X156624500Y-83204459D01*
X156624490Y-83204461D01*
X156410699Y-83261745D01*
X156410690Y-83261749D01*
X156210084Y-83355293D01*
X156144657Y-83401104D01*
X156707424Y-83963871D01*
X156648147Y-83979755D01*
X156531853Y-84046898D01*
X156436898Y-84141853D01*
X156369755Y-84258147D01*
X156353871Y-84317424D01*
X155791104Y-83754657D01*
X155745293Y-83820084D01*
X155651749Y-84020690D01*
X155651745Y-84020699D01*
X155594461Y-84234490D01*
X155594459Y-84234500D01*
X155575168Y-84454999D01*
X155575168Y-84455000D01*
X155594459Y-84675499D01*
X155594461Y-84675509D01*
X155651745Y-84889300D01*
X155651749Y-84889309D01*
X155745295Y-85089919D01*
X155791103Y-85155341D01*
X155791105Y-85155342D01*
X156353871Y-84592575D01*
X156369755Y-84651853D01*
X156436898Y-84768147D01*
X156531853Y-84863102D01*
X156648147Y-84930245D01*
X156707424Y-84946128D01*
X156144656Y-85508894D01*
X156210083Y-85554706D01*
X156210085Y-85554707D01*
X156333683Y-85612342D01*
X156386122Y-85658514D01*
X156405274Y-85725708D01*
X156385058Y-85792589D01*
X156333683Y-85837106D01*
X156209833Y-85894857D01*
X156028444Y-86021868D01*
X155871868Y-86178444D01*
X155744857Y-86359834D01*
X155721766Y-86409352D01*
X155675593Y-86461790D01*
X155608399Y-86480941D01*
X155541518Y-86460724D01*
X155521704Y-86444626D01*
X155442262Y-86365184D01*
X155289523Y-86269211D01*
X155119254Y-86209631D01*
X155119249Y-86209630D01*
X154940004Y-86189435D01*
X154939996Y-86189435D01*
X154760750Y-86209630D01*
X154760745Y-86209631D01*
X154590476Y-86269211D01*
X154437737Y-86365184D01*
X154310184Y-86492737D01*
X154214211Y-86645476D01*
X154154631Y-86815745D01*
X154154630Y-86815750D01*
X154134435Y-86994996D01*
X154134435Y-86995003D01*
X154154631Y-87174253D01*
X154154631Y-87174254D01*
X154175857Y-87234916D01*
X154181209Y-87255975D01*
X154183691Y-87271246D01*
X154183692Y-87271252D01*
X154183693Y-87271255D01*
X154217988Y-87380610D01*
X154308818Y-87670230D01*
X154314500Y-87707336D01*
X154314500Y-98930196D01*
X154294815Y-98997235D01*
X154242011Y-99042990D01*
X154172853Y-99052934D01*
X154124528Y-99035190D01*
X154019523Y-98969211D01*
X153849254Y-98909631D01*
X153849249Y-98909630D01*
X153670004Y-98889435D01*
X153669996Y-98889435D01*
X153490750Y-98909630D01*
X153490745Y-98909631D01*
X153320476Y-98969211D01*
X153167737Y-99065184D01*
X153040184Y-99192737D01*
X152944211Y-99345476D01*
X152884631Y-99515745D01*
X152884630Y-99515750D01*
X152864435Y-99694996D01*
X152864435Y-99695003D01*
X152884631Y-99874253D01*
X152884631Y-99874254D01*
X152905857Y-99934916D01*
X152911209Y-99955975D01*
X152913691Y-99971246D01*
X152913692Y-99971252D01*
X152913693Y-99971255D01*
X153003711Y-100258289D01*
X153038818Y-100370230D01*
X153044500Y-100407336D01*
X153044500Y-103566608D01*
X153056365Y-103626257D01*
X153056366Y-103626264D01*
X153061910Y-103654140D01*
X153068535Y-103687445D01*
X153115688Y-103801286D01*
X153115688Y-103801287D01*
X153126422Y-103817350D01*
X153144037Y-103843712D01*
X153144038Y-103843715D01*
X153144039Y-103843715D01*
X153184140Y-103903731D01*
X153184141Y-103903732D01*
X153184142Y-103903733D01*
X153271267Y-103990858D01*
X153271268Y-103990858D01*
X153278335Y-103997925D01*
X153278334Y-103997925D01*
X153278338Y-103997928D01*
X153643181Y-104362771D01*
X153676666Y-104424094D01*
X153679500Y-104450452D01*
X153679500Y-120076611D01*
X153703535Y-120197444D01*
X153703540Y-120197461D01*
X153750685Y-120311280D01*
X153750687Y-120311283D01*
X153750688Y-120311286D01*
X153763694Y-120330751D01*
X153784914Y-120362507D01*
X153784915Y-120362509D01*
X153819140Y-120413731D01*
X153819141Y-120413732D01*
X153819142Y-120413733D01*
X153906267Y-120500858D01*
X153906268Y-120500858D01*
X153913335Y-120507925D01*
X153913334Y-120507925D01*
X153913338Y-120507928D01*
X155213880Y-121808471D01*
X155242856Y-121854115D01*
X155554447Y-122718806D01*
X155554448Y-122718809D01*
X155647458Y-122976920D01*
X155650576Y-122986865D01*
X155651276Y-122989478D01*
X155652013Y-122991058D01*
X155656292Y-123001434D01*
X155658526Y-123007634D01*
X155662425Y-123018091D01*
X155662606Y-123018561D01*
X155662611Y-123018573D01*
X155662612Y-123018574D01*
X155690319Y-123078464D01*
X155690320Y-123078466D01*
X155690321Y-123078467D01*
X155693626Y-123084014D01*
X155693471Y-123084105D01*
X155702238Y-123098768D01*
X155744857Y-123190166D01*
X155801028Y-123270386D01*
X155871868Y-123371555D01*
X156028445Y-123528132D01*
X156209833Y-123655142D01*
X156271828Y-123684050D01*
X156333091Y-123712618D01*
X156385531Y-123758790D01*
X156404683Y-123825983D01*
X156384467Y-123892865D01*
X156333091Y-123937382D01*
X156209836Y-123994856D01*
X156209834Y-123994857D01*
X156028444Y-124121868D01*
X155871868Y-124278444D01*
X155744857Y-124459834D01*
X155744856Y-124459836D01*
X155651279Y-124660513D01*
X155651275Y-124660524D01*
X155593965Y-124874407D01*
X155593964Y-124874414D01*
X155574666Y-125094998D01*
X155574666Y-125095001D01*
X155593964Y-125315585D01*
X155593965Y-125315592D01*
X155651275Y-125529475D01*
X155651279Y-125529486D01*
X155692237Y-125617320D01*
X155744858Y-125730167D01*
X155871868Y-125911555D01*
X156028445Y-126068132D01*
X156209833Y-126195142D01*
X156271828Y-126224050D01*
X156333091Y-126252618D01*
X156385531Y-126298790D01*
X156404683Y-126365983D01*
X156384467Y-126432865D01*
X156333091Y-126477382D01*
X156209836Y-126534856D01*
X156209834Y-126534857D01*
X156028444Y-126661868D01*
X155871868Y-126818444D01*
X155744857Y-126999834D01*
X155744856Y-126999836D01*
X155651279Y-127200513D01*
X155651275Y-127200524D01*
X155593965Y-127414407D01*
X155593964Y-127414414D01*
X155574666Y-127634998D01*
X155574666Y-127635001D01*
X155593964Y-127855585D01*
X155593965Y-127855592D01*
X155651275Y-128069475D01*
X155651279Y-128069486D01*
X155744856Y-128270163D01*
X155744858Y-128270167D01*
X155871868Y-128451555D01*
X156028445Y-128608132D01*
X156209833Y-128735142D01*
X156271828Y-128764050D01*
X156333091Y-128792618D01*
X156385531Y-128838790D01*
X156404683Y-128905983D01*
X156384467Y-128972865D01*
X156333091Y-129017382D01*
X156209836Y-129074856D01*
X156209834Y-129074857D01*
X156028444Y-129201868D01*
X155871868Y-129358444D01*
X155744857Y-129539834D01*
X155744856Y-129539836D01*
X155651279Y-129740513D01*
X155651275Y-129740524D01*
X155593965Y-129954407D01*
X155593964Y-129954414D01*
X155574666Y-130174998D01*
X155574666Y-130175001D01*
X155593964Y-130395585D01*
X155593965Y-130395592D01*
X155651275Y-130609475D01*
X155651279Y-130609486D01*
X155719979Y-130756814D01*
X155744858Y-130810167D01*
X155871868Y-130991555D01*
X156028445Y-131148132D01*
X156209833Y-131275142D01*
X156326405Y-131329500D01*
X156410513Y-131368720D01*
X156410515Y-131368720D01*
X156410520Y-131368723D01*
X156624409Y-131426035D01*
X156781974Y-131439820D01*
X156844998Y-131445334D01*
X156845000Y-131445334D01*
X156845002Y-131445334D01*
X156900147Y-131440509D01*
X157065591Y-131426035D01*
X157279480Y-131368723D01*
X157480167Y-131275142D01*
X157661555Y-131148132D01*
X157818132Y-130991555D01*
X157858426Y-130934008D01*
X157913002Y-130890386D01*
X157982501Y-130883193D01*
X158044855Y-130914715D01*
X158080269Y-130974945D01*
X158084000Y-131005134D01*
X158084000Y-132210000D01*
X158064315Y-132277039D01*
X158011511Y-132322794D01*
X157960000Y-132334000D01*
X100423000Y-132334000D01*
X100355961Y-132314315D01*
X100310206Y-132261511D01*
X100299000Y-132210000D01*
X100299000Y-125861065D01*
X100740500Y-125861065D01*
X100740500Y-126106934D01*
X100752114Y-126195143D01*
X100772591Y-126350677D01*
X100821942Y-126534858D01*
X100836222Y-126588152D01*
X100836225Y-126588162D01*
X100925987Y-126804865D01*
X100930306Y-126815292D01*
X101053233Y-127028208D01*
X101053235Y-127028211D01*
X101053236Y-127028212D01*
X101202897Y-127223254D01*
X101202903Y-127223261D01*
X101376738Y-127397096D01*
X101376745Y-127397102D01*
X101491335Y-127485030D01*
X101571792Y-127546767D01*
X101784708Y-127669694D01*
X102011847Y-127763778D01*
X102249323Y-127827409D01*
X102493073Y-127859500D01*
X102493080Y-127859500D01*
X102738920Y-127859500D01*
X102738927Y-127859500D01*
X102982677Y-127827409D01*
X103220153Y-127763778D01*
X103447292Y-127669694D01*
X103660208Y-127546767D01*
X103855256Y-127397101D01*
X104029101Y-127223256D01*
X104178767Y-127028208D01*
X104301694Y-126815292D01*
X104395778Y-126588153D01*
X104459409Y-126350677D01*
X104491500Y-126106927D01*
X104491500Y-125861073D01*
X104459409Y-125617323D01*
X104395778Y-125379847D01*
X104301694Y-125152708D01*
X104178767Y-124939792D01*
X104029101Y-124744744D01*
X104029096Y-124744738D01*
X103855261Y-124570903D01*
X103855254Y-124570897D01*
X103660212Y-124421236D01*
X103660211Y-124421235D01*
X103660208Y-124421233D01*
X103447292Y-124298306D01*
X103447285Y-124298303D01*
X103220162Y-124204225D01*
X103220155Y-124204223D01*
X103220153Y-124204222D01*
X102982677Y-124140591D01*
X102941939Y-124135227D01*
X102738934Y-124108500D01*
X102738927Y-124108500D01*
X102493073Y-124108500D01*
X102493065Y-124108500D01*
X102261059Y-124139045D01*
X102249323Y-124140591D01*
X102064253Y-124190180D01*
X102011847Y-124204222D01*
X102011837Y-124204225D01*
X101784714Y-124298303D01*
X101784705Y-124298307D01*
X101571787Y-124421236D01*
X101376745Y-124570897D01*
X101376738Y-124570903D01*
X101202903Y-124744738D01*
X101202897Y-124744745D01*
X101053236Y-124939787D01*
X100930307Y-125152705D01*
X100930303Y-125152714D01*
X100836225Y-125379837D01*
X100836222Y-125379847D01*
X100772592Y-125617320D01*
X100772590Y-125617331D01*
X100740500Y-125861065D01*
X100299000Y-125861065D01*
X100299000Y-116286135D01*
X103265500Y-116286135D01*
X103265500Y-117901870D01*
X103265501Y-117901876D01*
X103271908Y-117961483D01*
X103322202Y-118096328D01*
X103322206Y-118096335D01*
X103408452Y-118211544D01*
X103408455Y-118211547D01*
X103523664Y-118297793D01*
X103523671Y-118297797D01*
X103658517Y-118348091D01*
X103658516Y-118348091D01*
X103665444Y-118348835D01*
X103718127Y-118354500D01*
X105033294Y-118354499D01*
X105100333Y-118374184D01*
X105146088Y-118426987D01*
X105156032Y-118496146D01*
X105127007Y-118559702D01*
X105104417Y-118580074D01*
X105099248Y-118583693D01*
X105099247Y-118583693D01*
X105769554Y-119254000D01*
X105745972Y-119254000D01*
X105649325Y-119279896D01*
X105562675Y-119329924D01*
X105491924Y-119400675D01*
X105441896Y-119487325D01*
X105416000Y-119583972D01*
X105416000Y-119607554D01*
X104745694Y-118937248D01*
X104700640Y-119001594D01*
X104607466Y-119201404D01*
X104550402Y-119414366D01*
X104550401Y-119414373D01*
X104531187Y-119633998D01*
X104531187Y-119634001D01*
X104550401Y-119853626D01*
X104550402Y-119853634D01*
X104607463Y-120066587D01*
X104607466Y-120066593D01*
X104700638Y-120266402D01*
X104745694Y-120330750D01*
X105416000Y-119660445D01*
X105416000Y-119684028D01*
X105441896Y-119780675D01*
X105491924Y-119867325D01*
X105562675Y-119938076D01*
X105649325Y-119988104D01*
X105745972Y-120014000D01*
X105769553Y-120014000D01*
X105099247Y-120684304D01*
X105163593Y-120729359D01*
X105363406Y-120822533D01*
X105363412Y-120822536D01*
X105576365Y-120879597D01*
X105576373Y-120879598D01*
X105795998Y-120898813D01*
X105796002Y-120898813D01*
X106015626Y-120879598D01*
X106015634Y-120879597D01*
X106228587Y-120822536D01*
X106228598Y-120822532D01*
X106428402Y-120729362D01*
X106428410Y-120729358D01*
X106492751Y-120684305D01*
X106492751Y-120684304D01*
X105822448Y-120014000D01*
X105846028Y-120014000D01*
X105942675Y-119988104D01*
X106029325Y-119938076D01*
X106100076Y-119867325D01*
X106150104Y-119780675D01*
X106176000Y-119684028D01*
X106176000Y-119660447D01*
X106846304Y-120330751D01*
X106846305Y-120330751D01*
X106891358Y-120266410D01*
X106891362Y-120266402D01*
X106953618Y-120132894D01*
X106999790Y-120080454D01*
X107066983Y-120061302D01*
X107133864Y-120081517D01*
X107178382Y-120132894D01*
X107240636Y-120266400D01*
X107285694Y-120330750D01*
X107956000Y-119660445D01*
X107956000Y-119684028D01*
X107981896Y-119780675D01*
X108031924Y-119867325D01*
X108102675Y-119938076D01*
X108189325Y-119988104D01*
X108285972Y-120014000D01*
X108309553Y-120014000D01*
X107639247Y-120684304D01*
X107703593Y-120729359D01*
X107903406Y-120822533D01*
X107903412Y-120822536D01*
X108116365Y-120879597D01*
X108116373Y-120879598D01*
X108335998Y-120898813D01*
X108336002Y-120898813D01*
X108555626Y-120879598D01*
X108555634Y-120879597D01*
X108768587Y-120822536D01*
X108768598Y-120822532D01*
X108968402Y-120729362D01*
X108968410Y-120729358D01*
X109032751Y-120684305D01*
X109032751Y-120684304D01*
X108362448Y-120014000D01*
X108386028Y-120014000D01*
X108482675Y-119988104D01*
X108569325Y-119938076D01*
X108640076Y-119867325D01*
X108690104Y-119780675D01*
X108716000Y-119684028D01*
X108716000Y-119660447D01*
X109386304Y-120330751D01*
X109386305Y-120330751D01*
X109431358Y-120266410D01*
X109431362Y-120266402D01*
X109493342Y-120133486D01*
X109539514Y-120081046D01*
X109606707Y-120061894D01*
X109673588Y-120082109D01*
X109718106Y-120133486D01*
X109780203Y-120266654D01*
X109780207Y-120266662D01*
X109906712Y-120447330D01*
X110062669Y-120603287D01*
X110243337Y-120729792D01*
X110243339Y-120729793D01*
X110243342Y-120729795D01*
X110338162Y-120774010D01*
X110443230Y-120823004D01*
X110443232Y-120823004D01*
X110443237Y-120823007D01*
X110656280Y-120880092D01*
X110813222Y-120893822D01*
X110875998Y-120899315D01*
X110876000Y-120899315D01*
X110876002Y-120899315D01*
X110930930Y-120894509D01*
X111095720Y-120880092D01*
X111308763Y-120823007D01*
X111508658Y-120729795D01*
X111574378Y-120683777D01*
X111640582Y-120661451D01*
X111708350Y-120678461D01*
X111756163Y-120729409D01*
X111769500Y-120785353D01*
X111769500Y-122477662D01*
X111763818Y-122514768D01*
X111638692Y-122913746D01*
X111630344Y-122943528D01*
X111629347Y-122948809D01*
X111628783Y-122948702D01*
X111624349Y-122968684D01*
X111609631Y-123010748D01*
X111609630Y-123010751D01*
X111589435Y-123189996D01*
X111589435Y-123190003D01*
X111609630Y-123369249D01*
X111609631Y-123369254D01*
X111669211Y-123539523D01*
X111765184Y-123692262D01*
X111892738Y-123819816D01*
X112045478Y-123915789D01*
X112187662Y-123965541D01*
X112244438Y-124006263D01*
X112270186Y-124071215D01*
X112256730Y-124139777D01*
X112208343Y-124190180D01*
X112178812Y-124202355D01*
X112171854Y-124204220D01*
X112171837Y-124204225D01*
X111944714Y-124298303D01*
X111944705Y-124298307D01*
X111731787Y-124421236D01*
X111536745Y-124570897D01*
X111536738Y-124570903D01*
X111362903Y-124744738D01*
X111362897Y-124744745D01*
X111213236Y-124939787D01*
X111090307Y-125152705D01*
X111090303Y-125152714D01*
X110996225Y-125379837D01*
X110996222Y-125379847D01*
X110932592Y-125617320D01*
X110932590Y-125617331D01*
X110900500Y-125861065D01*
X110900500Y-126106934D01*
X110912114Y-126195143D01*
X110932591Y-126350677D01*
X110981942Y-126534858D01*
X110996222Y-126588152D01*
X110996225Y-126588162D01*
X111085987Y-126804865D01*
X111090306Y-126815292D01*
X111213233Y-127028208D01*
X111213235Y-127028211D01*
X111213236Y-127028212D01*
X111362897Y-127223254D01*
X111362903Y-127223261D01*
X111536738Y-127397096D01*
X111536745Y-127397102D01*
X111651335Y-127485030D01*
X111731792Y-127546767D01*
X111944708Y-127669694D01*
X112171847Y-127763778D01*
X112409323Y-127827409D01*
X112653073Y-127859500D01*
X112653080Y-127859500D01*
X112898920Y-127859500D01*
X112898927Y-127859500D01*
X113142677Y-127827409D01*
X113380153Y-127763778D01*
X113607292Y-127669694D01*
X113820208Y-127546767D01*
X114015256Y-127397101D01*
X114189101Y-127223256D01*
X114338767Y-127028208D01*
X114461694Y-126815292D01*
X114555778Y-126588153D01*
X114619409Y-126350677D01*
X114651500Y-126106927D01*
X114651500Y-125861073D01*
X114651499Y-125861065D01*
X115594500Y-125861065D01*
X115594500Y-126106934D01*
X115606114Y-126195143D01*
X115626591Y-126350677D01*
X115675942Y-126534858D01*
X115690222Y-126588152D01*
X115690225Y-126588162D01*
X115779987Y-126804865D01*
X115784306Y-126815292D01*
X115907233Y-127028208D01*
X115907235Y-127028211D01*
X115907236Y-127028212D01*
X116056897Y-127223254D01*
X116056903Y-127223261D01*
X116230738Y-127397096D01*
X116230745Y-127397102D01*
X116345335Y-127485030D01*
X116425792Y-127546767D01*
X116638708Y-127669694D01*
X116865847Y-127763778D01*
X117103323Y-127827409D01*
X117347073Y-127859500D01*
X117347080Y-127859500D01*
X117592920Y-127859500D01*
X117592927Y-127859500D01*
X117836677Y-127827409D01*
X118074153Y-127763778D01*
X118301292Y-127669694D01*
X118514208Y-127546767D01*
X118709256Y-127397101D01*
X118883101Y-127223256D01*
X119032767Y-127028208D01*
X119155694Y-126815292D01*
X119249778Y-126588153D01*
X119313409Y-126350677D01*
X119345500Y-126106927D01*
X119345500Y-125861073D01*
X119345499Y-125861065D01*
X125754500Y-125861065D01*
X125754500Y-126106934D01*
X125766114Y-126195143D01*
X125786591Y-126350677D01*
X125835942Y-126534858D01*
X125850222Y-126588152D01*
X125850225Y-126588162D01*
X125939987Y-126804865D01*
X125944306Y-126815292D01*
X126067233Y-127028208D01*
X126067235Y-127028211D01*
X126067236Y-127028212D01*
X126216897Y-127223254D01*
X126216903Y-127223261D01*
X126390738Y-127397096D01*
X126390745Y-127397102D01*
X126505335Y-127485030D01*
X126585792Y-127546767D01*
X126798708Y-127669694D01*
X127025847Y-127763778D01*
X127263323Y-127827409D01*
X127507073Y-127859500D01*
X127507080Y-127859500D01*
X127752920Y-127859500D01*
X127752927Y-127859500D01*
X127996677Y-127827409D01*
X128234153Y-127763778D01*
X128461292Y-127669694D01*
X128674208Y-127546767D01*
X128869256Y-127397101D01*
X129043101Y-127223256D01*
X129192767Y-127028208D01*
X129315694Y-126815292D01*
X129409778Y-126588153D01*
X129473409Y-126350677D01*
X129505500Y-126106927D01*
X129505500Y-125861073D01*
X129473409Y-125617323D01*
X129409778Y-125379847D01*
X129315694Y-125152708D01*
X129192767Y-124939792D01*
X129043101Y-124744744D01*
X129043096Y-124744738D01*
X128869261Y-124570903D01*
X128869254Y-124570897D01*
X128674212Y-124421236D01*
X128674211Y-124421235D01*
X128674208Y-124421233D01*
X128461292Y-124298306D01*
X128461285Y-124298303D01*
X128234162Y-124204225D01*
X128234155Y-124204223D01*
X128234153Y-124204222D01*
X127996677Y-124140591D01*
X127955939Y-124135227D01*
X127752934Y-124108500D01*
X127752927Y-124108500D01*
X127507073Y-124108500D01*
X127507065Y-124108500D01*
X127275059Y-124139045D01*
X127263323Y-124140591D01*
X127078253Y-124190180D01*
X127025847Y-124204222D01*
X127025837Y-124204225D01*
X126798714Y-124298303D01*
X126798705Y-124298307D01*
X126585787Y-124421236D01*
X126390745Y-124570897D01*
X126390738Y-124570903D01*
X126216903Y-124744738D01*
X126216897Y-124744745D01*
X126067236Y-124939787D01*
X125944307Y-125152705D01*
X125944303Y-125152714D01*
X125850225Y-125379837D01*
X125850222Y-125379847D01*
X125786592Y-125617320D01*
X125786590Y-125617331D01*
X125754500Y-125861065D01*
X119345499Y-125861065D01*
X119313409Y-125617323D01*
X119249778Y-125379847D01*
X119155694Y-125152708D01*
X119032767Y-124939792D01*
X118883101Y-124744744D01*
X118883096Y-124744738D01*
X118709261Y-124570903D01*
X118709254Y-124570897D01*
X118514212Y-124421236D01*
X118514211Y-124421235D01*
X118514208Y-124421233D01*
X118301292Y-124298306D01*
X118301285Y-124298303D01*
X118074162Y-124204225D01*
X118074155Y-124204223D01*
X118074153Y-124204222D01*
X117836677Y-124140591D01*
X117795939Y-124135227D01*
X117592934Y-124108500D01*
X117592927Y-124108500D01*
X117347073Y-124108500D01*
X117347065Y-124108500D01*
X117115059Y-124139045D01*
X117103323Y-124140591D01*
X116918253Y-124190180D01*
X116865847Y-124204222D01*
X116865837Y-124204225D01*
X116638714Y-124298303D01*
X116638705Y-124298307D01*
X116425787Y-124421236D01*
X116230745Y-124570897D01*
X116230738Y-124570903D01*
X116056903Y-124744738D01*
X116056897Y-124744745D01*
X115907236Y-124939787D01*
X115784307Y-125152705D01*
X115784303Y-125152714D01*
X115690225Y-125379837D01*
X115690222Y-125379847D01*
X115626592Y-125617320D01*
X115626590Y-125617331D01*
X115594500Y-125861065D01*
X114651499Y-125861065D01*
X114619409Y-125617323D01*
X114555778Y-125379847D01*
X114461694Y-125152708D01*
X114338767Y-124939792D01*
X114189101Y-124744744D01*
X114189096Y-124744738D01*
X114015261Y-124570903D01*
X114015254Y-124570897D01*
X113820212Y-124421236D01*
X113820211Y-124421235D01*
X113820208Y-124421233D01*
X113607292Y-124298306D01*
X113607285Y-124298303D01*
X113380162Y-124204225D01*
X113380155Y-124204223D01*
X113380153Y-124204222D01*
X113142677Y-124140591D01*
X113101939Y-124135227D01*
X112898934Y-124108500D01*
X112898927Y-124108500D01*
X112868238Y-124108500D01*
X112801199Y-124088815D01*
X112755444Y-124036011D01*
X112745500Y-123966853D01*
X112774525Y-123903297D01*
X112802266Y-123879506D01*
X112897262Y-123819816D01*
X113024816Y-123692262D01*
X113120789Y-123539522D01*
X113180368Y-123369255D01*
X113180369Y-123369249D01*
X113200565Y-123190003D01*
X113200565Y-123189996D01*
X113180369Y-123010748D01*
X113165650Y-122968684D01*
X113159140Y-122950081D01*
X113153788Y-122929023D01*
X113151306Y-122913745D01*
X113026182Y-122514769D01*
X113020500Y-122477663D01*
X113020500Y-116286135D01*
X118119500Y-116286135D01*
X118119500Y-117901870D01*
X118119501Y-117901876D01*
X118125908Y-117961483D01*
X118176202Y-118096328D01*
X118176206Y-118096335D01*
X118262452Y-118211544D01*
X118262455Y-118211547D01*
X118377664Y-118297793D01*
X118377671Y-118297797D01*
X118512517Y-118348091D01*
X118512516Y-118348091D01*
X118519444Y-118348835D01*
X118572127Y-118354500D01*
X119886424Y-118354499D01*
X119953463Y-118374184D01*
X119999218Y-118426987D01*
X120009162Y-118496146D01*
X119980137Y-118559702D01*
X119957547Y-118580074D01*
X119836668Y-118664713D01*
X119680713Y-118820668D01*
X119554205Y-119001342D01*
X119554204Y-119001344D01*
X119460994Y-119201235D01*
X119460990Y-119201244D01*
X119403909Y-119414275D01*
X119403907Y-119414285D01*
X119384685Y-119633998D01*
X119384685Y-119634001D01*
X119403907Y-119853714D01*
X119403909Y-119853724D01*
X119460990Y-120066755D01*
X119460995Y-120066769D01*
X119554203Y-120266654D01*
X119554207Y-120266662D01*
X119680712Y-120447330D01*
X119836669Y-120603287D01*
X120017337Y-120729792D01*
X120017339Y-120729793D01*
X120017342Y-120729795D01*
X120112162Y-120774010D01*
X120217230Y-120823004D01*
X120217232Y-120823004D01*
X120217237Y-120823007D01*
X120430280Y-120880092D01*
X120587222Y-120893822D01*
X120649998Y-120899315D01*
X120650000Y-120899315D01*
X120650002Y-120899315D01*
X120704930Y-120894509D01*
X120869720Y-120880092D01*
X121082763Y-120823007D01*
X121282658Y-120729795D01*
X121463329Y-120603288D01*
X121619288Y-120447329D01*
X121745795Y-120266658D01*
X121807895Y-120133481D01*
X121854064Y-120081047D01*
X121921258Y-120061894D01*
X121988139Y-120082109D01*
X122032657Y-120133485D01*
X122094638Y-120266402D01*
X122139694Y-120330750D01*
X122810000Y-119660445D01*
X122810000Y-119684028D01*
X122835896Y-119780675D01*
X122885924Y-119867325D01*
X122956675Y-119938076D01*
X123043325Y-119988104D01*
X123139972Y-120014000D01*
X123163553Y-120014000D01*
X122493247Y-120684304D01*
X122557593Y-120729359D01*
X122757406Y-120822533D01*
X122757412Y-120822536D01*
X122970365Y-120879597D01*
X122970373Y-120879598D01*
X123189998Y-120898813D01*
X123190002Y-120898813D01*
X123409626Y-120879598D01*
X123409634Y-120879597D01*
X123622587Y-120822536D01*
X123622598Y-120822532D01*
X123822402Y-120729362D01*
X123822410Y-120729358D01*
X123886751Y-120684305D01*
X123886751Y-120684304D01*
X123216448Y-120014000D01*
X123240028Y-120014000D01*
X123336675Y-119988104D01*
X123423325Y-119938076D01*
X123494076Y-119867325D01*
X123544104Y-119780675D01*
X123570000Y-119684028D01*
X123570000Y-119660447D01*
X124240304Y-120330751D01*
X124240305Y-120330751D01*
X124285358Y-120266410D01*
X124285362Y-120266402D01*
X124347342Y-120133486D01*
X124393514Y-120081046D01*
X124460707Y-120061894D01*
X124527588Y-120082109D01*
X124572106Y-120133486D01*
X124634203Y-120266654D01*
X124634207Y-120266662D01*
X124760712Y-120447330D01*
X124916669Y-120603287D01*
X125097337Y-120729792D01*
X125097339Y-120729793D01*
X125097342Y-120729795D01*
X125192162Y-120774010D01*
X125297230Y-120823004D01*
X125297232Y-120823004D01*
X125297237Y-120823007D01*
X125510280Y-120880092D01*
X125667222Y-120893822D01*
X125729998Y-120899315D01*
X125730000Y-120899315D01*
X125730002Y-120899315D01*
X125784930Y-120894509D01*
X125949720Y-120880092D01*
X126162763Y-120823007D01*
X126362658Y-120729795D01*
X126543329Y-120603288D01*
X126699288Y-120447329D01*
X126825795Y-120266658D01*
X126919007Y-120066763D01*
X126976092Y-119853720D01*
X126995315Y-119634000D01*
X126990635Y-119580513D01*
X126989822Y-119571222D01*
X126976092Y-119414280D01*
X126919007Y-119201237D01*
X126825795Y-119001343D01*
X126699288Y-118820671D01*
X126699286Y-118820668D01*
X126543330Y-118664712D01*
X126362662Y-118538207D01*
X126362654Y-118538203D01*
X126162769Y-118444995D01*
X126162755Y-118444990D01*
X125949724Y-118387909D01*
X125949722Y-118387908D01*
X125949720Y-118387908D01*
X125949718Y-118387907D01*
X125949714Y-118387907D01*
X125730002Y-118368685D01*
X125729998Y-118368685D01*
X125510285Y-118387907D01*
X125510275Y-118387909D01*
X125297244Y-118444990D01*
X125297235Y-118444994D01*
X125097344Y-118538204D01*
X125097342Y-118538205D01*
X124916668Y-118664713D01*
X124760713Y-118820668D01*
X124634205Y-119001342D01*
X124634204Y-119001344D01*
X124572106Y-119134515D01*
X124525934Y-119186954D01*
X124458740Y-119206106D01*
X124391859Y-119185890D01*
X124347342Y-119134515D01*
X124285360Y-119001595D01*
X124285359Y-119001593D01*
X124240304Y-118937248D01*
X124240304Y-118937247D01*
X123570000Y-119607551D01*
X123570000Y-119583972D01*
X123544104Y-119487325D01*
X123494076Y-119400675D01*
X123423325Y-119329924D01*
X123336675Y-119279896D01*
X123240028Y-119254000D01*
X123216447Y-119254000D01*
X123886751Y-118583694D01*
X123822402Y-118538638D01*
X123622593Y-118445466D01*
X123622587Y-118445463D01*
X123409634Y-118388402D01*
X123409626Y-118388401D01*
X123190002Y-118369187D01*
X123189998Y-118369187D01*
X122970373Y-118388401D01*
X122970366Y-118388402D01*
X122757404Y-118445466D01*
X122557594Y-118538640D01*
X122493248Y-118583694D01*
X123163554Y-119254000D01*
X123139972Y-119254000D01*
X123043325Y-119279896D01*
X122956675Y-119329924D01*
X122885924Y-119400675D01*
X122835896Y-119487325D01*
X122810000Y-119583972D01*
X122810000Y-119607554D01*
X122139694Y-118937248D01*
X122094640Y-119001594D01*
X122032657Y-119134515D01*
X121986484Y-119186954D01*
X121919290Y-119206106D01*
X121852409Y-119185890D01*
X121807894Y-119134515D01*
X121745795Y-119001343D01*
X121619288Y-118820671D01*
X121619286Y-118820668D01*
X121463330Y-118664712D01*
X121282662Y-118538207D01*
X121282654Y-118538203D01*
X121082769Y-118444995D01*
X121082755Y-118444990D01*
X120869724Y-118387909D01*
X120869722Y-118387908D01*
X120869720Y-118387908D01*
X120869718Y-118387907D01*
X120869714Y-118387907D01*
X120650002Y-118368685D01*
X120649997Y-118368685D01*
X120637251Y-118369800D01*
X120568752Y-118356033D01*
X120518569Y-118307417D01*
X120502636Y-118239389D01*
X120526012Y-118173545D01*
X120527113Y-118172049D01*
X120583796Y-118096331D01*
X120634091Y-117961483D01*
X120640500Y-117901873D01*
X120640499Y-117856704D01*
X120660182Y-117789668D01*
X120712985Y-117743912D01*
X120782144Y-117733967D01*
X120845700Y-117762990D01*
X120866074Y-117785582D01*
X120869693Y-117790751D01*
X120869694Y-117790751D01*
X121540000Y-117120445D01*
X121540000Y-117144028D01*
X121565896Y-117240675D01*
X121615924Y-117327325D01*
X121686675Y-117398076D01*
X121773325Y-117448104D01*
X121869972Y-117474000D01*
X121893553Y-117474000D01*
X121223247Y-118144304D01*
X121287593Y-118189359D01*
X121487406Y-118282533D01*
X121487412Y-118282536D01*
X121700365Y-118339597D01*
X121700373Y-118339598D01*
X121919998Y-118358813D01*
X121920002Y-118358813D01*
X122139626Y-118339598D01*
X122139634Y-118339597D01*
X122352587Y-118282536D01*
X122352598Y-118282532D01*
X122552402Y-118189362D01*
X122552410Y-118189358D01*
X122616751Y-118144305D01*
X122616751Y-118144304D01*
X121946448Y-117474000D01*
X121970028Y-117474000D01*
X122066675Y-117448104D01*
X122153325Y-117398076D01*
X122224076Y-117327325D01*
X122274104Y-117240675D01*
X122300000Y-117144028D01*
X122300000Y-117120447D01*
X122970304Y-117790751D01*
X122970305Y-117790751D01*
X123015358Y-117726410D01*
X123015362Y-117726402D01*
X123077618Y-117592894D01*
X123123790Y-117540454D01*
X123190983Y-117521302D01*
X123257864Y-117541517D01*
X123302382Y-117592894D01*
X123364636Y-117726400D01*
X123409694Y-117790750D01*
X124080000Y-117120445D01*
X124080000Y-117144028D01*
X124105896Y-117240675D01*
X124155924Y-117327325D01*
X124226675Y-117398076D01*
X124313325Y-117448104D01*
X124409972Y-117474000D01*
X124433553Y-117474000D01*
X123763247Y-118144304D01*
X123827593Y-118189359D01*
X124027406Y-118282533D01*
X124027412Y-118282536D01*
X124240365Y-118339597D01*
X124240373Y-118339598D01*
X124459998Y-118358813D01*
X124460002Y-118358813D01*
X124679626Y-118339598D01*
X124679634Y-118339597D01*
X124892587Y-118282536D01*
X124892598Y-118282532D01*
X125092402Y-118189362D01*
X125092410Y-118189358D01*
X125156751Y-118144305D01*
X125156751Y-118144304D01*
X124486448Y-117474000D01*
X124510028Y-117474000D01*
X124606675Y-117448104D01*
X124693325Y-117398076D01*
X124764076Y-117327325D01*
X124814104Y-117240675D01*
X124840000Y-117144028D01*
X124840000Y-117120447D01*
X125510304Y-117790751D01*
X125510305Y-117790751D01*
X125555358Y-117726410D01*
X125555362Y-117726402D01*
X125648532Y-117526598D01*
X125648536Y-117526587D01*
X125705597Y-117313634D01*
X125705598Y-117313626D01*
X125724813Y-117094001D01*
X125724813Y-117093998D01*
X125705598Y-116874373D01*
X125705597Y-116874366D01*
X125648533Y-116661404D01*
X125555360Y-116461595D01*
X125555359Y-116461593D01*
X125510304Y-116397248D01*
X125510304Y-116397247D01*
X124840000Y-117067551D01*
X124840000Y-117043972D01*
X124814104Y-116947325D01*
X124764076Y-116860675D01*
X124693325Y-116789924D01*
X124606675Y-116739896D01*
X124510028Y-116714000D01*
X124486447Y-116714000D01*
X125156751Y-116043694D01*
X125092402Y-115998638D01*
X124892593Y-115905466D01*
X124892587Y-115905463D01*
X124679634Y-115848402D01*
X124679626Y-115848401D01*
X124460002Y-115829187D01*
X124459998Y-115829187D01*
X124240373Y-115848401D01*
X124240366Y-115848402D01*
X124027404Y-115905466D01*
X123827594Y-115998640D01*
X123763248Y-116043694D01*
X124433554Y-116714000D01*
X124409972Y-116714000D01*
X124313325Y-116739896D01*
X124226675Y-116789924D01*
X124155924Y-116860675D01*
X124105896Y-116947325D01*
X124080000Y-117043972D01*
X124080000Y-117067554D01*
X123409694Y-116397248D01*
X123364640Y-116461594D01*
X123302382Y-116595106D01*
X123256209Y-116647545D01*
X123189016Y-116666697D01*
X123122135Y-116646481D01*
X123077618Y-116595106D01*
X123015360Y-116461595D01*
X123015359Y-116461593D01*
X122970304Y-116397248D01*
X122970304Y-116397247D01*
X122300000Y-117067551D01*
X122300000Y-117043972D01*
X122274104Y-116947325D01*
X122224076Y-116860675D01*
X122153325Y-116789924D01*
X122066675Y-116739896D01*
X121970028Y-116714000D01*
X121946447Y-116714000D01*
X122616751Y-116043694D01*
X122552402Y-115998638D01*
X122352593Y-115905466D01*
X122352587Y-115905463D01*
X122139634Y-115848402D01*
X122139626Y-115848401D01*
X121920002Y-115829187D01*
X121919998Y-115829187D01*
X121700373Y-115848401D01*
X121700366Y-115848402D01*
X121487404Y-115905466D01*
X121287594Y-115998640D01*
X121223248Y-116043694D01*
X121893554Y-116714000D01*
X121869972Y-116714000D01*
X121773325Y-116739896D01*
X121686675Y-116789924D01*
X121615924Y-116860675D01*
X121565896Y-116947325D01*
X121540000Y-117043972D01*
X121540000Y-117067554D01*
X120869693Y-116397247D01*
X120869693Y-116397248D01*
X120866074Y-116402417D01*
X120811498Y-116446042D01*
X120742000Y-116453236D01*
X120679645Y-116421714D01*
X120644230Y-116361484D01*
X120640499Y-116331294D01*
X120640499Y-116286129D01*
X120640498Y-116286123D01*
X120640497Y-116286116D01*
X120634091Y-116226517D01*
X120626190Y-116205334D01*
X120583797Y-116091671D01*
X120583793Y-116091664D01*
X120497547Y-115976455D01*
X120497544Y-115976452D01*
X120382335Y-115890206D01*
X120382328Y-115890202D01*
X120247482Y-115839908D01*
X120247483Y-115839908D01*
X120187883Y-115833501D01*
X120187881Y-115833500D01*
X120187873Y-115833500D01*
X120187864Y-115833500D01*
X118572129Y-115833500D01*
X118572123Y-115833501D01*
X118512516Y-115839908D01*
X118377671Y-115890202D01*
X118377664Y-115890206D01*
X118262455Y-115976452D01*
X118262452Y-115976455D01*
X118176206Y-116091664D01*
X118176202Y-116091671D01*
X118125908Y-116226517D01*
X118120021Y-116281277D01*
X118119501Y-116286123D01*
X118119500Y-116286135D01*
X113020500Y-116286135D01*
X113020500Y-114294993D01*
X114482200Y-114294993D01*
X114482200Y-114295006D01*
X114501364Y-114526297D01*
X114501366Y-114526308D01*
X114558342Y-114751300D01*
X114651575Y-114963848D01*
X114778516Y-115158147D01*
X114778519Y-115158151D01*
X114778521Y-115158153D01*
X114935716Y-115328913D01*
X114935719Y-115328915D01*
X114935722Y-115328918D01*
X115118865Y-115471464D01*
X115118871Y-115471468D01*
X115118874Y-115471470D01*
X115322997Y-115581936D01*
X115436987Y-115621068D01*
X115542515Y-115657297D01*
X115542517Y-115657297D01*
X115542519Y-115657298D01*
X115771451Y-115695500D01*
X115771452Y-115695500D01*
X116003548Y-115695500D01*
X116003549Y-115695500D01*
X116232481Y-115657298D01*
X116452003Y-115581936D01*
X116656126Y-115471470D01*
X116668584Y-115461774D01*
X116721666Y-115420458D01*
X116839284Y-115328913D01*
X116996479Y-115158153D01*
X117123424Y-114963849D01*
X117216657Y-114751300D01*
X117273634Y-114526305D01*
X117273635Y-114526297D01*
X117292800Y-114295006D01*
X117292800Y-114294993D01*
X124959700Y-114294993D01*
X124959700Y-114295006D01*
X124978864Y-114526297D01*
X124978866Y-114526308D01*
X125035842Y-114751300D01*
X125129075Y-114963848D01*
X125256016Y-115158147D01*
X125256019Y-115158151D01*
X125256021Y-115158153D01*
X125413216Y-115328913D01*
X125413219Y-115328915D01*
X125413222Y-115328918D01*
X125596365Y-115471464D01*
X125596371Y-115471468D01*
X125596374Y-115471470D01*
X125800497Y-115581936D01*
X125914487Y-115621068D01*
X126020015Y-115657297D01*
X126020017Y-115657297D01*
X126020019Y-115657298D01*
X126248951Y-115695500D01*
X126248952Y-115695500D01*
X126481048Y-115695500D01*
X126481049Y-115695500D01*
X126709981Y-115657298D01*
X126929503Y-115581936D01*
X127133626Y-115471470D01*
X127146084Y-115461774D01*
X127199166Y-115420458D01*
X127316784Y-115328913D01*
X127473979Y-115158153D01*
X127600924Y-114963849D01*
X127694157Y-114751300D01*
X127751134Y-114526305D01*
X127751135Y-114526297D01*
X127770300Y-114295006D01*
X127770300Y-114294993D01*
X127751135Y-114063702D01*
X127751133Y-114063691D01*
X127694157Y-113838699D01*
X127600924Y-113626151D01*
X127473983Y-113431852D01*
X127473980Y-113431849D01*
X127473979Y-113431847D01*
X127379195Y-113328884D01*
X127348275Y-113266232D01*
X127356135Y-113196806D01*
X127400283Y-113142651D01*
X127427095Y-113128722D01*
X127507326Y-113098798D01*
X127507326Y-113098797D01*
X127507331Y-113098796D01*
X127622546Y-113012546D01*
X127708796Y-112897331D01*
X127759091Y-112762483D01*
X127765500Y-112702873D01*
X127765499Y-110807128D01*
X127760299Y-110758757D01*
X127759091Y-110747516D01*
X127708797Y-110612671D01*
X127708793Y-110612664D01*
X127622547Y-110497455D01*
X127622544Y-110497452D01*
X127507335Y-110411206D01*
X127507328Y-110411202D01*
X127372482Y-110360908D01*
X127372483Y-110360908D01*
X127312883Y-110354501D01*
X127312881Y-110354500D01*
X127312873Y-110354500D01*
X127312864Y-110354500D01*
X125417129Y-110354500D01*
X125417123Y-110354501D01*
X125357516Y-110360908D01*
X125222671Y-110411202D01*
X125222664Y-110411206D01*
X125107455Y-110497452D01*
X125107452Y-110497455D01*
X125021206Y-110612664D01*
X125021202Y-110612671D01*
X124970908Y-110747517D01*
X124966740Y-110786289D01*
X124964501Y-110807123D01*
X124964500Y-110807135D01*
X124964500Y-112702870D01*
X124964501Y-112702876D01*
X124970908Y-112762483D01*
X125021202Y-112897328D01*
X125021206Y-112897335D01*
X125107452Y-113012544D01*
X125107455Y-113012547D01*
X125222664Y-113098793D01*
X125222673Y-113098798D01*
X125302904Y-113128722D01*
X125358838Y-113170593D01*
X125383256Y-113236057D01*
X125368405Y-113304330D01*
X125350802Y-113328886D01*
X125256019Y-113431849D01*
X125129075Y-113626151D01*
X125035842Y-113838699D01*
X124978866Y-114063691D01*
X124978864Y-114063702D01*
X124959700Y-114294993D01*
X117292800Y-114294993D01*
X117273635Y-114063702D01*
X117273633Y-114063691D01*
X117216657Y-113838699D01*
X117123424Y-113626151D01*
X116996483Y-113431852D01*
X116996480Y-113431849D01*
X116996479Y-113431847D01*
X116901695Y-113328884D01*
X116870775Y-113266232D01*
X116878635Y-113196806D01*
X116922783Y-113142651D01*
X116949595Y-113128722D01*
X117029826Y-113098798D01*
X117029826Y-113098797D01*
X117029831Y-113098796D01*
X117145046Y-113012546D01*
X117231296Y-112897331D01*
X117281591Y-112762483D01*
X117288000Y-112702873D01*
X117287999Y-110807128D01*
X117282799Y-110758757D01*
X117281591Y-110747516D01*
X117231297Y-110612671D01*
X117231293Y-110612664D01*
X117145047Y-110497455D01*
X117145044Y-110497452D01*
X117029835Y-110411206D01*
X117029828Y-110411202D01*
X116894982Y-110360908D01*
X116894983Y-110360908D01*
X116835383Y-110354501D01*
X116835381Y-110354500D01*
X116835373Y-110354500D01*
X116835364Y-110354500D01*
X114939629Y-110354500D01*
X114939623Y-110354501D01*
X114880016Y-110360908D01*
X114745171Y-110411202D01*
X114745164Y-110411206D01*
X114629955Y-110497452D01*
X114629952Y-110497455D01*
X114543706Y-110612664D01*
X114543702Y-110612671D01*
X114493408Y-110747517D01*
X114489240Y-110786289D01*
X114487001Y-110807123D01*
X114487000Y-110807135D01*
X114487000Y-112702870D01*
X114487001Y-112702876D01*
X114493408Y-112762483D01*
X114543702Y-112897328D01*
X114543706Y-112897335D01*
X114629952Y-113012544D01*
X114629955Y-113012547D01*
X114745164Y-113098793D01*
X114745173Y-113098798D01*
X114825404Y-113128722D01*
X114881338Y-113170593D01*
X114905756Y-113236057D01*
X114890905Y-113304330D01*
X114873302Y-113328886D01*
X114778519Y-113431849D01*
X114651575Y-113626151D01*
X114558342Y-113838699D01*
X114501366Y-114063691D01*
X114501364Y-114063702D01*
X114482200Y-114294993D01*
X113020500Y-114294993D01*
X113020500Y-113007838D01*
X113026182Y-112970732D01*
X113047632Y-112902335D01*
X113151307Y-112571754D01*
X113159654Y-112541974D01*
X113160653Y-112536684D01*
X113161222Y-112536791D01*
X113165651Y-112516810D01*
X113180368Y-112474755D01*
X113200565Y-112295500D01*
X113191579Y-112215748D01*
X113180369Y-112116250D01*
X113180368Y-112116245D01*
X113120788Y-111945976D01*
X113024815Y-111793237D01*
X112897262Y-111665684D01*
X112744523Y-111569711D01*
X112574254Y-111510131D01*
X112574249Y-111510130D01*
X112395004Y-111489935D01*
X112394996Y-111489935D01*
X112215750Y-111510130D01*
X112215745Y-111510131D01*
X112045476Y-111569711D01*
X111892737Y-111665684D01*
X111765184Y-111793237D01*
X111669211Y-111945976D01*
X111609631Y-112116245D01*
X111609630Y-112116250D01*
X111589435Y-112295496D01*
X111589435Y-112295503D01*
X111609631Y-112474753D01*
X111609631Y-112474754D01*
X111630857Y-112535416D01*
X111636209Y-112556475D01*
X111638691Y-112571746D01*
X111638692Y-112571752D01*
X111638693Y-112571755D01*
X111747426Y-112918464D01*
X111763818Y-112970730D01*
X111769500Y-113007836D01*
X111769500Y-118482646D01*
X111749815Y-118549685D01*
X111697011Y-118595440D01*
X111627853Y-118605384D01*
X111574377Y-118584221D01*
X111508662Y-118538208D01*
X111508658Y-118538205D01*
X111508654Y-118538203D01*
X111308769Y-118444995D01*
X111308755Y-118444990D01*
X111095724Y-118387909D01*
X111095722Y-118387908D01*
X111095720Y-118387908D01*
X111095718Y-118387907D01*
X111095714Y-118387907D01*
X110876002Y-118368685D01*
X110875998Y-118368685D01*
X110656285Y-118387907D01*
X110656275Y-118387909D01*
X110443244Y-118444990D01*
X110443235Y-118444994D01*
X110243344Y-118538204D01*
X110243342Y-118538205D01*
X110062668Y-118664713D01*
X109906713Y-118820668D01*
X109780205Y-119001342D01*
X109780204Y-119001344D01*
X109718106Y-119134515D01*
X109671934Y-119186954D01*
X109604740Y-119206106D01*
X109537859Y-119185890D01*
X109493342Y-119134515D01*
X109431360Y-119001595D01*
X109431359Y-119001593D01*
X109386304Y-118937248D01*
X109386304Y-118937247D01*
X108716000Y-119607551D01*
X108716000Y-119583972D01*
X108690104Y-119487325D01*
X108640076Y-119400675D01*
X108569325Y-119329924D01*
X108482675Y-119279896D01*
X108386028Y-119254000D01*
X108362447Y-119254000D01*
X109032751Y-118583694D01*
X108968402Y-118538638D01*
X108768593Y-118445466D01*
X108768587Y-118445463D01*
X108555634Y-118388402D01*
X108555626Y-118388401D01*
X108336002Y-118369187D01*
X108335998Y-118369187D01*
X108116373Y-118388401D01*
X108116366Y-118388402D01*
X107903404Y-118445466D01*
X107703594Y-118538640D01*
X107639248Y-118583694D01*
X108309554Y-119254000D01*
X108285972Y-119254000D01*
X108189325Y-119279896D01*
X108102675Y-119329924D01*
X108031924Y-119400675D01*
X107981896Y-119487325D01*
X107956000Y-119583972D01*
X107956000Y-119607554D01*
X107285694Y-118937248D01*
X107240640Y-119001594D01*
X107178382Y-119135106D01*
X107132209Y-119187545D01*
X107065016Y-119206697D01*
X106998135Y-119186481D01*
X106953618Y-119135106D01*
X106891360Y-119001595D01*
X106891359Y-119001593D01*
X106846304Y-118937248D01*
X106846304Y-118937247D01*
X106176000Y-119607551D01*
X106176000Y-119583972D01*
X106150104Y-119487325D01*
X106100076Y-119400675D01*
X106029325Y-119329924D01*
X105942675Y-119279896D01*
X105846028Y-119254000D01*
X105822447Y-119254000D01*
X106492751Y-118583694D01*
X106428402Y-118538638D01*
X106228593Y-118445466D01*
X106228587Y-118445463D01*
X106015634Y-118388402D01*
X106015626Y-118388401D01*
X105796002Y-118369187D01*
X105795995Y-118369187D01*
X105782848Y-118370337D01*
X105714349Y-118356569D01*
X105664166Y-118307953D01*
X105648234Y-118239924D01*
X105671611Y-118174081D01*
X105672712Y-118172584D01*
X105729796Y-118096331D01*
X105780091Y-117961483D01*
X105786500Y-117901873D01*
X105786499Y-117856704D01*
X105806182Y-117789668D01*
X105858985Y-117743912D01*
X105928144Y-117733967D01*
X105991700Y-117762990D01*
X106012074Y-117785582D01*
X106015693Y-117790751D01*
X106015694Y-117790751D01*
X106686000Y-117120445D01*
X106686000Y-117144028D01*
X106711896Y-117240675D01*
X106761924Y-117327325D01*
X106832675Y-117398076D01*
X106919325Y-117448104D01*
X107015972Y-117474000D01*
X107039553Y-117474000D01*
X106369247Y-118144304D01*
X106433593Y-118189359D01*
X106633406Y-118282533D01*
X106633412Y-118282536D01*
X106846365Y-118339597D01*
X106846373Y-118339598D01*
X107065998Y-118358813D01*
X107066002Y-118358813D01*
X107285626Y-118339598D01*
X107285634Y-118339597D01*
X107498587Y-118282536D01*
X107498598Y-118282532D01*
X107698402Y-118189362D01*
X107698410Y-118189358D01*
X107762751Y-118144305D01*
X107762751Y-118144304D01*
X107092448Y-117474000D01*
X107116028Y-117474000D01*
X107212675Y-117448104D01*
X107299325Y-117398076D01*
X107370076Y-117327325D01*
X107420104Y-117240675D01*
X107446000Y-117144028D01*
X107446000Y-117120447D01*
X108116304Y-117790751D01*
X108116305Y-117790751D01*
X108161358Y-117726410D01*
X108161362Y-117726402D01*
X108223342Y-117593486D01*
X108269514Y-117541046D01*
X108336707Y-117521894D01*
X108403588Y-117542109D01*
X108448106Y-117593486D01*
X108510203Y-117726654D01*
X108510207Y-117726662D01*
X108636712Y-117907330D01*
X108792669Y-118063287D01*
X108973337Y-118189792D01*
X108973339Y-118189793D01*
X108973342Y-118189795D01*
X109068162Y-118234010D01*
X109173230Y-118283004D01*
X109173232Y-118283004D01*
X109173237Y-118283007D01*
X109386280Y-118340092D01*
X109543222Y-118353822D01*
X109605998Y-118359315D01*
X109606000Y-118359315D01*
X109606002Y-118359315D01*
X109661059Y-118354498D01*
X109825720Y-118340092D01*
X110038763Y-118283007D01*
X110238658Y-118189795D01*
X110419329Y-118063288D01*
X110575288Y-117907329D01*
X110701795Y-117726658D01*
X110795007Y-117526763D01*
X110852092Y-117313720D01*
X110871315Y-117094000D01*
X110852092Y-116874280D01*
X110795007Y-116661237D01*
X110701795Y-116461343D01*
X110575288Y-116280671D01*
X110575286Y-116280668D01*
X110419330Y-116124712D01*
X110238662Y-115998207D01*
X110238654Y-115998203D01*
X110038769Y-115904995D01*
X110038755Y-115904990D01*
X109825724Y-115847909D01*
X109825722Y-115847908D01*
X109825720Y-115847908D01*
X109825718Y-115847907D01*
X109825714Y-115847907D01*
X109606002Y-115828685D01*
X109605998Y-115828685D01*
X109386285Y-115847907D01*
X109386275Y-115847909D01*
X109173244Y-115904990D01*
X109173235Y-115904994D01*
X108973344Y-115998204D01*
X108973342Y-115998205D01*
X108792668Y-116124713D01*
X108636713Y-116280668D01*
X108510205Y-116461342D01*
X108510204Y-116461344D01*
X108448106Y-116594515D01*
X108401934Y-116646954D01*
X108334740Y-116666106D01*
X108267859Y-116645890D01*
X108223342Y-116594515D01*
X108161360Y-116461595D01*
X108161359Y-116461593D01*
X108116304Y-116397248D01*
X108116304Y-116397247D01*
X107446000Y-117067551D01*
X107446000Y-117043972D01*
X107420104Y-116947325D01*
X107370076Y-116860675D01*
X107299325Y-116789924D01*
X107212675Y-116739896D01*
X107116028Y-116714000D01*
X107092447Y-116714000D01*
X107762751Y-116043694D01*
X107698402Y-115998638D01*
X107498593Y-115905466D01*
X107498587Y-115905463D01*
X107285634Y-115848402D01*
X107285626Y-115848401D01*
X107066002Y-115829187D01*
X107065998Y-115829187D01*
X106846373Y-115848401D01*
X106846366Y-115848402D01*
X106633404Y-115905466D01*
X106433594Y-115998640D01*
X106369248Y-116043694D01*
X107039554Y-116714000D01*
X107015972Y-116714000D01*
X106919325Y-116739896D01*
X106832675Y-116789924D01*
X106761924Y-116860675D01*
X106711896Y-116947325D01*
X106686000Y-117043972D01*
X106686000Y-117067554D01*
X106015693Y-116397247D01*
X106015693Y-116397248D01*
X106012074Y-116402417D01*
X105957498Y-116446042D01*
X105888000Y-116453236D01*
X105825645Y-116421714D01*
X105790230Y-116361484D01*
X105786499Y-116331294D01*
X105786499Y-116286129D01*
X105786498Y-116286123D01*
X105786497Y-116286116D01*
X105780091Y-116226517D01*
X105772190Y-116205334D01*
X105729797Y-116091671D01*
X105729793Y-116091664D01*
X105643547Y-115976455D01*
X105552903Y-115908598D01*
X105511033Y-115852664D01*
X105506049Y-115782972D01*
X105539535Y-115721650D01*
X105600858Y-115688165D01*
X105606764Y-115687030D01*
X105754981Y-115662298D01*
X105974503Y-115586936D01*
X106178626Y-115476470D01*
X106197508Y-115461774D01*
X106250226Y-115420742D01*
X106361784Y-115333913D01*
X106518979Y-115163153D01*
X106523920Y-115155591D01*
X106608723Y-115025789D01*
X106645924Y-114968849D01*
X106689006Y-114870630D01*
X106696719Y-114855842D01*
X106710582Y-114833139D01*
X107281672Y-113502205D01*
X107307940Y-113463426D01*
X111072952Y-109698416D01*
X111122186Y-109624729D01*
X111155084Y-109575495D01*
X111211658Y-109438913D01*
X111240500Y-109293918D01*
X111240500Y-106930173D01*
X111242624Y-106907322D01*
X111296304Y-106621023D01*
X111358443Y-106289609D01*
X111362388Y-106274144D01*
X111363247Y-106271500D01*
X111363248Y-106271496D01*
X119209435Y-106271496D01*
X119209435Y-106271503D01*
X119229630Y-106450749D01*
X119229631Y-106450754D01*
X119289211Y-106621023D01*
X119385184Y-106773762D01*
X119512738Y-106901316D01*
X119665478Y-106997289D01*
X119835745Y-107056868D01*
X119835750Y-107056869D01*
X120014996Y-107077065D01*
X120015000Y-107077065D01*
X120015004Y-107077065D01*
X120194249Y-107056869D01*
X120194252Y-107056868D01*
X120194255Y-107056868D01*
X120364522Y-106997289D01*
X120517262Y-106901316D01*
X120644816Y-106773762D01*
X120740789Y-106621022D01*
X120740792Y-106621010D01*
X120743432Y-106615531D01*
X120746819Y-106607716D01*
X120938777Y-106240343D01*
X120960990Y-106210098D01*
X124614729Y-102556360D01*
X124614733Y-102556358D01*
X124701858Y-102469233D01*
X124770311Y-102366786D01*
X124817463Y-102252952D01*
X124819872Y-102240837D01*
X124852255Y-102178927D01*
X124912970Y-102144351D01*
X124927607Y-102141807D01*
X125020249Y-102131369D01*
X125020252Y-102131368D01*
X125020255Y-102131368D01*
X125190522Y-102071789D01*
X125343262Y-101975816D01*
X125388319Y-101930759D01*
X125449642Y-101897274D01*
X125519334Y-101902258D01*
X125563681Y-101930759D01*
X125608738Y-101975816D01*
X125761478Y-102071789D01*
X125850148Y-102102816D01*
X125931745Y-102131368D01*
X125931750Y-102131369D01*
X126110996Y-102151565D01*
X126111000Y-102151565D01*
X126111004Y-102151565D01*
X126290249Y-102131369D01*
X126290252Y-102131368D01*
X126290255Y-102131368D01*
X126460522Y-102071789D01*
X126613262Y-101975816D01*
X126740816Y-101848262D01*
X126836789Y-101695522D01*
X126896368Y-101525255D01*
X126901919Y-101475989D01*
X126916565Y-101346003D01*
X126916565Y-101345996D01*
X126896369Y-101166750D01*
X126896368Y-101166745D01*
X126872848Y-101099528D01*
X126836789Y-100996478D01*
X126827848Y-100982249D01*
X126774194Y-100896859D01*
X126740816Y-100843738D01*
X126652135Y-100755057D01*
X126618650Y-100693734D01*
X126623634Y-100624042D01*
X126665506Y-100568109D01*
X126715625Y-100545759D01*
X126788158Y-100531330D01*
X126856497Y-100517737D01*
X127002179Y-100457394D01*
X127133289Y-100369789D01*
X127244789Y-100258289D01*
X127332394Y-100127179D01*
X127392737Y-99981497D01*
X127423500Y-99826842D01*
X127423500Y-99669158D01*
X127423500Y-99669155D01*
X127423499Y-99669153D01*
X127392738Y-99514510D01*
X127392737Y-99514503D01*
X127371907Y-99464214D01*
X127332397Y-99368827D01*
X127332390Y-99368814D01*
X127244789Y-99237711D01*
X127244786Y-99237707D01*
X127133292Y-99126213D01*
X127133288Y-99126210D01*
X127002185Y-99038609D01*
X127002179Y-99038606D01*
X126975717Y-99027645D01*
X126921314Y-98983803D01*
X126899250Y-98917509D01*
X126916530Y-98849810D01*
X126918178Y-98847111D01*
X126963788Y-98774524D01*
X126976614Y-98737870D01*
X127023368Y-98604255D01*
X127023368Y-98604252D01*
X127023369Y-98604249D01*
X127043565Y-98425003D01*
X127043565Y-98424996D01*
X127023369Y-98245750D01*
X127023368Y-98245745D01*
X126995016Y-98164720D01*
X126963789Y-98075478D01*
X126867816Y-97922738D01*
X126740262Y-97795184D01*
X126587523Y-97699211D01*
X126417254Y-97639631D01*
X126417249Y-97639630D01*
X126238004Y-97619435D01*
X126237996Y-97619435D01*
X126058750Y-97639630D01*
X126058745Y-97639631D01*
X125888476Y-97699211D01*
X125735737Y-97795184D01*
X125678181Y-97852741D01*
X125616858Y-97886226D01*
X125547166Y-97881242D01*
X125491233Y-97839370D01*
X125466816Y-97773906D01*
X125466500Y-97765060D01*
X125466500Y-97465451D01*
X125486185Y-97398412D01*
X125502815Y-97377774D01*
X126011009Y-96869579D01*
X126072330Y-96836096D01*
X126087147Y-96833800D01*
X126274450Y-96816296D01*
X126304174Y-96812627D01*
X126306434Y-96811939D01*
X126328623Y-96807354D01*
X126417255Y-96797368D01*
X126587522Y-96737789D01*
X126740262Y-96641816D01*
X126867816Y-96514262D01*
X126963789Y-96361522D01*
X127023368Y-96191255D01*
X127024179Y-96184058D01*
X127043565Y-96012003D01*
X127043565Y-96011996D01*
X127023369Y-95832750D01*
X127023368Y-95832745D01*
X126963788Y-95662476D01*
X126888465Y-95542601D01*
X126867816Y-95509738D01*
X126822759Y-95464681D01*
X126789274Y-95403358D01*
X126794258Y-95333666D01*
X126822759Y-95289319D01*
X126861915Y-95250163D01*
X126931316Y-95180762D01*
X127027289Y-95028022D01*
X127086868Y-94857755D01*
X127089365Y-94835592D01*
X127107065Y-94678503D01*
X127107065Y-94678496D01*
X127086869Y-94499250D01*
X127086868Y-94499245D01*
X127050184Y-94394409D01*
X127027289Y-94328978D01*
X126931316Y-94176238D01*
X126822759Y-94067681D01*
X126789274Y-94006358D01*
X126794258Y-93936666D01*
X126822759Y-93892319D01*
X126836500Y-93878578D01*
X126867816Y-93847262D01*
X126963789Y-93694522D01*
X127023368Y-93524255D01*
X127023369Y-93524249D01*
X127043565Y-93345003D01*
X127043565Y-93344996D01*
X127023369Y-93165750D01*
X127023368Y-93165745D01*
X127020216Y-93156737D01*
X126963789Y-92995478D01*
X126867816Y-92842738D01*
X126740262Y-92715184D01*
X126587523Y-92619211D01*
X126417254Y-92559631D01*
X126417249Y-92559630D01*
X126238004Y-92539435D01*
X126237996Y-92539435D01*
X126058750Y-92559630D01*
X126058745Y-92559631D01*
X125888476Y-92619211D01*
X125735737Y-92715184D01*
X125608184Y-92842737D01*
X125512212Y-92995476D01*
X125509573Y-93000954D01*
X125506179Y-93008781D01*
X125314220Y-93376153D01*
X125292000Y-93406408D01*
X124019913Y-94678496D01*
X122791270Y-95907139D01*
X122791267Y-95907142D01*
X122747703Y-95950705D01*
X122704140Y-95994268D01*
X122678418Y-96032766D01*
X122678416Y-96032769D01*
X122635690Y-96096710D01*
X122635685Y-96096719D01*
X122615895Y-96144499D01*
X122615895Y-96144500D01*
X122588538Y-96210545D01*
X122588535Y-96210555D01*
X122564500Y-96331389D01*
X122564500Y-100633662D01*
X122558818Y-100670768D01*
X122433692Y-101069746D01*
X122425344Y-101099528D01*
X122424347Y-101104809D01*
X122423783Y-101104702D01*
X122419349Y-101124683D01*
X122415790Y-101134857D01*
X122404631Y-101166748D01*
X122404630Y-101166751D01*
X122384435Y-101345996D01*
X122384435Y-101346003D01*
X122404630Y-101525249D01*
X122404631Y-101525254D01*
X122464211Y-101695523D01*
X122530188Y-101800524D01*
X122560184Y-101848262D01*
X122687738Y-101975816D01*
X122840478Y-102071789D01*
X122913501Y-102097341D01*
X123016927Y-102133531D01*
X123073703Y-102174253D01*
X123099451Y-102239205D01*
X123085995Y-102307767D01*
X123063654Y-102338254D01*
X120076408Y-105325500D01*
X120046153Y-105347720D01*
X119678783Y-105539678D01*
X119670956Y-105543072D01*
X119665479Y-105545710D01*
X119512737Y-105641684D01*
X119385184Y-105769237D01*
X119289211Y-105921976D01*
X119229631Y-106092245D01*
X119229630Y-106092250D01*
X119209435Y-106271496D01*
X111363248Y-106271496D01*
X111375674Y-106233256D01*
X111383889Y-106155080D01*
X111384415Y-106150802D01*
X111384858Y-106147650D01*
X111390688Y-106106143D01*
X111390690Y-106106116D01*
X111390693Y-106106097D01*
X111390887Y-106104034D01*
X111390887Y-106104026D01*
X111390888Y-106104016D01*
X111390844Y-106096097D01*
X111391521Y-106082468D01*
X111395460Y-106045000D01*
X111375674Y-105856744D01*
X111317179Y-105676716D01*
X111222533Y-105512784D01*
X111095871Y-105372112D01*
X111095870Y-105372111D01*
X110942734Y-105260851D01*
X110942729Y-105260848D01*
X110769807Y-105183857D01*
X110769802Y-105183855D01*
X110614803Y-105150910D01*
X110584646Y-105144500D01*
X110395354Y-105144500D01*
X110365197Y-105150910D01*
X110210197Y-105183855D01*
X110210192Y-105183857D01*
X110037270Y-105260848D01*
X110037265Y-105260851D01*
X109884129Y-105372111D01*
X109757466Y-105512785D01*
X109662821Y-105676715D01*
X109662818Y-105676722D01*
X109604327Y-105856740D01*
X109604326Y-105856744D01*
X109597470Y-105921976D01*
X109584540Y-106045000D01*
X109595328Y-106147650D01*
X109595463Y-106149477D01*
X109596108Y-106155125D01*
X109596227Y-106156217D01*
X109604325Y-106233249D01*
X109604327Y-106233260D01*
X109617608Y-106274134D01*
X109621553Y-106289600D01*
X109651769Y-106450754D01*
X109732350Y-106880520D01*
X109737376Y-106907322D01*
X109739500Y-106930174D01*
X109739500Y-108857769D01*
X109719815Y-108924808D01*
X109703181Y-108945450D01*
X107022180Y-111626451D01*
X106960857Y-111659936D01*
X106891165Y-111654952D01*
X106835232Y-111613080D01*
X106810815Y-111547616D01*
X106810499Y-111538770D01*
X106810499Y-110812129D01*
X106810498Y-110812123D01*
X106810497Y-110812116D01*
X106804091Y-110752517D01*
X106791813Y-110719599D01*
X106753797Y-110617671D01*
X106753793Y-110617664D01*
X106667547Y-110502455D01*
X106667544Y-110502452D01*
X106552335Y-110416206D01*
X106552328Y-110416202D01*
X106417482Y-110365908D01*
X106417483Y-110365908D01*
X106357883Y-110359501D01*
X106357881Y-110359500D01*
X106357873Y-110359500D01*
X106357864Y-110359500D01*
X104462129Y-110359500D01*
X104462123Y-110359501D01*
X104402516Y-110365908D01*
X104267671Y-110416202D01*
X104267664Y-110416206D01*
X104152455Y-110502452D01*
X104152452Y-110502455D01*
X104066206Y-110617664D01*
X104066202Y-110617671D01*
X104015908Y-110752517D01*
X104009577Y-110811407D01*
X104009501Y-110812123D01*
X104009500Y-110812135D01*
X104009500Y-112707870D01*
X104009501Y-112707876D01*
X104015908Y-112767483D01*
X104066202Y-112902328D01*
X104066206Y-112902335D01*
X104152452Y-113017544D01*
X104152455Y-113017547D01*
X104267664Y-113103793D01*
X104267673Y-113103798D01*
X104347904Y-113133722D01*
X104403838Y-113175593D01*
X104428256Y-113241057D01*
X104413405Y-113309330D01*
X104395802Y-113333886D01*
X104301019Y-113436849D01*
X104174075Y-113631151D01*
X104080842Y-113843699D01*
X104023866Y-114068691D01*
X104023864Y-114068702D01*
X104004700Y-114299993D01*
X104004700Y-114300006D01*
X104023864Y-114531297D01*
X104023866Y-114531308D01*
X104080842Y-114756300D01*
X104174075Y-114968848D01*
X104301016Y-115163147D01*
X104301019Y-115163151D01*
X104301021Y-115163153D01*
X104458216Y-115333913D01*
X104458219Y-115333915D01*
X104458222Y-115333918D01*
X104641365Y-115476464D01*
X104641371Y-115476468D01*
X104641374Y-115476470D01*
X104808860Y-115567109D01*
X104845495Y-115586935D01*
X104845507Y-115586940D01*
X104860884Y-115592219D01*
X104917900Y-115632604D01*
X104944031Y-115697404D01*
X104930980Y-115766044D01*
X104882891Y-115816731D01*
X104820622Y-115833500D01*
X103718129Y-115833500D01*
X103718123Y-115833501D01*
X103658516Y-115839908D01*
X103523671Y-115890202D01*
X103523664Y-115890206D01*
X103408455Y-115976452D01*
X103408452Y-115976455D01*
X103322206Y-116091664D01*
X103322202Y-116091671D01*
X103271908Y-116226517D01*
X103266021Y-116281277D01*
X103265501Y-116286123D01*
X103265500Y-116286135D01*
X100299000Y-116286135D01*
X100299000Y-99644530D01*
X104572500Y-99644530D01*
X104572500Y-99851469D01*
X104612868Y-100054412D01*
X104612870Y-100054420D01*
X104692058Y-100245596D01*
X104807024Y-100417657D01*
X104953342Y-100563975D01*
X104953345Y-100563977D01*
X105125402Y-100678941D01*
X105316580Y-100758130D01*
X105500466Y-100794707D01*
X105519530Y-100798499D01*
X105519534Y-100798500D01*
X105519535Y-100798500D01*
X105726466Y-100798500D01*
X105726467Y-100798499D01*
X105929420Y-100758130D01*
X106081891Y-100694973D01*
X106151359Y-100687505D01*
X106213838Y-100718780D01*
X106249491Y-100778869D01*
X106247661Y-100846641D01*
X106177692Y-101069746D01*
X106169344Y-101099528D01*
X106168347Y-101104809D01*
X106167783Y-101104702D01*
X106163349Y-101124683D01*
X106159790Y-101134857D01*
X106148631Y-101166748D01*
X106148630Y-101166751D01*
X106128435Y-101345996D01*
X106128435Y-101346003D01*
X106148630Y-101525249D01*
X106148631Y-101525254D01*
X106208211Y-101695523D01*
X106274188Y-101800524D01*
X106304184Y-101848262D01*
X106431738Y-101975816D01*
X106584478Y-102071789D01*
X106673148Y-102102816D01*
X106754745Y-102131368D01*
X106754750Y-102131369D01*
X106933996Y-102151565D01*
X106934000Y-102151565D01*
X106934004Y-102151565D01*
X107113249Y-102131369D01*
X107113252Y-102131368D01*
X107113255Y-102131368D01*
X107283522Y-102071789D01*
X107436262Y-101975816D01*
X107489222Y-101922855D01*
X107550543Y-101889371D01*
X107620235Y-101894355D01*
X107676168Y-101936226D01*
X107681893Y-101944561D01*
X107701184Y-101975262D01*
X107828738Y-102102816D01*
X107906322Y-102151565D01*
X107941060Y-102173393D01*
X107981478Y-102198789D01*
X108101650Y-102240839D01*
X108151745Y-102258368D01*
X108151750Y-102258369D01*
X108330996Y-102278565D01*
X108331000Y-102278565D01*
X108331004Y-102278565D01*
X108510249Y-102258369D01*
X108510252Y-102258368D01*
X108510255Y-102258368D01*
X108680522Y-102198789D01*
X108833262Y-102102816D01*
X108960816Y-101975262D01*
X109056789Y-101822522D01*
X109116368Y-101652255D01*
X109116369Y-101652249D01*
X109136565Y-101473003D01*
X109136565Y-101472996D01*
X109116369Y-101293748D01*
X109114403Y-101288129D01*
X109095140Y-101233081D01*
X109089788Y-101212023D01*
X109087306Y-101196745D01*
X108962182Y-100797769D01*
X108956500Y-100760663D01*
X108956500Y-89153996D01*
X109938435Y-89153996D01*
X109938435Y-89154003D01*
X109958631Y-89333253D01*
X109958631Y-89333254D01*
X109979857Y-89393916D01*
X109985209Y-89414975D01*
X109987691Y-89430246D01*
X109987694Y-89430258D01*
X110112818Y-89829230D01*
X110118500Y-89866336D01*
X110118500Y-100760662D01*
X110112818Y-100797768D01*
X109987692Y-101196746D01*
X109979344Y-101226528D01*
X109978347Y-101231809D01*
X109977783Y-101231702D01*
X109973349Y-101251684D01*
X109958631Y-101293748D01*
X109958630Y-101293751D01*
X109938435Y-101472996D01*
X109938435Y-101473003D01*
X109958630Y-101652249D01*
X109958631Y-101652254D01*
X110018211Y-101822523D01*
X110086221Y-101930759D01*
X110114184Y-101975262D01*
X110241738Y-102102816D01*
X110319322Y-102151565D01*
X110354060Y-102173393D01*
X110394478Y-102198789D01*
X110514650Y-102240839D01*
X110564745Y-102258368D01*
X110564750Y-102258369D01*
X110743996Y-102278565D01*
X110744000Y-102278565D01*
X110744004Y-102278565D01*
X110923249Y-102258369D01*
X110923252Y-102258368D01*
X110923255Y-102258368D01*
X111093522Y-102198789D01*
X111246262Y-102102816D01*
X111373816Y-101975262D01*
X111469789Y-101822522D01*
X111529368Y-101652255D01*
X111529369Y-101652249D01*
X111549565Y-101473003D01*
X111549565Y-101472996D01*
X111529369Y-101293748D01*
X111527403Y-101288129D01*
X111508140Y-101233081D01*
X111502788Y-101212023D01*
X111500306Y-101196745D01*
X111467456Y-101091998D01*
X114818659Y-101091998D01*
X114818659Y-101091999D01*
X114837975Y-101288129D01*
X114855529Y-101345996D01*
X114894056Y-101473003D01*
X114895188Y-101476733D01*
X114988086Y-101650532D01*
X114988090Y-101650539D01*
X115113116Y-101802883D01*
X115265460Y-101927909D01*
X115265467Y-101927913D01*
X115439266Y-102020811D01*
X115439269Y-102020811D01*
X115439273Y-102020814D01*
X115627868Y-102078024D01*
X115824000Y-102097341D01*
X116020132Y-102078024D01*
X116208727Y-102020814D01*
X116382538Y-101927910D01*
X116534883Y-101802883D01*
X116659910Y-101650538D01*
X116726876Y-101525254D01*
X116752811Y-101476733D01*
X116752811Y-101476732D01*
X116752814Y-101476727D01*
X116810024Y-101288132D01*
X116829341Y-101092000D01*
X116822537Y-101022925D01*
X116821943Y-101011529D01*
X116821895Y-101003605D01*
X116818691Y-100982249D01*
X116817917Y-100976023D01*
X116810024Y-100895868D01*
X116804160Y-100876539D01*
X116800196Y-100858955D01*
X116687658Y-100108684D01*
X116675872Y-100030110D01*
X116674500Y-100011716D01*
X116674500Y-99209650D01*
X116694185Y-99142611D01*
X116710814Y-99121974D01*
X130204509Y-85628278D01*
X130265830Y-85594795D01*
X130335522Y-85599779D01*
X130365992Y-85616514D01*
X130366075Y-85616401D01*
X130366968Y-85617050D01*
X130366981Y-85617057D01*
X130367055Y-85617113D01*
X130382590Y-85628399D01*
X130382592Y-85628400D01*
X130382595Y-85628402D01*
X130396621Y-85635464D01*
X130415166Y-85646950D01*
X130437669Y-85663796D01*
X130490006Y-85683315D01*
X130502432Y-85688742D01*
X130511104Y-85693109D01*
X130518160Y-85695476D01*
X130526036Y-85697495D01*
X130538553Y-85701423D01*
X130572517Y-85714091D01*
X130632127Y-85720500D01*
X130665564Y-85720499D01*
X130732601Y-85740182D01*
X130778357Y-85792984D01*
X130788302Y-85862143D01*
X130759279Y-85925699D01*
X130736689Y-85946073D01*
X130628447Y-86021866D01*
X130628441Y-86021871D01*
X130471868Y-86178444D01*
X130344857Y-86359834D01*
X130344856Y-86359836D01*
X130251279Y-86560513D01*
X130251275Y-86560524D01*
X130193965Y-86774407D01*
X130193964Y-86774414D01*
X130174666Y-86994998D01*
X130174666Y-86995001D01*
X130193964Y-87215585D01*
X130193965Y-87215592D01*
X130251275Y-87429475D01*
X130251279Y-87429486D01*
X130344856Y-87630163D01*
X130344858Y-87630167D01*
X130471868Y-87811555D01*
X130628445Y-87968132D01*
X130809833Y-88095142D01*
X130871828Y-88124050D01*
X130933091Y-88152618D01*
X130985531Y-88198790D01*
X131004683Y-88265983D01*
X130984467Y-88332865D01*
X130933091Y-88377382D01*
X130809836Y-88434856D01*
X130809834Y-88434857D01*
X130628444Y-88561868D01*
X130471868Y-88718444D01*
X130344857Y-88899834D01*
X130344856Y-88899836D01*
X130251279Y-89100513D01*
X130251275Y-89100524D01*
X130193965Y-89314407D01*
X130193964Y-89314414D01*
X130174666Y-89534998D01*
X130174666Y-89535001D01*
X130193964Y-89755585D01*
X130193965Y-89755592D01*
X130251275Y-89969475D01*
X130251279Y-89969486D01*
X130344856Y-90170163D01*
X130344858Y-90170167D01*
X130471868Y-90351555D01*
X130628445Y-90508132D01*
X130809833Y-90635142D01*
X130871828Y-90664050D01*
X130933091Y-90692618D01*
X130985531Y-90738790D01*
X131004683Y-90805983D01*
X130984467Y-90872865D01*
X130933091Y-90917382D01*
X130809836Y-90974856D01*
X130809834Y-90974857D01*
X130628444Y-91101868D01*
X130471868Y-91258444D01*
X130344857Y-91439834D01*
X130344856Y-91439836D01*
X130251279Y-91640513D01*
X130251275Y-91640524D01*
X130193965Y-91854407D01*
X130193964Y-91854414D01*
X130174666Y-92074998D01*
X130174666Y-92075001D01*
X130193964Y-92295585D01*
X130193965Y-92295592D01*
X130251275Y-92509475D01*
X130251279Y-92509486D01*
X130344856Y-92710163D01*
X130344858Y-92710167D01*
X130471868Y-92891555D01*
X130628445Y-93048132D01*
X130809833Y-93175142D01*
X130871828Y-93204050D01*
X130933091Y-93232618D01*
X130985531Y-93278790D01*
X131004683Y-93345983D01*
X130984467Y-93412865D01*
X130933091Y-93457382D01*
X130809836Y-93514856D01*
X130809834Y-93514857D01*
X130628444Y-93641868D01*
X130471868Y-93798444D01*
X130344857Y-93979834D01*
X130344856Y-93979836D01*
X130251279Y-94180513D01*
X130251275Y-94180524D01*
X130193965Y-94394407D01*
X130193964Y-94394414D01*
X130174666Y-94614998D01*
X130174666Y-94615001D01*
X130193964Y-94835585D01*
X130193965Y-94835592D01*
X130251275Y-95049475D01*
X130251279Y-95049486D01*
X130312494Y-95180762D01*
X130344858Y-95250167D01*
X130471868Y-95431555D01*
X130628445Y-95588132D01*
X130809833Y-95715142D01*
X130871828Y-95744050D01*
X130933091Y-95772618D01*
X130985531Y-95818790D01*
X131004683Y-95885983D01*
X130984467Y-95952865D01*
X130933091Y-95997382D01*
X130809836Y-96054856D01*
X130809834Y-96054857D01*
X130628444Y-96181868D01*
X130471868Y-96338444D01*
X130344857Y-96519834D01*
X130344856Y-96519836D01*
X130251279Y-96720513D01*
X130251275Y-96720524D01*
X130193965Y-96934407D01*
X130193964Y-96934414D01*
X130174666Y-97154998D01*
X130174666Y-97155001D01*
X130193964Y-97375585D01*
X130193965Y-97375592D01*
X130251275Y-97589475D01*
X130251279Y-97589486D01*
X130333767Y-97766382D01*
X130344858Y-97790167D01*
X130471868Y-97971555D01*
X130628445Y-98128132D01*
X130809833Y-98255142D01*
X130828482Y-98263838D01*
X130933091Y-98312618D01*
X130985531Y-98358790D01*
X131004683Y-98425983D01*
X130984467Y-98492865D01*
X130933091Y-98537382D01*
X130809836Y-98594856D01*
X130809834Y-98594857D01*
X130628444Y-98721868D01*
X130471868Y-98878444D01*
X130344857Y-99059834D01*
X130344856Y-99059836D01*
X130251279Y-99260513D01*
X130251275Y-99260524D01*
X130193965Y-99474407D01*
X130193964Y-99474414D01*
X130174666Y-99694998D01*
X130174666Y-99695001D01*
X130193964Y-99915585D01*
X130193965Y-99915592D01*
X130251275Y-100129475D01*
X130251279Y-100129486D01*
X130344856Y-100330163D01*
X130344858Y-100330167D01*
X130471868Y-100511555D01*
X130628445Y-100668132D01*
X130809833Y-100795142D01*
X130871828Y-100824050D01*
X130933091Y-100852618D01*
X130985531Y-100898790D01*
X131004683Y-100965983D01*
X130984467Y-101032865D01*
X130933091Y-101077382D01*
X130809836Y-101134856D01*
X130809834Y-101134857D01*
X130628444Y-101261868D01*
X130471868Y-101418444D01*
X130344857Y-101599834D01*
X130344856Y-101599836D01*
X130251279Y-101800513D01*
X130251275Y-101800524D01*
X130193965Y-102014407D01*
X130193964Y-102014414D01*
X130174666Y-102234998D01*
X130174666Y-102235001D01*
X130193964Y-102455585D01*
X130193965Y-102455592D01*
X130251275Y-102669475D01*
X130251279Y-102669486D01*
X130344856Y-102870163D01*
X130344858Y-102870167D01*
X130471868Y-103051555D01*
X130628445Y-103208132D01*
X130809833Y-103335142D01*
X130933093Y-103392618D01*
X130985530Y-103438788D01*
X131004683Y-103505982D01*
X130984468Y-103572863D01*
X130933092Y-103617381D01*
X130809833Y-103674857D01*
X130628444Y-103801868D01*
X130471868Y-103958444D01*
X130344857Y-104139834D01*
X130344856Y-104139836D01*
X130251279Y-104340513D01*
X130251275Y-104340524D01*
X130193965Y-104554407D01*
X130193964Y-104554414D01*
X130174666Y-104774998D01*
X130174666Y-104775001D01*
X130193964Y-104995585D01*
X130193965Y-104995592D01*
X130251275Y-105209475D01*
X130251279Y-105209486D01*
X130327112Y-105372111D01*
X130344858Y-105410167D01*
X130471868Y-105591555D01*
X130628445Y-105748132D01*
X130809833Y-105875142D01*
X130871828Y-105904050D01*
X130933091Y-105932618D01*
X130985531Y-105978790D01*
X131004683Y-106045983D01*
X130984467Y-106112865D01*
X130933091Y-106157382D01*
X130809836Y-106214856D01*
X130809834Y-106214857D01*
X130628444Y-106341868D01*
X130471868Y-106498444D01*
X130344857Y-106679834D01*
X130344856Y-106679836D01*
X130251279Y-106880513D01*
X130251275Y-106880524D01*
X130193965Y-107094407D01*
X130193964Y-107094414D01*
X130179784Y-107256497D01*
X130154332Y-107321566D01*
X130097741Y-107362545D01*
X130027979Y-107366423D01*
X129997626Y-107353749D01*
X129997395Y-107354231D01*
X129991129Y-107351213D01*
X129820854Y-107291631D01*
X129820849Y-107291630D01*
X129641604Y-107271435D01*
X129641596Y-107271435D01*
X129462350Y-107291630D01*
X129462345Y-107291631D01*
X129292076Y-107351211D01*
X129139337Y-107447184D01*
X129011784Y-107574737D01*
X128915811Y-107727476D01*
X128856231Y-107897745D01*
X128856230Y-107897750D01*
X128836035Y-108076996D01*
X128836035Y-108077003D01*
X128856231Y-108256253D01*
X128856231Y-108256254D01*
X128877457Y-108316916D01*
X128882809Y-108337975D01*
X128885291Y-108353246D01*
X128885292Y-108353252D01*
X128885293Y-108353255D01*
X128979255Y-108652865D01*
X129010418Y-108752230D01*
X129016100Y-108789336D01*
X129016100Y-110653211D01*
X129040135Y-110774044D01*
X129040140Y-110774061D01*
X129087285Y-110887881D01*
X129087288Y-110887886D01*
X129107193Y-110917675D01*
X129107194Y-110917678D01*
X129107195Y-110917678D01*
X129155741Y-110990332D01*
X129155744Y-110990336D01*
X129247186Y-111081778D01*
X129247208Y-111081798D01*
X129813880Y-111648470D01*
X129842856Y-111694114D01*
X130154447Y-112558806D01*
X130154448Y-112558809D01*
X130247458Y-112816920D01*
X130250576Y-112826865D01*
X130251276Y-112829478D01*
X130252013Y-112831058D01*
X130256292Y-112841434D01*
X130258526Y-112847634D01*
X130262425Y-112858091D01*
X130262606Y-112858561D01*
X130262611Y-112858573D01*
X130262612Y-112858574D01*
X130290319Y-112918464D01*
X130290320Y-112918466D01*
X130290321Y-112918467D01*
X130293626Y-112924014D01*
X130293471Y-112924105D01*
X130302238Y-112938768D01*
X130344857Y-113030166D01*
X130428130Y-113149091D01*
X130471868Y-113211555D01*
X130628445Y-113368132D01*
X130809833Y-113495142D01*
X130871828Y-113524050D01*
X130933091Y-113552618D01*
X130985531Y-113598790D01*
X131004683Y-113665983D01*
X130984467Y-113732865D01*
X130933091Y-113777382D01*
X130809836Y-113834856D01*
X130809834Y-113834857D01*
X130628444Y-113961868D01*
X130471868Y-114118444D01*
X130344857Y-114299834D01*
X130344856Y-114299836D01*
X130251279Y-114500513D01*
X130251275Y-114500524D01*
X130193965Y-114714407D01*
X130193964Y-114714414D01*
X130174666Y-114934998D01*
X130174666Y-114935001D01*
X130193964Y-115155585D01*
X130193965Y-115155592D01*
X130251275Y-115369475D01*
X130251279Y-115369486D01*
X130320413Y-115517745D01*
X130344858Y-115570167D01*
X130471868Y-115751555D01*
X130628445Y-115908132D01*
X130809833Y-116035142D01*
X130933682Y-116092893D01*
X130986122Y-116139065D01*
X131005274Y-116206258D01*
X130985059Y-116273139D01*
X130933683Y-116317657D01*
X130810084Y-116375293D01*
X130744657Y-116421104D01*
X131307424Y-116983871D01*
X131248147Y-116999755D01*
X131131853Y-117066898D01*
X131036898Y-117161853D01*
X130969755Y-117278147D01*
X130953871Y-117337424D01*
X130391104Y-116774657D01*
X130345293Y-116840084D01*
X130251749Y-117040690D01*
X130251745Y-117040699D01*
X130194461Y-117254490D01*
X130194459Y-117254500D01*
X130175168Y-117474999D01*
X130175168Y-117475000D01*
X130194459Y-117695499D01*
X130194461Y-117695509D01*
X130251745Y-117909300D01*
X130251749Y-117909309D01*
X130345295Y-118109919D01*
X130391103Y-118175341D01*
X130391105Y-118175342D01*
X130953871Y-117612575D01*
X130969755Y-117671853D01*
X131036898Y-117788147D01*
X131131853Y-117883102D01*
X131248147Y-117950245D01*
X131307424Y-117966128D01*
X130744656Y-118528894D01*
X130810083Y-118574706D01*
X130810085Y-118574707D01*
X130933683Y-118632342D01*
X130986122Y-118678514D01*
X131005274Y-118745708D01*
X130985058Y-118812589D01*
X130933683Y-118857106D01*
X130809833Y-118914857D01*
X130628444Y-119041868D01*
X130471868Y-119198444D01*
X130344857Y-119379834D01*
X130344856Y-119379836D01*
X130251279Y-119580513D01*
X130251275Y-119580524D01*
X130193965Y-119794407D01*
X130193964Y-119794414D01*
X130174666Y-120014998D01*
X130174666Y-120015001D01*
X130193964Y-120235585D01*
X130193965Y-120235592D01*
X130251275Y-120449475D01*
X130251279Y-120449486D01*
X130322998Y-120603288D01*
X130344858Y-120650167D01*
X130471868Y-120831555D01*
X130628445Y-120988132D01*
X130809833Y-121115142D01*
X130871828Y-121144050D01*
X130933091Y-121172618D01*
X130985531Y-121218790D01*
X131004683Y-121285983D01*
X130984467Y-121352865D01*
X130933091Y-121397382D01*
X130809836Y-121454856D01*
X130809834Y-121454857D01*
X130628444Y-121581868D01*
X130471868Y-121738444D01*
X130344857Y-121919834D01*
X130344856Y-121919836D01*
X130251279Y-122120513D01*
X130251275Y-122120524D01*
X130193965Y-122334407D01*
X130193964Y-122334414D01*
X130174666Y-122554998D01*
X130174666Y-122555001D01*
X130193964Y-122775585D01*
X130193965Y-122775592D01*
X130251275Y-122989475D01*
X130251279Y-122989486D01*
X130344856Y-123190163D01*
X130344858Y-123190167D01*
X130471868Y-123371555D01*
X130628445Y-123528132D01*
X130809833Y-123655142D01*
X130871828Y-123684050D01*
X130933091Y-123712618D01*
X130985531Y-123758790D01*
X131004683Y-123825983D01*
X130984467Y-123892865D01*
X130933091Y-123937382D01*
X130809836Y-123994856D01*
X130809834Y-123994857D01*
X130628444Y-124121868D01*
X130471868Y-124278444D01*
X130344857Y-124459834D01*
X130344856Y-124459836D01*
X130251279Y-124660513D01*
X130251275Y-124660524D01*
X130193965Y-124874407D01*
X130193964Y-124874414D01*
X130174666Y-125094998D01*
X130174666Y-125095001D01*
X130193964Y-125315585D01*
X130193965Y-125315592D01*
X130251275Y-125529475D01*
X130251279Y-125529486D01*
X130292237Y-125617320D01*
X130344858Y-125730167D01*
X130471868Y-125911555D01*
X130628445Y-126068132D01*
X130809833Y-126195142D01*
X130871828Y-126224050D01*
X130933091Y-126252618D01*
X130985531Y-126298790D01*
X131004683Y-126365983D01*
X130984467Y-126432865D01*
X130933091Y-126477382D01*
X130809836Y-126534856D01*
X130809834Y-126534857D01*
X130628444Y-126661868D01*
X130471868Y-126818444D01*
X130344857Y-126999834D01*
X130344856Y-126999836D01*
X130251279Y-127200513D01*
X130251275Y-127200524D01*
X130193965Y-127414407D01*
X130193964Y-127414414D01*
X130174666Y-127634998D01*
X130174666Y-127635001D01*
X130193964Y-127855585D01*
X130193965Y-127855592D01*
X130251275Y-128069475D01*
X130251279Y-128069486D01*
X130344856Y-128270163D01*
X130344858Y-128270167D01*
X130471868Y-128451555D01*
X130628445Y-128608132D01*
X130809833Y-128735142D01*
X130871828Y-128764050D01*
X130933091Y-128792618D01*
X130985531Y-128838790D01*
X131004683Y-128905983D01*
X130984467Y-128972865D01*
X130933091Y-129017382D01*
X130809836Y-129074856D01*
X130809834Y-129074857D01*
X130628444Y-129201868D01*
X130471868Y-129358444D01*
X130344857Y-129539834D01*
X130344856Y-129539836D01*
X130251279Y-129740513D01*
X130251275Y-129740524D01*
X130193965Y-129954407D01*
X130193964Y-129954414D01*
X130174666Y-130174998D01*
X130174666Y-130175001D01*
X130193964Y-130395585D01*
X130193965Y-130395592D01*
X130251275Y-130609475D01*
X130251279Y-130609486D01*
X130319979Y-130756814D01*
X130344858Y-130810167D01*
X130471868Y-130991555D01*
X130628445Y-131148132D01*
X130809833Y-131275142D01*
X130926405Y-131329500D01*
X131010513Y-131368720D01*
X131010515Y-131368720D01*
X131010520Y-131368723D01*
X131224409Y-131426035D01*
X131381974Y-131439820D01*
X131444998Y-131445334D01*
X131445000Y-131445334D01*
X131445002Y-131445334D01*
X131500147Y-131440509D01*
X131665591Y-131426035D01*
X131879480Y-131368723D01*
X132080167Y-131275142D01*
X132261555Y-131148132D01*
X132418132Y-130991555D01*
X132545142Y-130810167D01*
X132638723Y-130609480D01*
X132696035Y-130395591D01*
X132715334Y-130175000D01*
X138420906Y-130175000D01*
X138440053Y-130418297D01*
X138440053Y-130418300D01*
X138440054Y-130418302D01*
X138485951Y-130609475D01*
X138497030Y-130655619D01*
X138590422Y-130881089D01*
X138717937Y-131089173D01*
X138717938Y-131089176D01*
X138771649Y-131152063D01*
X138876441Y-131274759D01*
X138986459Y-131368723D01*
X139062023Y-131433261D01*
X139062026Y-131433262D01*
X139270110Y-131560777D01*
X139495581Y-131654169D01*
X139495578Y-131654169D01*
X139495584Y-131654170D01*
X139495588Y-131654172D01*
X139732898Y-131711146D01*
X139976200Y-131730294D01*
X140219502Y-131711146D01*
X140456812Y-131654172D01*
X140682289Y-131560777D01*
X140890379Y-131433259D01*
X141075959Y-131274759D01*
X141230456Y-131093866D01*
X141288963Y-131055673D01*
X141358831Y-131055175D01*
X141408282Y-131082759D01*
X141427478Y-131100258D01*
X141427480Y-131100259D01*
X141427481Y-131100260D01*
X141609386Y-131212891D01*
X141609387Y-131212891D01*
X141609390Y-131212893D01*
X141808903Y-131290185D01*
X142019220Y-131329500D01*
X142019222Y-131329500D01*
X142233178Y-131329500D01*
X142233180Y-131329500D01*
X142443497Y-131290185D01*
X142643010Y-131212893D01*
X142824922Y-131100258D01*
X142983041Y-130956114D01*
X143027246Y-130897576D01*
X143083355Y-130855941D01*
X143153067Y-130851250D01*
X143214249Y-130884992D01*
X143225152Y-130897575D01*
X143269359Y-130956114D01*
X143427478Y-131100258D01*
X143427483Y-131100261D01*
X143427486Y-131100263D01*
X143609386Y-131212891D01*
X143609387Y-131212891D01*
X143609390Y-131212893D01*
X143808903Y-131290185D01*
X144019220Y-131329500D01*
X144019222Y-131329500D01*
X144233178Y-131329500D01*
X144233180Y-131329500D01*
X144443497Y-131290185D01*
X144643010Y-131212893D01*
X144824922Y-131100258D01*
X144983041Y-130956114D01*
X145027246Y-130897576D01*
X145083355Y-130855941D01*
X145153067Y-130851250D01*
X145214249Y-130884992D01*
X145225152Y-130897575D01*
X145269359Y-130956114D01*
X145427478Y-131100258D01*
X145427483Y-131100261D01*
X145427486Y-131100263D01*
X145609386Y-131212891D01*
X145609387Y-131212891D01*
X145609390Y-131212893D01*
X145808903Y-131290185D01*
X146019220Y-131329500D01*
X146019222Y-131329500D01*
X146233178Y-131329500D01*
X146233180Y-131329500D01*
X146443497Y-131290185D01*
X146643010Y-131212893D01*
X146824922Y-131100258D01*
X146844116Y-131082759D01*
X146906918Y-131052143D01*
X146976305Y-131060340D01*
X147021944Y-131093866D01*
X147123602Y-131212893D01*
X147176441Y-131274759D01*
X147194503Y-131290185D01*
X147362023Y-131433261D01*
X147362026Y-131433262D01*
X147570110Y-131560777D01*
X147795581Y-131654169D01*
X147795578Y-131654169D01*
X147795584Y-131654170D01*
X147795588Y-131654172D01*
X148032898Y-131711146D01*
X148276200Y-131730294D01*
X148519502Y-131711146D01*
X148756812Y-131654172D01*
X148982289Y-131560777D01*
X149190379Y-131433259D01*
X149375959Y-131274759D01*
X149534459Y-131089179D01*
X149661977Y-130881089D01*
X149755372Y-130655612D01*
X149812346Y-130418302D01*
X149831494Y-130175000D01*
X149812346Y-129931698D01*
X149755372Y-129694388D01*
X149691354Y-129539833D01*
X149661977Y-129468910D01*
X149534462Y-129260826D01*
X149534461Y-129260823D01*
X149428797Y-129137107D01*
X149375959Y-129075241D01*
X149253263Y-128970449D01*
X149190376Y-128916738D01*
X149190373Y-128916737D01*
X148982289Y-128789222D01*
X148756818Y-128695830D01*
X148756821Y-128695830D01*
X148651192Y-128670470D01*
X148519502Y-128638854D01*
X148519500Y-128638853D01*
X148519497Y-128638853D01*
X148276200Y-128619706D01*
X148032902Y-128638853D01*
X147795580Y-128695830D01*
X147570110Y-128789222D01*
X147362026Y-128916737D01*
X147362023Y-128916738D01*
X147176441Y-129075241D01*
X147021943Y-129256134D01*
X146963436Y-129294327D01*
X146893568Y-129294825D01*
X146844118Y-129267242D01*
X146824922Y-129249742D01*
X146824916Y-129249738D01*
X146824913Y-129249736D01*
X146643013Y-129137108D01*
X146643007Y-129137106D01*
X146443497Y-129059815D01*
X146233180Y-129020500D01*
X146019220Y-129020500D01*
X145808903Y-129059815D01*
X145682733Y-129108693D01*
X145609392Y-129137106D01*
X145609386Y-129137108D01*
X145427486Y-129249736D01*
X145427483Y-129249738D01*
X145427479Y-129249740D01*
X145427478Y-129249742D01*
X145378024Y-129294825D01*
X145269357Y-129393887D01*
X145225154Y-129452422D01*
X145169044Y-129494058D01*
X145099332Y-129498749D01*
X145038151Y-129465007D01*
X145027246Y-129452422D01*
X144983042Y-129393887D01*
X144953115Y-129366605D01*
X144824922Y-129249742D01*
X144824916Y-129249738D01*
X144824913Y-129249736D01*
X144643013Y-129137108D01*
X144643007Y-129137106D01*
X144443497Y-129059815D01*
X144233180Y-129020500D01*
X144019220Y-129020500D01*
X143808903Y-129059815D01*
X143682733Y-129108693D01*
X143609392Y-129137106D01*
X143609386Y-129137108D01*
X143427486Y-129249736D01*
X143427483Y-129249738D01*
X143427479Y-129249740D01*
X143427478Y-129249742D01*
X143378024Y-129294825D01*
X143269357Y-129393887D01*
X143225154Y-129452422D01*
X143169044Y-129494058D01*
X143099332Y-129498749D01*
X143038151Y-129465007D01*
X143027246Y-129452422D01*
X142983042Y-129393887D01*
X142953115Y-129366605D01*
X142824922Y-129249742D01*
X142824916Y-129249738D01*
X142824913Y-129249736D01*
X142643013Y-129137108D01*
X142643007Y-129137106D01*
X142443497Y-129059815D01*
X142233180Y-129020500D01*
X142019220Y-129020500D01*
X141808903Y-129059815D01*
X141682733Y-129108693D01*
X141609392Y-129137106D01*
X141609386Y-129137108D01*
X141427480Y-129249740D01*
X141427475Y-129249743D01*
X141408281Y-129267241D01*
X141345476Y-129297857D01*
X141276089Y-129289657D01*
X141230456Y-129256135D01*
X141075959Y-129075241D01*
X141075511Y-129074858D01*
X140890376Y-128916738D01*
X140890373Y-128916737D01*
X140682289Y-128789222D01*
X140456818Y-128695830D01*
X140456821Y-128695830D01*
X140351192Y-128670470D01*
X140219502Y-128638854D01*
X140219500Y-128638853D01*
X140219497Y-128638853D01*
X139976200Y-128619706D01*
X139732902Y-128638853D01*
X139495580Y-128695830D01*
X139270110Y-128789222D01*
X139062026Y-128916737D01*
X139062023Y-128916738D01*
X138876441Y-129075241D01*
X138717938Y-129260823D01*
X138717937Y-129260826D01*
X138590422Y-129468910D01*
X138497030Y-129694380D01*
X138440053Y-129931702D01*
X138420906Y-130175000D01*
X132715334Y-130175000D01*
X132696035Y-129954409D01*
X132638723Y-129740520D01*
X132617211Y-129694388D01*
X132545143Y-129539836D01*
X132545142Y-129539834D01*
X132545142Y-129539833D01*
X132418132Y-129358445D01*
X132261555Y-129201868D01*
X132080167Y-129074858D01*
X131956907Y-129017381D01*
X131904468Y-128971210D01*
X131885316Y-128904017D01*
X131905531Y-128837136D01*
X131956908Y-128792618D01*
X131964191Y-128789222D01*
X132080167Y-128735142D01*
X132261555Y-128608132D01*
X132418132Y-128451555D01*
X132545142Y-128270167D01*
X132638723Y-128069480D01*
X132696035Y-127855591D01*
X132715334Y-127635000D01*
X132696035Y-127414409D01*
X132638723Y-127200520D01*
X132545142Y-126999833D01*
X132418132Y-126818445D01*
X132261555Y-126661868D01*
X132080167Y-126534858D01*
X131956907Y-126477381D01*
X131904468Y-126431210D01*
X131885316Y-126364017D01*
X131905531Y-126297136D01*
X131956908Y-126252618D01*
X132080167Y-126195142D01*
X132261555Y-126068132D01*
X132418132Y-125911555D01*
X132545142Y-125730167D01*
X132638723Y-125529480D01*
X132696035Y-125315591D01*
X132715334Y-125095000D01*
X132696035Y-124874409D01*
X132638723Y-124660520D01*
X132545142Y-124459833D01*
X132418132Y-124278445D01*
X132261555Y-124121868D01*
X132080167Y-123994858D01*
X131956907Y-123937381D01*
X131904468Y-123891210D01*
X131885316Y-123824017D01*
X131905531Y-123757136D01*
X131956908Y-123712618D01*
X132080167Y-123655142D01*
X132261555Y-123528132D01*
X132418132Y-123371555D01*
X132545142Y-123190167D01*
X132638723Y-122989480D01*
X132696035Y-122775591D01*
X132715334Y-122555000D01*
X132696035Y-122334409D01*
X132638723Y-122120520D01*
X132545142Y-121919833D01*
X132418132Y-121738445D01*
X132261555Y-121581868D01*
X132080167Y-121454858D01*
X131956907Y-121397381D01*
X131904468Y-121351210D01*
X131885316Y-121284017D01*
X131905531Y-121217136D01*
X131956908Y-121172618D01*
X132080167Y-121115142D01*
X132261555Y-120988132D01*
X132418132Y-120831555D01*
X132545142Y-120650167D01*
X132638723Y-120449480D01*
X132696035Y-120235591D01*
X132715334Y-120015000D01*
X132696035Y-119794409D01*
X132638723Y-119580520D01*
X132545142Y-119379833D01*
X132418132Y-119198445D01*
X132261555Y-119041868D01*
X132080167Y-118914858D01*
X132080163Y-118914856D01*
X131956317Y-118857106D01*
X131903877Y-118810934D01*
X131884725Y-118743741D01*
X131904941Y-118676859D01*
X131956317Y-118632342D01*
X132079912Y-118574708D01*
X132079914Y-118574707D01*
X132145342Y-118528894D01*
X131582575Y-117966127D01*
X131641853Y-117950245D01*
X131758147Y-117883102D01*
X131853102Y-117788147D01*
X131920245Y-117671853D01*
X131936128Y-117612575D01*
X132498894Y-118175342D01*
X132544706Y-118109915D01*
X132638250Y-117909309D01*
X132638254Y-117909300D01*
X132695538Y-117695509D01*
X132695540Y-117695499D01*
X132714832Y-117475000D01*
X132714832Y-117474999D01*
X132695540Y-117254500D01*
X132695538Y-117254490D01*
X132638254Y-117040699D01*
X132638250Y-117040690D01*
X132544707Y-116840085D01*
X132544706Y-116840083D01*
X132498894Y-116774657D01*
X132498894Y-116774656D01*
X131936127Y-117337423D01*
X131920245Y-117278147D01*
X131853102Y-117161853D01*
X131758147Y-117066898D01*
X131641853Y-116999755D01*
X131582575Y-116983872D01*
X132145342Y-116421105D01*
X132145341Y-116421103D01*
X132079919Y-116375295D01*
X131956316Y-116317657D01*
X131903877Y-116271484D01*
X131884725Y-116204291D01*
X131904941Y-116137410D01*
X131956312Y-116092895D01*
X132080167Y-116035142D01*
X132261555Y-115908132D01*
X132418132Y-115751555D01*
X132545142Y-115570167D01*
X132638723Y-115369480D01*
X132696035Y-115155591D01*
X132715334Y-114935000D01*
X132714880Y-114929816D01*
X132699700Y-114756300D01*
X132696035Y-114714409D01*
X132638723Y-114500520D01*
X132573567Y-114360792D01*
X132563076Y-114291717D01*
X132591596Y-114227933D01*
X132650072Y-114189694D01*
X132719940Y-114189139D01*
X132773631Y-114220709D01*
X132847738Y-114294816D01*
X133000478Y-114390789D01*
X133170745Y-114450368D01*
X133170750Y-114450369D01*
X133349996Y-114470565D01*
X133350000Y-114470565D01*
X133350004Y-114470565D01*
X133529249Y-114450369D01*
X133529252Y-114450368D01*
X133529255Y-114450368D01*
X133699522Y-114390789D01*
X133844018Y-114299996D01*
X138894435Y-114299996D01*
X138894435Y-114300003D01*
X138914630Y-114479249D01*
X138914631Y-114479254D01*
X138974211Y-114649523D01*
X139014981Y-114714407D01*
X139070184Y-114802262D01*
X139197738Y-114929816D01*
X139205990Y-114935001D01*
X139344078Y-115021768D01*
X139350478Y-115025789D01*
X139520745Y-115085368D01*
X139520750Y-115085369D01*
X139699996Y-115105565D01*
X139700000Y-115105565D01*
X139700004Y-115105565D01*
X139879249Y-115085369D01*
X139879252Y-115085368D01*
X139879255Y-115085368D01*
X140049522Y-115025789D01*
X140202262Y-114929816D01*
X140329816Y-114802262D01*
X140425789Y-114649522D01*
X140425792Y-114649510D01*
X140428438Y-114644020D01*
X140431825Y-114636205D01*
X140623774Y-114268850D01*
X140645991Y-114238597D01*
X143995858Y-110888733D01*
X144064312Y-110786285D01*
X144091932Y-110719603D01*
X144111463Y-110672452D01*
X144116314Y-110648060D01*
X144121210Y-110623451D01*
X144121210Y-110623448D01*
X144135501Y-110551606D01*
X144135501Y-110428393D01*
X144135501Y-110423283D01*
X144135500Y-110423257D01*
X144135500Y-103123996D01*
X145625435Y-103123996D01*
X145625435Y-103124003D01*
X145645631Y-103303253D01*
X145645631Y-103303254D01*
X145666857Y-103363916D01*
X145672209Y-103384975D01*
X145674691Y-103400246D01*
X145674692Y-103400252D01*
X145674693Y-103400255D01*
X145742787Y-103617382D01*
X145799818Y-103799230D01*
X145805500Y-103836336D01*
X145805500Y-114984662D01*
X145799818Y-115021768D01*
X145674692Y-115420746D01*
X145666344Y-115450528D01*
X145665347Y-115455809D01*
X145664783Y-115455702D01*
X145660349Y-115475684D01*
X145645631Y-115517748D01*
X145645630Y-115517751D01*
X145625435Y-115696996D01*
X145625435Y-115697003D01*
X145645630Y-115876249D01*
X145645631Y-115876254D01*
X145705211Y-116046523D01*
X145792873Y-116186035D01*
X145801184Y-116199262D01*
X145928738Y-116326816D01*
X145935865Y-116331294D01*
X146078794Y-116421103D01*
X146081478Y-116422789D01*
X146192379Y-116461595D01*
X146251745Y-116482368D01*
X146251750Y-116482369D01*
X146430996Y-116502565D01*
X146431000Y-116502565D01*
X146431004Y-116502565D01*
X146610249Y-116482369D01*
X146610252Y-116482368D01*
X146610255Y-116482368D01*
X146780522Y-116422789D01*
X146933262Y-116326816D01*
X147060816Y-116199262D01*
X147156789Y-116046522D01*
X147216368Y-115876255D01*
X147219026Y-115852664D01*
X147236565Y-115697003D01*
X147236565Y-115696996D01*
X147216369Y-115517748D01*
X147200173Y-115471464D01*
X147195140Y-115457081D01*
X147189788Y-115436023D01*
X147187306Y-115420745D01*
X147082127Y-115085368D01*
X147062182Y-115021769D01*
X147056500Y-114984663D01*
X147056500Y-103836338D01*
X147062182Y-103799232D01*
X147080361Y-103741267D01*
X147187307Y-103400254D01*
X147195654Y-103370474D01*
X147196653Y-103365184D01*
X147197222Y-103365291D01*
X147201651Y-103345310D01*
X147216368Y-103303255D01*
X147236565Y-103124000D01*
X147229932Y-103065134D01*
X147216369Y-102944750D01*
X147216368Y-102944745D01*
X147205463Y-102913581D01*
X147156789Y-102774478D01*
X147060816Y-102621738D01*
X146933262Y-102494184D01*
X146893550Y-102469231D01*
X146780523Y-102398211D01*
X146610254Y-102338631D01*
X146610249Y-102338630D01*
X146431004Y-102318435D01*
X146430996Y-102318435D01*
X146251750Y-102338630D01*
X146251745Y-102338631D01*
X146081476Y-102398211D01*
X145928737Y-102494184D01*
X145801184Y-102621737D01*
X145705211Y-102774476D01*
X145645631Y-102944745D01*
X145645630Y-102944750D01*
X145625435Y-103123996D01*
X144135500Y-103123996D01*
X144135500Y-100329996D01*
X149054435Y-100329996D01*
X149054435Y-100330003D01*
X149074630Y-100509249D01*
X149074631Y-100509254D01*
X149134211Y-100679523D01*
X149208969Y-100798499D01*
X149230184Y-100832262D01*
X149357738Y-100959816D01*
X149393440Y-100982249D01*
X149492336Y-101044390D01*
X149510478Y-101055789D01*
X149613963Y-101092000D01*
X149680745Y-101115368D01*
X149680750Y-101115369D01*
X149859996Y-101135565D01*
X149860000Y-101135565D01*
X149860004Y-101135565D01*
X150039249Y-101115369D01*
X150039252Y-101115368D01*
X150039255Y-101115368D01*
X150209522Y-101055789D01*
X150362262Y-100959816D01*
X150489816Y-100832262D01*
X150585789Y-100679522D01*
X150645368Y-100509255D01*
X150651211Y-100457397D01*
X150665565Y-100330003D01*
X150665565Y-100329996D01*
X150645369Y-100150748D01*
X150628697Y-100103102D01*
X150624140Y-100090081D01*
X150618788Y-100069023D01*
X150616306Y-100053745D01*
X150503799Y-99695000D01*
X150491182Y-99654769D01*
X150485500Y-99617663D01*
X150485500Y-99539328D01*
X150505185Y-99472289D01*
X150552074Y-99429427D01*
X150831202Y-99283578D01*
X150839037Y-99280182D01*
X150844515Y-99277544D01*
X150844516Y-99277542D01*
X150844522Y-99277541D01*
X150997262Y-99181568D01*
X151124816Y-99054014D01*
X151220789Y-98901274D01*
X151280368Y-98731007D01*
X151283720Y-98701258D01*
X151300565Y-98551755D01*
X151300565Y-98551748D01*
X151280369Y-98372502D01*
X151280368Y-98372497D01*
X151259415Y-98312618D01*
X151220789Y-98202230D01*
X151124816Y-98049490D01*
X150997262Y-97921936D01*
X150915221Y-97870386D01*
X150844523Y-97825963D01*
X150674254Y-97766383D01*
X150674249Y-97766382D01*
X150495004Y-97746187D01*
X150494996Y-97746187D01*
X150315750Y-97766382D01*
X150315745Y-97766383D01*
X150145476Y-97825963D01*
X149992737Y-97921936D01*
X149865184Y-98049489D01*
X149769212Y-98202228D01*
X149766569Y-98207714D01*
X149763180Y-98215530D01*
X149571221Y-98582902D01*
X149549002Y-98613156D01*
X149461272Y-98700887D01*
X149461269Y-98700892D01*
X149461267Y-98700894D01*
X149431160Y-98731001D01*
X149374142Y-98788018D01*
X149350278Y-98823734D01*
X149350277Y-98823735D01*
X149305690Y-98890460D01*
X149305688Y-98890465D01*
X149280827Y-98950483D01*
X149280828Y-98950484D01*
X149278040Y-98957216D01*
X149261464Y-98997235D01*
X149258538Y-99004298D01*
X149258535Y-99004307D01*
X149254128Y-99026462D01*
X149254129Y-99026463D01*
X149243022Y-99082304D01*
X149243021Y-99082305D01*
X149234500Y-99125141D01*
X149234500Y-99617662D01*
X149228818Y-99654768D01*
X149103692Y-100053746D01*
X149095344Y-100083528D01*
X149094347Y-100088809D01*
X149093783Y-100088702D01*
X149089349Y-100108684D01*
X149074631Y-100150748D01*
X149074630Y-100150751D01*
X149054435Y-100329996D01*
X144135500Y-100329996D01*
X144135500Y-99137338D01*
X144141182Y-99100232D01*
X144146804Y-99082305D01*
X144266307Y-98701254D01*
X144274654Y-98671474D01*
X144275653Y-98666184D01*
X144276222Y-98666291D01*
X144280651Y-98646310D01*
X144295368Y-98604255D01*
X144313428Y-98443965D01*
X144315565Y-98425003D01*
X144315565Y-98424996D01*
X144295369Y-98245750D01*
X144295368Y-98245745D01*
X144267016Y-98164720D01*
X144235789Y-98075478D01*
X144139816Y-97922738D01*
X144012262Y-97795184D01*
X143859523Y-97699211D01*
X143689254Y-97639631D01*
X143689249Y-97639630D01*
X143510004Y-97619435D01*
X143509996Y-97619435D01*
X143330750Y-97639630D01*
X143330745Y-97639631D01*
X143160476Y-97699211D01*
X143007737Y-97795184D01*
X142880184Y-97922737D01*
X142784211Y-98075476D01*
X142724631Y-98245745D01*
X142724630Y-98245750D01*
X142704435Y-98424996D01*
X142704435Y-98425003D01*
X142724631Y-98604253D01*
X142724631Y-98604254D01*
X142745857Y-98664916D01*
X142751209Y-98685975D01*
X142753691Y-98701246D01*
X142753692Y-98701252D01*
X142753693Y-98701255D01*
X142878083Y-99097888D01*
X142878818Y-99100230D01*
X142884500Y-99137336D01*
X142884500Y-110179547D01*
X142864815Y-110246586D01*
X142848181Y-110267228D01*
X139761408Y-113354000D01*
X139731153Y-113376220D01*
X139363783Y-113568178D01*
X139355956Y-113571572D01*
X139350479Y-113574210D01*
X139197737Y-113670184D01*
X139070184Y-113797737D01*
X138974211Y-113950476D01*
X138914631Y-114120745D01*
X138914630Y-114120750D01*
X138894435Y-114299996D01*
X133844018Y-114299996D01*
X133852262Y-114294816D01*
X133979816Y-114167262D01*
X134075789Y-114014522D01*
X134135368Y-113844255D01*
X134140609Y-113797738D01*
X134155565Y-113665003D01*
X134155565Y-113664996D01*
X134135369Y-113485748D01*
X134135368Y-113485745D01*
X134114140Y-113425081D01*
X134108788Y-113404023D01*
X134106306Y-113388745D01*
X134062085Y-113247743D01*
X134060807Y-113177887D01*
X134097500Y-113118428D01*
X134160514Y-113088245D01*
X134229843Y-113096921D01*
X134246376Y-113105645D01*
X134266720Y-113118428D01*
X134270478Y-113120789D01*
X134383963Y-113160499D01*
X134440745Y-113180368D01*
X134440750Y-113180369D01*
X134619996Y-113200565D01*
X134620000Y-113200565D01*
X134620004Y-113200565D01*
X134799249Y-113180369D01*
X134799252Y-113180368D01*
X134799255Y-113180368D01*
X134969522Y-113120789D01*
X135122262Y-113024816D01*
X135249816Y-112897262D01*
X135345789Y-112744522D01*
X135405368Y-112574255D01*
X135405369Y-112574249D01*
X135425565Y-112395003D01*
X135425565Y-112394996D01*
X135405369Y-112215748D01*
X135384141Y-112155083D01*
X135378788Y-112134023D01*
X135376306Y-112118745D01*
X135263746Y-111759833D01*
X135251182Y-111719769D01*
X135245500Y-111682663D01*
X135245500Y-108027338D01*
X135251182Y-107990232D01*
X135264500Y-107947765D01*
X135376307Y-107591254D01*
X135384654Y-107561474D01*
X135385653Y-107556184D01*
X135386222Y-107556291D01*
X135390651Y-107536310D01*
X135405368Y-107494255D01*
X135421485Y-107351211D01*
X135425565Y-107315003D01*
X135425565Y-107314996D01*
X135405369Y-107135750D01*
X135405368Y-107135745D01*
X135345788Y-106965476D01*
X135292402Y-106880513D01*
X135249816Y-106812738D01*
X135122262Y-106685184D01*
X135104765Y-106674190D01*
X134969523Y-106589211D01*
X134799254Y-106529631D01*
X134799249Y-106529630D01*
X134620004Y-106509435D01*
X134619996Y-106509435D01*
X134440750Y-106529630D01*
X134440745Y-106529631D01*
X134270476Y-106589211D01*
X134165472Y-106655190D01*
X134098235Y-106674190D01*
X134031400Y-106653822D01*
X133986186Y-106600554D01*
X133975500Y-106550196D01*
X133975500Y-104078393D01*
X133975499Y-104078389D01*
X133959494Y-103997925D01*
X133951463Y-103957548D01*
X133919137Y-103879507D01*
X133904312Y-103843715D01*
X133875961Y-103801286D01*
X133874587Y-103799230D01*
X133835856Y-103741264D01*
X133745637Y-103651045D01*
X133745606Y-103651016D01*
X133076118Y-102981528D01*
X133047142Y-102935884D01*
X132642544Y-101813088D01*
X132639426Y-101803145D01*
X132639356Y-101802883D01*
X132638723Y-101800520D01*
X132638720Y-101800513D01*
X132637976Y-101798917D01*
X132633701Y-101788549D01*
X132631476Y-101782374D01*
X132627573Y-101771907D01*
X132627392Y-101771437D01*
X132627389Y-101771432D01*
X132627387Y-101771425D01*
X132599680Y-101711535D01*
X132599676Y-101711530D01*
X132599675Y-101711527D01*
X132596371Y-101705981D01*
X132596525Y-101705888D01*
X132587760Y-101691228D01*
X132545143Y-101599836D01*
X132545142Y-101599834D01*
X132545142Y-101599833D01*
X132418132Y-101418445D01*
X132261555Y-101261868D01*
X132080167Y-101134858D01*
X131956907Y-101077381D01*
X131904468Y-101031210D01*
X131885316Y-100964017D01*
X131905531Y-100897136D01*
X131956908Y-100852618D01*
X131969726Y-100846641D01*
X132080167Y-100795142D01*
X132261555Y-100668132D01*
X132418132Y-100511555D01*
X132545142Y-100330167D01*
X132638723Y-100129480D01*
X132696035Y-99915591D01*
X132715334Y-99695000D01*
X132710918Y-99644530D01*
X132707663Y-99607318D01*
X132696035Y-99474409D01*
X132638723Y-99260520D01*
X132634005Y-99250403D01*
X132576094Y-99126210D01*
X132545142Y-99059833D01*
X132418132Y-98878445D01*
X132261555Y-98721868D01*
X132080167Y-98594858D01*
X131956907Y-98537381D01*
X131904468Y-98491210D01*
X131885316Y-98424017D01*
X131905531Y-98357136D01*
X131956908Y-98312618D01*
X132080167Y-98255142D01*
X132261555Y-98128132D01*
X132418132Y-97971555D01*
X132545142Y-97790167D01*
X132638723Y-97589480D01*
X132696035Y-97375591D01*
X132715334Y-97155000D01*
X132696035Y-96934409D01*
X132638723Y-96720520D01*
X132545142Y-96519833D01*
X132418132Y-96338445D01*
X132261555Y-96181868D01*
X132080167Y-96054858D01*
X131956907Y-95997381D01*
X131904468Y-95951210D01*
X131885316Y-95884017D01*
X131905531Y-95817136D01*
X131956908Y-95772618D01*
X132080167Y-95715142D01*
X132261555Y-95588132D01*
X132418132Y-95431555D01*
X132545142Y-95250167D01*
X132638723Y-95049480D01*
X132696035Y-94835591D01*
X132715334Y-94615000D01*
X132696035Y-94394409D01*
X132638723Y-94180520D01*
X132636726Y-94176238D01*
X132577247Y-94048684D01*
X132545142Y-93979833D01*
X132418132Y-93798445D01*
X132261555Y-93641868D01*
X132080167Y-93514858D01*
X131956907Y-93457381D01*
X131904468Y-93411210D01*
X131885316Y-93344017D01*
X131905531Y-93277136D01*
X131956908Y-93232618D01*
X132080167Y-93175142D01*
X132261555Y-93048132D01*
X132418132Y-92891555D01*
X132545142Y-92710167D01*
X132638723Y-92509480D01*
X132696035Y-92295591D01*
X132715334Y-92075000D01*
X132696035Y-91854409D01*
X132638723Y-91640520D01*
X132545142Y-91439833D01*
X132418132Y-91258445D01*
X132261555Y-91101868D01*
X132080167Y-90974858D01*
X131956907Y-90917381D01*
X131904468Y-90871210D01*
X131885316Y-90804017D01*
X131905531Y-90737136D01*
X131956908Y-90692618D01*
X132080167Y-90635142D01*
X132261555Y-90508132D01*
X132418132Y-90351555D01*
X132545142Y-90170167D01*
X132638723Y-89969480D01*
X132696035Y-89755591D01*
X132715334Y-89535000D01*
X132696035Y-89314409D01*
X132638723Y-89100520D01*
X132545142Y-88899833D01*
X132418132Y-88718445D01*
X132261555Y-88561868D01*
X132080167Y-88434858D01*
X132065912Y-88428211D01*
X131956908Y-88377382D01*
X131904468Y-88331210D01*
X131885316Y-88264017D01*
X131905531Y-88197136D01*
X131956908Y-88152618D01*
X132080167Y-88095142D01*
X132261555Y-87968132D01*
X132418132Y-87811555D01*
X132545142Y-87630167D01*
X132638723Y-87429480D01*
X132696035Y-87215591D01*
X132715334Y-86995000D01*
X132696035Y-86774409D01*
X132638723Y-86560520D01*
X132545142Y-86359833D01*
X132418132Y-86178445D01*
X132261555Y-86021868D01*
X132261552Y-86021866D01*
X132261550Y-86021864D01*
X132182030Y-85966184D01*
X132153309Y-85946073D01*
X132109685Y-85891497D01*
X132102491Y-85821999D01*
X132134014Y-85759644D01*
X132192934Y-85725000D01*
X136889540Y-85725000D01*
X136909326Y-85913256D01*
X136909328Y-85913262D01*
X136948706Y-86034458D01*
X136951823Y-86045880D01*
X136956602Y-86067389D01*
X136956607Y-86067406D01*
X137161489Y-86609390D01*
X137169500Y-86653236D01*
X137169500Y-87336761D01*
X137161489Y-87380607D01*
X136956606Y-87922594D01*
X136942418Y-87965945D01*
X136941980Y-87969344D01*
X136936932Y-87991778D01*
X136909328Y-88076737D01*
X136909326Y-88076743D01*
X136889540Y-88265000D01*
X136909326Y-88453256D01*
X136909328Y-88453262D01*
X136948706Y-88574458D01*
X136951823Y-88585880D01*
X136956602Y-88607389D01*
X136956607Y-88607406D01*
X137161489Y-89149390D01*
X137169500Y-89193236D01*
X137169500Y-89876761D01*
X137161489Y-89920607D01*
X136956606Y-90462594D01*
X136942418Y-90505945D01*
X136941980Y-90509344D01*
X136936932Y-90531778D01*
X136909328Y-90616737D01*
X136909326Y-90616743D01*
X136889540Y-90805000D01*
X136909326Y-90993256D01*
X136909328Y-90993262D01*
X136948706Y-91114458D01*
X136951823Y-91125880D01*
X136956602Y-91147389D01*
X136956607Y-91147406D01*
X137161489Y-91689390D01*
X137169500Y-91733236D01*
X137169500Y-92416761D01*
X137161489Y-92460607D01*
X136956606Y-93002594D01*
X136942418Y-93045945D01*
X136941980Y-93049344D01*
X136936932Y-93071778D01*
X136909328Y-93156737D01*
X136909326Y-93156743D01*
X136889540Y-93345000D01*
X136909326Y-93533256D01*
X136909328Y-93533262D01*
X136948706Y-93654458D01*
X136951823Y-93665880D01*
X136956602Y-93687389D01*
X136956607Y-93687406D01*
X137161489Y-94229390D01*
X137169500Y-94273236D01*
X137169500Y-94956761D01*
X137161489Y-95000607D01*
X136956606Y-95542594D01*
X136942418Y-95585945D01*
X136941980Y-95589344D01*
X136936932Y-95611778D01*
X136909328Y-95696737D01*
X136909326Y-95696743D01*
X136889540Y-95885000D01*
X136909326Y-96073256D01*
X136909328Y-96073262D01*
X136948706Y-96194458D01*
X136951823Y-96205880D01*
X136956602Y-96227389D01*
X136956607Y-96227406D01*
X137161489Y-96769390D01*
X137169500Y-96813236D01*
X137169500Y-97496761D01*
X137161489Y-97540607D01*
X136956606Y-98082594D01*
X136942418Y-98125945D01*
X136941980Y-98129344D01*
X136936932Y-98151778D01*
X136909328Y-98236737D01*
X136909326Y-98236743D01*
X136901323Y-98312892D01*
X136889540Y-98425000D01*
X136909326Y-98613256D01*
X136909327Y-98613259D01*
X136967818Y-98793277D01*
X136967821Y-98793284D01*
X137062467Y-98957216D01*
X137148652Y-99052934D01*
X137189129Y-99097888D01*
X137342265Y-99209148D01*
X137342270Y-99209151D01*
X137515192Y-99286142D01*
X137515197Y-99286144D01*
X137700354Y-99325500D01*
X137700355Y-99325500D01*
X137889644Y-99325500D01*
X137889646Y-99325500D01*
X138074803Y-99286144D01*
X138247730Y-99209151D01*
X138400871Y-99097888D01*
X138527533Y-98957216D01*
X138622179Y-98793284D01*
X138680674Y-98613256D01*
X138700460Y-98425000D01*
X138680674Y-98236744D01*
X138641285Y-98115521D01*
X138638171Y-98104105D01*
X138633394Y-98082600D01*
X138428510Y-97540607D01*
X138420500Y-97496764D01*
X138420500Y-96813235D01*
X138428511Y-96769389D01*
X138633390Y-96227410D01*
X138633391Y-96227406D01*
X138633394Y-96227399D01*
X138647580Y-96184054D01*
X138648016Y-96180674D01*
X138653066Y-96158221D01*
X138657525Y-96144500D01*
X138680674Y-96073256D01*
X138700460Y-95885000D01*
X138680674Y-95696744D01*
X138641285Y-95575521D01*
X138638171Y-95564105D01*
X138633394Y-95542600D01*
X138428510Y-95000607D01*
X138420500Y-94956764D01*
X138420500Y-94273235D01*
X138428511Y-94229389D01*
X138633390Y-93687410D01*
X138633391Y-93687406D01*
X138633394Y-93687399D01*
X138647580Y-93644054D01*
X138648016Y-93640674D01*
X138653066Y-93618221D01*
X138680672Y-93533262D01*
X138680671Y-93533262D01*
X138680674Y-93533256D01*
X138700460Y-93345000D01*
X138680674Y-93156744D01*
X138641285Y-93035521D01*
X138638171Y-93024105D01*
X138633394Y-93002600D01*
X138428510Y-92460607D01*
X138420500Y-92416764D01*
X138420500Y-91733235D01*
X138428511Y-91689389D01*
X138633390Y-91147410D01*
X138633391Y-91147406D01*
X138633394Y-91147399D01*
X138647580Y-91104054D01*
X138648016Y-91100674D01*
X138653066Y-91078221D01*
X138680672Y-90993262D01*
X138680671Y-90993262D01*
X138680674Y-90993256D01*
X138700460Y-90805000D01*
X138680674Y-90616744D01*
X138641285Y-90495521D01*
X138638171Y-90484105D01*
X138633394Y-90462600D01*
X138428510Y-89920607D01*
X138420500Y-89876764D01*
X138420500Y-89193235D01*
X138428511Y-89149389D01*
X138633390Y-88607410D01*
X138633391Y-88607406D01*
X138633394Y-88607399D01*
X138647580Y-88564054D01*
X138648016Y-88560674D01*
X138653066Y-88538221D01*
X138680672Y-88453262D01*
X138680671Y-88453262D01*
X138680674Y-88453256D01*
X138700460Y-88265000D01*
X138680674Y-88076744D01*
X138641285Y-87955521D01*
X138638171Y-87944105D01*
X138633394Y-87922600D01*
X138428510Y-87380607D01*
X138420500Y-87336764D01*
X138420500Y-86653235D01*
X138428511Y-86609389D01*
X138633390Y-86067410D01*
X138633391Y-86067406D01*
X138633394Y-86067399D01*
X138647580Y-86024054D01*
X138648016Y-86020674D01*
X138653066Y-85998221D01*
X138680672Y-85913262D01*
X138680671Y-85913262D01*
X138680674Y-85913256D01*
X138700460Y-85725000D01*
X138680674Y-85536744D01*
X138622179Y-85356716D01*
X138527533Y-85192784D01*
X138400871Y-85052112D01*
X138400870Y-85052111D01*
X138247734Y-84940851D01*
X138247729Y-84940848D01*
X138074807Y-84863857D01*
X138074802Y-84863855D01*
X137929001Y-84832865D01*
X137889646Y-84824500D01*
X137700354Y-84824500D01*
X137667897Y-84831398D01*
X137515197Y-84863855D01*
X137515192Y-84863857D01*
X137342270Y-84940848D01*
X137342265Y-84940851D01*
X137189129Y-85052111D01*
X137062466Y-85192785D01*
X136967821Y-85356715D01*
X136967818Y-85356722D01*
X136918375Y-85508894D01*
X136909326Y-85536744D01*
X136892643Y-85695476D01*
X136889540Y-85725000D01*
X132192934Y-85725000D01*
X132194244Y-85724230D01*
X132224432Y-85720499D01*
X132257872Y-85720499D01*
X132317483Y-85714091D01*
X132452331Y-85663796D01*
X132567546Y-85577546D01*
X132653796Y-85462331D01*
X132704091Y-85327483D01*
X132710500Y-85267873D01*
X132710499Y-83642128D01*
X132704091Y-83582517D01*
X132653796Y-83447669D01*
X132653795Y-83447668D01*
X132653793Y-83447664D01*
X132567547Y-83332455D01*
X132567544Y-83332452D01*
X132452335Y-83246206D01*
X132452328Y-83246202D01*
X132317482Y-83195908D01*
X132317483Y-83195908D01*
X132257883Y-83189501D01*
X132257881Y-83189500D01*
X132257873Y-83189500D01*
X132257864Y-83189500D01*
X130632129Y-83189500D01*
X130632123Y-83189501D01*
X130572516Y-83195908D01*
X130437671Y-83246202D01*
X130437664Y-83246206D01*
X130322456Y-83332452D01*
X130322455Y-83332453D01*
X130322454Y-83332454D01*
X130305357Y-83355293D01*
X130236204Y-83447668D01*
X130235334Y-83449263D01*
X130233637Y-83451098D01*
X130230890Y-83454768D01*
X130230508Y-83454482D01*
X130194272Y-83493675D01*
X130058138Y-83582517D01*
X130015245Y-83610509D01*
X129971669Y-83628282D01*
X129926923Y-83637182D01*
X129926913Y-83637185D01*
X129881583Y-83655962D01*
X129772143Y-83701292D01*
X129772130Y-83701299D01*
X129632838Y-83794372D01*
X129632834Y-83794375D01*
X115163375Y-98263834D01*
X115163372Y-98263838D01*
X115070297Y-98403133D01*
X115035722Y-98486607D01*
X115006184Y-98557917D01*
X115006182Y-98557925D01*
X114973500Y-98722228D01*
X114973500Y-100011713D01*
X114972128Y-100030107D01*
X114847800Y-100858958D01*
X114843834Y-100876554D01*
X114837977Y-100895863D01*
X114837975Y-100895872D01*
X114830083Y-100976002D01*
X114829309Y-100982238D01*
X114826100Y-101003629D01*
X114821938Y-101040626D01*
X114821808Y-101042340D01*
X114821808Y-101042347D01*
X114821933Y-101050668D01*
X114821350Y-101064670D01*
X114818659Y-101091998D01*
X111467456Y-101091998D01*
X111375182Y-100797769D01*
X111369500Y-100760663D01*
X111369500Y-89866338D01*
X111375182Y-89829232D01*
X111375183Y-89829230D01*
X111500307Y-89430254D01*
X111508654Y-89400474D01*
X111509653Y-89395184D01*
X111510222Y-89395291D01*
X111514651Y-89375310D01*
X111529368Y-89333255D01*
X111531491Y-89314414D01*
X111549565Y-89154003D01*
X111549565Y-89153996D01*
X111529369Y-88974750D01*
X111529368Y-88974745D01*
X111503156Y-88899836D01*
X111469789Y-88804478D01*
X111449321Y-88771904D01*
X111407198Y-88704865D01*
X111373816Y-88651738D01*
X111246262Y-88524184D01*
X111232951Y-88515820D01*
X111093523Y-88428211D01*
X110923254Y-88368631D01*
X110923249Y-88368630D01*
X110744004Y-88348435D01*
X110743996Y-88348435D01*
X110564750Y-88368630D01*
X110564745Y-88368631D01*
X110394476Y-88428211D01*
X110241737Y-88524184D01*
X110114184Y-88651737D01*
X110018211Y-88804476D01*
X109958631Y-88974745D01*
X109958630Y-88974750D01*
X109938435Y-89153996D01*
X108956500Y-89153996D01*
X108956500Y-89020135D01*
X108974858Y-88955206D01*
X109158665Y-88656145D01*
X109165997Y-88643108D01*
X109169056Y-88637966D01*
X109183789Y-88614522D01*
X109201802Y-88563043D01*
X109203729Y-88557903D01*
X109213423Y-88533718D01*
X109213424Y-88533705D01*
X109215326Y-88526662D01*
X109215638Y-88526746D01*
X109218322Y-88515830D01*
X109243368Y-88444255D01*
X109256105Y-88331210D01*
X109263565Y-88265003D01*
X109263565Y-88264996D01*
X109243369Y-88085750D01*
X109243368Y-88085745D01*
X109240216Y-88076737D01*
X109183789Y-87915478D01*
X109156592Y-87872195D01*
X109108053Y-87794945D01*
X109087816Y-87762738D01*
X108960262Y-87635184D01*
X108807523Y-87539211D01*
X108637254Y-87479631D01*
X108637249Y-87479630D01*
X108458004Y-87459435D01*
X108457996Y-87459435D01*
X108278750Y-87479630D01*
X108278745Y-87479631D01*
X108108476Y-87539211D01*
X107955737Y-87635184D01*
X107828184Y-87762737D01*
X107828179Y-87762743D01*
X107788493Y-87825904D01*
X107736159Y-87872195D01*
X107667105Y-87882843D01*
X107603257Y-87854468D01*
X107564885Y-87796078D01*
X107559500Y-87759932D01*
X107559500Y-86437338D01*
X107565182Y-86400232D01*
X107565183Y-86400230D01*
X107690307Y-86001254D01*
X107698654Y-85971474D01*
X107699653Y-85966184D01*
X107700222Y-85966291D01*
X107704651Y-85946310D01*
X107719368Y-85904255D01*
X107720427Y-85894856D01*
X107739565Y-85725003D01*
X107739565Y-85724996D01*
X107719369Y-85545750D01*
X107719368Y-85545745D01*
X107706473Y-85508894D01*
X107659789Y-85375478D01*
X107647999Y-85356715D01*
X107596321Y-85274470D01*
X107563816Y-85222738D01*
X107436262Y-85095184D01*
X107427883Y-85089919D01*
X107283523Y-84999211D01*
X107113254Y-84939631D01*
X107113249Y-84939630D01*
X106934004Y-84919435D01*
X106933996Y-84919435D01*
X106754750Y-84939630D01*
X106754745Y-84939631D01*
X106584476Y-84999211D01*
X106431737Y-85095184D01*
X106304184Y-85222737D01*
X106208211Y-85375476D01*
X106148631Y-85545745D01*
X106148630Y-85545750D01*
X106128435Y-85724996D01*
X106128435Y-85725003D01*
X106148631Y-85904253D01*
X106148631Y-85904254D01*
X106169857Y-85964916D01*
X106175209Y-85985975D01*
X106177691Y-86001246D01*
X106177692Y-86001252D01*
X106177693Y-86001255D01*
X106180188Y-86009212D01*
X106302818Y-86400230D01*
X106308500Y-86437336D01*
X106308500Y-98710623D01*
X106288815Y-98777662D01*
X106236011Y-98823417D01*
X106166853Y-98833361D01*
X106126918Y-98818151D01*
X106125968Y-98819929D01*
X106120599Y-98817059D01*
X105929420Y-98737870D01*
X105929412Y-98737868D01*
X105726469Y-98697500D01*
X105726465Y-98697500D01*
X105519535Y-98697500D01*
X105519530Y-98697500D01*
X105316587Y-98737868D01*
X105316579Y-98737870D01*
X105125403Y-98817058D01*
X104953342Y-98932024D01*
X104807024Y-99078342D01*
X104692058Y-99250403D01*
X104612870Y-99441579D01*
X104612868Y-99441587D01*
X104572500Y-99644530D01*
X100299000Y-99644530D01*
X100299000Y-77111400D01*
X100318685Y-77044361D01*
X100371489Y-76998606D01*
X100423000Y-76987400D01*
X134242000Y-76987400D01*
X134309039Y-77007085D01*
G37*
%TD.AperFunction*%
%TA.AperFunction,Conductor*%
G36*
X157898894Y-100395342D02*
G01*
X157949193Y-100390942D01*
X158017693Y-100404709D01*
X158067876Y-100453324D01*
X158084000Y-100514470D01*
X158084000Y-101404865D01*
X158064315Y-101471904D01*
X158011511Y-101517659D01*
X157942353Y-101527603D01*
X157878797Y-101498578D01*
X157858426Y-101475989D01*
X157818137Y-101418452D01*
X157818136Y-101418451D01*
X157818132Y-101418445D01*
X157661555Y-101261868D01*
X157480167Y-101134858D01*
X157458349Y-101124684D01*
X157356317Y-101077106D01*
X157303877Y-101030934D01*
X157284725Y-100963741D01*
X157304941Y-100896859D01*
X157356317Y-100852342D01*
X157479912Y-100794708D01*
X157479914Y-100794707D01*
X157545342Y-100748894D01*
X156982575Y-100186127D01*
X157041853Y-100170245D01*
X157158147Y-100103102D01*
X157253102Y-100008147D01*
X157320245Y-99891853D01*
X157336128Y-99832575D01*
X157898894Y-100395342D01*
G37*
%TD.AperFunction*%
%TA.AperFunction,Conductor*%
G36*
X158044855Y-97894715D02*
G01*
X158080269Y-97954945D01*
X158084000Y-97985134D01*
X158084000Y-98875529D01*
X158064315Y-98942568D01*
X158011511Y-98988323D01*
X157949193Y-98999057D01*
X157898894Y-98994656D01*
X157336127Y-99557423D01*
X157320245Y-99498147D01*
X157253102Y-99381853D01*
X157158147Y-99286898D01*
X157041853Y-99219755D01*
X156982574Y-99203871D01*
X157545342Y-98641104D01*
X157545341Y-98641103D01*
X157479919Y-98595295D01*
X157356316Y-98537657D01*
X157303877Y-98491484D01*
X157284725Y-98424291D01*
X157304941Y-98357410D01*
X157356312Y-98312895D01*
X157480167Y-98255142D01*
X157661555Y-98128132D01*
X157818132Y-97971555D01*
X157858426Y-97914008D01*
X157913002Y-97870386D01*
X157982501Y-97863193D01*
X158044855Y-97894715D01*
G37*
%TD.AperFunction*%
%TA.AperFunction,Conductor*%
G36*
X157898894Y-85155342D02*
G01*
X157949193Y-85150942D01*
X158017693Y-85164709D01*
X158067876Y-85213324D01*
X158084000Y-85274470D01*
X158084000Y-86164865D01*
X158064315Y-86231904D01*
X158011511Y-86277659D01*
X157942353Y-86287603D01*
X157878797Y-86258578D01*
X157858426Y-86235989D01*
X157818137Y-86178452D01*
X157818136Y-86178451D01*
X157818132Y-86178445D01*
X157661555Y-86021868D01*
X157480167Y-85894858D01*
X157480163Y-85894856D01*
X157356317Y-85837106D01*
X157303877Y-85790934D01*
X157284725Y-85723741D01*
X157304941Y-85656859D01*
X157356317Y-85612342D01*
X157479912Y-85554708D01*
X157479914Y-85554707D01*
X157545342Y-85508894D01*
X156982575Y-84946127D01*
X157041853Y-84930245D01*
X157158147Y-84863102D01*
X157253102Y-84768147D01*
X157320245Y-84651853D01*
X157336128Y-84592575D01*
X157898894Y-85155342D01*
G37*
%TD.AperFunction*%
%TD*%
%TA.AperFunction,Conductor*%
%TO.N,+3.3V*%
G36*
X137920188Y-90008427D02*
G01*
X137922859Y-90012563D01*
X138160551Y-90641344D01*
X138160271Y-90650294D01*
X138154109Y-90656280D01*
X137799502Y-90804123D01*
X137790548Y-90804144D01*
X137790498Y-90804123D01*
X137435890Y-90656280D01*
X137429572Y-90649933D01*
X137429448Y-90641345D01*
X137667141Y-90012562D01*
X137673272Y-90006036D01*
X137678085Y-90005000D01*
X137911915Y-90005000D01*
X137920188Y-90008427D01*
G37*
%TD.AperFunction*%
%TD*%
%TA.AperFunction,Conductor*%
%TO.N,+3.3V*%
G36*
X138154109Y-88413719D02*
G01*
X138160427Y-88420066D01*
X138160551Y-88428655D01*
X137922859Y-89057437D01*
X137916728Y-89063964D01*
X137911915Y-89065000D01*
X137678085Y-89065000D01*
X137669812Y-89061573D01*
X137667141Y-89057437D01*
X137429448Y-88428655D01*
X137429728Y-88419705D01*
X137435889Y-88413719D01*
X137790500Y-88265875D01*
X137799449Y-88265855D01*
X138154109Y-88413719D01*
G37*
%TD.AperFunction*%
%TD*%
%TA.AperFunction,Conductor*%
%TO.N,+3.3V*%
G36*
X116172197Y-100095427D02*
G01*
X116175495Y-100101964D01*
X116321988Y-101078591D01*
X116319826Y-101087281D01*
X116312153Y-101091898D01*
X116310440Y-101092027D01*
X115824023Y-101092999D01*
X115823977Y-101092999D01*
X115337559Y-101092027D01*
X115329292Y-101088584D01*
X115325882Y-101080304D01*
X115326011Y-101078591D01*
X115472505Y-100101964D01*
X115477122Y-100094291D01*
X115484076Y-100092000D01*
X116163924Y-100092000D01*
X116172197Y-100095427D01*
G37*
%TD.AperFunction*%
%TD*%
%TA.AperFunction,Conductor*%
%TO.N,+3.3V*%
G36*
X138154109Y-85873719D02*
G01*
X138160427Y-85880066D01*
X138160551Y-85888655D01*
X137922859Y-86517437D01*
X137916728Y-86523964D01*
X137911915Y-86525000D01*
X137678085Y-86525000D01*
X137669812Y-86521573D01*
X137667141Y-86517437D01*
X137429448Y-85888655D01*
X137429728Y-85879705D01*
X137435889Y-85873719D01*
X137790500Y-85725875D01*
X137799449Y-85725855D01*
X138154109Y-85873719D01*
G37*
%TD.AperFunction*%
%TD*%
%TA.AperFunction,Conductor*%
%TO.N,+3.3V*%
G36*
X137920188Y-87468427D02*
G01*
X137922859Y-87472563D01*
X138160551Y-88101344D01*
X138160271Y-88110294D01*
X138154109Y-88116280D01*
X137799502Y-88264123D01*
X137790548Y-88264144D01*
X137790498Y-88264123D01*
X137435890Y-88116280D01*
X137429572Y-88109933D01*
X137429448Y-88101345D01*
X137667141Y-87472562D01*
X137673272Y-87466036D01*
X137678085Y-87465000D01*
X137911915Y-87465000D01*
X137920188Y-87468427D01*
G37*
%TD.AperFunction*%
%TD*%
%TA.AperFunction,Conductor*%
%TO.N,+3.3V*%
G36*
X130686675Y-83786187D02*
G01*
X131436347Y-84446054D01*
X131440293Y-84454092D01*
X131437399Y-84462566D01*
X131436890Y-84463109D01*
X130687203Y-85212796D01*
X130678930Y-85216223D01*
X130671874Y-85213856D01*
X130239282Y-84886821D01*
X130238065Y-84885761D01*
X129753857Y-84401553D01*
X129750430Y-84393280D01*
X129753857Y-84385007D01*
X129755726Y-84383489D01*
X130672553Y-83785171D01*
X130681353Y-83783520D01*
X130686675Y-83786187D01*
G37*
%TD.AperFunction*%
%TD*%
%TA.AperFunction,Conductor*%
%TO.N,+3.3V*%
G36*
X106511619Y-112856036D02*
G01*
X106853963Y-113198380D01*
X106857390Y-113206653D01*
X106856442Y-113211267D01*
X106246042Y-114633809D01*
X106239631Y-114640060D01*
X106230824Y-114640009D01*
X105413785Y-114302562D01*
X105407446Y-114296236D01*
X105407437Y-114296214D01*
X105069990Y-113479173D01*
X105069999Y-113470221D01*
X105076189Y-113463957D01*
X106498732Y-112853556D01*
X106507687Y-112853444D01*
X106511619Y-112856036D01*
G37*
%TD.AperFunction*%
%TD*%
%TA.AperFunction,Conductor*%
%TO.N,+3.3V*%
G36*
X110875939Y-106044964D02*
G01*
X110884202Y-106048412D01*
X110887608Y-106056693D01*
X110887408Y-106058820D01*
X110741790Y-106835456D01*
X110736897Y-106842956D01*
X110730290Y-106845000D01*
X110249710Y-106845000D01*
X110241437Y-106841573D01*
X110238210Y-106835456D01*
X110092591Y-106058820D01*
X110094435Y-106050057D01*
X110101935Y-106045164D01*
X110104052Y-106044964D01*
X110490000Y-106044000D01*
X110875939Y-106044964D01*
G37*
%TD.AperFunction*%
%TD*%
%TA.AperFunction,Conductor*%
%TO.N,+3.3V*%
G36*
X138154109Y-90953719D02*
G01*
X138160427Y-90960066D01*
X138160551Y-90968655D01*
X137922859Y-91597437D01*
X137916728Y-91603964D01*
X137911915Y-91605000D01*
X137678085Y-91605000D01*
X137669812Y-91601573D01*
X137667141Y-91597437D01*
X137429448Y-90968655D01*
X137429728Y-90959705D01*
X137435889Y-90953719D01*
X137790500Y-90805875D01*
X137799449Y-90805855D01*
X138154109Y-90953719D01*
G37*
%TD.AperFunction*%
%TD*%
%TA.AperFunction,Conductor*%
%TO.N,+3.3V*%
G36*
X137920188Y-92548427D02*
G01*
X137922859Y-92552563D01*
X138160551Y-93181344D01*
X138160271Y-93190294D01*
X138154109Y-93196280D01*
X137799502Y-93344123D01*
X137790548Y-93344144D01*
X137790498Y-93344123D01*
X137435890Y-93196280D01*
X137429572Y-93189933D01*
X137429448Y-93181345D01*
X137667141Y-92552562D01*
X137673272Y-92546036D01*
X137678085Y-92545000D01*
X137911915Y-92545000D01*
X137920188Y-92548427D01*
G37*
%TD.AperFunction*%
%TD*%
%TA.AperFunction,Conductor*%
%TO.N,+3.3V*%
G36*
X137920188Y-97628427D02*
G01*
X137922859Y-97632563D01*
X138160551Y-98261344D01*
X138160271Y-98270294D01*
X138154109Y-98276280D01*
X137799502Y-98424123D01*
X137790548Y-98424144D01*
X137790498Y-98424123D01*
X137435890Y-98276280D01*
X137429572Y-98269933D01*
X137429448Y-98261345D01*
X137667141Y-97632562D01*
X137673272Y-97626036D01*
X137678085Y-97625000D01*
X137911915Y-97625000D01*
X137920188Y-97628427D01*
G37*
%TD.AperFunction*%
%TD*%
%TA.AperFunction,Conductor*%
%TO.N,+3.3V*%
G36*
X138154109Y-96033719D02*
G01*
X138160427Y-96040066D01*
X138160551Y-96048655D01*
X137922859Y-96677437D01*
X137916728Y-96683964D01*
X137911915Y-96685000D01*
X137678085Y-96685000D01*
X137669812Y-96681573D01*
X137667141Y-96677437D01*
X137429448Y-96048655D01*
X137429728Y-96039705D01*
X137435889Y-96033719D01*
X137790500Y-95885875D01*
X137799449Y-95885855D01*
X138154109Y-96033719D01*
G37*
%TD.AperFunction*%
%TD*%
%TA.AperFunction,Conductor*%
%TO.N,+3.3V*%
G36*
X137920188Y-95088427D02*
G01*
X137922859Y-95092563D01*
X138160551Y-95721344D01*
X138160271Y-95730294D01*
X138154109Y-95736280D01*
X137799502Y-95884123D01*
X137790548Y-95884144D01*
X137790498Y-95884123D01*
X137435890Y-95736280D01*
X137429572Y-95729933D01*
X137429448Y-95721345D01*
X137667141Y-95092562D01*
X137673272Y-95086036D01*
X137678085Y-95085000D01*
X137911915Y-95085000D01*
X137920188Y-95088427D01*
G37*
%TD.AperFunction*%
%TD*%
%TA.AperFunction,Conductor*%
%TO.N,+3.3V*%
G36*
X138154109Y-93493719D02*
G01*
X138160427Y-93500066D01*
X138160551Y-93508655D01*
X137922859Y-94137437D01*
X137916728Y-94143964D01*
X137911915Y-94145000D01*
X137678085Y-94145000D01*
X137669812Y-94141573D01*
X137667141Y-94137437D01*
X137429448Y-93508655D01*
X137429728Y-93499705D01*
X137435889Y-93493719D01*
X137790500Y-93345875D01*
X137799449Y-93345855D01*
X138154109Y-93493719D01*
G37*
%TD.AperFunction*%
%TD*%
%TA.AperFunction,Conductor*%
%TO.N,/ADAMNET_5V*%
G36*
X140041950Y-113793423D02*
G01*
X140206576Y-113958049D01*
X140210003Y-113966322D01*
X140208673Y-113971740D01*
X139982106Y-114405346D01*
X139975237Y-114411092D01*
X139967292Y-114410751D01*
X139703815Y-114302563D01*
X139697463Y-114296251D01*
X139697436Y-114296184D01*
X139589248Y-114032707D01*
X139589275Y-114023752D01*
X139594651Y-114017894D01*
X140028262Y-113791325D01*
X140037178Y-113790532D01*
X140041950Y-113793423D01*
G37*
%TD.AperFunction*%
%TD*%
%TA.AperFunction,Conductor*%
%TO.N,/ADAMNET_5V*%
G36*
X143777318Y-98535691D02*
G01*
X143783629Y-98542042D01*
X143783970Y-98549987D01*
X143637571Y-99016801D01*
X143631825Y-99023670D01*
X143626407Y-99025000D01*
X143393593Y-99025000D01*
X143385320Y-99021573D01*
X143382429Y-99016801D01*
X143236029Y-98549987D01*
X143236823Y-98541068D01*
X143242679Y-98535692D01*
X143505490Y-98425883D01*
X143514444Y-98425857D01*
X143777318Y-98535691D01*
G37*
%TD.AperFunction*%
%TD*%
%TA.AperFunction,Conductor*%
%TO.N,Net-(D5-K)*%
G36*
X146555680Y-115100427D02*
G01*
X146558571Y-115105199D01*
X146704970Y-115572012D01*
X146704176Y-115580931D01*
X146698317Y-115586309D01*
X146435511Y-115696115D01*
X146426556Y-115696142D01*
X146426489Y-115696115D01*
X146163682Y-115586309D01*
X146157370Y-115579957D01*
X146157029Y-115572013D01*
X146303429Y-115105199D01*
X146309175Y-115098330D01*
X146314593Y-115097000D01*
X146547407Y-115097000D01*
X146555680Y-115100427D01*
G37*
%TD.AperFunction*%
%TD*%
%TA.AperFunction,Conductor*%
%TO.N,Net-(D5-K)*%
G36*
X146698318Y-103234691D02*
G01*
X146704629Y-103241042D01*
X146704970Y-103248987D01*
X146558571Y-103715801D01*
X146552825Y-103722670D01*
X146547407Y-103724000D01*
X146314593Y-103724000D01*
X146306320Y-103720573D01*
X146303429Y-103715801D01*
X146157029Y-103248987D01*
X146157823Y-103240068D01*
X146163679Y-103234692D01*
X146426490Y-103124883D01*
X146435444Y-103124857D01*
X146698318Y-103234691D01*
G37*
%TD.AperFunction*%
%TD*%
%TA.AperFunction,Conductor*%
%TO.N,/ADAMNET_DATA*%
G36*
X133474680Y-113068427D02*
G01*
X133477571Y-113073199D01*
X133623970Y-113540012D01*
X133623176Y-113548931D01*
X133617317Y-113554309D01*
X133354511Y-113664115D01*
X133345556Y-113664142D01*
X133345489Y-113664115D01*
X133082682Y-113554309D01*
X133076370Y-113547957D01*
X133076029Y-113540013D01*
X133222429Y-113073199D01*
X133228175Y-113066330D01*
X133233593Y-113065000D01*
X133466407Y-113065000D01*
X133474680Y-113068427D01*
G37*
%TD.AperFunction*%
%TD*%
%TA.AperFunction,Conductor*%
%TO.N,/ADAMNET_DATA*%
G36*
X132149402Y-101946930D02*
G01*
X132155727Y-101953270D01*
X132155919Y-101953768D01*
X132612744Y-103221497D01*
X132612325Y-103230442D01*
X132610010Y-103233736D01*
X132443736Y-103400010D01*
X132435463Y-103403437D01*
X132431497Y-103402744D01*
X131163768Y-102945919D01*
X131157146Y-102939891D01*
X131156727Y-102930946D01*
X131156906Y-102930481D01*
X131442437Y-102238787D01*
X131448762Y-102232448D01*
X132140450Y-101946919D01*
X132149402Y-101946930D01*
G37*
%TD.AperFunction*%
%TD*%
%TA.AperFunction,Conductor*%
%TO.N,Net-(J3-DAT1)*%
G36*
X124965680Y-100749427D02*
G01*
X124968571Y-100754199D01*
X125114970Y-101221012D01*
X125114176Y-101229931D01*
X125108317Y-101235309D01*
X124845511Y-101345115D01*
X124836556Y-101345142D01*
X124836489Y-101345115D01*
X124573682Y-101235309D01*
X124567370Y-101228957D01*
X124567029Y-101221013D01*
X124713429Y-100754199D01*
X124719175Y-100747330D01*
X124724593Y-100746000D01*
X124957407Y-100746000D01*
X124965680Y-100749427D01*
G37*
%TD.AperFunction*%
%TD*%
%TA.AperFunction,Conductor*%
%TO.N,Net-(J3-DAT1)*%
G36*
X126034069Y-95808015D02*
G01*
X126235241Y-96007850D01*
X126238695Y-96016112D01*
X126238695Y-96016179D01*
X126238024Y-96301368D01*
X126234578Y-96309633D01*
X126227413Y-96312989D01*
X125827363Y-96350376D01*
X125818807Y-96347734D01*
X125818001Y-96347000D01*
X125653456Y-96182455D01*
X125650029Y-96174182D01*
X125653455Y-96165910D01*
X126017623Y-95807971D01*
X126025924Y-95804616D01*
X126034069Y-95808015D01*
G37*
%TD.AperFunction*%
%TD*%
%TA.AperFunction,Conductor*%
%TO.N,/IO5{slash}SPI_CS*%
G36*
X155207318Y-87105691D02*
G01*
X155213629Y-87112042D01*
X155213970Y-87119987D01*
X155067571Y-87586801D01*
X155061825Y-87593670D01*
X155056407Y-87595000D01*
X154823593Y-87595000D01*
X154815320Y-87591573D01*
X154812429Y-87586801D01*
X154666029Y-87119987D01*
X154666823Y-87111068D01*
X154672679Y-87105692D01*
X154935490Y-86995883D01*
X154944444Y-86995857D01*
X155207318Y-87105691D01*
G37*
%TD.AperFunction*%
%TD*%
%TA.AperFunction,Conductor*%
%TO.N,/IO5{slash}SPI_CS*%
G36*
X108460178Y-88264910D02*
G01*
X108698841Y-88364628D01*
X108722546Y-88374533D01*
X108728858Y-88380885D01*
X108728831Y-88389840D01*
X108728003Y-88391455D01*
X108459426Y-88828442D01*
X108452174Y-88833696D01*
X108449458Y-88834016D01*
X108216755Y-88834016D01*
X108208482Y-88830589D01*
X108205096Y-88823299D01*
X108168531Y-88389840D01*
X108159066Y-88277639D01*
X108161786Y-88269109D01*
X108169742Y-88264998D01*
X108170668Y-88264957D01*
X108455636Y-88264007D01*
X108460178Y-88264910D01*
G37*
%TD.AperFunction*%
%TD*%
%TA.AperFunction,Conductor*%
%TO.N,/IO5{slash}SPI_CS*%
G36*
X108455680Y-100876427D02*
G01*
X108458571Y-100881199D01*
X108604970Y-101348012D01*
X108604176Y-101356931D01*
X108598317Y-101362309D01*
X108335511Y-101472115D01*
X108326556Y-101472142D01*
X108326489Y-101472115D01*
X108063682Y-101362309D01*
X108057370Y-101355957D01*
X108057029Y-101348013D01*
X108203429Y-100881199D01*
X108209175Y-100874330D01*
X108214593Y-100873000D01*
X108447407Y-100873000D01*
X108455680Y-100876427D01*
G37*
%TD.AperFunction*%
%TD*%
%TA.AperFunction,Conductor*%
%TO.N,/IO5{slash}SPI_CS*%
G36*
X155858497Y-106147254D02*
G01*
X157126231Y-106604080D01*
X157132853Y-106610108D01*
X157133272Y-106619053D01*
X157133080Y-106619551D01*
X156847562Y-107311211D01*
X156841237Y-107317551D01*
X156841211Y-107317562D01*
X156149551Y-107603080D01*
X156140597Y-107603069D01*
X156134272Y-107596729D01*
X156134080Y-107596231D01*
X156033658Y-107317551D01*
X155677255Y-106328500D01*
X155677674Y-106319557D01*
X155679986Y-106316266D01*
X155846264Y-106149988D01*
X155854536Y-106146562D01*
X155858497Y-106147254D01*
G37*
%TD.AperFunction*%
%TD*%
%TA.AperFunction,Conductor*%
%TO.N,/IO23{slash}SPI_MOSI*%
G36*
X110868680Y-100876427D02*
G01*
X110871571Y-100881199D01*
X111017970Y-101348012D01*
X111017176Y-101356931D01*
X111011317Y-101362309D01*
X110748511Y-101472115D01*
X110739556Y-101472142D01*
X110739489Y-101472115D01*
X110476682Y-101362309D01*
X110470370Y-101355957D01*
X110470029Y-101348013D01*
X110616429Y-100881199D01*
X110622175Y-100874330D01*
X110627593Y-100873000D01*
X110860407Y-100873000D01*
X110868680Y-100876427D01*
G37*
%TD.AperFunction*%
%TD*%
%TA.AperFunction,Conductor*%
%TO.N,/IO23{slash}SPI_MOSI*%
G36*
X111011318Y-89264691D02*
G01*
X111017629Y-89271042D01*
X111017970Y-89278987D01*
X110871571Y-89745801D01*
X110865825Y-89752670D01*
X110860407Y-89754000D01*
X110627593Y-89754000D01*
X110619320Y-89750573D01*
X110616429Y-89745801D01*
X110470029Y-89278987D01*
X110470823Y-89270068D01*
X110476679Y-89264692D01*
X110739490Y-89154883D01*
X110748444Y-89154857D01*
X111011318Y-89264691D01*
G37*
%TD.AperFunction*%
%TD*%
%TA.AperFunction,Conductor*%
%TO.N,/IO19{slash}SPI_MISO*%
G36*
X123314680Y-100749427D02*
G01*
X123317571Y-100754199D01*
X123463970Y-101221012D01*
X123463176Y-101229931D01*
X123457317Y-101235309D01*
X123194511Y-101345115D01*
X123185556Y-101345142D01*
X123185489Y-101345115D01*
X122922682Y-101235309D01*
X122916370Y-101228957D01*
X122916029Y-101221013D01*
X123062429Y-100754199D01*
X123068175Y-100747330D01*
X123073593Y-100746000D01*
X123306407Y-100746000D01*
X123314680Y-100749427D01*
G37*
%TD.AperFunction*%
%TD*%
%TA.AperFunction,Conductor*%
%TO.N,/IO19{slash}SPI_MISO*%
G36*
X155842318Y-92185691D02*
G01*
X155848629Y-92192042D01*
X155848970Y-92199987D01*
X155702571Y-92666801D01*
X155696825Y-92673670D01*
X155691407Y-92675000D01*
X155458593Y-92675000D01*
X155450320Y-92671573D01*
X155447429Y-92666801D01*
X155301029Y-92199987D01*
X155301823Y-92191068D01*
X155307679Y-92185692D01*
X155570490Y-92075883D01*
X155579444Y-92075857D01*
X155842318Y-92185691D01*
G37*
%TD.AperFunction*%
%TD*%
%TA.AperFunction,Conductor*%
%TO.N,/IO19{slash}SPI_MISO*%
G36*
X155858497Y-101067254D02*
G01*
X157126231Y-101524080D01*
X157132853Y-101530108D01*
X157133272Y-101539053D01*
X157133080Y-101539551D01*
X156847562Y-102231211D01*
X156841237Y-102237551D01*
X156841211Y-102237562D01*
X156149551Y-102523080D01*
X156140597Y-102523069D01*
X156134272Y-102516729D01*
X156134080Y-102516231D01*
X156033658Y-102237551D01*
X155677255Y-101248500D01*
X155677674Y-101239557D01*
X155679986Y-101236266D01*
X155846264Y-101069988D01*
X155854536Y-101066562D01*
X155858497Y-101067254D01*
G37*
%TD.AperFunction*%
%TD*%
%TA.AperFunction,Conductor*%
%TO.N,/IO19{slash}SPI_MISO*%
G36*
X125970707Y-93234248D02*
G01*
X126234184Y-93342436D01*
X126240536Y-93348748D01*
X126240563Y-93348815D01*
X126348751Y-93612292D01*
X126348724Y-93621247D01*
X126343346Y-93627106D01*
X125909740Y-93853673D01*
X125900821Y-93854467D01*
X125896049Y-93851576D01*
X125731423Y-93686950D01*
X125727996Y-93678677D01*
X125729324Y-93673264D01*
X125955894Y-93239651D01*
X125962762Y-93233907D01*
X125970707Y-93234248D01*
G37*
%TD.AperFunction*%
%TD*%
%TA.AperFunction,Conductor*%
%TO.N,Net-(J3-DAT2)*%
G36*
X107058680Y-100749427D02*
G01*
X107061571Y-100754199D01*
X107207970Y-101221012D01*
X107207176Y-101229931D01*
X107201317Y-101235309D01*
X106938511Y-101345115D01*
X106929556Y-101345142D01*
X106929489Y-101345115D01*
X106666682Y-101235309D01*
X106660370Y-101228957D01*
X106660029Y-101221013D01*
X106806429Y-100754199D01*
X106812175Y-100747330D01*
X106817593Y-100746000D01*
X107050407Y-100746000D01*
X107058680Y-100749427D01*
G37*
%TD.AperFunction*%
%TD*%
%TA.AperFunction,Conductor*%
%TO.N,Net-(J3-DAT2)*%
G36*
X107201318Y-85835691D02*
G01*
X107207629Y-85842042D01*
X107207970Y-85849987D01*
X107061571Y-86316801D01*
X107055825Y-86323670D01*
X107050407Y-86325000D01*
X106817593Y-86325000D01*
X106809320Y-86321573D01*
X106806429Y-86316801D01*
X106660029Y-85849987D01*
X106660823Y-85841068D01*
X106666679Y-85835692D01*
X106929490Y-85725883D01*
X106938444Y-85725857D01*
X107201318Y-85835691D01*
G37*
%TD.AperFunction*%
%TD*%
%TA.AperFunction,Conductor*%
%TO.N,/IO15{slash}TDO*%
G36*
X155858497Y-121387254D02*
G01*
X157126231Y-121844080D01*
X157132853Y-121850108D01*
X157133272Y-121859053D01*
X157133080Y-121859551D01*
X156847562Y-122551211D01*
X156841237Y-122557551D01*
X156841211Y-122557562D01*
X156149551Y-122843080D01*
X156140597Y-122843069D01*
X156134272Y-122836729D01*
X156134080Y-122836231D01*
X156033658Y-122557551D01*
X155677255Y-121568500D01*
X155677674Y-121559557D01*
X155679986Y-121556266D01*
X155846264Y-121389988D01*
X155854536Y-121386562D01*
X155858497Y-121387254D01*
G37*
%TD.AperFunction*%
%TD*%
%TA.AperFunction,Conductor*%
%TO.N,/IO15{slash}TDO*%
G36*
X125970707Y-98314248D02*
G01*
X126234184Y-98422436D01*
X126240536Y-98428748D01*
X126240563Y-98428815D01*
X126348751Y-98692292D01*
X126348724Y-98701247D01*
X126343346Y-98707106D01*
X125909740Y-98933673D01*
X125900821Y-98934467D01*
X125896049Y-98931576D01*
X125731423Y-98766950D01*
X125727996Y-98758677D01*
X125729324Y-98753264D01*
X125955894Y-98319651D01*
X125962762Y-98313907D01*
X125970707Y-98314248D01*
G37*
%TD.AperFunction*%
%TD*%
%TA.AperFunction,Conductor*%
%TO.N,/IO15{slash}TDO*%
G36*
X125824993Y-100917821D02*
G01*
X125867483Y-100933830D01*
X126214510Y-101064580D01*
X126221044Y-101070704D01*
X126221334Y-101079654D01*
X126221200Y-101079993D01*
X126112860Y-101342493D01*
X126106536Y-101348833D01*
X126106489Y-101348852D01*
X125844052Y-101456610D01*
X125835097Y-101456583D01*
X125829059Y-101450847D01*
X125581040Y-100933830D01*
X125580551Y-100924889D01*
X125586529Y-100918221D01*
X125591589Y-100917070D01*
X125820868Y-100917070D01*
X125824993Y-100917821D01*
G37*
%TD.AperFunction*%
%TD*%
%TA.AperFunction,Conductor*%
%TO.N,/IO15{slash}TDO*%
G36*
X153937318Y-99805691D02*
G01*
X153943629Y-99812042D01*
X153943970Y-99819987D01*
X153797571Y-100286801D01*
X153791825Y-100293670D01*
X153786407Y-100295000D01*
X153553593Y-100295000D01*
X153545320Y-100291573D01*
X153542429Y-100286801D01*
X153396029Y-99819987D01*
X153396823Y-99811068D01*
X153402679Y-99805692D01*
X153665490Y-99695883D01*
X153674444Y-99695857D01*
X153937318Y-99805691D01*
G37*
%TD.AperFunction*%
%TD*%
%TA.AperFunction,Conductor*%
%TO.N,Net-(Q1-C)*%
G36*
X150227707Y-98441000D02*
G01*
X150491184Y-98549188D01*
X150497536Y-98555500D01*
X150497563Y-98555567D01*
X150605751Y-98819044D01*
X150605724Y-98827999D01*
X150600346Y-98833858D01*
X150166740Y-99060425D01*
X150157821Y-99061219D01*
X150153049Y-99058328D01*
X149988423Y-98893702D01*
X149984996Y-98885429D01*
X149986324Y-98880016D01*
X150212894Y-98446403D01*
X150219762Y-98440659D01*
X150227707Y-98441000D01*
G37*
%TD.AperFunction*%
%TD*%
%TA.AperFunction,Conductor*%
%TO.N,Net-(Q1-C)*%
G36*
X149984680Y-99733427D02*
G01*
X149987571Y-99738199D01*
X150133970Y-100205012D01*
X150133176Y-100213931D01*
X150127317Y-100219309D01*
X149864511Y-100329115D01*
X149855556Y-100329142D01*
X149855489Y-100329115D01*
X149592682Y-100219309D01*
X149586370Y-100212957D01*
X149586029Y-100205013D01*
X149732429Y-99738199D01*
X149738175Y-99731330D01*
X149743593Y-99730000D01*
X149976407Y-99730000D01*
X149984680Y-99733427D01*
G37*
%TD.AperFunction*%
%TD*%
%TA.AperFunction,Conductor*%
%TO.N,/IO13{slash}LED3{slash}TCK*%
G36*
X112662318Y-112406191D02*
G01*
X112668629Y-112412542D01*
X112668970Y-112420487D01*
X112522571Y-112887301D01*
X112516825Y-112894170D01*
X112511407Y-112895500D01*
X112278593Y-112895500D01*
X112270320Y-112892073D01*
X112267429Y-112887301D01*
X112121029Y-112420487D01*
X112121823Y-112411568D01*
X112127679Y-112406192D01*
X112390490Y-112296383D01*
X112399444Y-112296357D01*
X112662318Y-112406191D01*
G37*
%TD.AperFunction*%
%TD*%
%TA.AperFunction,Conductor*%
%TO.N,/IO13{slash}LED3{slash}TCK*%
G36*
X112519680Y-122593427D02*
G01*
X112522571Y-122598199D01*
X112668970Y-123065012D01*
X112668176Y-123073931D01*
X112662317Y-123079309D01*
X112399511Y-123189115D01*
X112390556Y-123189142D01*
X112390489Y-123189115D01*
X112127682Y-123079309D01*
X112121370Y-123072957D01*
X112121029Y-123065013D01*
X112267429Y-122598199D01*
X112273175Y-122591330D01*
X112278593Y-122590000D01*
X112511407Y-122590000D01*
X112519680Y-122593427D01*
G37*
%TD.AperFunction*%
%TD*%
%TA.AperFunction,Conductor*%
%TO.N,Net-(U1-IO26)*%
G36*
X134744680Y-111798427D02*
G01*
X134747571Y-111803199D01*
X134893970Y-112270012D01*
X134893176Y-112278931D01*
X134887317Y-112284309D01*
X134624511Y-112394115D01*
X134615556Y-112394142D01*
X134615489Y-112394115D01*
X134352682Y-112284309D01*
X134346370Y-112277957D01*
X134346029Y-112270013D01*
X134492429Y-111803199D01*
X134498175Y-111796330D01*
X134503593Y-111795000D01*
X134736407Y-111795000D01*
X134744680Y-111798427D01*
G37*
%TD.AperFunction*%
%TD*%
%TA.AperFunction,Conductor*%
%TO.N,Net-(U1-IO26)*%
G36*
X134887318Y-107425691D02*
G01*
X134893629Y-107432042D01*
X134893970Y-107439987D01*
X134747571Y-107906801D01*
X134741825Y-107913670D01*
X134736407Y-107915000D01*
X134503593Y-107915000D01*
X134495320Y-107911573D01*
X134492429Y-107906801D01*
X134346029Y-107439987D01*
X134346823Y-107431068D01*
X134352679Y-107425692D01*
X134615490Y-107315883D01*
X134624444Y-107315857D01*
X134887318Y-107425691D01*
G37*
%TD.AperFunction*%
%TD*%
%TA.AperFunction,Conductor*%
%TO.N,/IO0*%
G36*
X155858497Y-116307254D02*
G01*
X157126231Y-116764080D01*
X157132853Y-116770108D01*
X157133272Y-116779053D01*
X157133080Y-116779551D01*
X156847562Y-117471211D01*
X156841237Y-117477551D01*
X156841211Y-117477562D01*
X156149551Y-117763080D01*
X156140597Y-117763069D01*
X156134272Y-117756729D01*
X156134080Y-117756231D01*
X156033658Y-117477551D01*
X155677255Y-116488500D01*
X155677674Y-116479557D01*
X155679986Y-116476266D01*
X155846264Y-116309988D01*
X155854536Y-116306562D01*
X155858497Y-116307254D01*
G37*
%TD.AperFunction*%
%TD*%
%TA.AperFunction,Conductor*%
%TO.N,/IO0*%
G36*
X155207318Y-111235691D02*
G01*
X155213629Y-111242042D01*
X155213970Y-111249987D01*
X155067571Y-111716801D01*
X155061825Y-111723670D01*
X155056407Y-111725000D01*
X154823593Y-111725000D01*
X154815320Y-111721573D01*
X154812429Y-111716801D01*
X154666029Y-111249987D01*
X154666823Y-111241068D01*
X154672679Y-111235692D01*
X154935490Y-111125883D01*
X154944444Y-111125857D01*
X155207318Y-111235691D01*
G37*
%TD.AperFunction*%
%TD*%
%TA.AperFunction,Conductor*%
%TO.N,/IO34*%
G36*
X120356950Y-105764923D02*
G01*
X120521576Y-105929549D01*
X120525003Y-105937822D01*
X120523673Y-105943240D01*
X120297106Y-106376846D01*
X120290237Y-106382592D01*
X120282292Y-106382251D01*
X120018815Y-106274063D01*
X120012463Y-106267751D01*
X120012436Y-106267684D01*
X119904248Y-106004207D01*
X119904275Y-105995252D01*
X119909651Y-105989394D01*
X120343262Y-105762825D01*
X120352178Y-105762032D01*
X120356950Y-105764923D01*
G37*
%TD.AperFunction*%
%TD*%
%TA.AperFunction,Conductor*%
%TO.N,/IO34*%
G36*
X126034207Y-94567748D02*
G01*
X126297684Y-94675936D01*
X126304036Y-94682248D01*
X126304063Y-94682315D01*
X126412251Y-94945792D01*
X126412224Y-94954747D01*
X126406846Y-94960606D01*
X125973240Y-95187173D01*
X125964321Y-95187967D01*
X125959549Y-95185076D01*
X125794923Y-95020450D01*
X125791496Y-95012177D01*
X125792824Y-95006764D01*
X126019394Y-94573151D01*
X126026262Y-94567407D01*
X126034207Y-94567748D01*
G37*
%TD.AperFunction*%
%TD*%
%TA.AperFunction,Conductor*%
%TO.N,/IO14{slash}TMS*%
G36*
X130458497Y-111227254D02*
G01*
X131726231Y-111684080D01*
X131732853Y-111690108D01*
X131733272Y-111699053D01*
X131733080Y-111699551D01*
X131447562Y-112391211D01*
X131441237Y-112397551D01*
X131441211Y-112397562D01*
X130749551Y-112683080D01*
X130740597Y-112683069D01*
X130734272Y-112676729D01*
X130734080Y-112676231D01*
X130633658Y-112397551D01*
X130277255Y-111408500D01*
X130277674Y-111399557D01*
X130279986Y-111396266D01*
X130446264Y-111229988D01*
X130454536Y-111226562D01*
X130458497Y-111227254D01*
G37*
%TD.AperFunction*%
%TD*%
%TA.AperFunction,Conductor*%
%TO.N,/IO14{slash}TMS*%
G36*
X129908918Y-108187691D02*
G01*
X129915229Y-108194042D01*
X129915570Y-108201987D01*
X129769171Y-108668801D01*
X129763425Y-108675670D01*
X129758007Y-108677000D01*
X129525193Y-108677000D01*
X129516920Y-108673573D01*
X129514029Y-108668801D01*
X129367629Y-108201987D01*
X129368423Y-108193068D01*
X129374279Y-108187692D01*
X129637090Y-108077883D01*
X129646044Y-108077857D01*
X129908918Y-108187691D01*
G37*
%TD.AperFunction*%
%TD*%
M02*
