M48
; DRILL file {KiCad 7.0.9} date Mon Dec 25 18:28:02 2023
; FORMAT={-:-/ absolute / inch / decimal}
; #@! TF.CreationDate,2023-12-25T18:28:02-06:00
; #@! TF.GenerationSoftware,Kicad,Pcbnew,7.0.9
; #@! TF.FileFunction,MixedPlating,1,2
FMAT,2
INCH
; #@! TA.AperFunction,Plated,PTH,ViaDrill
T1C0.0118
; #@! TA.AperFunction,Plated,PTH,ViaDrill
T2C0.0157
; #@! TA.AperFunction,Plated,PTH,ViaDrill
T3C0.0197
; #@! TA.AperFunction,Plated,PTH,ComponentDrill
T4C0.0299
; #@! TA.AperFunction,Plated,PTH,ComponentDrill
T5C0.0354
; #@! TA.AperFunction,Plated,PTH,ComponentDrill
T6C0.0402
; #@! TA.AperFunction,NonPlated,NPTH,ComponentDrill
T7C0.0433
; #@! TA.AperFunction,NonPlated,NPTH,ComponentDrill
T8C0.0630
; #@! TA.AperFunction,NonPlated,NPTH,ComponentDrill
T9C0.1063
; #@! TA.AperFunction,NonPlated,NPTH,ComponentDrill
T10C0.1280
%
G90
G05
T1
X4.04Y-4.175
X4.21Y-3.375
X4.21Y-3.99
X4.265Y-3.995
X4.27Y-3.475
X4.36Y-3.51
X4.36Y-3.995
X4.425Y-4.4211
X4.425Y-4.85
X4.455Y-4.175
X4.725Y-4.1839
X4.85Y-3.99
X4.865Y-4.175
X4.915Y-3.99
X4.965Y-3.99
X4.97Y-3.675
X4.97Y-3.78
X4.97Y-3.875
X4.9725Y-3.7275
X5.104Y-4.255
X5.25Y-4.475
X5.3Y-4.225
X5.3Y-4.425
X5.5Y-4.5
X5.65Y-3.875
X5.65Y-4.495
X5.765Y-4.06
X5.9Y-3.95
X5.925Y-3.88
X6.05Y-3.925
X6.1Y-3.425
X6.1Y-4.375
X6.125Y-3.625
T2
X4.29Y-4.265
X4.32Y-4.425
X4.35Y-4.175
X4.41Y-4.265
X4.46Y-3.99
X4.72Y-4.425
X4.755Y-3.99
X5.015Y-3.59
X5.07Y-4.055
X5.425Y-3.375
X5.425Y-3.475
X5.425Y-3.575
X5.425Y-3.675
X5.425Y-3.775
X5.425Y-3.875
X5.75Y-3.47
X5.75Y-3.57
X5.885Y-4.21
X5.885Y-4.325
T3
X4.56Y-3.98
X5.39Y-4.075
X5.615Y-3.71
X6.015Y-3.86
T4
X4.1152Y-4.61
X4.1652Y-4.71
X4.2152Y-4.61
X4.2652Y-4.71
X4.3152Y-4.61
X4.3652Y-4.71
X4.7Y-4.61
X4.75Y-4.71
X4.8Y-4.61
X4.85Y-4.71
X4.9Y-4.61
X4.95Y-4.71
T5
X4.15Y-4.4
X4.15Y-4.5
X4.5625Y-4.3998
X4.5625Y-4.4998
X4.975Y-4.3998
X4.975Y-4.4998
T6
X5.175Y-3.325
X5.175Y-3.425
X5.175Y-3.525
X5.175Y-3.625
X5.175Y-3.725
X5.175Y-3.825
X5.175Y-3.925
X5.175Y-4.025
X5.175Y-4.125
X5.175Y-4.225
X5.175Y-4.325
X5.175Y-4.425
X5.175Y-4.525
X5.175Y-4.625
X5.175Y-4.725
X5.175Y-4.825
X5.175Y-4.925
X5.175Y-5.025
X5.175Y-5.125
X6.175Y-3.325
X6.175Y-3.425
X6.175Y-3.525
X6.175Y-3.625
X6.175Y-3.725
X6.175Y-3.825
X6.175Y-3.925
X6.175Y-4.025
X6.175Y-4.125
X6.175Y-4.225
X6.175Y-4.325
X6.175Y-4.425
X6.175Y-4.525
X6.175Y-4.625
X6.175Y-4.725
X6.175Y-4.825
X6.175Y-4.925
X6.175Y-5.025
X6.175Y-5.125
T7
X4.9852Y-3.9271
T8
X4.1584Y-3.9271
T9
X5.22Y-3.145
X6.13Y-3.145
T10
X4.04Y-4.96
X4.44Y-4.96
X4.6248Y-4.96
X5.0248Y-4.96
T0
M30
