%TF.GenerationSoftware,KiCad,Pcbnew,7.0.8*%
%TF.CreationDate,2023-10-30T21:57:11-05:00*%
%TF.ProjectId,fujinet-adam-devkit-mini,66756a69-6e65-4742-9d61-64616d2d6465,rev?*%
%TF.SameCoordinates,Original*%
%TF.FileFunction,Legend,Bot*%
%TF.FilePolarity,Positive*%
%FSLAX46Y46*%
G04 Gerber Fmt 4.6, Leading zero omitted, Abs format (unit mm)*
G04 Created by KiCad (PCBNEW 7.0.8) date 2023-10-30 21:57:11*
%MOMM*%
%LPD*%
G01*
G04 APERTURE LIST*
%ADD10C,0.150000*%
%ADD11C,0.015000*%
%ADD12C,0.127000*%
%ADD13C,0.200000*%
G04 APERTURE END LIST*
D10*
X134104819Y-83902779D02*
X133104819Y-83902779D01*
X133104819Y-83902779D02*
X133104819Y-84283731D01*
X133104819Y-84283731D02*
X133152438Y-84378969D01*
X133152438Y-84378969D02*
X133200057Y-84426588D01*
X133200057Y-84426588D02*
X133295295Y-84474207D01*
X133295295Y-84474207D02*
X133438152Y-84474207D01*
X133438152Y-84474207D02*
X133533390Y-84426588D01*
X133533390Y-84426588D02*
X133581009Y-84378969D01*
X133581009Y-84378969D02*
X133628628Y-84283731D01*
X133628628Y-84283731D02*
X133628628Y-83902779D01*
X134009580Y-85474207D02*
X134057200Y-85426588D01*
X134057200Y-85426588D02*
X134104819Y-85283731D01*
X134104819Y-85283731D02*
X134104819Y-85188493D01*
X134104819Y-85188493D02*
X134057200Y-85045636D01*
X134057200Y-85045636D02*
X133961961Y-84950398D01*
X133961961Y-84950398D02*
X133866723Y-84902779D01*
X133866723Y-84902779D02*
X133676247Y-84855160D01*
X133676247Y-84855160D02*
X133533390Y-84855160D01*
X133533390Y-84855160D02*
X133342914Y-84902779D01*
X133342914Y-84902779D02*
X133247676Y-84950398D01*
X133247676Y-84950398D02*
X133152438Y-85045636D01*
X133152438Y-85045636D02*
X133104819Y-85188493D01*
X133104819Y-85188493D02*
X133104819Y-85283731D01*
X133104819Y-85283731D02*
X133152438Y-85426588D01*
X133152438Y-85426588D02*
X133200057Y-85474207D01*
X133581009Y-86236112D02*
X133628628Y-86378969D01*
X133628628Y-86378969D02*
X133676247Y-86426588D01*
X133676247Y-86426588D02*
X133771485Y-86474207D01*
X133771485Y-86474207D02*
X133914342Y-86474207D01*
X133914342Y-86474207D02*
X134009580Y-86426588D01*
X134009580Y-86426588D02*
X134057200Y-86378969D01*
X134057200Y-86378969D02*
X134104819Y-86283731D01*
X134104819Y-86283731D02*
X134104819Y-85902779D01*
X134104819Y-85902779D02*
X133104819Y-85902779D01*
X133104819Y-85902779D02*
X133104819Y-86236112D01*
X133104819Y-86236112D02*
X133152438Y-86331350D01*
X133152438Y-86331350D02*
X133200057Y-86378969D01*
X133200057Y-86378969D02*
X133295295Y-86426588D01*
X133295295Y-86426588D02*
X133390533Y-86426588D01*
X133390533Y-86426588D02*
X133485771Y-86378969D01*
X133485771Y-86378969D02*
X133533390Y-86331350D01*
X133533390Y-86331350D02*
X133581009Y-86236112D01*
X133581009Y-86236112D02*
X133581009Y-85902779D01*
X134104819Y-87664684D02*
X133104819Y-87664684D01*
X133485771Y-87664684D02*
X133438152Y-87759922D01*
X133438152Y-87759922D02*
X133438152Y-87950398D01*
X133438152Y-87950398D02*
X133485771Y-88045636D01*
X133485771Y-88045636D02*
X133533390Y-88093255D01*
X133533390Y-88093255D02*
X133628628Y-88140874D01*
X133628628Y-88140874D02*
X133914342Y-88140874D01*
X133914342Y-88140874D02*
X134009580Y-88093255D01*
X134009580Y-88093255D02*
X134057200Y-88045636D01*
X134057200Y-88045636D02*
X134104819Y-87950398D01*
X134104819Y-87950398D02*
X134104819Y-87759922D01*
X134104819Y-87759922D02*
X134057200Y-87664684D01*
X133438152Y-88474208D02*
X134104819Y-88712303D01*
X133438152Y-88950398D02*
X134104819Y-88712303D01*
X134104819Y-88712303D02*
X134342914Y-88617065D01*
X134342914Y-88617065D02*
X134390533Y-88569446D01*
X134390533Y-88569446D02*
X134438152Y-88474208D01*
X134009580Y-90664684D02*
X134057200Y-90617065D01*
X134057200Y-90617065D02*
X134104819Y-90474208D01*
X134104819Y-90474208D02*
X134104819Y-90378970D01*
X134104819Y-90378970D02*
X134057200Y-90236113D01*
X134057200Y-90236113D02*
X133961961Y-90140875D01*
X133961961Y-90140875D02*
X133866723Y-90093256D01*
X133866723Y-90093256D02*
X133676247Y-90045637D01*
X133676247Y-90045637D02*
X133533390Y-90045637D01*
X133533390Y-90045637D02*
X133342914Y-90093256D01*
X133342914Y-90093256D02*
X133247676Y-90140875D01*
X133247676Y-90140875D02*
X133152438Y-90236113D01*
X133152438Y-90236113D02*
X133104819Y-90378970D01*
X133104819Y-90378970D02*
X133104819Y-90474208D01*
X133104819Y-90474208D02*
X133152438Y-90617065D01*
X133152438Y-90617065D02*
X133200057Y-90664684D01*
X134104819Y-91093256D02*
X133104819Y-91093256D01*
X134104819Y-91521827D02*
X133581009Y-91521827D01*
X133581009Y-91521827D02*
X133485771Y-91474208D01*
X133485771Y-91474208D02*
X133438152Y-91378970D01*
X133438152Y-91378970D02*
X133438152Y-91236113D01*
X133438152Y-91236113D02*
X133485771Y-91140875D01*
X133485771Y-91140875D02*
X133533390Y-91093256D01*
X134104819Y-91998018D02*
X133438152Y-91998018D01*
X133628628Y-91998018D02*
X133533390Y-92045637D01*
X133533390Y-92045637D02*
X133485771Y-92093256D01*
X133485771Y-92093256D02*
X133438152Y-92188494D01*
X133438152Y-92188494D02*
X133438152Y-92283732D01*
X134104819Y-92617066D02*
X133438152Y-92617066D01*
X133104819Y-92617066D02*
X133152438Y-92569447D01*
X133152438Y-92569447D02*
X133200057Y-92617066D01*
X133200057Y-92617066D02*
X133152438Y-92664685D01*
X133152438Y-92664685D02*
X133104819Y-92617066D01*
X133104819Y-92617066D02*
X133200057Y-92617066D01*
X134057200Y-93045637D02*
X134104819Y-93140875D01*
X134104819Y-93140875D02*
X134104819Y-93331351D01*
X134104819Y-93331351D02*
X134057200Y-93426589D01*
X134057200Y-93426589D02*
X133961961Y-93474208D01*
X133961961Y-93474208D02*
X133914342Y-93474208D01*
X133914342Y-93474208D02*
X133819104Y-93426589D01*
X133819104Y-93426589D02*
X133771485Y-93331351D01*
X133771485Y-93331351D02*
X133771485Y-93188494D01*
X133771485Y-93188494D02*
X133723866Y-93093256D01*
X133723866Y-93093256D02*
X133628628Y-93045637D01*
X133628628Y-93045637D02*
X133581009Y-93045637D01*
X133581009Y-93045637D02*
X133485771Y-93093256D01*
X133485771Y-93093256D02*
X133438152Y-93188494D01*
X133438152Y-93188494D02*
X133438152Y-93331351D01*
X133438152Y-93331351D02*
X133485771Y-93426589D01*
X133104819Y-94521828D02*
X133104819Y-95093256D01*
X134104819Y-94807542D02*
X133104819Y-94807542D01*
X134057200Y-95807542D02*
X134104819Y-95712304D01*
X134104819Y-95712304D02*
X134104819Y-95521828D01*
X134104819Y-95521828D02*
X134057200Y-95426590D01*
X134057200Y-95426590D02*
X133961961Y-95378971D01*
X133961961Y-95378971D02*
X133581009Y-95378971D01*
X133581009Y-95378971D02*
X133485771Y-95426590D01*
X133485771Y-95426590D02*
X133438152Y-95521828D01*
X133438152Y-95521828D02*
X133438152Y-95712304D01*
X133438152Y-95712304D02*
X133485771Y-95807542D01*
X133485771Y-95807542D02*
X133581009Y-95855161D01*
X133581009Y-95855161D02*
X133676247Y-95855161D01*
X133676247Y-95855161D02*
X133771485Y-95378971D01*
X134104819Y-96283733D02*
X133438152Y-96283733D01*
X133628628Y-96283733D02*
X133533390Y-96331352D01*
X133533390Y-96331352D02*
X133485771Y-96378971D01*
X133485771Y-96378971D02*
X133438152Y-96474209D01*
X133438152Y-96474209D02*
X133438152Y-96569447D01*
X134057200Y-96855162D02*
X134104819Y-96950400D01*
X134104819Y-96950400D02*
X134104819Y-97140876D01*
X134104819Y-97140876D02*
X134057200Y-97236114D01*
X134057200Y-97236114D02*
X133961961Y-97283733D01*
X133961961Y-97283733D02*
X133914342Y-97283733D01*
X133914342Y-97283733D02*
X133819104Y-97236114D01*
X133819104Y-97236114D02*
X133771485Y-97140876D01*
X133771485Y-97140876D02*
X133771485Y-96998019D01*
X133771485Y-96998019D02*
X133723866Y-96902781D01*
X133723866Y-96902781D02*
X133628628Y-96855162D01*
X133628628Y-96855162D02*
X133581009Y-96855162D01*
X133581009Y-96855162D02*
X133485771Y-96902781D01*
X133485771Y-96902781D02*
X133438152Y-96998019D01*
X133438152Y-96998019D02*
X133438152Y-97140876D01*
X133438152Y-97140876D02*
X133485771Y-97236114D01*
X133438152Y-97569448D02*
X133438152Y-97950400D01*
X133104819Y-97712305D02*
X133961961Y-97712305D01*
X133961961Y-97712305D02*
X134057200Y-97759924D01*
X134057200Y-97759924D02*
X134104819Y-97855162D01*
X134104819Y-97855162D02*
X134104819Y-97950400D01*
X134057200Y-98664686D02*
X134104819Y-98569448D01*
X134104819Y-98569448D02*
X134104819Y-98378972D01*
X134104819Y-98378972D02*
X134057200Y-98283734D01*
X134057200Y-98283734D02*
X133961961Y-98236115D01*
X133961961Y-98236115D02*
X133581009Y-98236115D01*
X133581009Y-98236115D02*
X133485771Y-98283734D01*
X133485771Y-98283734D02*
X133438152Y-98378972D01*
X133438152Y-98378972D02*
X133438152Y-98569448D01*
X133438152Y-98569448D02*
X133485771Y-98664686D01*
X133485771Y-98664686D02*
X133581009Y-98712305D01*
X133581009Y-98712305D02*
X133676247Y-98712305D01*
X133676247Y-98712305D02*
X133771485Y-98236115D01*
X134057200Y-99521829D02*
X134104819Y-99426591D01*
X134104819Y-99426591D02*
X134104819Y-99236115D01*
X134104819Y-99236115D02*
X134057200Y-99140877D01*
X134057200Y-99140877D02*
X133961961Y-99093258D01*
X133961961Y-99093258D02*
X133581009Y-99093258D01*
X133581009Y-99093258D02*
X133485771Y-99140877D01*
X133485771Y-99140877D02*
X133438152Y-99236115D01*
X133438152Y-99236115D02*
X133438152Y-99426591D01*
X133438152Y-99426591D02*
X133485771Y-99521829D01*
X133485771Y-99521829D02*
X133581009Y-99569448D01*
X133581009Y-99569448D02*
X133676247Y-99569448D01*
X133676247Y-99569448D02*
X133771485Y-99093258D01*
X133438152Y-100426591D02*
X134247676Y-100426591D01*
X134247676Y-100426591D02*
X134342914Y-100378972D01*
X134342914Y-100378972D02*
X134390533Y-100331353D01*
X134390533Y-100331353D02*
X134438152Y-100236115D01*
X134438152Y-100236115D02*
X134438152Y-100093258D01*
X134438152Y-100093258D02*
X134390533Y-99998020D01*
X134057200Y-100426591D02*
X134104819Y-100331353D01*
X134104819Y-100331353D02*
X134104819Y-100140877D01*
X134104819Y-100140877D02*
X134057200Y-100045639D01*
X134057200Y-100045639D02*
X134009580Y-99998020D01*
X134009580Y-99998020D02*
X133914342Y-99950401D01*
X133914342Y-99950401D02*
X133628628Y-99950401D01*
X133628628Y-99950401D02*
X133533390Y-99998020D01*
X133533390Y-99998020D02*
X133485771Y-100045639D01*
X133485771Y-100045639D02*
X133438152Y-100140877D01*
X133438152Y-100140877D02*
X133438152Y-100331353D01*
X133438152Y-100331353D02*
X133485771Y-100426591D01*
X135048152Y-84331350D02*
X135857676Y-84331350D01*
X135857676Y-84331350D02*
X135952914Y-84283731D01*
X135952914Y-84283731D02*
X136000533Y-84236112D01*
X136000533Y-84236112D02*
X136048152Y-84140874D01*
X136048152Y-84140874D02*
X136048152Y-83998017D01*
X136048152Y-83998017D02*
X136000533Y-83902779D01*
X135667200Y-84331350D02*
X135714819Y-84236112D01*
X135714819Y-84236112D02*
X135714819Y-84045636D01*
X135714819Y-84045636D02*
X135667200Y-83950398D01*
X135667200Y-83950398D02*
X135619580Y-83902779D01*
X135619580Y-83902779D02*
X135524342Y-83855160D01*
X135524342Y-83855160D02*
X135238628Y-83855160D01*
X135238628Y-83855160D02*
X135143390Y-83902779D01*
X135143390Y-83902779D02*
X135095771Y-83950398D01*
X135095771Y-83950398D02*
X135048152Y-84045636D01*
X135048152Y-84045636D02*
X135048152Y-84236112D01*
X135048152Y-84236112D02*
X135095771Y-84331350D01*
X135714819Y-84807541D02*
X135048152Y-84807541D01*
X134714819Y-84807541D02*
X134762438Y-84759922D01*
X134762438Y-84759922D02*
X134810057Y-84807541D01*
X134810057Y-84807541D02*
X134762438Y-84855160D01*
X134762438Y-84855160D02*
X134714819Y-84807541D01*
X134714819Y-84807541D02*
X134810057Y-84807541D01*
X135048152Y-85140874D02*
X135048152Y-85521826D01*
X134714819Y-85283731D02*
X135571961Y-85283731D01*
X135571961Y-85283731D02*
X135667200Y-85331350D01*
X135667200Y-85331350D02*
X135714819Y-85426588D01*
X135714819Y-85426588D02*
X135714819Y-85521826D01*
X135714819Y-85855160D02*
X134714819Y-85855160D01*
X135714819Y-86283731D02*
X135191009Y-86283731D01*
X135191009Y-86283731D02*
X135095771Y-86236112D01*
X135095771Y-86236112D02*
X135048152Y-86140874D01*
X135048152Y-86140874D02*
X135048152Y-85998017D01*
X135048152Y-85998017D02*
X135095771Y-85902779D01*
X135095771Y-85902779D02*
X135143390Y-85855160D01*
X135048152Y-87188493D02*
X135714819Y-87188493D01*
X135048152Y-86759922D02*
X135571961Y-86759922D01*
X135571961Y-86759922D02*
X135667200Y-86807541D01*
X135667200Y-86807541D02*
X135714819Y-86902779D01*
X135714819Y-86902779D02*
X135714819Y-87045636D01*
X135714819Y-87045636D02*
X135667200Y-87140874D01*
X135667200Y-87140874D02*
X135619580Y-87188493D01*
X135714819Y-87664684D02*
X134714819Y-87664684D01*
X135095771Y-87664684D02*
X135048152Y-87759922D01*
X135048152Y-87759922D02*
X135048152Y-87950398D01*
X135048152Y-87950398D02*
X135095771Y-88045636D01*
X135095771Y-88045636D02*
X135143390Y-88093255D01*
X135143390Y-88093255D02*
X135238628Y-88140874D01*
X135238628Y-88140874D02*
X135524342Y-88140874D01*
X135524342Y-88140874D02*
X135619580Y-88093255D01*
X135619580Y-88093255D02*
X135667200Y-88045636D01*
X135667200Y-88045636D02*
X135714819Y-87950398D01*
X135714819Y-87950398D02*
X135714819Y-87759922D01*
X135714819Y-87759922D02*
X135667200Y-87664684D01*
X135619580Y-88569446D02*
X135667200Y-88617065D01*
X135667200Y-88617065D02*
X135714819Y-88569446D01*
X135714819Y-88569446D02*
X135667200Y-88521827D01*
X135667200Y-88521827D02*
X135619580Y-88569446D01*
X135619580Y-88569446D02*
X135714819Y-88569446D01*
X135667200Y-89474207D02*
X135714819Y-89378969D01*
X135714819Y-89378969D02*
X135714819Y-89188493D01*
X135714819Y-89188493D02*
X135667200Y-89093255D01*
X135667200Y-89093255D02*
X135619580Y-89045636D01*
X135619580Y-89045636D02*
X135524342Y-88998017D01*
X135524342Y-88998017D02*
X135238628Y-88998017D01*
X135238628Y-88998017D02*
X135143390Y-89045636D01*
X135143390Y-89045636D02*
X135095771Y-89093255D01*
X135095771Y-89093255D02*
X135048152Y-89188493D01*
X135048152Y-89188493D02*
X135048152Y-89378969D01*
X135048152Y-89378969D02*
X135095771Y-89474207D01*
X135714819Y-90045636D02*
X135667200Y-89950398D01*
X135667200Y-89950398D02*
X135619580Y-89902779D01*
X135619580Y-89902779D02*
X135524342Y-89855160D01*
X135524342Y-89855160D02*
X135238628Y-89855160D01*
X135238628Y-89855160D02*
X135143390Y-89902779D01*
X135143390Y-89902779D02*
X135095771Y-89950398D01*
X135095771Y-89950398D02*
X135048152Y-90045636D01*
X135048152Y-90045636D02*
X135048152Y-90188493D01*
X135048152Y-90188493D02*
X135095771Y-90283731D01*
X135095771Y-90283731D02*
X135143390Y-90331350D01*
X135143390Y-90331350D02*
X135238628Y-90378969D01*
X135238628Y-90378969D02*
X135524342Y-90378969D01*
X135524342Y-90378969D02*
X135619580Y-90331350D01*
X135619580Y-90331350D02*
X135667200Y-90283731D01*
X135667200Y-90283731D02*
X135714819Y-90188493D01*
X135714819Y-90188493D02*
X135714819Y-90045636D01*
X135714819Y-90807541D02*
X135048152Y-90807541D01*
X135143390Y-90807541D02*
X135095771Y-90855160D01*
X135095771Y-90855160D02*
X135048152Y-90950398D01*
X135048152Y-90950398D02*
X135048152Y-91093255D01*
X135048152Y-91093255D02*
X135095771Y-91188493D01*
X135095771Y-91188493D02*
X135191009Y-91236112D01*
X135191009Y-91236112D02*
X135714819Y-91236112D01*
X135191009Y-91236112D02*
X135095771Y-91283731D01*
X135095771Y-91283731D02*
X135048152Y-91378969D01*
X135048152Y-91378969D02*
X135048152Y-91521826D01*
X135048152Y-91521826D02*
X135095771Y-91617065D01*
X135095771Y-91617065D02*
X135191009Y-91664684D01*
X135191009Y-91664684D02*
X135714819Y-91664684D01*
X134667200Y-92855159D02*
X135952914Y-91998017D01*
X135714819Y-93617064D02*
X134714819Y-93617064D01*
X135667200Y-93617064D02*
X135714819Y-93521826D01*
X135714819Y-93521826D02*
X135714819Y-93331350D01*
X135714819Y-93331350D02*
X135667200Y-93236112D01*
X135667200Y-93236112D02*
X135619580Y-93188493D01*
X135619580Y-93188493D02*
X135524342Y-93140874D01*
X135524342Y-93140874D02*
X135238628Y-93140874D01*
X135238628Y-93140874D02*
X135143390Y-93188493D01*
X135143390Y-93188493D02*
X135095771Y-93236112D01*
X135095771Y-93236112D02*
X135048152Y-93331350D01*
X135048152Y-93331350D02*
X135048152Y-93521826D01*
X135048152Y-93521826D02*
X135095771Y-93617064D01*
X135048152Y-94093255D02*
X135905295Y-94093255D01*
X135905295Y-94093255D02*
X136000533Y-94045636D01*
X136000533Y-94045636D02*
X136048152Y-93950398D01*
X136048152Y-93950398D02*
X136048152Y-93902779D01*
X134714819Y-94093255D02*
X134762438Y-94045636D01*
X134762438Y-94045636D02*
X134810057Y-94093255D01*
X134810057Y-94093255D02*
X134762438Y-94140874D01*
X134762438Y-94140874D02*
X134714819Y-94093255D01*
X134714819Y-94093255D02*
X134810057Y-94093255D01*
X135048152Y-94426588D02*
X135048152Y-94807540D01*
X134714819Y-94569445D02*
X135571961Y-94569445D01*
X135571961Y-94569445D02*
X135667200Y-94617064D01*
X135667200Y-94617064D02*
X135714819Y-94712302D01*
X135714819Y-94712302D02*
X135714819Y-94807540D01*
X135667200Y-95521826D02*
X135714819Y-95426588D01*
X135714819Y-95426588D02*
X135714819Y-95236112D01*
X135714819Y-95236112D02*
X135667200Y-95140874D01*
X135667200Y-95140874D02*
X135571961Y-95093255D01*
X135571961Y-95093255D02*
X135191009Y-95093255D01*
X135191009Y-95093255D02*
X135095771Y-95140874D01*
X135095771Y-95140874D02*
X135048152Y-95236112D01*
X135048152Y-95236112D02*
X135048152Y-95426588D01*
X135048152Y-95426588D02*
X135095771Y-95521826D01*
X135095771Y-95521826D02*
X135191009Y-95569445D01*
X135191009Y-95569445D02*
X135286247Y-95569445D01*
X135286247Y-95569445D02*
X135381485Y-95093255D01*
X135714819Y-95998017D02*
X135048152Y-95998017D01*
X135238628Y-95998017D02*
X135143390Y-96045636D01*
X135143390Y-96045636D02*
X135095771Y-96093255D01*
X135095771Y-96093255D02*
X135048152Y-96188493D01*
X135048152Y-96188493D02*
X135048152Y-96283731D01*
X135667200Y-96569446D02*
X135714819Y-96664684D01*
X135714819Y-96664684D02*
X135714819Y-96855160D01*
X135714819Y-96855160D02*
X135667200Y-96950398D01*
X135667200Y-96950398D02*
X135571961Y-96998017D01*
X135571961Y-96998017D02*
X135524342Y-96998017D01*
X135524342Y-96998017D02*
X135429104Y-96950398D01*
X135429104Y-96950398D02*
X135381485Y-96855160D01*
X135381485Y-96855160D02*
X135381485Y-96712303D01*
X135381485Y-96712303D02*
X135333866Y-96617065D01*
X135333866Y-96617065D02*
X135238628Y-96569446D01*
X135238628Y-96569446D02*
X135191009Y-96569446D01*
X135191009Y-96569446D02*
X135095771Y-96617065D01*
X135095771Y-96617065D02*
X135048152Y-96712303D01*
X135048152Y-96712303D02*
X135048152Y-96855160D01*
X135048152Y-96855160D02*
X135095771Y-96950398D01*
X135048152Y-97283732D02*
X135048152Y-97664684D01*
X134714819Y-97426589D02*
X135571961Y-97426589D01*
X135571961Y-97426589D02*
X135667200Y-97474208D01*
X135667200Y-97474208D02*
X135714819Y-97569446D01*
X135714819Y-97569446D02*
X135714819Y-97664684D01*
X135667200Y-98378970D02*
X135714819Y-98283732D01*
X135714819Y-98283732D02*
X135714819Y-98093256D01*
X135714819Y-98093256D02*
X135667200Y-97998018D01*
X135667200Y-97998018D02*
X135571961Y-97950399D01*
X135571961Y-97950399D02*
X135191009Y-97950399D01*
X135191009Y-97950399D02*
X135095771Y-97998018D01*
X135095771Y-97998018D02*
X135048152Y-98093256D01*
X135048152Y-98093256D02*
X135048152Y-98283732D01*
X135048152Y-98283732D02*
X135095771Y-98378970D01*
X135095771Y-98378970D02*
X135191009Y-98426589D01*
X135191009Y-98426589D02*
X135286247Y-98426589D01*
X135286247Y-98426589D02*
X135381485Y-97950399D01*
X135667200Y-99236113D02*
X135714819Y-99140875D01*
X135714819Y-99140875D02*
X135714819Y-98950399D01*
X135714819Y-98950399D02*
X135667200Y-98855161D01*
X135667200Y-98855161D02*
X135571961Y-98807542D01*
X135571961Y-98807542D02*
X135191009Y-98807542D01*
X135191009Y-98807542D02*
X135095771Y-98855161D01*
X135095771Y-98855161D02*
X135048152Y-98950399D01*
X135048152Y-98950399D02*
X135048152Y-99140875D01*
X135048152Y-99140875D02*
X135095771Y-99236113D01*
X135095771Y-99236113D02*
X135191009Y-99283732D01*
X135191009Y-99283732D02*
X135286247Y-99283732D01*
X135286247Y-99283732D02*
X135381485Y-98807542D01*
X135048152Y-100140875D02*
X135857676Y-100140875D01*
X135857676Y-100140875D02*
X135952914Y-100093256D01*
X135952914Y-100093256D02*
X136000533Y-100045637D01*
X136000533Y-100045637D02*
X136048152Y-99950399D01*
X136048152Y-99950399D02*
X136048152Y-99807542D01*
X136048152Y-99807542D02*
X136000533Y-99712304D01*
X135667200Y-100140875D02*
X135714819Y-100045637D01*
X135714819Y-100045637D02*
X135714819Y-99855161D01*
X135714819Y-99855161D02*
X135667200Y-99759923D01*
X135667200Y-99759923D02*
X135619580Y-99712304D01*
X135619580Y-99712304D02*
X135524342Y-99664685D01*
X135524342Y-99664685D02*
X135238628Y-99664685D01*
X135238628Y-99664685D02*
X135143390Y-99712304D01*
X135143390Y-99712304D02*
X135095771Y-99759923D01*
X135095771Y-99759923D02*
X135048152Y-99855161D01*
X135048152Y-99855161D02*
X135048152Y-100045637D01*
X135048152Y-100045637D02*
X135095771Y-100140875D01*
X135667200Y-101045637D02*
X135714819Y-100950399D01*
X135714819Y-100950399D02*
X135714819Y-100759923D01*
X135714819Y-100759923D02*
X135667200Y-100664685D01*
X135667200Y-100664685D02*
X135619580Y-100617066D01*
X135619580Y-100617066D02*
X135524342Y-100569447D01*
X135524342Y-100569447D02*
X135238628Y-100569447D01*
X135238628Y-100569447D02*
X135143390Y-100617066D01*
X135143390Y-100617066D02*
X135095771Y-100664685D01*
X135095771Y-100664685D02*
X135048152Y-100759923D01*
X135048152Y-100759923D02*
X135048152Y-100950399D01*
X135048152Y-100950399D02*
X135095771Y-101045637D01*
X134667200Y-102188494D02*
X135952914Y-101331352D01*
X135048152Y-102378971D02*
X135048152Y-102759923D01*
X135714819Y-102521828D02*
X134857676Y-102521828D01*
X134857676Y-102521828D02*
X134762438Y-102569447D01*
X134762438Y-102569447D02*
X134714819Y-102664685D01*
X134714819Y-102664685D02*
X134714819Y-102759923D01*
X135048152Y-103521828D02*
X135714819Y-103521828D01*
X135048152Y-103093257D02*
X135571961Y-103093257D01*
X135571961Y-103093257D02*
X135667200Y-103140876D01*
X135667200Y-103140876D02*
X135714819Y-103236114D01*
X135714819Y-103236114D02*
X135714819Y-103378971D01*
X135714819Y-103378971D02*
X135667200Y-103474209D01*
X135667200Y-103474209D02*
X135619580Y-103521828D01*
X135048152Y-103998019D02*
X135905295Y-103998019D01*
X135905295Y-103998019D02*
X136000533Y-103950400D01*
X136000533Y-103950400D02*
X136048152Y-103855162D01*
X136048152Y-103855162D02*
X136048152Y-103807543D01*
X134714819Y-103998019D02*
X134762438Y-103950400D01*
X134762438Y-103950400D02*
X134810057Y-103998019D01*
X134810057Y-103998019D02*
X134762438Y-104045638D01*
X134762438Y-104045638D02*
X134714819Y-103998019D01*
X134714819Y-103998019D02*
X134810057Y-103998019D01*
X135714819Y-104474209D02*
X135048152Y-104474209D01*
X134714819Y-104474209D02*
X134762438Y-104426590D01*
X134762438Y-104426590D02*
X134810057Y-104474209D01*
X134810057Y-104474209D02*
X134762438Y-104521828D01*
X134762438Y-104521828D02*
X134714819Y-104474209D01*
X134714819Y-104474209D02*
X134810057Y-104474209D01*
X135048152Y-104950399D02*
X135714819Y-104950399D01*
X135143390Y-104950399D02*
X135095771Y-104998018D01*
X135095771Y-104998018D02*
X135048152Y-105093256D01*
X135048152Y-105093256D02*
X135048152Y-105236113D01*
X135048152Y-105236113D02*
X135095771Y-105331351D01*
X135095771Y-105331351D02*
X135191009Y-105378970D01*
X135191009Y-105378970D02*
X135714819Y-105378970D01*
X135667200Y-106236113D02*
X135714819Y-106140875D01*
X135714819Y-106140875D02*
X135714819Y-105950399D01*
X135714819Y-105950399D02*
X135667200Y-105855161D01*
X135667200Y-105855161D02*
X135571961Y-105807542D01*
X135571961Y-105807542D02*
X135191009Y-105807542D01*
X135191009Y-105807542D02*
X135095771Y-105855161D01*
X135095771Y-105855161D02*
X135048152Y-105950399D01*
X135048152Y-105950399D02*
X135048152Y-106140875D01*
X135048152Y-106140875D02*
X135095771Y-106236113D01*
X135095771Y-106236113D02*
X135191009Y-106283732D01*
X135191009Y-106283732D02*
X135286247Y-106283732D01*
X135286247Y-106283732D02*
X135381485Y-105807542D01*
X135048152Y-106569447D02*
X135048152Y-106950399D01*
X134714819Y-106712304D02*
X135571961Y-106712304D01*
X135571961Y-106712304D02*
X135667200Y-106759923D01*
X135667200Y-106759923D02*
X135714819Y-106855161D01*
X135714819Y-106855161D02*
X135714819Y-106950399D01*
X135333866Y-107283733D02*
X135333866Y-108045638D01*
X135714819Y-108950399D02*
X135191009Y-108950399D01*
X135191009Y-108950399D02*
X135095771Y-108902780D01*
X135095771Y-108902780D02*
X135048152Y-108807542D01*
X135048152Y-108807542D02*
X135048152Y-108617066D01*
X135048152Y-108617066D02*
X135095771Y-108521828D01*
X135667200Y-108950399D02*
X135714819Y-108855161D01*
X135714819Y-108855161D02*
X135714819Y-108617066D01*
X135714819Y-108617066D02*
X135667200Y-108521828D01*
X135667200Y-108521828D02*
X135571961Y-108474209D01*
X135571961Y-108474209D02*
X135476723Y-108474209D01*
X135476723Y-108474209D02*
X135381485Y-108521828D01*
X135381485Y-108521828D02*
X135333866Y-108617066D01*
X135333866Y-108617066D02*
X135333866Y-108855161D01*
X135333866Y-108855161D02*
X135286247Y-108950399D01*
X135714819Y-109855161D02*
X134714819Y-109855161D01*
X135667200Y-109855161D02*
X135714819Y-109759923D01*
X135714819Y-109759923D02*
X135714819Y-109569447D01*
X135714819Y-109569447D02*
X135667200Y-109474209D01*
X135667200Y-109474209D02*
X135619580Y-109426590D01*
X135619580Y-109426590D02*
X135524342Y-109378971D01*
X135524342Y-109378971D02*
X135238628Y-109378971D01*
X135238628Y-109378971D02*
X135143390Y-109426590D01*
X135143390Y-109426590D02*
X135095771Y-109474209D01*
X135095771Y-109474209D02*
X135048152Y-109569447D01*
X135048152Y-109569447D02*
X135048152Y-109759923D01*
X135048152Y-109759923D02*
X135095771Y-109855161D01*
X135714819Y-110759923D02*
X135191009Y-110759923D01*
X135191009Y-110759923D02*
X135095771Y-110712304D01*
X135095771Y-110712304D02*
X135048152Y-110617066D01*
X135048152Y-110617066D02*
X135048152Y-110426590D01*
X135048152Y-110426590D02*
X135095771Y-110331352D01*
X135667200Y-110759923D02*
X135714819Y-110664685D01*
X135714819Y-110664685D02*
X135714819Y-110426590D01*
X135714819Y-110426590D02*
X135667200Y-110331352D01*
X135667200Y-110331352D02*
X135571961Y-110283733D01*
X135571961Y-110283733D02*
X135476723Y-110283733D01*
X135476723Y-110283733D02*
X135381485Y-110331352D01*
X135381485Y-110331352D02*
X135333866Y-110426590D01*
X135333866Y-110426590D02*
X135333866Y-110664685D01*
X135333866Y-110664685D02*
X135286247Y-110759923D01*
X135714819Y-111236114D02*
X135048152Y-111236114D01*
X135143390Y-111236114D02*
X135095771Y-111283733D01*
X135095771Y-111283733D02*
X135048152Y-111378971D01*
X135048152Y-111378971D02*
X135048152Y-111521828D01*
X135048152Y-111521828D02*
X135095771Y-111617066D01*
X135095771Y-111617066D02*
X135191009Y-111664685D01*
X135191009Y-111664685D02*
X135714819Y-111664685D01*
X135191009Y-111664685D02*
X135095771Y-111712304D01*
X135095771Y-111712304D02*
X135048152Y-111807542D01*
X135048152Y-111807542D02*
X135048152Y-111950399D01*
X135048152Y-111950399D02*
X135095771Y-112045638D01*
X135095771Y-112045638D02*
X135191009Y-112093257D01*
X135191009Y-112093257D02*
X135714819Y-112093257D01*
X135333866Y-112569447D02*
X135333866Y-113331352D01*
X135714819Y-113807542D02*
X134714819Y-113807542D01*
X135714819Y-114236113D02*
X135191009Y-114236113D01*
X135191009Y-114236113D02*
X135095771Y-114188494D01*
X135095771Y-114188494D02*
X135048152Y-114093256D01*
X135048152Y-114093256D02*
X135048152Y-113950399D01*
X135048152Y-113950399D02*
X135095771Y-113855161D01*
X135095771Y-113855161D02*
X135143390Y-113807542D01*
X135714819Y-115140875D02*
X135191009Y-115140875D01*
X135191009Y-115140875D02*
X135095771Y-115093256D01*
X135095771Y-115093256D02*
X135048152Y-114998018D01*
X135048152Y-114998018D02*
X135048152Y-114807542D01*
X135048152Y-114807542D02*
X135095771Y-114712304D01*
X135667200Y-115140875D02*
X135714819Y-115045637D01*
X135714819Y-115045637D02*
X135714819Y-114807542D01*
X135714819Y-114807542D02*
X135667200Y-114712304D01*
X135667200Y-114712304D02*
X135571961Y-114664685D01*
X135571961Y-114664685D02*
X135476723Y-114664685D01*
X135476723Y-114664685D02*
X135381485Y-114712304D01*
X135381485Y-114712304D02*
X135333866Y-114807542D01*
X135333866Y-114807542D02*
X135333866Y-115045637D01*
X135333866Y-115045637D02*
X135286247Y-115140875D01*
X135714819Y-115617066D02*
X135048152Y-115617066D01*
X135238628Y-115617066D02*
X135143390Y-115664685D01*
X135143390Y-115664685D02*
X135095771Y-115712304D01*
X135095771Y-115712304D02*
X135048152Y-115807542D01*
X135048152Y-115807542D02*
X135048152Y-115902780D01*
X135714819Y-116664685D02*
X134714819Y-116664685D01*
X135667200Y-116664685D02*
X135714819Y-116569447D01*
X135714819Y-116569447D02*
X135714819Y-116378971D01*
X135714819Y-116378971D02*
X135667200Y-116283733D01*
X135667200Y-116283733D02*
X135619580Y-116236114D01*
X135619580Y-116236114D02*
X135524342Y-116188495D01*
X135524342Y-116188495D02*
X135238628Y-116188495D01*
X135238628Y-116188495D02*
X135143390Y-116236114D01*
X135143390Y-116236114D02*
X135095771Y-116283733D01*
X135095771Y-116283733D02*
X135048152Y-116378971D01*
X135048152Y-116378971D02*
X135048152Y-116569447D01*
X135048152Y-116569447D02*
X135095771Y-116664685D01*
X135048152Y-117045638D02*
X135714819Y-117236114D01*
X135714819Y-117236114D02*
X135238628Y-117426590D01*
X135238628Y-117426590D02*
X135714819Y-117617066D01*
X135714819Y-117617066D02*
X135048152Y-117807542D01*
X135714819Y-118617066D02*
X135191009Y-118617066D01*
X135191009Y-118617066D02*
X135095771Y-118569447D01*
X135095771Y-118569447D02*
X135048152Y-118474209D01*
X135048152Y-118474209D02*
X135048152Y-118283733D01*
X135048152Y-118283733D02*
X135095771Y-118188495D01*
X135667200Y-118617066D02*
X135714819Y-118521828D01*
X135714819Y-118521828D02*
X135714819Y-118283733D01*
X135714819Y-118283733D02*
X135667200Y-118188495D01*
X135667200Y-118188495D02*
X135571961Y-118140876D01*
X135571961Y-118140876D02*
X135476723Y-118140876D01*
X135476723Y-118140876D02*
X135381485Y-118188495D01*
X135381485Y-118188495D02*
X135333866Y-118283733D01*
X135333866Y-118283733D02*
X135333866Y-118521828D01*
X135333866Y-118521828D02*
X135286247Y-118617066D01*
X135714819Y-119093257D02*
X135048152Y-119093257D01*
X135238628Y-119093257D02*
X135143390Y-119140876D01*
X135143390Y-119140876D02*
X135095771Y-119188495D01*
X135095771Y-119188495D02*
X135048152Y-119283733D01*
X135048152Y-119283733D02*
X135048152Y-119378971D01*
X135667200Y-120093257D02*
X135714819Y-119998019D01*
X135714819Y-119998019D02*
X135714819Y-119807543D01*
X135714819Y-119807543D02*
X135667200Y-119712305D01*
X135667200Y-119712305D02*
X135571961Y-119664686D01*
X135571961Y-119664686D02*
X135191009Y-119664686D01*
X135191009Y-119664686D02*
X135095771Y-119712305D01*
X135095771Y-119712305D02*
X135048152Y-119807543D01*
X135048152Y-119807543D02*
X135048152Y-119998019D01*
X135048152Y-119998019D02*
X135095771Y-120093257D01*
X135095771Y-120093257D02*
X135191009Y-120140876D01*
X135191009Y-120140876D02*
X135286247Y-120140876D01*
X135286247Y-120140876D02*
X135381485Y-119664686D01*
X136324819Y-84093255D02*
X136324819Y-84283731D01*
X136324819Y-84283731D02*
X136372438Y-84378969D01*
X136372438Y-84378969D02*
X136467676Y-84474207D01*
X136467676Y-84474207D02*
X136658152Y-84521826D01*
X136658152Y-84521826D02*
X136991485Y-84521826D01*
X136991485Y-84521826D02*
X137181961Y-84474207D01*
X137181961Y-84474207D02*
X137277200Y-84378969D01*
X137277200Y-84378969D02*
X137324819Y-84283731D01*
X137324819Y-84283731D02*
X137324819Y-84093255D01*
X137324819Y-84093255D02*
X137277200Y-83998017D01*
X137277200Y-83998017D02*
X137181961Y-83902779D01*
X137181961Y-83902779D02*
X136991485Y-83855160D01*
X136991485Y-83855160D02*
X136658152Y-83855160D01*
X136658152Y-83855160D02*
X136467676Y-83902779D01*
X136467676Y-83902779D02*
X136372438Y-83998017D01*
X136372438Y-83998017D02*
X136324819Y-84093255D01*
X137324819Y-84950398D02*
X136658152Y-84950398D01*
X136848628Y-84950398D02*
X136753390Y-84998017D01*
X136753390Y-84998017D02*
X136705771Y-85045636D01*
X136705771Y-85045636D02*
X136658152Y-85140874D01*
X136658152Y-85140874D02*
X136658152Y-85236112D01*
X137324819Y-85569446D02*
X136658152Y-85569446D01*
X136324819Y-85569446D02*
X136372438Y-85521827D01*
X136372438Y-85521827D02*
X136420057Y-85569446D01*
X136420057Y-85569446D02*
X136372438Y-85617065D01*
X136372438Y-85617065D02*
X136324819Y-85569446D01*
X136324819Y-85569446D02*
X136420057Y-85569446D01*
X136658152Y-86474207D02*
X137467676Y-86474207D01*
X137467676Y-86474207D02*
X137562914Y-86426588D01*
X137562914Y-86426588D02*
X137610533Y-86378969D01*
X137610533Y-86378969D02*
X137658152Y-86283731D01*
X137658152Y-86283731D02*
X137658152Y-86140874D01*
X137658152Y-86140874D02*
X137610533Y-86045636D01*
X137277200Y-86474207D02*
X137324819Y-86378969D01*
X137324819Y-86378969D02*
X137324819Y-86188493D01*
X137324819Y-86188493D02*
X137277200Y-86093255D01*
X137277200Y-86093255D02*
X137229580Y-86045636D01*
X137229580Y-86045636D02*
X137134342Y-85998017D01*
X137134342Y-85998017D02*
X136848628Y-85998017D01*
X136848628Y-85998017D02*
X136753390Y-86045636D01*
X136753390Y-86045636D02*
X136705771Y-86093255D01*
X136705771Y-86093255D02*
X136658152Y-86188493D01*
X136658152Y-86188493D02*
X136658152Y-86378969D01*
X136658152Y-86378969D02*
X136705771Y-86474207D01*
X137324819Y-86950398D02*
X136658152Y-86950398D01*
X136324819Y-86950398D02*
X136372438Y-86902779D01*
X136372438Y-86902779D02*
X136420057Y-86950398D01*
X136420057Y-86950398D02*
X136372438Y-86998017D01*
X136372438Y-86998017D02*
X136324819Y-86950398D01*
X136324819Y-86950398D02*
X136420057Y-86950398D01*
X136658152Y-87426588D02*
X137324819Y-87426588D01*
X136753390Y-87426588D02*
X136705771Y-87474207D01*
X136705771Y-87474207D02*
X136658152Y-87569445D01*
X136658152Y-87569445D02*
X136658152Y-87712302D01*
X136658152Y-87712302D02*
X136705771Y-87807540D01*
X136705771Y-87807540D02*
X136801009Y-87855159D01*
X136801009Y-87855159D02*
X137324819Y-87855159D01*
X137324819Y-88759921D02*
X136801009Y-88759921D01*
X136801009Y-88759921D02*
X136705771Y-88712302D01*
X136705771Y-88712302D02*
X136658152Y-88617064D01*
X136658152Y-88617064D02*
X136658152Y-88426588D01*
X136658152Y-88426588D02*
X136705771Y-88331350D01*
X137277200Y-88759921D02*
X137324819Y-88664683D01*
X137324819Y-88664683D02*
X137324819Y-88426588D01*
X137324819Y-88426588D02*
X137277200Y-88331350D01*
X137277200Y-88331350D02*
X137181961Y-88283731D01*
X137181961Y-88283731D02*
X137086723Y-88283731D01*
X137086723Y-88283731D02*
X136991485Y-88331350D01*
X136991485Y-88331350D02*
X136943866Y-88426588D01*
X136943866Y-88426588D02*
X136943866Y-88664683D01*
X136943866Y-88664683D02*
X136896247Y-88759921D01*
X137324819Y-89378969D02*
X137277200Y-89283731D01*
X137277200Y-89283731D02*
X137181961Y-89236112D01*
X137181961Y-89236112D02*
X136324819Y-89236112D01*
X137324819Y-90950398D02*
X136324819Y-90950398D01*
X137277200Y-90950398D02*
X137324819Y-90855160D01*
X137324819Y-90855160D02*
X137324819Y-90664684D01*
X137324819Y-90664684D02*
X137277200Y-90569446D01*
X137277200Y-90569446D02*
X137229580Y-90521827D01*
X137229580Y-90521827D02*
X137134342Y-90474208D01*
X137134342Y-90474208D02*
X136848628Y-90474208D01*
X136848628Y-90474208D02*
X136753390Y-90521827D01*
X136753390Y-90521827D02*
X136705771Y-90569446D01*
X136705771Y-90569446D02*
X136658152Y-90664684D01*
X136658152Y-90664684D02*
X136658152Y-90855160D01*
X136658152Y-90855160D02*
X136705771Y-90950398D01*
X137277200Y-91807541D02*
X137324819Y-91712303D01*
X137324819Y-91712303D02*
X137324819Y-91521827D01*
X137324819Y-91521827D02*
X137277200Y-91426589D01*
X137277200Y-91426589D02*
X137181961Y-91378970D01*
X137181961Y-91378970D02*
X136801009Y-91378970D01*
X136801009Y-91378970D02*
X136705771Y-91426589D01*
X136705771Y-91426589D02*
X136658152Y-91521827D01*
X136658152Y-91521827D02*
X136658152Y-91712303D01*
X136658152Y-91712303D02*
X136705771Y-91807541D01*
X136705771Y-91807541D02*
X136801009Y-91855160D01*
X136801009Y-91855160D02*
X136896247Y-91855160D01*
X136896247Y-91855160D02*
X136991485Y-91378970D01*
X137277200Y-92236113D02*
X137324819Y-92331351D01*
X137324819Y-92331351D02*
X137324819Y-92521827D01*
X137324819Y-92521827D02*
X137277200Y-92617065D01*
X137277200Y-92617065D02*
X137181961Y-92664684D01*
X137181961Y-92664684D02*
X137134342Y-92664684D01*
X137134342Y-92664684D02*
X137039104Y-92617065D01*
X137039104Y-92617065D02*
X136991485Y-92521827D01*
X136991485Y-92521827D02*
X136991485Y-92378970D01*
X136991485Y-92378970D02*
X136943866Y-92283732D01*
X136943866Y-92283732D02*
X136848628Y-92236113D01*
X136848628Y-92236113D02*
X136801009Y-92236113D01*
X136801009Y-92236113D02*
X136705771Y-92283732D01*
X136705771Y-92283732D02*
X136658152Y-92378970D01*
X136658152Y-92378970D02*
X136658152Y-92521827D01*
X136658152Y-92521827D02*
X136705771Y-92617065D01*
X137324819Y-93093256D02*
X136658152Y-93093256D01*
X136324819Y-93093256D02*
X136372438Y-93045637D01*
X136372438Y-93045637D02*
X136420057Y-93093256D01*
X136420057Y-93093256D02*
X136372438Y-93140875D01*
X136372438Y-93140875D02*
X136324819Y-93093256D01*
X136324819Y-93093256D02*
X136420057Y-93093256D01*
X136658152Y-93998017D02*
X137467676Y-93998017D01*
X137467676Y-93998017D02*
X137562914Y-93950398D01*
X137562914Y-93950398D02*
X137610533Y-93902779D01*
X137610533Y-93902779D02*
X137658152Y-93807541D01*
X137658152Y-93807541D02*
X137658152Y-93664684D01*
X137658152Y-93664684D02*
X137610533Y-93569446D01*
X137277200Y-93998017D02*
X137324819Y-93902779D01*
X137324819Y-93902779D02*
X137324819Y-93712303D01*
X137324819Y-93712303D02*
X137277200Y-93617065D01*
X137277200Y-93617065D02*
X137229580Y-93569446D01*
X137229580Y-93569446D02*
X137134342Y-93521827D01*
X137134342Y-93521827D02*
X136848628Y-93521827D01*
X136848628Y-93521827D02*
X136753390Y-93569446D01*
X136753390Y-93569446D02*
X136705771Y-93617065D01*
X136705771Y-93617065D02*
X136658152Y-93712303D01*
X136658152Y-93712303D02*
X136658152Y-93902779D01*
X136658152Y-93902779D02*
X136705771Y-93998017D01*
X136658152Y-94474208D02*
X137324819Y-94474208D01*
X136753390Y-94474208D02*
X136705771Y-94521827D01*
X136705771Y-94521827D02*
X136658152Y-94617065D01*
X136658152Y-94617065D02*
X136658152Y-94759922D01*
X136658152Y-94759922D02*
X136705771Y-94855160D01*
X136705771Y-94855160D02*
X136801009Y-94902779D01*
X136801009Y-94902779D02*
X137324819Y-94902779D01*
X137324819Y-96140875D02*
X136324819Y-96140875D01*
X136705771Y-96140875D02*
X136658152Y-96236113D01*
X136658152Y-96236113D02*
X136658152Y-96426589D01*
X136658152Y-96426589D02*
X136705771Y-96521827D01*
X136705771Y-96521827D02*
X136753390Y-96569446D01*
X136753390Y-96569446D02*
X136848628Y-96617065D01*
X136848628Y-96617065D02*
X137134342Y-96617065D01*
X137134342Y-96617065D02*
X137229580Y-96569446D01*
X137229580Y-96569446D02*
X137277200Y-96521827D01*
X137277200Y-96521827D02*
X137324819Y-96426589D01*
X137324819Y-96426589D02*
X137324819Y-96236113D01*
X137324819Y-96236113D02*
X137277200Y-96140875D01*
X136658152Y-96950399D02*
X137324819Y-97188494D01*
X136658152Y-97426589D02*
X137324819Y-97188494D01*
X137324819Y-97188494D02*
X137562914Y-97093256D01*
X137562914Y-97093256D02*
X137610533Y-97045637D01*
X137610533Y-97045637D02*
X137658152Y-96950399D01*
X137324819Y-98569447D02*
X136658152Y-98569447D01*
X136753390Y-98569447D02*
X136705771Y-98617066D01*
X136705771Y-98617066D02*
X136658152Y-98712304D01*
X136658152Y-98712304D02*
X136658152Y-98855161D01*
X136658152Y-98855161D02*
X136705771Y-98950399D01*
X136705771Y-98950399D02*
X136801009Y-98998018D01*
X136801009Y-98998018D02*
X137324819Y-98998018D01*
X136801009Y-98998018D02*
X136705771Y-99045637D01*
X136705771Y-99045637D02*
X136658152Y-99140875D01*
X136658152Y-99140875D02*
X136658152Y-99283732D01*
X136658152Y-99283732D02*
X136705771Y-99378971D01*
X136705771Y-99378971D02*
X136801009Y-99426590D01*
X136801009Y-99426590D02*
X137324819Y-99426590D01*
X137324819Y-100045637D02*
X137277200Y-99950399D01*
X137277200Y-99950399D02*
X137229580Y-99902780D01*
X137229580Y-99902780D02*
X137134342Y-99855161D01*
X137134342Y-99855161D02*
X136848628Y-99855161D01*
X136848628Y-99855161D02*
X136753390Y-99902780D01*
X136753390Y-99902780D02*
X136705771Y-99950399D01*
X136705771Y-99950399D02*
X136658152Y-100045637D01*
X136658152Y-100045637D02*
X136658152Y-100188494D01*
X136658152Y-100188494D02*
X136705771Y-100283732D01*
X136705771Y-100283732D02*
X136753390Y-100331351D01*
X136753390Y-100331351D02*
X136848628Y-100378970D01*
X136848628Y-100378970D02*
X137134342Y-100378970D01*
X137134342Y-100378970D02*
X137229580Y-100331351D01*
X137229580Y-100331351D02*
X137277200Y-100283732D01*
X137277200Y-100283732D02*
X137324819Y-100188494D01*
X137324819Y-100188494D02*
X137324819Y-100045637D01*
X136658152Y-100712304D02*
X136658152Y-101236113D01*
X136658152Y-101236113D02*
X137324819Y-100712304D01*
X137324819Y-100712304D02*
X137324819Y-101236113D01*
X136658152Y-101521828D02*
X136658152Y-102045637D01*
X136658152Y-102045637D02*
X137324819Y-101521828D01*
X137324819Y-101521828D02*
X137324819Y-102045637D01*
X136658152Y-102331352D02*
X137324819Y-102521828D01*
X137324819Y-102521828D02*
X136848628Y-102712304D01*
X136848628Y-102712304D02*
X137324819Y-102902780D01*
X137324819Y-102902780D02*
X136658152Y-103093256D01*
X137324819Y-103902780D02*
X136801009Y-103902780D01*
X136801009Y-103902780D02*
X136705771Y-103855161D01*
X136705771Y-103855161D02*
X136658152Y-103759923D01*
X136658152Y-103759923D02*
X136658152Y-103569447D01*
X136658152Y-103569447D02*
X136705771Y-103474209D01*
X137277200Y-103902780D02*
X137324819Y-103807542D01*
X137324819Y-103807542D02*
X137324819Y-103569447D01*
X137324819Y-103569447D02*
X137277200Y-103474209D01*
X137277200Y-103474209D02*
X137181961Y-103426590D01*
X137181961Y-103426590D02*
X137086723Y-103426590D01*
X137086723Y-103426590D02*
X136991485Y-103474209D01*
X136991485Y-103474209D02*
X136943866Y-103569447D01*
X136943866Y-103569447D02*
X136943866Y-103807542D01*
X136943866Y-103807542D02*
X136896247Y-103902780D01*
X137324819Y-104521828D02*
X137277200Y-104426590D01*
X137277200Y-104426590D02*
X137181961Y-104378971D01*
X137181961Y-104378971D02*
X136324819Y-104378971D01*
X137324819Y-105331352D02*
X136324819Y-105331352D01*
X137277200Y-105331352D02*
X137324819Y-105236114D01*
X137324819Y-105236114D02*
X137324819Y-105045638D01*
X137324819Y-105045638D02*
X137277200Y-104950400D01*
X137277200Y-104950400D02*
X137229580Y-104902781D01*
X137229580Y-104902781D02*
X137134342Y-104855162D01*
X137134342Y-104855162D02*
X136848628Y-104855162D01*
X136848628Y-104855162D02*
X136753390Y-104902781D01*
X136753390Y-104902781D02*
X136705771Y-104950400D01*
X136705771Y-104950400D02*
X136658152Y-105045638D01*
X136658152Y-105045638D02*
X136658152Y-105236114D01*
X136658152Y-105236114D02*
X136705771Y-105331352D01*
X138268152Y-83759922D02*
X138268152Y-84140874D01*
X138934819Y-83902779D02*
X138077676Y-83902779D01*
X138077676Y-83902779D02*
X137982438Y-83950398D01*
X137982438Y-83950398D02*
X137934819Y-84045636D01*
X137934819Y-84045636D02*
X137934819Y-84140874D01*
X138268152Y-84902779D02*
X138934819Y-84902779D01*
X138268152Y-84474208D02*
X138791961Y-84474208D01*
X138791961Y-84474208D02*
X138887200Y-84521827D01*
X138887200Y-84521827D02*
X138934819Y-84617065D01*
X138934819Y-84617065D02*
X138934819Y-84759922D01*
X138934819Y-84759922D02*
X138887200Y-84855160D01*
X138887200Y-84855160D02*
X138839580Y-84902779D01*
X138268152Y-85378970D02*
X139125295Y-85378970D01*
X139125295Y-85378970D02*
X139220533Y-85331351D01*
X139220533Y-85331351D02*
X139268152Y-85236113D01*
X139268152Y-85236113D02*
X139268152Y-85188494D01*
X137934819Y-85378970D02*
X137982438Y-85331351D01*
X137982438Y-85331351D02*
X138030057Y-85378970D01*
X138030057Y-85378970D02*
X137982438Y-85426589D01*
X137982438Y-85426589D02*
X137934819Y-85378970D01*
X137934819Y-85378970D02*
X138030057Y-85378970D01*
X138934819Y-85855160D02*
X138268152Y-85855160D01*
X137934819Y-85855160D02*
X137982438Y-85807541D01*
X137982438Y-85807541D02*
X138030057Y-85855160D01*
X138030057Y-85855160D02*
X137982438Y-85902779D01*
X137982438Y-85902779D02*
X137934819Y-85855160D01*
X137934819Y-85855160D02*
X138030057Y-85855160D01*
X138268152Y-86331350D02*
X138934819Y-86331350D01*
X138363390Y-86331350D02*
X138315771Y-86378969D01*
X138315771Y-86378969D02*
X138268152Y-86474207D01*
X138268152Y-86474207D02*
X138268152Y-86617064D01*
X138268152Y-86617064D02*
X138315771Y-86712302D01*
X138315771Y-86712302D02*
X138411009Y-86759921D01*
X138411009Y-86759921D02*
X138934819Y-86759921D01*
X138887200Y-87617064D02*
X138934819Y-87521826D01*
X138934819Y-87521826D02*
X138934819Y-87331350D01*
X138934819Y-87331350D02*
X138887200Y-87236112D01*
X138887200Y-87236112D02*
X138791961Y-87188493D01*
X138791961Y-87188493D02*
X138411009Y-87188493D01*
X138411009Y-87188493D02*
X138315771Y-87236112D01*
X138315771Y-87236112D02*
X138268152Y-87331350D01*
X138268152Y-87331350D02*
X138268152Y-87521826D01*
X138268152Y-87521826D02*
X138315771Y-87617064D01*
X138315771Y-87617064D02*
X138411009Y-87664683D01*
X138411009Y-87664683D02*
X138506247Y-87664683D01*
X138506247Y-87664683D02*
X138601485Y-87188493D01*
X138268152Y-87950398D02*
X138268152Y-88331350D01*
X137934819Y-88093255D02*
X138791961Y-88093255D01*
X138791961Y-88093255D02*
X138887200Y-88140874D01*
X138887200Y-88140874D02*
X138934819Y-88236112D01*
X138934819Y-88236112D02*
X138934819Y-88331350D01*
X138268152Y-88569446D02*
X138934819Y-88759922D01*
X138934819Y-88759922D02*
X138458628Y-88950398D01*
X138458628Y-88950398D02*
X138934819Y-89140874D01*
X138934819Y-89140874D02*
X138268152Y-89331350D01*
X138934819Y-89712303D02*
X138268152Y-89712303D01*
X137934819Y-89712303D02*
X137982438Y-89664684D01*
X137982438Y-89664684D02*
X138030057Y-89712303D01*
X138030057Y-89712303D02*
X137982438Y-89759922D01*
X137982438Y-89759922D02*
X137934819Y-89712303D01*
X137934819Y-89712303D02*
X138030057Y-89712303D01*
X138268152Y-90045636D02*
X138268152Y-90426588D01*
X138934819Y-90188493D02*
X138077676Y-90188493D01*
X138077676Y-90188493D02*
X137982438Y-90236112D01*
X137982438Y-90236112D02*
X137934819Y-90331350D01*
X137934819Y-90331350D02*
X137934819Y-90426588D01*
X138934819Y-90759922D02*
X138268152Y-90759922D01*
X137934819Y-90759922D02*
X137982438Y-90712303D01*
X137982438Y-90712303D02*
X138030057Y-90759922D01*
X138030057Y-90759922D02*
X137982438Y-90807541D01*
X137982438Y-90807541D02*
X137934819Y-90759922D01*
X137934819Y-90759922D02*
X138030057Y-90759922D01*
X138839580Y-91236112D02*
X138887200Y-91283731D01*
X138887200Y-91283731D02*
X138934819Y-91236112D01*
X138934819Y-91236112D02*
X138887200Y-91188493D01*
X138887200Y-91188493D02*
X138839580Y-91236112D01*
X138839580Y-91236112D02*
X138934819Y-91236112D01*
X138268152Y-92140873D02*
X139077676Y-92140873D01*
X139077676Y-92140873D02*
X139172914Y-92093254D01*
X139172914Y-92093254D02*
X139220533Y-92045635D01*
X139220533Y-92045635D02*
X139268152Y-91950397D01*
X139268152Y-91950397D02*
X139268152Y-91807540D01*
X139268152Y-91807540D02*
X139220533Y-91712302D01*
X138887200Y-92140873D02*
X138934819Y-92045635D01*
X138934819Y-92045635D02*
X138934819Y-91855159D01*
X138934819Y-91855159D02*
X138887200Y-91759921D01*
X138887200Y-91759921D02*
X138839580Y-91712302D01*
X138839580Y-91712302D02*
X138744342Y-91664683D01*
X138744342Y-91664683D02*
X138458628Y-91664683D01*
X138458628Y-91664683D02*
X138363390Y-91712302D01*
X138363390Y-91712302D02*
X138315771Y-91759921D01*
X138315771Y-91759921D02*
X138268152Y-91855159D01*
X138268152Y-91855159D02*
X138268152Y-92045635D01*
X138268152Y-92045635D02*
X138315771Y-92140873D01*
X138934819Y-92617064D02*
X138268152Y-92617064D01*
X137934819Y-92617064D02*
X137982438Y-92569445D01*
X137982438Y-92569445D02*
X138030057Y-92617064D01*
X138030057Y-92617064D02*
X137982438Y-92664683D01*
X137982438Y-92664683D02*
X137934819Y-92617064D01*
X137934819Y-92617064D02*
X138030057Y-92617064D01*
X138268152Y-92950397D02*
X138268152Y-93331349D01*
X137934819Y-93093254D02*
X138791961Y-93093254D01*
X138791961Y-93093254D02*
X138887200Y-93140873D01*
X138887200Y-93140873D02*
X138934819Y-93236111D01*
X138934819Y-93236111D02*
X138934819Y-93331349D01*
X138934819Y-93664683D02*
X137934819Y-93664683D01*
X138934819Y-94093254D02*
X138411009Y-94093254D01*
X138411009Y-94093254D02*
X138315771Y-94045635D01*
X138315771Y-94045635D02*
X138268152Y-93950397D01*
X138268152Y-93950397D02*
X138268152Y-93807540D01*
X138268152Y-93807540D02*
X138315771Y-93712302D01*
X138315771Y-93712302D02*
X138363390Y-93664683D01*
X138268152Y-94998016D02*
X138934819Y-94998016D01*
X138268152Y-94569445D02*
X138791961Y-94569445D01*
X138791961Y-94569445D02*
X138887200Y-94617064D01*
X138887200Y-94617064D02*
X138934819Y-94712302D01*
X138934819Y-94712302D02*
X138934819Y-94855159D01*
X138934819Y-94855159D02*
X138887200Y-94950397D01*
X138887200Y-94950397D02*
X138839580Y-94998016D01*
X138934819Y-95474207D02*
X137934819Y-95474207D01*
X138315771Y-95474207D02*
X138268152Y-95569445D01*
X138268152Y-95569445D02*
X138268152Y-95759921D01*
X138268152Y-95759921D02*
X138315771Y-95855159D01*
X138315771Y-95855159D02*
X138363390Y-95902778D01*
X138363390Y-95902778D02*
X138458628Y-95950397D01*
X138458628Y-95950397D02*
X138744342Y-95950397D01*
X138744342Y-95950397D02*
X138839580Y-95902778D01*
X138839580Y-95902778D02*
X138887200Y-95855159D01*
X138887200Y-95855159D02*
X138934819Y-95759921D01*
X138934819Y-95759921D02*
X138934819Y-95569445D01*
X138934819Y-95569445D02*
X138887200Y-95474207D01*
X138839580Y-96378969D02*
X138887200Y-96426588D01*
X138887200Y-96426588D02*
X138934819Y-96378969D01*
X138934819Y-96378969D02*
X138887200Y-96331350D01*
X138887200Y-96331350D02*
X138839580Y-96378969D01*
X138839580Y-96378969D02*
X138934819Y-96378969D01*
X138934819Y-96855159D02*
X138268152Y-96855159D01*
X137934819Y-96855159D02*
X137982438Y-96807540D01*
X137982438Y-96807540D02*
X138030057Y-96855159D01*
X138030057Y-96855159D02*
X137982438Y-96902778D01*
X137982438Y-96902778D02*
X137934819Y-96855159D01*
X137934819Y-96855159D02*
X138030057Y-96855159D01*
X138934819Y-97474206D02*
X138887200Y-97378968D01*
X138887200Y-97378968D02*
X138839580Y-97331349D01*
X138839580Y-97331349D02*
X138744342Y-97283730D01*
X138744342Y-97283730D02*
X138458628Y-97283730D01*
X138458628Y-97283730D02*
X138363390Y-97331349D01*
X138363390Y-97331349D02*
X138315771Y-97378968D01*
X138315771Y-97378968D02*
X138268152Y-97474206D01*
X138268152Y-97474206D02*
X138268152Y-97617063D01*
X138268152Y-97617063D02*
X138315771Y-97712301D01*
X138315771Y-97712301D02*
X138363390Y-97759920D01*
X138363390Y-97759920D02*
X138458628Y-97807539D01*
X138458628Y-97807539D02*
X138744342Y-97807539D01*
X138744342Y-97807539D02*
X138839580Y-97759920D01*
X138839580Y-97759920D02*
X138887200Y-97712301D01*
X138887200Y-97712301D02*
X138934819Y-97617063D01*
X138934819Y-97617063D02*
X138934819Y-97474206D01*
X145713220Y-130314819D02*
X145713220Y-131124342D01*
X145713220Y-131124342D02*
X145665601Y-131219580D01*
X145665601Y-131219580D02*
X145617982Y-131267200D01*
X145617982Y-131267200D02*
X145522744Y-131314819D01*
X145522744Y-131314819D02*
X145332268Y-131314819D01*
X145332268Y-131314819D02*
X145237030Y-131267200D01*
X145237030Y-131267200D02*
X145189411Y-131219580D01*
X145189411Y-131219580D02*
X145141792Y-131124342D01*
X145141792Y-131124342D02*
X145141792Y-130314819D01*
X144713220Y-131267200D02*
X144570363Y-131314819D01*
X144570363Y-131314819D02*
X144332268Y-131314819D01*
X144332268Y-131314819D02*
X144237030Y-131267200D01*
X144237030Y-131267200D02*
X144189411Y-131219580D01*
X144189411Y-131219580D02*
X144141792Y-131124342D01*
X144141792Y-131124342D02*
X144141792Y-131029104D01*
X144141792Y-131029104D02*
X144189411Y-130933866D01*
X144189411Y-130933866D02*
X144237030Y-130886247D01*
X144237030Y-130886247D02*
X144332268Y-130838628D01*
X144332268Y-130838628D02*
X144522744Y-130791009D01*
X144522744Y-130791009D02*
X144617982Y-130743390D01*
X144617982Y-130743390D02*
X144665601Y-130695771D01*
X144665601Y-130695771D02*
X144713220Y-130600533D01*
X144713220Y-130600533D02*
X144713220Y-130505295D01*
X144713220Y-130505295D02*
X144665601Y-130410057D01*
X144665601Y-130410057D02*
X144617982Y-130362438D01*
X144617982Y-130362438D02*
X144522744Y-130314819D01*
X144522744Y-130314819D02*
X144284649Y-130314819D01*
X144284649Y-130314819D02*
X144141792Y-130362438D01*
X143379887Y-130791009D02*
X143237030Y-130838628D01*
X143237030Y-130838628D02*
X143189411Y-130886247D01*
X143189411Y-130886247D02*
X143141792Y-130981485D01*
X143141792Y-130981485D02*
X143141792Y-131124342D01*
X143141792Y-131124342D02*
X143189411Y-131219580D01*
X143189411Y-131219580D02*
X143237030Y-131267200D01*
X143237030Y-131267200D02*
X143332268Y-131314819D01*
X143332268Y-131314819D02*
X143713220Y-131314819D01*
X143713220Y-131314819D02*
X143713220Y-130314819D01*
X143713220Y-130314819D02*
X143379887Y-130314819D01*
X143379887Y-130314819D02*
X143284649Y-130362438D01*
X143284649Y-130362438D02*
X143237030Y-130410057D01*
X143237030Y-130410057D02*
X143189411Y-130505295D01*
X143189411Y-130505295D02*
X143189411Y-130600533D01*
X143189411Y-130600533D02*
X143237030Y-130695771D01*
X143237030Y-130695771D02*
X143284649Y-130743390D01*
X143284649Y-130743390D02*
X143379887Y-130791009D01*
X143379887Y-130791009D02*
X143713220Y-130791009D01*
X147538839Y-78197104D02*
X147062649Y-78197104D01*
X147634077Y-78482819D02*
X147300744Y-77482819D01*
X147300744Y-77482819D02*
X146967411Y-78482819D01*
X146634077Y-77816152D02*
X146634077Y-78482819D01*
X146634077Y-77911390D02*
X146586458Y-77863771D01*
X146586458Y-77863771D02*
X146491220Y-77816152D01*
X146491220Y-77816152D02*
X146348363Y-77816152D01*
X146348363Y-77816152D02*
X146253125Y-77863771D01*
X146253125Y-77863771D02*
X146205506Y-77959009D01*
X146205506Y-77959009D02*
X146205506Y-78482819D01*
X145872172Y-77816152D02*
X145491220Y-77816152D01*
X145729315Y-77482819D02*
X145729315Y-78339961D01*
X145729315Y-78339961D02*
X145681696Y-78435200D01*
X145681696Y-78435200D02*
X145586458Y-78482819D01*
X145586458Y-78482819D02*
X145491220Y-78482819D01*
X144776934Y-78435200D02*
X144872172Y-78482819D01*
X144872172Y-78482819D02*
X145062648Y-78482819D01*
X145062648Y-78482819D02*
X145157886Y-78435200D01*
X145157886Y-78435200D02*
X145205505Y-78339961D01*
X145205505Y-78339961D02*
X145205505Y-77959009D01*
X145205505Y-77959009D02*
X145157886Y-77863771D01*
X145157886Y-77863771D02*
X145062648Y-77816152D01*
X145062648Y-77816152D02*
X144872172Y-77816152D01*
X144872172Y-77816152D02*
X144776934Y-77863771D01*
X144776934Y-77863771D02*
X144729315Y-77959009D01*
X144729315Y-77959009D02*
X144729315Y-78054247D01*
X144729315Y-78054247D02*
X145205505Y-78149485D01*
X144300743Y-77816152D02*
X144300743Y-78482819D01*
X144300743Y-77911390D02*
X144253124Y-77863771D01*
X144253124Y-77863771D02*
X144157886Y-77816152D01*
X144157886Y-77816152D02*
X144015029Y-77816152D01*
X144015029Y-77816152D02*
X143919791Y-77863771D01*
X143919791Y-77863771D02*
X143872172Y-77959009D01*
X143872172Y-77959009D02*
X143872172Y-78482819D01*
X143395981Y-77816152D02*
X143395981Y-78482819D01*
X143395981Y-77911390D02*
X143348362Y-77863771D01*
X143348362Y-77863771D02*
X143253124Y-77816152D01*
X143253124Y-77816152D02*
X143110267Y-77816152D01*
X143110267Y-77816152D02*
X143015029Y-77863771D01*
X143015029Y-77863771D02*
X142967410Y-77959009D01*
X142967410Y-77959009D02*
X142967410Y-78482819D01*
X142062648Y-78482819D02*
X142062648Y-77959009D01*
X142062648Y-77959009D02*
X142110267Y-77863771D01*
X142110267Y-77863771D02*
X142205505Y-77816152D01*
X142205505Y-77816152D02*
X142395981Y-77816152D01*
X142395981Y-77816152D02*
X142491219Y-77863771D01*
X142062648Y-78435200D02*
X142157886Y-78482819D01*
X142157886Y-78482819D02*
X142395981Y-78482819D01*
X142395981Y-78482819D02*
X142491219Y-78435200D01*
X142491219Y-78435200D02*
X142538838Y-78339961D01*
X142538838Y-78339961D02*
X142538838Y-78244723D01*
X142538838Y-78244723D02*
X142491219Y-78149485D01*
X142491219Y-78149485D02*
X142395981Y-78101866D01*
X142395981Y-78101866D02*
X142157886Y-78101866D01*
X142157886Y-78101866D02*
X142062648Y-78054247D01*
D11*
X155701904Y-75016839D02*
X155701904Y-75826362D01*
X155701904Y-75826362D02*
X155654285Y-75921600D01*
X155654285Y-75921600D02*
X155606666Y-75969220D01*
X155606666Y-75969220D02*
X155511428Y-76016839D01*
X155511428Y-76016839D02*
X155320952Y-76016839D01*
X155320952Y-76016839D02*
X155225714Y-75969220D01*
X155225714Y-75969220D02*
X155178095Y-75921600D01*
X155178095Y-75921600D02*
X155130476Y-75826362D01*
X155130476Y-75826362D02*
X155130476Y-75016839D01*
X154130476Y-76016839D02*
X154701904Y-76016839D01*
X154416190Y-76016839D02*
X154416190Y-75016839D01*
X154416190Y-75016839D02*
X154511428Y-75159696D01*
X154511428Y-75159696D02*
X154606666Y-75254934D01*
X154606666Y-75254934D02*
X154701904Y-75302553D01*
D12*
%TO.C,U1*%
X158095000Y-131405000D02*
X148215000Y-131405000D01*
X158095000Y-83205000D02*
X158095000Y-131405000D01*
X153145000Y-83205000D02*
X158095000Y-83205000D01*
X153145000Y-83205000D02*
X153145000Y-77005000D01*
X153145000Y-77005000D02*
X135145000Y-77005000D01*
X148215000Y-132305000D02*
X140085000Y-132305000D01*
X148215000Y-131405000D02*
X148215000Y-132305000D01*
X140085000Y-132305000D02*
X140085000Y-131405000D01*
X140085000Y-131405000D02*
X130195000Y-131405000D01*
X135145000Y-77005000D02*
X135145000Y-83205000D01*
X130195000Y-131405000D02*
X130195000Y-83205000D01*
X130195000Y-83205000D02*
X135145000Y-83205000D01*
D13*
X158815000Y-84335000D02*
G75*
G03*
X158815000Y-84335000I-100000J0D01*
G01*
%TD*%
M02*
