M48
; DRILL file {KiCad 7.0.8} date Mon Oct 30 21:57:14 2023
; FORMAT={-:-/ absolute / inch / decimal}
; #@! TF.CreationDate,2023-10-30T21:57:14-05:00
; #@! TF.GenerationSoftware,Kicad,Pcbnew,7.0.8
; #@! TF.FileFunction,MixedPlating,1,2
FMAT,2
INCH
; #@! TA.AperFunction,Plated,PTH,ViaDrill
T1C0.0118
; #@! TA.AperFunction,Plated,PTH,ViaDrill
T2C0.0157
; #@! TA.AperFunction,Plated,PTH,ViaDrill
T3C0.0197
; #@! TA.AperFunction,Plated,PTH,ComponentDrill
T4C0.0299
; #@! TA.AperFunction,Plated,PTH,ComponentDrill
T5C0.0354
; #@! TA.AperFunction,Plated,PTH,ComponentDrill
T6C0.0402
; #@! TA.AperFunction,NonPlated,NPTH,ComponentDrill
T7C0.0354
; #@! TA.AperFunction,NonPlated,NPTH,ComponentDrill
T8C0.1063
; #@! TA.AperFunction,NonPlated,NPTH,ComponentDrill
T9C0.1280
%
G90
G05
T1
X5.2973Y-3.945
X5.3Y-3.8527
X5.3Y-4.0107
X5.325Y-4.8
X5.335Y-4.895
X5.35Y-4.39
X5.39Y-4.6
X5.39Y-4.76
X5.43Y-3.77
X5.46Y-3.9
X5.46Y-4.1461
X5.46Y-4.3861
X5.5Y-4.68
X5.5Y-4.7115
X5.5Y-4.7846
X5.5171Y-4.1671
X5.57Y-3.7261
X5.57Y-4.075
X5.67Y-3.645
X5.71Y-4.1
X5.755Y-4.045
X5.76Y-3.56
X5.78Y-3.725
X5.785Y-4.0269
X5.79Y-4.24
X5.8039Y-4.5
X5.81Y-4.28
X5.855Y-4.655
X5.8672Y-4.0496
X5.9Y-4.825
X5.92Y-3.66
X5.96Y-4.61
X5.96Y-4.7846
X6.04Y-3.86
X6.04Y-4.5649
X6.05Y-4.26
X6.08Y-4.6572
X6.0835Y-3.84
X6.12Y-4.13
X6.12Y-4.36
X6.1327Y-4.065
T2
X5.585Y-4.29
X5.635Y-4.29
X5.685Y-3.88
X5.76Y-4.46
X5.8022Y-3.555
X5.84Y-3.88
X6.0Y-4.9
X6.0Y-4.94
X6.085Y-4.835
T3
X5.715Y-3.55
T4
X5.549Y-4.61
X5.599Y-4.71
X5.649Y-4.61
X5.699Y-4.71
X5.749Y-4.61
X5.799Y-4.71
T5
X5.94Y-3.77
X5.9402Y-4.0973
X5.9402Y-4.427
X6.04Y-3.77
X6.0402Y-4.0973
X6.0402Y-4.427
T6
X5.175Y-3.325
X5.175Y-3.425
X5.175Y-3.525
X5.175Y-3.625
X5.175Y-3.725
X5.175Y-3.825
X5.175Y-3.925
X5.175Y-4.025
X5.175Y-4.125
X5.175Y-4.225
X5.175Y-4.325
X5.175Y-4.425
X5.175Y-4.525
X5.175Y-4.625
X5.175Y-4.725
X5.175Y-4.825
X5.175Y-4.925
X5.175Y-5.025
X5.175Y-5.125
X6.175Y-3.325
X6.175Y-3.425
X6.175Y-3.525
X6.175Y-3.625
X6.175Y-3.725
X6.175Y-3.825
X6.175Y-3.925
X6.175Y-4.025
X6.175Y-4.125
X6.175Y-4.225
X6.175Y-4.325
X6.175Y-4.425
X6.175Y-4.525
X6.175Y-4.625
X6.175Y-4.725
X6.175Y-4.825
X6.175Y-4.925
X6.175Y-5.025
X6.175Y-5.125
T7
X5.5541Y-3.1892
X5.8691Y-3.1892
T8
X5.22Y-3.145
X6.13Y-3.145
T9
X5.4738Y-4.96
X5.8738Y-4.96
T0
M30
