%TF.GenerationSoftware,KiCad,Pcbnew,7.0.8*%
%TF.CreationDate,2023-10-30T21:57:10-05:00*%
%TF.ProjectId,fujinet-adam-devkit-mini,66756a69-6e65-4742-9d61-64616d2d6465,rev?*%
%TF.SameCoordinates,Original*%
%TF.FileFunction,Copper,L1,Top*%
%TF.FilePolarity,Positive*%
%FSLAX46Y46*%
G04 Gerber Fmt 4.6, Leading zero omitted, Abs format (unit mm)*
G04 Created by KiCad (PCBNEW 7.0.8) date 2023-10-30 21:57:10*
%MOMM*%
%LPD*%
G01*
G04 APERTURE LIST*
G04 Aperture macros list*
%AMRoundRect*
0 Rectangle with rounded corners*
0 $1 Rounding radius*
0 $2 $3 $4 $5 $6 $7 $8 $9 X,Y pos of 4 corners*
0 Add a 4 corners polygon primitive as box body*
4,1,4,$2,$3,$4,$5,$6,$7,$8,$9,$2,$3,0*
0 Add four circle primitives for the rounded corners*
1,1,$1+$1,$2,$3*
1,1,$1+$1,$4,$5*
1,1,$1+$1,$6,$7*
1,1,$1+$1,$8,$9*
0 Add four rect primitives between the rounded corners*
20,1,$1+$1,$2,$3,$4,$5,0*
20,1,$1+$1,$4,$5,$6,$7,0*
20,1,$1+$1,$6,$7,$8,$9,0*
20,1,$1+$1,$8,$9,$2,$3,0*%
G04 Aperture macros list end*
%TA.AperFunction,SMDPad,CuDef*%
%ADD10RoundRect,0.250000X0.450000X-0.350000X0.450000X0.350000X-0.450000X0.350000X-0.450000X-0.350000X0*%
%TD*%
%TA.AperFunction,SMDPad,CuDef*%
%ADD11RoundRect,0.150000X0.150000X-0.587500X0.150000X0.587500X-0.150000X0.587500X-0.150000X-0.587500X0*%
%TD*%
%TA.AperFunction,SMDPad,CuDef*%
%ADD12RoundRect,0.250000X-0.350000X-0.450000X0.350000X-0.450000X0.350000X0.450000X-0.350000X0.450000X0*%
%TD*%
%TA.AperFunction,SMDPad,CuDef*%
%ADD13RoundRect,0.250000X-0.450000X0.350000X-0.450000X-0.350000X0.450000X-0.350000X0.450000X0.350000X0*%
%TD*%
%TA.AperFunction,SMDPad,CuDef*%
%ADD14RoundRect,0.200000X0.800000X-0.200000X0.800000X0.200000X-0.800000X0.200000X-0.800000X-0.200000X0*%
%TD*%
%TA.AperFunction,SMDPad,CuDef*%
%ADD15R,0.700000X1.600000*%
%TD*%
%TA.AperFunction,SMDPad,CuDef*%
%ADD16R,1.400000X1.600000*%
%TD*%
%TA.AperFunction,SMDPad,CuDef*%
%ADD17R,1.400000X2.200000*%
%TD*%
%TA.AperFunction,SMDPad,CuDef*%
%ADD18R,1.800000X1.400000*%
%TD*%
%TA.AperFunction,ComponentPad*%
%ADD19R,1.520000X1.520000*%
%TD*%
%TA.AperFunction,ComponentPad*%
%ADD20C,1.520000*%
%TD*%
%TA.AperFunction,SMDPad,CuDef*%
%ADD21RoundRect,0.250000X0.650000X-1.000000X0.650000X1.000000X-0.650000X1.000000X-0.650000X-1.000000X0*%
%TD*%
%TA.AperFunction,SMDPad,CuDef*%
%ADD22RoundRect,0.250000X1.025000X-0.875000X1.025000X0.875000X-1.025000X0.875000X-1.025000X-0.875000X0*%
%TD*%
%TA.AperFunction,SMDPad,CuDef*%
%ADD23RoundRect,0.250001X0.499999X0.924999X-0.499999X0.924999X-0.499999X-0.924999X0.499999X-0.924999X0*%
%TD*%
%TA.AperFunction,ComponentPad*%
%ADD24R,1.800000X1.800000*%
%TD*%
%TA.AperFunction,ComponentPad*%
%ADD25C,1.800000*%
%TD*%
%TA.AperFunction,SMDPad,CuDef*%
%ADD26RoundRect,0.250000X0.350000X0.450000X-0.350000X0.450000X-0.350000X-0.450000X0.350000X-0.450000X0*%
%TD*%
%TA.AperFunction,SMDPad,CuDef*%
%ADD27RoundRect,0.250000X-0.650000X1.000000X-0.650000X-1.000000X0.650000X-1.000000X0.650000X1.000000X0*%
%TD*%
%TA.AperFunction,ComponentPad*%
%ADD28R,1.530000X1.530000*%
%TD*%
%TA.AperFunction,ComponentPad*%
%ADD29C,1.530000*%
%TD*%
%TA.AperFunction,ViaPad*%
%ADD30C,1.000000*%
%TD*%
%TA.AperFunction,ViaPad*%
%ADD31C,0.600000*%
%TD*%
%TA.AperFunction,ViaPad*%
%ADD32C,0.800000*%
%TD*%
%TA.AperFunction,Conductor*%
%ADD33C,0.700000*%
%TD*%
%TA.AperFunction,Conductor*%
%ADD34C,0.250000*%
%TD*%
%TA.AperFunction,Conductor*%
%ADD35C,0.500000*%
%TD*%
G04 APERTURE END LIST*
D10*
%TO.P,R21,1*%
%TO.N,/IO14{slash}TMS*%
X138684000Y-112506000D03*
%TO.P,R21,2*%
%TO.N,+3.3V*%
X138684000Y-110506000D03*
%TD*%
D11*
%TO.P,Q2,1,B*%
%TO.N,Net-(Q2-B)*%
X133416000Y-120825500D03*
%TO.P,Q2,2,E*%
%TO.N,Net-(D5-K)*%
X135316000Y-120825500D03*
%TO.P,Q2,3,C*%
%TO.N,Net-(Q2-C)*%
X134366000Y-118950500D03*
%TD*%
D12*
%TO.P,R10,1*%
%TO.N,/ADAMNET_5V*%
X146320000Y-114300000D03*
%TO.P,R10,2*%
%TO.N,/ADAMNET_RESET*%
X148320000Y-114300000D03*
%TD*%
D13*
%TO.P,R1,1*%
%TO.N,/IO15{slash}TDO*%
X154432000Y-89932000D03*
%TO.P,R1,2*%
%TO.N,+3.3V*%
X154432000Y-91932000D03*
%TD*%
D14*
%TO.P,SW3,1,A*%
%TO.N,/IO14{slash}TMS*%
X135890000Y-114547000D03*
%TO.P,SW3,2,B*%
%TO.N,GND*%
X135890000Y-110347000D03*
%TD*%
D15*
%TO.P,P1,1,DAT2*%
%TO.N,Net-(P1-DAT2)*%
X141875000Y-91506600D03*
%TO.P,P1,2,DAT3*%
%TO.N,/IO5{slash}SPI_CS*%
X142975000Y-91506600D03*
%TO.P,P1,3,CMD*%
%TO.N,/IO23{slash}SPI_MOSI*%
X144075000Y-91506600D03*
%TO.P,P1,4,VDD*%
%TO.N,+3.3V*%
X145175000Y-91506600D03*
%TO.P,P1,5,CLK*%
%TO.N,/IO18{slash}SPI_CLK*%
X146275000Y-91506600D03*
%TO.P,P1,6,VSS*%
%TO.N,GND*%
X147375000Y-91506600D03*
%TO.P,P1,7,DAT0*%
%TO.N,/IO19{slash}SPI_MISO*%
X148475000Y-91506600D03*
%TO.P,P1,8,DAT1*%
%TO.N,Net-(P1-DAT1)*%
X149575000Y-91506600D03*
%TO.P,P1,9,CD*%
%TO.N,/IO15{slash}TDO*%
X150675000Y-91506600D03*
D16*
%TO.P,P1,G1,GND*%
%TO.N,GND*%
X151975000Y-90906600D03*
D17*
%TO.P,P1,G2,GND*%
X151975000Y-81406600D03*
%TO.P,P1,G3,GND*%
X136275000Y-81406600D03*
D18*
%TO.P,P1,G4,GND*%
X137175000Y-91006600D03*
%TD*%
D19*
%TO.P,J1,1*%
%TO.N,/ADAMNET_DATA*%
X140944000Y-117094000D03*
D20*
%TO.P,J1,2*%
%TO.N,/ADAMNET_RESET*%
X142214000Y-119634000D03*
%TO.P,J1,3*%
%TO.N,GND*%
X143484000Y-117094000D03*
%TO.P,J1,4*%
X144754000Y-119634000D03*
%TO.P,J1,5*%
X146024000Y-117094000D03*
%TO.P,J1,6*%
%TO.N,/ADAMNET_5V*%
X147294000Y-119634000D03*
%TD*%
D10*
%TO.P,R20,1*%
%TO.N,/IO34*%
X138684000Y-106410000D03*
%TO.P,R20,2*%
%TO.N,+3.3V*%
X138684000Y-104410000D03*
%TD*%
D13*
%TO.P,R4,1*%
%TO.N,Net-(P1-DAT1)*%
X148590000Y-93742000D03*
%TO.P,R4,2*%
%TO.N,+3.3V*%
X148590000Y-95742000D03*
%TD*%
D10*
%TO.P,R12,1*%
%TO.N,/ADAMNET_5V*%
X146304000Y-112268000D03*
%TO.P,R12,2*%
%TO.N,Net-(U1-IO35)*%
X146304000Y-110268000D03*
%TD*%
%TO.P,R14,1*%
%TO.N,Net-(Q1-B)*%
X133858000Y-91932000D03*
%TO.P,R14,2*%
%TO.N,/IO21{slash}ADAMNET_TX*%
X133858000Y-89932000D03*
%TD*%
D11*
%TO.P,Q1,1,B*%
%TO.N,Net-(Q1-B)*%
X152720000Y-121255000D03*
%TO.P,Q1,2,E*%
%TO.N,GND*%
X154620000Y-121255000D03*
%TO.P,Q1,3,C*%
%TO.N,Net-(Q1-C)*%
X153670000Y-119380000D03*
%TD*%
D13*
%TO.P,R17,1*%
%TO.N,/ADAMNET_DATA*%
X148336000Y-104140000D03*
%TO.P,R17,2*%
%TO.N,GND*%
X148336000Y-106140000D03*
%TD*%
D21*
%TO.P,D4,1,K*%
%TO.N,+5V*%
X153924000Y-129032000D03*
%TO.P,D4,2,A*%
%TO.N,/ADAMNET_5V*%
X153924000Y-125032000D03*
%TD*%
D14*
%TO.P,SW1,2,B*%
%TO.N,GND*%
X135890000Y-93658000D03*
%TO.P,SW1,1,A*%
%TO.N,/IO0*%
X135890000Y-97858000D03*
%TD*%
D22*
%TO.P,C2,1*%
%TO.N,/ADAMNET_5V*%
X142367000Y-113817000D03*
%TO.P,C2,2*%
%TO.N,GND*%
X142367000Y-107417000D03*
%TD*%
D14*
%TO.P,SW2,2,B*%
%TO.N,GND*%
X135890000Y-101972000D03*
%TO.P,SW2,1,A*%
%TO.N,/IO34*%
X135890000Y-106172000D03*
%TD*%
D23*
%TO.P,C1,1*%
%TO.N,+3.3V*%
X146532000Y-98552000D03*
%TO.P,C1,2*%
%TO.N,GND*%
X143282000Y-98552000D03*
%TD*%
D24*
%TO.P,D2,1,K*%
%TO.N,Net-(D2-K)*%
X153421000Y-104072000D03*
D25*
%TO.P,D2,2,A*%
%TO.N,+3.3V*%
X150881000Y-104072000D03*
%TD*%
D26*
%TO.P,R8,1*%
%TO.N,Net-(D2-K)*%
X153654000Y-109220000D03*
%TO.P,R8,2*%
%TO.N,/IO13{slash}LED3{slash}TCK*%
X151654000Y-109220000D03*
%TD*%
D10*
%TO.P,R19,1*%
%TO.N,/IO0*%
X138684000Y-100314000D03*
%TO.P,R19,2*%
%TO.N,+3.3V*%
X138684000Y-98314000D03*
%TD*%
D13*
%TO.P,R5,1*%
%TO.N,Net-(P1-DAT2)*%
X139446000Y-93742000D03*
%TO.P,R5,2*%
%TO.N,+3.3V*%
X139446000Y-95742000D03*
%TD*%
D10*
%TO.P,R18,1*%
%TO.N,Net-(Q2-C)*%
X146304000Y-106140000D03*
%TO.P,R18,2*%
%TO.N,/ADAMNET_DATA*%
X146304000Y-104140000D03*
%TD*%
D26*
%TO.P,R7,1*%
%TO.N,Net-(D1-K)*%
X153400000Y-99060000D03*
%TO.P,R7,2*%
%TO.N,/IO2{slash}LED1*%
X151400000Y-99060000D03*
%TD*%
%TO.P,R9,1*%
%TO.N,Net-(D3-K)*%
X135620000Y-108458000D03*
%TO.P,R9,2*%
%TO.N,/IO4{slash}LED2*%
X133620000Y-108458000D03*
%TD*%
D13*
%TO.P,R6,1*%
%TO.N,/IO5{slash}SPI_CS*%
X141478000Y-93742000D03*
%TO.P,R6,2*%
%TO.N,+3.3V*%
X141478000Y-95742000D03*
%TD*%
D12*
%TO.P,R16,1*%
%TO.N,Net-(Q2-B)*%
X152400000Y-117094000D03*
%TO.P,R16,2*%
%TO.N,Net-(Q1-C)*%
X154400000Y-117094000D03*
%TD*%
D26*
%TO.P,R15,1*%
%TO.N,Net-(Q1-C)*%
X135874000Y-116840000D03*
%TO.P,R15,2*%
%TO.N,Net-(D5-K)*%
X133874000Y-116840000D03*
%TD*%
D10*
%TO.P,R11,1*%
%TO.N,/ADAMNET_RESET*%
X148336000Y-112268000D03*
%TO.P,R11,2*%
%TO.N,Net-(U1-IO26)*%
X148336000Y-110268000D03*
%TD*%
D24*
%TO.P,D1,1,K*%
%TO.N,Net-(D1-K)*%
X153416000Y-95758000D03*
D25*
%TO.P,D1,2,A*%
%TO.N,+3.3V*%
X150876000Y-95758000D03*
%TD*%
D27*
%TO.P,D5,1,K*%
%TO.N,Net-(D5-K)*%
X134366000Y-125032000D03*
%TO.P,D5,2,A*%
%TO.N,+5V*%
X134366000Y-129032000D03*
%TD*%
D24*
%TO.P,D3,1,K*%
%TO.N,Net-(D3-K)*%
X153421000Y-112447000D03*
D25*
%TO.P,D3,2,A*%
%TO.N,+3.3V*%
X150881000Y-112447000D03*
%TD*%
D13*
%TO.P,R3,1*%
%TO.N,/IO19{slash}SPI_MISO*%
X146558000Y-93742000D03*
%TO.P,R3,2*%
%TO.N,+3.3V*%
X146558000Y-95742000D03*
%TD*%
D26*
%TO.P,R13,1*%
%TO.N,GND*%
X148320000Y-108204000D03*
%TO.P,R13,2*%
%TO.N,Net-(U1-IO35)*%
X146320000Y-108204000D03*
%TD*%
D13*
%TO.P,R2,1*%
%TO.N,/IO23{slash}SPI_MOSI*%
X143510000Y-93742000D03*
%TO.P,R2,2*%
%TO.N,+3.3V*%
X143510000Y-95742000D03*
%TD*%
D28*
%TO.P,U1,1,3V3*%
%TO.N,+3.3V*%
X156845000Y-84455000D03*
D29*
%TO.P,U1,2,EN*%
%TO.N,unconnected-(U1-EN-Pad2)*%
X156845000Y-86995000D03*
%TO.P,U1,3,SENSOR_VP*%
%TO.N,unconnected-(U1-SENSOR_VP-Pad3)*%
X156845000Y-89535000D03*
%TO.P,U1,4,SENSOR_VN*%
%TO.N,unconnected-(U1-SENSOR_VN-Pad4)*%
X156845000Y-92075000D03*
%TO.P,U1,5,IO34*%
%TO.N,/IO34*%
X156845000Y-94615000D03*
%TO.P,U1,6,IO35*%
%TO.N,Net-(U1-IO35)*%
X156845000Y-97155000D03*
%TO.P,U1,7,IO32*%
%TO.N,unconnected-(U1-IO32-Pad7)*%
X156845000Y-99695000D03*
%TO.P,U1,8,IO33*%
%TO.N,/ADAMNET_DATA*%
X156845000Y-102235000D03*
%TO.P,U1,9,IO25*%
%TO.N,unconnected-(U1-IO25-Pad9)*%
X156845000Y-104775000D03*
%TO.P,U1,10,IO26*%
%TO.N,Net-(U1-IO26)*%
X156845000Y-107315000D03*
%TO.P,U1,11,IO27*%
%TO.N,unconnected-(U1-IO27-Pad11)*%
X156845000Y-109855000D03*
%TO.P,U1,12,IO14*%
%TO.N,/IO14{slash}TMS*%
X156845000Y-112395000D03*
%TO.P,U1,13,IO12*%
%TO.N,unconnected-(U1-IO12-Pad13)*%
X156845000Y-114935000D03*
%TO.P,U1,14,GND1*%
%TO.N,GND*%
X156845000Y-117475000D03*
%TO.P,U1,15,IO13*%
%TO.N,/IO13{slash}LED3{slash}TCK*%
X156845000Y-120015000D03*
%TO.P,U1,16,SD2*%
%TO.N,unconnected-(U1-SD2-Pad16)*%
X156845000Y-122555000D03*
%TO.P,U1,17,SD3*%
%TO.N,unconnected-(U1-SD3-Pad17)*%
X156845000Y-125095000D03*
%TO.P,U1,18,CMD*%
%TO.N,unconnected-(U1-CMD-Pad18)*%
X156845000Y-127635000D03*
%TO.P,U1,19,EXT_5V*%
%TO.N,+5V*%
X156845000Y-130175000D03*
%TO.P,U1,20,CLK*%
%TO.N,unconnected-(U1-CLK-Pad20)*%
X131445000Y-130175000D03*
%TO.P,U1,21,SD0*%
%TO.N,unconnected-(U1-SD0-Pad21)*%
X131445000Y-127635000D03*
%TO.P,U1,22,SD1*%
%TO.N,unconnected-(U1-SD1-Pad22)*%
X131445000Y-125095000D03*
%TO.P,U1,23,IO15*%
%TO.N,/IO15{slash}TDO*%
X131445000Y-122555000D03*
%TO.P,U1,24,IO2*%
%TO.N,/IO2{slash}LED1*%
X131445000Y-120015000D03*
%TO.P,U1,25,IO0*%
%TO.N,/IO0*%
X131445000Y-117475000D03*
%TO.P,U1,26,IO4*%
%TO.N,/IO4{slash}LED2*%
X131445000Y-114935000D03*
%TO.P,U1,27,IO16*%
%TO.N,unconnected-(U1-IO16-Pad27)*%
X131445000Y-112395000D03*
%TO.P,U1,28,IO17*%
%TO.N,unconnected-(U1-IO17-Pad28)*%
X131445000Y-109855000D03*
%TO.P,U1,29,IO5*%
%TO.N,/IO5{slash}SPI_CS*%
X131445000Y-107315000D03*
%TO.P,U1,30,IO18*%
%TO.N,/IO18{slash}SPI_CLK*%
X131445000Y-104775000D03*
%TO.P,U1,31,IO19*%
%TO.N,/IO19{slash}SPI_MISO*%
X131445000Y-102235000D03*
%TO.P,U1,32,GND2*%
%TO.N,GND*%
X131445000Y-99695000D03*
%TO.P,U1,33,IO21*%
%TO.N,/IO21{slash}ADAMNET_TX*%
X131445000Y-97155000D03*
%TO.P,U1,34,RXD0*%
%TO.N,unconnected-(U1-RXD0-Pad34)*%
X131445000Y-94615000D03*
%TO.P,U1,35,TXD0*%
%TO.N,unconnected-(U1-TXD0-Pad35)*%
X131445000Y-92075000D03*
%TO.P,U1,36,IO22*%
%TO.N,unconnected-(U1-IO22-Pad36)*%
X131445000Y-89535000D03*
%TO.P,U1,37,IO23*%
%TO.N,/IO23{slash}SPI_MOSI*%
X131445000Y-86995000D03*
%TO.P,U1,38,GND3*%
%TO.N,GND*%
X131445000Y-84455000D03*
%TD*%
D30*
%TO.N,+3.3V*%
X145161000Y-90170000D03*
D31*
%TO.N,Net-(Q1-B)*%
X154520993Y-97536000D03*
%TO.N,Net-(D1-K)*%
X153416000Y-98044000D03*
%TO.N,+3.3V*%
X138684000Y-99060000D03*
X138684000Y-111406500D03*
X138684000Y-105310500D03*
X137922000Y-95758000D03*
%TO.N,Net-(D2-K)*%
X153670000Y-108204000D03*
%TO.N,Net-(D3-K)*%
X153416000Y-115949500D03*
D32*
%TO.N,/ADAMNET_5V*%
X152400000Y-124460000D03*
X146304000Y-113284000D03*
X152400000Y-125476000D03*
D31*
%TO.N,Net-(D5-K)*%
X135509000Y-124333000D03*
X135255000Y-121920000D03*
D32*
%TO.N,GND*%
X144399000Y-98552000D03*
D31*
X147574000Y-108712000D03*
X135890000Y-111506000D03*
D32*
X141859000Y-108966000D03*
X147375000Y-90297000D03*
X143129000Y-108966000D03*
D31*
X134620000Y-101871500D03*
D32*
X154559000Y-122809000D03*
X148336000Y-98552000D03*
D31*
%TO.N,/ADAMNET_RESET*%
X148717000Y-118237000D03*
X147419500Y-114300000D03*
%TO.N,/ADAMNET_DATA*%
X145034000Y-104140000D03*
%TO.N,/IO5{slash}SPI_CS*%
X141478000Y-94642500D03*
X141478000Y-103505000D03*
%TO.N,/IO23{slash}SPI_MOSI*%
X144018000Y-92583000D03*
%TO.N,/IO18{slash}SPI_CLK*%
X146304000Y-90424000D03*
X146177000Y-102743000D03*
%TO.N,/IO19{slash}SPI_MISO*%
X146811500Y-94615000D03*
X146939000Y-102282500D03*
%TO.N,/IO15{slash}TDO*%
X150368000Y-92964000D03*
X149860000Y-122555000D03*
%TO.N,Net-(Q1-B)*%
X154432000Y-118293500D03*
%TO.N,Net-(Q1-C)*%
X136906000Y-116840000D03*
X136906000Y-120904000D03*
%TO.N,Net-(Q2-B)*%
X151384000Y-117094000D03*
X151384000Y-121528500D03*
X139700000Y-121528500D03*
X139700000Y-119671503D03*
%TO.N,Net-(Q2-C)*%
X140133589Y-105843589D03*
X139700000Y-118872000D03*
%TO.N,/IO2{slash}LED1*%
X134551250Y-100203000D03*
%TO.N,/IO13{slash}LED3{slash}TCK*%
X155448000Y-110744000D03*
%TO.N,Net-(U1-IO35)*%
X155769993Y-103251000D03*
X149026500Y-102859500D03*
X147066000Y-107696000D03*
%TO.N,/IO0*%
X134620000Y-97858000D03*
%TO.N,/IO34*%
X155448000Y-104902000D03*
%TD*%
D33*
%TO.N,GND*%
X147375000Y-90297000D02*
X147375000Y-91506600D01*
%TO.N,+3.3V*%
X145161000Y-91492600D02*
X145175000Y-91506600D01*
X145161000Y-90170000D02*
X145161000Y-91492600D01*
D34*
%TO.N,Net-(Q1-B)*%
X133858000Y-94615000D02*
X133858000Y-91932000D01*
X136144000Y-96901000D02*
X133858000Y-94615000D01*
X139573000Y-96901000D02*
X136144000Y-96901000D01*
X140462000Y-97790000D02*
X139573000Y-96901000D01*
X140462000Y-99695000D02*
X140462000Y-97790000D01*
X149479000Y-99441000D02*
X148463000Y-100457000D01*
X149479000Y-98044000D02*
X149479000Y-99441000D01*
X150241000Y-97282000D02*
X149479000Y-98044000D01*
X154266993Y-97282000D02*
X150241000Y-97282000D01*
X154520993Y-97536000D02*
X154266993Y-97282000D01*
X148463000Y-100457000D02*
X141224000Y-100457000D01*
X141224000Y-100457000D02*
X140462000Y-99695000D01*
%TO.N,/IO19{slash}SPI_MISO*%
X136969500Y-101092000D02*
X132588000Y-101092000D01*
X132588000Y-101092000D02*
X131445000Y-102235000D01*
X137995500Y-102118000D02*
X136969500Y-101092000D01*
X146774500Y-102118000D02*
X137995500Y-102118000D01*
X146939000Y-102282500D02*
X146774500Y-102118000D01*
%TO.N,/IO2{slash}LED1*%
X150495000Y-101473000D02*
X151400000Y-100568000D01*
X136906000Y-100203000D02*
X138176000Y-101473000D01*
X138176000Y-101473000D02*
X150495000Y-101473000D01*
X151400000Y-100568000D02*
X151400000Y-99314000D01*
X134551250Y-100203000D02*
X136906000Y-100203000D01*
%TO.N,Net-(D1-K)*%
X153400000Y-99060000D02*
X153400000Y-98060000D01*
X153400000Y-98060000D02*
X153416000Y-98044000D01*
%TO.N,+3.3V*%
X138684000Y-99060000D02*
X138684000Y-98314000D01*
X138684000Y-111406500D02*
X138684000Y-110506000D01*
D35*
X144667000Y-95758000D02*
X145175000Y-95250000D01*
X145161000Y-95758000D02*
X144653000Y-95758000D01*
X144653000Y-95758000D02*
X144667000Y-95758000D01*
D34*
X137922000Y-95758000D02*
X139430000Y-95758000D01*
D35*
X145175000Y-95744000D02*
X145161000Y-95758000D01*
X145161000Y-96393000D02*
X145161000Y-97181000D01*
X145669000Y-95744000D02*
X148830000Y-95744000D01*
X145669000Y-95744000D02*
X145669000Y-95758000D01*
X145161000Y-97181000D02*
X146532000Y-98552000D01*
D34*
X138684000Y-104410000D02*
X138684000Y-105310500D01*
D35*
X145175000Y-91506600D02*
X145175000Y-95250000D01*
X148590000Y-95742000D02*
X150860000Y-95742000D01*
X145161000Y-95758000D02*
X145161000Y-96393000D01*
X145175000Y-95250000D02*
X145175000Y-95744000D01*
X145161000Y-96266000D02*
X145161000Y-96393000D01*
X145669000Y-95744000D02*
X145175000Y-95250000D01*
X144653000Y-95758000D02*
X145161000Y-96266000D01*
X145175000Y-95744000D02*
X145669000Y-95744000D01*
D34*
X150876000Y-95758000D02*
X154432000Y-92202000D01*
D35*
X144653000Y-95758000D02*
X139462000Y-95758000D01*
X145669000Y-95758000D02*
X145161000Y-96266000D01*
D34*
%TO.N,Net-(D2-K)*%
X153654000Y-109220000D02*
X153654000Y-108220000D01*
X153654000Y-108220000D02*
X153670000Y-108204000D01*
%TO.N,Net-(D3-K)*%
X133985000Y-115189000D02*
X133985000Y-109855000D01*
X134611000Y-115815000D02*
X133985000Y-115189000D01*
X153416000Y-115949500D02*
X153281500Y-115815000D01*
X133985000Y-109855000D02*
X135382000Y-108458000D01*
X153281500Y-115815000D02*
X134611000Y-115815000D01*
D33*
%TO.N,+5V*%
X156845000Y-130175000D02*
X155067000Y-130175000D01*
X155067000Y-130175000D02*
X153924000Y-129032000D01*
D35*
X153924000Y-129032000D02*
X134366000Y-129032000D01*
D33*
%TO.N,/ADAMNET_5V*%
X146320000Y-114300000D02*
X142850000Y-114300000D01*
X152400000Y-125476000D02*
X153480000Y-125476000D01*
D34*
X146304000Y-113284000D02*
X146304000Y-114284000D01*
D33*
X153352000Y-124460000D02*
X153924000Y-125032000D01*
X152400000Y-124460000D02*
X153352000Y-124460000D01*
D34*
X146304000Y-113284000D02*
X146304000Y-112268000D01*
%TO.N,Net-(D5-K)*%
X134810000Y-125032000D02*
X135509000Y-124333000D01*
X132715000Y-117999000D02*
X133874000Y-116840000D01*
X132715000Y-121663375D02*
X132715000Y-117999000D01*
X134036500Y-122105000D02*
X133156625Y-122105000D01*
X133156625Y-122105000D02*
X132715000Y-121663375D01*
X135316000Y-120825500D02*
X134036500Y-122105000D01*
X135255000Y-121920000D02*
X135255000Y-120886500D01*
D33*
%TO.N,GND*%
X143282000Y-98552000D02*
X144399000Y-98552000D01*
X142367000Y-107417000D02*
X142367000Y-108204000D01*
X142367000Y-108204000D02*
X143129000Y-108966000D01*
D34*
X135890000Y-101972000D02*
X134720500Y-101972000D01*
D33*
X142367000Y-107417000D02*
X142367000Y-108458000D01*
D34*
X148082000Y-108204000D02*
X147574000Y-108712000D01*
D33*
X141859000Y-108966000D02*
X143129000Y-108966000D01*
D34*
X134720500Y-101972000D02*
X134620000Y-101871500D01*
D33*
X142367000Y-108458000D02*
X141859000Y-108966000D01*
D34*
%TO.N,/ADAMNET_RESET*%
X143484000Y-118364000D02*
X142214000Y-119634000D01*
X148717000Y-118237000D02*
X148590000Y-118364000D01*
X148590000Y-118364000D02*
X143484000Y-118364000D01*
X147419500Y-114300000D02*
X148320000Y-114300000D01*
X148320000Y-114300000D02*
X148320000Y-112284000D01*
%TO.N,/ADAMNET_DATA*%
X156845000Y-102235000D02*
X148767116Y-102235000D01*
X148767116Y-102235000D02*
X148082000Y-102920116D01*
X146304000Y-104140000D02*
X145034000Y-104140000D01*
X146304000Y-104140000D02*
X148336000Y-104140000D01*
X148082000Y-102920116D02*
X148082000Y-103886000D01*
%TO.N,Net-(P1-DAT2)*%
X140863000Y-92817000D02*
X140371000Y-92817000D01*
X141875000Y-91805000D02*
X140863000Y-92817000D01*
X140371000Y-92817000D02*
X139446000Y-93742000D01*
%TO.N,/IO5{slash}SPI_CS*%
X141351000Y-103378000D02*
X135382000Y-103378000D01*
X141478000Y-103505000D02*
X141351000Y-103378000D01*
X142975000Y-91506600D02*
X142975000Y-92245000D01*
X135382000Y-103378000D02*
X131445000Y-107315000D01*
X142975000Y-92245000D02*
X141478000Y-93742000D01*
X141478000Y-94642500D02*
X141478000Y-93742000D01*
%TO.N,/IO23{slash}SPI_MOSI*%
X144018000Y-92583000D02*
X144018000Y-91563600D01*
X144075000Y-93177000D02*
X143510000Y-93742000D01*
X144075000Y-91506600D02*
X144075000Y-93177000D01*
%TO.N,/IO18{slash}SPI_CLK*%
X146304000Y-90424000D02*
X146304000Y-91477600D01*
X146177000Y-102743000D02*
X133477000Y-102743000D01*
X133477000Y-102743000D02*
X131445000Y-104775000D01*
%TO.N,/IO19{slash}SPI_MISO*%
X146811500Y-94615000D02*
X146558000Y-94361500D01*
X146558000Y-94361500D02*
X146558000Y-93742000D01*
X146944827Y-93742000D02*
X148475000Y-92211827D01*
X148475000Y-92211827D02*
X148475000Y-91506600D01*
%TO.N,Net-(P1-DAT1)*%
X148590000Y-93742000D02*
X149575000Y-92757000D01*
X149575000Y-92757000D02*
X149575000Y-91506600D01*
%TO.N,/IO15{slash}TDO*%
X154432000Y-89932000D02*
X153178000Y-91186000D01*
X150368000Y-92964000D02*
X150638000Y-92694000D01*
X131445000Y-122555000D02*
X149860000Y-122555000D01*
X152067600Y-92964000D02*
X150368000Y-92964000D01*
X153178000Y-91186000D02*
X153162000Y-91186000D01*
X153162000Y-91869600D02*
X152067600Y-92964000D01*
X153162000Y-91186000D02*
X153162000Y-91869600D01*
X150638000Y-92694000D02*
X150638000Y-91543600D01*
%TO.N,Net-(Q1-B)*%
X153204251Y-121255000D02*
X152720000Y-121255000D01*
X154432000Y-120027251D02*
X153204251Y-121255000D01*
X154432000Y-118293500D02*
X154432000Y-120027251D01*
%TO.N,Net-(Q1-C)*%
X153670000Y-119380000D02*
X152908000Y-119380000D01*
X136906000Y-116840000D02*
X135874000Y-116840000D01*
X151384000Y-120904000D02*
X136906000Y-120904000D01*
X153670000Y-117824000D02*
X154400000Y-117094000D01*
X152908000Y-119380000D02*
X151384000Y-120904000D01*
X153670000Y-119380000D02*
X153670000Y-117824000D01*
%TO.N,Net-(Q2-B)*%
X151384000Y-117094000D02*
X152400000Y-117094000D01*
X133416000Y-120825500D02*
X133906749Y-120825500D01*
X139700000Y-121528500D02*
X151384000Y-121528500D01*
X139662497Y-119634000D02*
X139700000Y-119671503D01*
X133906749Y-120825500D02*
X135098249Y-119634000D01*
X135098249Y-119634000D02*
X139662497Y-119634000D01*
%TO.N,Net-(Q2-C)*%
X134366000Y-118950500D02*
X139621500Y-118950500D01*
X140133589Y-105843589D02*
X146007589Y-105843589D01*
X139621500Y-118950500D02*
X139700000Y-118872000D01*
%TO.N,/IO13{slash}LED3{slash}TCK*%
X155448000Y-110744000D02*
X153178000Y-110744000D01*
X153178000Y-110744000D02*
X151654000Y-109220000D01*
%TO.N,/IO4{slash}LED2*%
X133223000Y-113157000D02*
X133223000Y-108855000D01*
X131445000Y-114935000D02*
X133223000Y-113157000D01*
%TO.N,Net-(U1-IO26)*%
X151416000Y-107188000D02*
X156718000Y-107188000D01*
X148336000Y-110268000D02*
X151416000Y-107188000D01*
%TO.N,Net-(U1-IO35)*%
X146320000Y-108204000D02*
X146320000Y-110252000D01*
X147066000Y-107696000D02*
X146558000Y-108204000D01*
X149201000Y-102685000D02*
X155203993Y-102685000D01*
X149026500Y-102859500D02*
X149201000Y-102685000D01*
X155203993Y-102685000D02*
X155769993Y-103251000D01*
%TO.N,/IO21{slash}ADAMNET_TX*%
X132833000Y-90957000D02*
X133858000Y-89932000D01*
X131445000Y-97155000D02*
X132833000Y-95767000D01*
X132833000Y-95767000D02*
X132833000Y-90957000D01*
%TO.N,/IO0*%
X137922000Y-99890000D02*
X138600000Y-99890000D01*
X134620000Y-97858000D02*
X135890000Y-97858000D01*
X135890000Y-97858000D02*
X137922000Y-99890000D01*
%TO.N,/IO34*%
X135890000Y-106172000D02*
X138684000Y-106172000D01*
X154686000Y-105664000D02*
X149598000Y-105664000D01*
X149090000Y-105156000D02*
X139938000Y-105156000D01*
X139938000Y-105156000D02*
X138684000Y-106410000D01*
X155448000Y-104902000D02*
X154686000Y-105664000D01*
X149598000Y-105664000D02*
X149090000Y-105156000D01*
%TO.N,/IO14{slash}TMS*%
X135890000Y-114547000D02*
X136668000Y-115325000D01*
X136668000Y-115325000D02*
X153915000Y-115325000D01*
X135890000Y-114547000D02*
X137931000Y-112506000D01*
X137931000Y-112506000D02*
X138684000Y-112506000D01*
X153915000Y-115325000D02*
X156845000Y-112395000D01*
%TD*%
%TA.AperFunction,Conductor*%
%TO.N,GND*%
G36*
X156376318Y-117689040D02*
G01*
X156455605Y-117812413D01*
X156566438Y-117908451D01*
X156699839Y-117969373D01*
X156703633Y-117969918D01*
X156144656Y-118528894D01*
X156210083Y-118574706D01*
X156210085Y-118574707D01*
X156333683Y-118632342D01*
X156386122Y-118678514D01*
X156405274Y-118745708D01*
X156385058Y-118812589D01*
X156333683Y-118857106D01*
X156209833Y-118914857D01*
X156028444Y-119041868D01*
X155871868Y-119198444D01*
X155744857Y-119379834D01*
X155744856Y-119379836D01*
X155651279Y-119580513D01*
X155651275Y-119580524D01*
X155593965Y-119794407D01*
X155593964Y-119794414D01*
X155574666Y-120014998D01*
X155574666Y-120015001D01*
X155593964Y-120235585D01*
X155593965Y-120235592D01*
X155651275Y-120449475D01*
X155651279Y-120449486D01*
X155705146Y-120565004D01*
X155744858Y-120650167D01*
X155871868Y-120831555D01*
X156028445Y-120988132D01*
X156209833Y-121115142D01*
X156239552Y-121129000D01*
X156333091Y-121172618D01*
X156385531Y-121218790D01*
X156404683Y-121285983D01*
X156384467Y-121352865D01*
X156333091Y-121397382D01*
X156209836Y-121454856D01*
X156209834Y-121454857D01*
X156028444Y-121581868D01*
X155871868Y-121738444D01*
X155744857Y-121919834D01*
X155744856Y-121919836D01*
X155651279Y-122120513D01*
X155651275Y-122120524D01*
X155593965Y-122334407D01*
X155593964Y-122334414D01*
X155574666Y-122554998D01*
X155574666Y-122555001D01*
X155593964Y-122775585D01*
X155593965Y-122775592D01*
X155651275Y-122989475D01*
X155651279Y-122989486D01*
X155744664Y-123189751D01*
X155744858Y-123190167D01*
X155871868Y-123371555D01*
X156028445Y-123528132D01*
X156209833Y-123655142D01*
X156254238Y-123675848D01*
X156333091Y-123712618D01*
X156385531Y-123758790D01*
X156404683Y-123825983D01*
X156384467Y-123892865D01*
X156333091Y-123937382D01*
X156209836Y-123994856D01*
X156209834Y-123994857D01*
X156028444Y-124121868D01*
X155871868Y-124278444D01*
X155744857Y-124459834D01*
X155744856Y-124459836D01*
X155651279Y-124660513D01*
X155651275Y-124660524D01*
X155593965Y-124874407D01*
X155593964Y-124874414D01*
X155574666Y-125094998D01*
X155574666Y-125095001D01*
X155593964Y-125315585D01*
X155593965Y-125315592D01*
X155651275Y-125529475D01*
X155651279Y-125529486D01*
X155714123Y-125664256D01*
X155744858Y-125730167D01*
X155871868Y-125911555D01*
X156028445Y-126068132D01*
X156209833Y-126195142D01*
X156271828Y-126224050D01*
X156333091Y-126252618D01*
X156385531Y-126298790D01*
X156404683Y-126365983D01*
X156384467Y-126432865D01*
X156333091Y-126477382D01*
X156209836Y-126534856D01*
X156209834Y-126534857D01*
X156028444Y-126661868D01*
X155871868Y-126818444D01*
X155744857Y-126999834D01*
X155744856Y-126999836D01*
X155651279Y-127200513D01*
X155651275Y-127200524D01*
X155593965Y-127414407D01*
X155593964Y-127414414D01*
X155574666Y-127634998D01*
X155574666Y-127635001D01*
X155593964Y-127855585D01*
X155593965Y-127855592D01*
X155651275Y-128069475D01*
X155651279Y-128069486D01*
X155737583Y-128254565D01*
X155744858Y-128270167D01*
X155871868Y-128451555D01*
X156028445Y-128608132D01*
X156209833Y-128735142D01*
X156271828Y-128764050D01*
X156333091Y-128792618D01*
X156385531Y-128838790D01*
X156404683Y-128905983D01*
X156384467Y-128972865D01*
X156333091Y-129017382D01*
X156209836Y-129074856D01*
X156209834Y-129074857D01*
X156028444Y-129201868D01*
X156028441Y-129201871D01*
X155942132Y-129288181D01*
X155880809Y-129321666D01*
X155854451Y-129324500D01*
X155470651Y-129324500D01*
X155403612Y-129304815D01*
X155382970Y-129288181D01*
X155360818Y-129266029D01*
X155327333Y-129204706D01*
X155324499Y-129178348D01*
X155324499Y-127981998D01*
X155324498Y-127981981D01*
X155313999Y-127879203D01*
X155313998Y-127879200D01*
X155302492Y-127844477D01*
X155258814Y-127712666D01*
X155166712Y-127563344D01*
X155042656Y-127439288D01*
X154893334Y-127347186D01*
X154726797Y-127292001D01*
X154726795Y-127292000D01*
X154624010Y-127281500D01*
X153223998Y-127281500D01*
X153223981Y-127281501D01*
X153121203Y-127292000D01*
X153121200Y-127292001D01*
X152954668Y-127347185D01*
X152954663Y-127347187D01*
X152805342Y-127439289D01*
X152681289Y-127563342D01*
X152589187Y-127712663D01*
X152589186Y-127712666D01*
X152534001Y-127879203D01*
X152534001Y-127879204D01*
X152534000Y-127879204D01*
X152523500Y-127981983D01*
X152523500Y-128157500D01*
X152503815Y-128224539D01*
X152451011Y-128270294D01*
X152399500Y-128281500D01*
X135890499Y-128281500D01*
X135823460Y-128261815D01*
X135777705Y-128209011D01*
X135766499Y-128157500D01*
X135766499Y-127981998D01*
X135766498Y-127981981D01*
X135755999Y-127879203D01*
X135755998Y-127879200D01*
X135744492Y-127844477D01*
X135700814Y-127712666D01*
X135608712Y-127563344D01*
X135484656Y-127439288D01*
X135335334Y-127347186D01*
X135168797Y-127292001D01*
X135168795Y-127292000D01*
X135066010Y-127281500D01*
X133665998Y-127281500D01*
X133665981Y-127281501D01*
X133563203Y-127292000D01*
X133563200Y-127292001D01*
X133396668Y-127347185D01*
X133396663Y-127347187D01*
X133247342Y-127439289D01*
X133123289Y-127563342D01*
X133031187Y-127712663D01*
X133031186Y-127712666D01*
X132976001Y-127879203D01*
X132976001Y-127879204D01*
X132976000Y-127879204D01*
X132965500Y-127981983D01*
X132965500Y-130082001D01*
X132965501Y-130082018D01*
X132976000Y-130184796D01*
X132976001Y-130184799D01*
X133031185Y-130351331D01*
X133031186Y-130351334D01*
X133123288Y-130500656D01*
X133247344Y-130624712D01*
X133396666Y-130716814D01*
X133563203Y-130771999D01*
X133665991Y-130782500D01*
X135066008Y-130782499D01*
X135168797Y-130771999D01*
X135335334Y-130716814D01*
X135484656Y-130624712D01*
X135608712Y-130500656D01*
X135700814Y-130351334D01*
X135755999Y-130184797D01*
X135766500Y-130082009D01*
X135766500Y-129906500D01*
X135786185Y-129839461D01*
X135838989Y-129793706D01*
X135890500Y-129782500D01*
X152399501Y-129782500D01*
X152466540Y-129802185D01*
X152512295Y-129854989D01*
X152523501Y-129906500D01*
X152523501Y-130082018D01*
X152534000Y-130184796D01*
X152534001Y-130184799D01*
X152589185Y-130351331D01*
X152589186Y-130351334D01*
X152681288Y-130500656D01*
X152805344Y-130624712D01*
X152954666Y-130716814D01*
X153121203Y-130771999D01*
X153223991Y-130782500D01*
X154418990Y-130782499D01*
X154486029Y-130802184D01*
X154494031Y-130807783D01*
X154543108Y-130845090D01*
X154606246Y-130895842D01*
X154607136Y-130896411D01*
X154625023Y-130907504D01*
X154625934Y-130908053D01*
X154625936Y-130908054D01*
X154699439Y-130942060D01*
X154771979Y-130978036D01*
X154771984Y-130978037D01*
X154771988Y-130978039D01*
X154773127Y-130978458D01*
X154792776Y-130985376D01*
X154793830Y-130985730D01*
X154793833Y-130985732D01*
X154833379Y-130994436D01*
X154872925Y-131003141D01*
X154951505Y-131022684D01*
X154952594Y-131022832D01*
X154973375Y-131025377D01*
X154974502Y-131025499D01*
X154974503Y-131025500D01*
X154974504Y-131025500D01*
X155055469Y-131025500D01*
X155136432Y-131027693D01*
X155136432Y-131027692D01*
X155136435Y-131027693D01*
X155137479Y-131027608D01*
X155159648Y-131025500D01*
X155854451Y-131025500D01*
X155921490Y-131045185D01*
X155942132Y-131061819D01*
X156028445Y-131148132D01*
X156209833Y-131275142D01*
X156330572Y-131331443D01*
X156410513Y-131368720D01*
X156410515Y-131368720D01*
X156410520Y-131368723D01*
X156624409Y-131426035D01*
X156781974Y-131439820D01*
X156844998Y-131445334D01*
X156845000Y-131445334D01*
X156845002Y-131445334D01*
X156900147Y-131440509D01*
X157065591Y-131426035D01*
X157279480Y-131368723D01*
X157480167Y-131275142D01*
X157661555Y-131148132D01*
X157818132Y-130991555D01*
X157857926Y-130934722D01*
X157912502Y-130891100D01*
X157982001Y-130883907D01*
X158044355Y-130915429D01*
X158079769Y-130975659D01*
X158083500Y-131005848D01*
X158083500Y-132209500D01*
X158063815Y-132276539D01*
X158011011Y-132322294D01*
X157959500Y-132333500D01*
X130268500Y-132333500D01*
X130201461Y-132313815D01*
X130155706Y-132261011D01*
X130144500Y-132209500D01*
X130144500Y-130917303D01*
X130164185Y-130850264D01*
X130216989Y-130804509D01*
X130286147Y-130794565D01*
X130349703Y-130823590D01*
X130370070Y-130846174D01*
X130471868Y-130991555D01*
X130628445Y-131148132D01*
X130809833Y-131275142D01*
X130930572Y-131331443D01*
X131010513Y-131368720D01*
X131010515Y-131368720D01*
X131010520Y-131368723D01*
X131224409Y-131426035D01*
X131381974Y-131439820D01*
X131444998Y-131445334D01*
X131445000Y-131445334D01*
X131445002Y-131445334D01*
X131500147Y-131440509D01*
X131665591Y-131426035D01*
X131879480Y-131368723D01*
X132080167Y-131275142D01*
X132261555Y-131148132D01*
X132418132Y-130991555D01*
X132545142Y-130810167D01*
X132638723Y-130609480D01*
X132696035Y-130395591D01*
X132715334Y-130175000D01*
X132696035Y-129954409D01*
X132638723Y-129740520D01*
X132545142Y-129539833D01*
X132418132Y-129358445D01*
X132261555Y-129201868D01*
X132080167Y-129074858D01*
X131956907Y-129017381D01*
X131904468Y-128971210D01*
X131885316Y-128904017D01*
X131905531Y-128837136D01*
X131956908Y-128792618D01*
X132080167Y-128735142D01*
X132261555Y-128608132D01*
X132418132Y-128451555D01*
X132545142Y-128270167D01*
X132638723Y-128069480D01*
X132696035Y-127855591D01*
X132715334Y-127635000D01*
X132696035Y-127414409D01*
X132638723Y-127200520D01*
X132632379Y-127186916D01*
X132581683Y-127078196D01*
X132545142Y-126999833D01*
X132418132Y-126818445D01*
X132261555Y-126661868D01*
X132080167Y-126534858D01*
X131956907Y-126477381D01*
X131904468Y-126431210D01*
X131885316Y-126364017D01*
X131905531Y-126297136D01*
X131956908Y-126252618D01*
X132080167Y-126195142D01*
X132261555Y-126068132D01*
X132418132Y-125911555D01*
X132545142Y-125730167D01*
X132638723Y-125529480D01*
X132696035Y-125315591D01*
X132715334Y-125095000D01*
X132712812Y-125066178D01*
X132704223Y-124968000D01*
X132696035Y-124874409D01*
X132638723Y-124660520D01*
X132545142Y-124459833D01*
X132418132Y-124278445D01*
X132261555Y-124121868D01*
X132080167Y-123994858D01*
X132052588Y-123981998D01*
X131956908Y-123937382D01*
X131904468Y-123891210D01*
X131885316Y-123824017D01*
X131905531Y-123757136D01*
X131956908Y-123712618D01*
X132080167Y-123655142D01*
X132261555Y-123528132D01*
X132418132Y-123371555D01*
X132514887Y-123233374D01*
X132569463Y-123189751D01*
X132616461Y-123180500D01*
X133229668Y-123180500D01*
X133296707Y-123200185D01*
X133342462Y-123252989D01*
X133352406Y-123322147D01*
X133323381Y-123385703D01*
X133294766Y-123410037D01*
X133266884Y-123427235D01*
X133247342Y-123439289D01*
X133123289Y-123563342D01*
X133031187Y-123712663D01*
X133031186Y-123712666D01*
X132976001Y-123879203D01*
X132976001Y-123879204D01*
X132976000Y-123879204D01*
X132965500Y-123981983D01*
X132965500Y-126082001D01*
X132965501Y-126082018D01*
X132976000Y-126184796D01*
X132976001Y-126184799D01*
X133031185Y-126351331D01*
X133031187Y-126351336D01*
X133045155Y-126373981D01*
X133123288Y-126500656D01*
X133247344Y-126624712D01*
X133396666Y-126716814D01*
X133563203Y-126771999D01*
X133665991Y-126782500D01*
X135066008Y-126782499D01*
X135168797Y-126771999D01*
X135335334Y-126716814D01*
X135484656Y-126624712D01*
X135608712Y-126500656D01*
X135700814Y-126351334D01*
X135755999Y-126184797D01*
X135766500Y-126082009D01*
X135766500Y-126052678D01*
X137154737Y-126052678D01*
X137184762Y-126325559D01*
X137184763Y-126325569D01*
X137254202Y-126591178D01*
X137350779Y-126818444D01*
X137361577Y-126843852D01*
X137465806Y-127014637D01*
X137504592Y-127078191D01*
X137504599Y-127078201D01*
X137680199Y-127289207D01*
X137680204Y-127289212D01*
X137680209Y-127289218D01*
X137680216Y-127289224D01*
X137884672Y-127472419D01*
X137884674Y-127472420D01*
X137884677Y-127472423D01*
X138113641Y-127623904D01*
X138362221Y-127740433D01*
X138625119Y-127819527D01*
X138896731Y-127859500D01*
X138896736Y-127859500D01*
X139102552Y-127859500D01*
X139156037Y-127855585D01*
X139307805Y-127844477D01*
X139575775Y-127784784D01*
X139832198Y-127686711D01*
X140071609Y-127552347D01*
X140288904Y-127384557D01*
X140479454Y-127186916D01*
X140639196Y-126963637D01*
X140764727Y-126719479D01*
X140853370Y-126459646D01*
X140903236Y-126189674D01*
X140908242Y-126052678D01*
X147314737Y-126052678D01*
X147344762Y-126325559D01*
X147344763Y-126325569D01*
X147414202Y-126591178D01*
X147510779Y-126818444D01*
X147521577Y-126843852D01*
X147625806Y-127014637D01*
X147664592Y-127078191D01*
X147664599Y-127078201D01*
X147840199Y-127289207D01*
X147840204Y-127289212D01*
X147840209Y-127289218D01*
X147840216Y-127289224D01*
X148044672Y-127472419D01*
X148044674Y-127472420D01*
X148044677Y-127472423D01*
X148273641Y-127623904D01*
X148522221Y-127740433D01*
X148785119Y-127819527D01*
X149056731Y-127859500D01*
X149056736Y-127859500D01*
X149262552Y-127859500D01*
X149316037Y-127855585D01*
X149467805Y-127844477D01*
X149735775Y-127784784D01*
X149992198Y-127686711D01*
X150231609Y-127552347D01*
X150448904Y-127384557D01*
X150639454Y-127186916D01*
X150799196Y-126963637D01*
X150924727Y-126719479D01*
X151013370Y-126459646D01*
X151063236Y-126189674D01*
X151073262Y-125915320D01*
X151043236Y-125642429D01*
X150999726Y-125476000D01*
X151494540Y-125476000D01*
X151514326Y-125664256D01*
X151514327Y-125664259D01*
X151572818Y-125844277D01*
X151572821Y-125844284D01*
X151667467Y-126008216D01*
X151707501Y-126052678D01*
X151794129Y-126148888D01*
X151947265Y-126260148D01*
X151947270Y-126260151D01*
X152120192Y-126337142D01*
X152120197Y-126337144D01*
X152305354Y-126376500D01*
X152305355Y-126376500D01*
X152494642Y-126376500D01*
X152494646Y-126376500D01*
X152506495Y-126373981D01*
X152576160Y-126379296D01*
X152631894Y-126421432D01*
X152637810Y-126430166D01*
X152681288Y-126500656D01*
X152805344Y-126624712D01*
X152954666Y-126716814D01*
X153121203Y-126771999D01*
X153223991Y-126782500D01*
X154624008Y-126782499D01*
X154726797Y-126771999D01*
X154893334Y-126716814D01*
X155042656Y-126624712D01*
X155166712Y-126500656D01*
X155258814Y-126351334D01*
X155313999Y-126184797D01*
X155324500Y-126082009D01*
X155324499Y-123981992D01*
X155313999Y-123879203D01*
X155258814Y-123712666D01*
X155166712Y-123563344D01*
X155042656Y-123439288D01*
X154893334Y-123347186D01*
X154726797Y-123292001D01*
X154726795Y-123292000D01*
X154624010Y-123281500D01*
X153223998Y-123281500D01*
X153223981Y-123281501D01*
X153121203Y-123292000D01*
X153121200Y-123292001D01*
X152954668Y-123347185D01*
X152954663Y-123347187D01*
X152805345Y-123439287D01*
X152699348Y-123545284D01*
X152638025Y-123578768D01*
X152585887Y-123578893D01*
X152494646Y-123559500D01*
X152305354Y-123559500D01*
X152272897Y-123566398D01*
X152120197Y-123598855D01*
X152120192Y-123598857D01*
X151947270Y-123675848D01*
X151947265Y-123675851D01*
X151794129Y-123787111D01*
X151667466Y-123927785D01*
X151572821Y-124091715D01*
X151572818Y-124091722D01*
X151528680Y-124227567D01*
X151514326Y-124271744D01*
X151494540Y-124460000D01*
X151514326Y-124648256D01*
X151514327Y-124648259D01*
X151572820Y-124828283D01*
X151617690Y-124906001D01*
X151634162Y-124973901D01*
X151617690Y-125029999D01*
X151572820Y-125107716D01*
X151549668Y-125178972D01*
X151514326Y-125287744D01*
X151494540Y-125476000D01*
X150999726Y-125476000D01*
X150973796Y-125376818D01*
X150866423Y-125124148D01*
X150723405Y-124889804D01*
X150678015Y-124835262D01*
X150547800Y-124678792D01*
X150547795Y-124678787D01*
X150547791Y-124678782D01*
X150361936Y-124512254D01*
X150343327Y-124495580D01*
X150343324Y-124495578D01*
X150343323Y-124495577D01*
X150114359Y-124344096D01*
X149865779Y-124227567D01*
X149718362Y-124183216D01*
X149602879Y-124148472D01*
X149469915Y-124128904D01*
X149331269Y-124108500D01*
X149125453Y-124108500D01*
X149125448Y-124108500D01*
X148920195Y-124123523D01*
X148920185Y-124123524D01*
X148652229Y-124183214D01*
X148652224Y-124183216D01*
X148395799Y-124281290D01*
X148156392Y-124415652D01*
X148156387Y-124415655D01*
X147939097Y-124583441D01*
X147939088Y-124583450D01*
X147748549Y-124781080D01*
X147748547Y-124781082D01*
X147588805Y-125004361D01*
X147588802Y-125004366D01*
X147463275Y-125248515D01*
X147463271Y-125248525D01*
X147374632Y-125508344D01*
X147374629Y-125508358D01*
X147324765Y-125778314D01*
X147324763Y-125778334D01*
X147314737Y-126052678D01*
X140908242Y-126052678D01*
X140913262Y-125915320D01*
X140883236Y-125642429D01*
X140813796Y-125376818D01*
X140706423Y-125124148D01*
X140563405Y-124889804D01*
X140518015Y-124835262D01*
X140387800Y-124678792D01*
X140387795Y-124678787D01*
X140387791Y-124678782D01*
X140201936Y-124512254D01*
X140183327Y-124495580D01*
X140183324Y-124495578D01*
X140183323Y-124495577D01*
X139954359Y-124344096D01*
X139705779Y-124227567D01*
X139558362Y-124183216D01*
X139442879Y-124148472D01*
X139309915Y-124128904D01*
X139171269Y-124108500D01*
X138965453Y-124108500D01*
X138965448Y-124108500D01*
X138760195Y-124123523D01*
X138760185Y-124123524D01*
X138492229Y-124183214D01*
X138492224Y-124183216D01*
X138235799Y-124281290D01*
X137996392Y-124415652D01*
X137996387Y-124415655D01*
X137779097Y-124583441D01*
X137779088Y-124583450D01*
X137588549Y-124781080D01*
X137588547Y-124781082D01*
X137428805Y-125004361D01*
X137428802Y-125004366D01*
X137303275Y-125248515D01*
X137303271Y-125248525D01*
X137214632Y-125508344D01*
X137214629Y-125508358D01*
X137164765Y-125778314D01*
X137164763Y-125778334D01*
X137154737Y-126052678D01*
X135766500Y-126052678D01*
X135766499Y-125178971D01*
X135786183Y-125111933D01*
X135838987Y-125066178D01*
X135849546Y-125061930D01*
X135852652Y-125060842D01*
X135858522Y-125058789D01*
X136011262Y-124962816D01*
X136138816Y-124835262D01*
X136234789Y-124682522D01*
X136294368Y-124512255D01*
X136296247Y-124495577D01*
X136314565Y-124333003D01*
X136314565Y-124332996D01*
X136294369Y-124153750D01*
X136294368Y-124153745D01*
X136238771Y-123994858D01*
X136234789Y-123983478D01*
X136233855Y-123981992D01*
X136169269Y-123879204D01*
X136138816Y-123830738D01*
X136011262Y-123703184D01*
X135967757Y-123675848D01*
X135858521Y-123607210D01*
X135688249Y-123547630D01*
X135624018Y-123540393D01*
X135559605Y-123513326D01*
X135550222Y-123504854D01*
X135484657Y-123439289D01*
X135484656Y-123439288D01*
X135437234Y-123410038D01*
X135390511Y-123358091D01*
X135379288Y-123289128D01*
X135407132Y-123225046D01*
X135465201Y-123186190D01*
X135502332Y-123180500D01*
X149315145Y-123180500D01*
X149381117Y-123199506D01*
X149466234Y-123252989D01*
X149510478Y-123280789D01*
X149680745Y-123340368D01*
X149680750Y-123340369D01*
X149859996Y-123360565D01*
X149860000Y-123360565D01*
X149860004Y-123360565D01*
X150039249Y-123340369D01*
X150039252Y-123340368D01*
X150039255Y-123340368D01*
X150209522Y-123280789D01*
X150362262Y-123184816D01*
X150489816Y-123057262D01*
X150585789Y-122904522D01*
X150645368Y-122734255D01*
X150665565Y-122555000D01*
X150658579Y-122493000D01*
X150645369Y-122375750D01*
X150645366Y-122375737D01*
X150625497Y-122318955D01*
X150621935Y-122249176D01*
X150656663Y-122188549D01*
X150718656Y-122156321D01*
X150742538Y-122154000D01*
X150839145Y-122154000D01*
X150905117Y-122173006D01*
X151026340Y-122249176D01*
X151034478Y-122254289D01*
X151140421Y-122291360D01*
X151204745Y-122313868D01*
X151204750Y-122313869D01*
X151383996Y-122334065D01*
X151384000Y-122334065D01*
X151384004Y-122334065D01*
X151563249Y-122313869D01*
X151563252Y-122313868D01*
X151563255Y-122313868D01*
X151733522Y-122254289D01*
X151741660Y-122249176D01*
X151811204Y-122205478D01*
X151862077Y-122173512D01*
X151929312Y-122154512D01*
X151996147Y-122174879D01*
X152034780Y-122215385D01*
X152051916Y-122244361D01*
X152051923Y-122244370D01*
X152168129Y-122360576D01*
X152168133Y-122360579D01*
X152168135Y-122360581D01*
X152309602Y-122444244D01*
X152351224Y-122456336D01*
X152467426Y-122490097D01*
X152467429Y-122490097D01*
X152467431Y-122490098D01*
X152479722Y-122491065D01*
X152504304Y-122493000D01*
X152504306Y-122493000D01*
X152935696Y-122493000D01*
X152954131Y-122491549D01*
X152972569Y-122490098D01*
X152972571Y-122490097D01*
X152972573Y-122490097D01*
X153014191Y-122478005D01*
X153130398Y-122444244D01*
X153271865Y-122360581D01*
X153388081Y-122244365D01*
X153471744Y-122102898D01*
X153517598Y-121945069D01*
X153520114Y-121913097D01*
X153520500Y-121908196D01*
X153520500Y-121865397D01*
X153540185Y-121798358D01*
X153581378Y-121758665D01*
X153590671Y-121753170D01*
X153604840Y-121738999D01*
X153619646Y-121726357D01*
X153623142Y-121723818D01*
X153688955Y-121700356D01*
X153757004Y-121716200D01*
X153805685Y-121766319D01*
X153820000Y-121824156D01*
X153820000Y-121908144D01*
X153822899Y-121944989D01*
X153822900Y-121944995D01*
X153868716Y-122102693D01*
X153868717Y-122102696D01*
X153952314Y-122244052D01*
X153952321Y-122244061D01*
X154068438Y-122360178D01*
X154068447Y-122360185D01*
X154209801Y-122443781D01*
X154367514Y-122489600D01*
X154367511Y-122489600D01*
X154369998Y-122489795D01*
X154370000Y-122489795D01*
X154370000Y-121505000D01*
X154870000Y-121505000D01*
X154870000Y-122489795D01*
X154870001Y-122489795D01*
X154872486Y-122489600D01*
X155030198Y-122443781D01*
X155171552Y-122360185D01*
X155171561Y-122360178D01*
X155287678Y-122244061D01*
X155287685Y-122244052D01*
X155371282Y-122102696D01*
X155371283Y-122102693D01*
X155417099Y-121944995D01*
X155417100Y-121944989D01*
X155420000Y-121908144D01*
X155420000Y-121505000D01*
X154870000Y-121505000D01*
X154370000Y-121505000D01*
X154370000Y-121129000D01*
X154389685Y-121061961D01*
X154442489Y-121016206D01*
X154494000Y-121005000D01*
X155420000Y-121005000D01*
X155420000Y-120601856D01*
X155417100Y-120565010D01*
X155417099Y-120565004D01*
X155371283Y-120407306D01*
X155371282Y-120407303D01*
X155287685Y-120265947D01*
X155287678Y-120265938D01*
X155171561Y-120149821D01*
X155171552Y-120149814D01*
X155120354Y-120119536D01*
X155072670Y-120068467D01*
X155060025Y-120024471D01*
X155057775Y-120000664D01*
X155057500Y-119994828D01*
X155057500Y-118838354D01*
X155076507Y-118772381D01*
X155078421Y-118769336D01*
X155128314Y-118689931D01*
X155157788Y-118643024D01*
X155157789Y-118643022D01*
X155217368Y-118472755D01*
X155217369Y-118472749D01*
X155237565Y-118293503D01*
X155237565Y-118293497D01*
X155226459Y-118194934D01*
X155238513Y-118126112D01*
X155261999Y-118093368D01*
X155285516Y-118069852D01*
X155342712Y-118012656D01*
X155426549Y-117876732D01*
X155478495Y-117830009D01*
X155547458Y-117818786D01*
X155611540Y-117846629D01*
X155650397Y-117904698D01*
X155651693Y-117909157D01*
X155651749Y-117909309D01*
X155745295Y-118109919D01*
X155791103Y-118175341D01*
X155791105Y-118175342D01*
X156353866Y-117612580D01*
X156376318Y-117689040D01*
G37*
%TD.AperFunction*%
%TA.AperFunction,Conductor*%
G36*
X157898894Y-118175342D02*
G01*
X157948692Y-118170985D01*
X158017192Y-118184751D01*
X158067375Y-118233366D01*
X158083500Y-118294513D01*
X158083500Y-119184151D01*
X158063815Y-119251190D01*
X158011011Y-119296945D01*
X157941853Y-119306889D01*
X157878297Y-119277864D01*
X157857926Y-119255275D01*
X157818137Y-119198452D01*
X157818136Y-119198451D01*
X157818132Y-119198445D01*
X157661555Y-119041868D01*
X157480167Y-118914858D01*
X157466807Y-118908628D01*
X157356317Y-118857106D01*
X157303877Y-118810934D01*
X157284725Y-118743741D01*
X157304941Y-118676859D01*
X157356317Y-118632342D01*
X157479912Y-118574708D01*
X157479914Y-118574707D01*
X157545342Y-118528894D01*
X156986366Y-117969918D01*
X156990161Y-117969373D01*
X157123562Y-117908451D01*
X157234395Y-117812413D01*
X157313682Y-117689040D01*
X157336133Y-117612580D01*
X157898894Y-118175342D01*
G37*
%TD.AperFunction*%
%TA.AperFunction,Conductor*%
G36*
X143100062Y-117125814D02*
G01*
X143131195Y-117248755D01*
X143200559Y-117354925D01*
X143300639Y-117432821D01*
X143420589Y-117474000D01*
X143457553Y-117474000D01*
X142777026Y-118154526D01*
X142771003Y-118184496D01*
X142748925Y-118214482D01*
X142596162Y-118367246D01*
X142534838Y-118400731D01*
X142476389Y-118399340D01*
X142433730Y-118387910D01*
X142433722Y-118387908D01*
X142433720Y-118387908D01*
X142433717Y-118387907D01*
X142433713Y-118387907D01*
X142214002Y-118368685D01*
X142213997Y-118368685D01*
X142201251Y-118369800D01*
X142132752Y-118356033D01*
X142082569Y-118307417D01*
X142066636Y-118239389D01*
X142090012Y-118173545D01*
X142091113Y-118172049D01*
X142147796Y-118096331D01*
X142198091Y-117961483D01*
X142204500Y-117901873D01*
X142204499Y-117856704D01*
X142224182Y-117789668D01*
X142276985Y-117743912D01*
X142346144Y-117733967D01*
X142409700Y-117762990D01*
X142430074Y-117785582D01*
X142433694Y-117790751D01*
X143100191Y-117124253D01*
X143100062Y-117125814D01*
G37*
%TD.AperFunction*%
%TA.AperFunction,Conductor*%
G36*
X155501698Y-114725403D02*
G01*
X155557632Y-114767275D01*
X155582049Y-114832739D01*
X155581893Y-114852392D01*
X155574666Y-114934997D01*
X155574666Y-114935001D01*
X155593964Y-115155585D01*
X155593965Y-115155592D01*
X155651275Y-115369475D01*
X155651279Y-115369486D01*
X155727432Y-115532796D01*
X155744858Y-115570167D01*
X155871868Y-115751555D01*
X156028445Y-115908132D01*
X156209833Y-116035142D01*
X156333682Y-116092893D01*
X156386122Y-116139065D01*
X156405274Y-116206258D01*
X156385059Y-116273139D01*
X156333683Y-116317657D01*
X156210084Y-116375293D01*
X156144657Y-116421104D01*
X156703634Y-116980081D01*
X156699839Y-116980627D01*
X156566438Y-117041549D01*
X156455605Y-117137587D01*
X156376318Y-117260960D01*
X156353866Y-117337419D01*
X155791104Y-116774657D01*
X155745292Y-116840084D01*
X155736880Y-116858125D01*
X155690707Y-116910563D01*
X155623513Y-116929714D01*
X155556632Y-116909497D01*
X155511298Y-116856331D01*
X155500499Y-116805718D01*
X155500499Y-116593998D01*
X155500498Y-116593980D01*
X155489999Y-116491203D01*
X155489998Y-116491200D01*
X155473967Y-116442821D01*
X155434814Y-116324666D01*
X155342712Y-116175344D01*
X155218656Y-116051288D01*
X155069334Y-115959186D01*
X154902797Y-115904001D01*
X154902795Y-115904000D01*
X154800016Y-115893500D01*
X154800009Y-115893500D01*
X154530451Y-115893500D01*
X154463412Y-115873815D01*
X154417657Y-115821011D01*
X154407713Y-115751853D01*
X154436738Y-115688297D01*
X154442770Y-115681819D01*
X154896246Y-115228343D01*
X155370686Y-114753902D01*
X155432007Y-114720419D01*
X155501698Y-114725403D01*
G37*
%TD.AperFunction*%
%TA.AperFunction,Conductor*%
G36*
X158044355Y-115675429D02*
G01*
X158079769Y-115735659D01*
X158083500Y-115765848D01*
X158083500Y-116655486D01*
X158063815Y-116722525D01*
X158011011Y-116768280D01*
X157948692Y-116779014D01*
X157898894Y-116774656D01*
X157336132Y-117337418D01*
X157313682Y-117260960D01*
X157234395Y-117137587D01*
X157123562Y-117041549D01*
X156990161Y-116980627D01*
X156986366Y-116980081D01*
X157545342Y-116421105D01*
X157545341Y-116421103D01*
X157479919Y-116375295D01*
X157356316Y-116317657D01*
X157303877Y-116271484D01*
X157284725Y-116204291D01*
X157304941Y-116137410D01*
X157356312Y-116092895D01*
X157480167Y-116035142D01*
X157661555Y-115908132D01*
X157818132Y-115751555D01*
X157857926Y-115694722D01*
X157912502Y-115651100D01*
X157982001Y-115643907D01*
X158044355Y-115675429D01*
G37*
%TD.AperFunction*%
%TA.AperFunction,Conductor*%
G36*
X145051317Y-106488774D02*
G01*
X145097072Y-106541578D01*
X145107636Y-106580488D01*
X145114000Y-106642796D01*
X145114001Y-106642799D01*
X145169185Y-106809331D01*
X145169187Y-106809336D01*
X145184288Y-106833819D01*
X145261096Y-106958345D01*
X145261289Y-106958657D01*
X145390451Y-107087819D01*
X145389411Y-107088858D01*
X145425078Y-107139212D01*
X145428227Y-107209010D01*
X145395479Y-107267152D01*
X145377289Y-107285342D01*
X145285187Y-107434663D01*
X145285185Y-107434668D01*
X145285115Y-107434880D01*
X145230001Y-107601203D01*
X145230001Y-107601204D01*
X145230000Y-107601204D01*
X145219500Y-107703983D01*
X145219500Y-108704001D01*
X145219501Y-108704019D01*
X145230000Y-108806796D01*
X145230001Y-108806799D01*
X145272206Y-108934164D01*
X145285186Y-108973334D01*
X145374581Y-109118268D01*
X145377289Y-109122657D01*
X145395476Y-109140844D01*
X145428961Y-109202167D01*
X145423977Y-109271859D01*
X145389494Y-109319224D01*
X145390451Y-109320181D01*
X145261289Y-109449342D01*
X145169187Y-109598663D01*
X145169185Y-109598668D01*
X145149359Y-109658499D01*
X145114001Y-109765203D01*
X145114001Y-109765204D01*
X145114000Y-109765204D01*
X145103500Y-109867983D01*
X145103500Y-110668001D01*
X145103501Y-110668019D01*
X145114000Y-110770796D01*
X145114001Y-110770799D01*
X145169185Y-110937331D01*
X145169187Y-110937336D01*
X145183230Y-110960103D01*
X145236520Y-111046501D01*
X145261289Y-111086657D01*
X145354951Y-111180319D01*
X145388436Y-111241642D01*
X145383452Y-111311334D01*
X145354951Y-111355681D01*
X145261289Y-111449342D01*
X145169187Y-111598663D01*
X145169185Y-111598668D01*
X145157055Y-111635275D01*
X145114001Y-111765203D01*
X145114001Y-111765204D01*
X145114000Y-111765204D01*
X145103500Y-111867983D01*
X145103500Y-112668001D01*
X145103501Y-112668019D01*
X145114000Y-112770796D01*
X145114001Y-112770799D01*
X145154157Y-112891981D01*
X145169186Y-112937334D01*
X145251177Y-113070264D01*
X145261289Y-113086657D01*
X145362433Y-113187801D01*
X145395918Y-113249124D01*
X145397476Y-113277502D01*
X145398540Y-113277502D01*
X145398540Y-113284006D01*
X145399796Y-113295963D01*
X145387223Y-113364692D01*
X145380683Y-113374952D01*
X145381080Y-113375197D01*
X145377289Y-113381342D01*
X145377288Y-113381344D01*
X145371580Y-113390597D01*
X145319635Y-113437321D01*
X145266043Y-113449500D01*
X144266499Y-113449500D01*
X144199460Y-113429815D01*
X144153705Y-113377011D01*
X144142499Y-113325500D01*
X144142499Y-112891998D01*
X144142498Y-112891981D01*
X144131999Y-112789203D01*
X144131998Y-112789200D01*
X144129361Y-112781243D01*
X144076814Y-112622666D01*
X143984712Y-112473344D01*
X143860656Y-112349288D01*
X143711334Y-112257186D01*
X143544797Y-112202001D01*
X143544795Y-112202000D01*
X143442010Y-112191500D01*
X141291998Y-112191500D01*
X141291981Y-112191501D01*
X141189203Y-112202000D01*
X141189200Y-112202001D01*
X141022668Y-112257185D01*
X141022663Y-112257187D01*
X140873342Y-112349289D01*
X140749289Y-112473342D01*
X140657187Y-112622663D01*
X140657186Y-112622666D01*
X140602001Y-112789203D01*
X140602001Y-112789204D01*
X140602000Y-112789204D01*
X140591500Y-112891983D01*
X140591500Y-112891991D01*
X140591500Y-113791528D01*
X140591501Y-114575500D01*
X140571816Y-114642539D01*
X140519013Y-114688294D01*
X140467501Y-114699500D01*
X137514500Y-114699500D01*
X137447461Y-114679815D01*
X137401706Y-114627011D01*
X137390500Y-114575500D01*
X137390500Y-114290386D01*
X137389839Y-114283115D01*
X137384086Y-114219804D01*
X137339317Y-114076135D01*
X137338168Y-114006276D01*
X137370021Y-113951568D01*
X137762526Y-113559062D01*
X137823847Y-113525579D01*
X137893538Y-113530563D01*
X137911052Y-113539128D01*
X137914659Y-113540810D01*
X137914666Y-113540814D01*
X138081203Y-113595999D01*
X138183991Y-113606500D01*
X139184008Y-113606499D01*
X139184016Y-113606498D01*
X139184019Y-113606498D01*
X139240302Y-113600748D01*
X139286797Y-113595999D01*
X139453334Y-113540814D01*
X139602656Y-113448712D01*
X139726712Y-113324656D01*
X139818814Y-113175334D01*
X139873999Y-113008797D01*
X139884500Y-112906009D01*
X139884499Y-112105992D01*
X139883466Y-112095883D01*
X139873999Y-112003203D01*
X139873998Y-112003200D01*
X139869856Y-111990700D01*
X139818814Y-111836666D01*
X139726712Y-111687344D01*
X139633049Y-111593681D01*
X139599564Y-111532358D01*
X139604548Y-111462666D01*
X139633049Y-111418319D01*
X139677552Y-111373816D01*
X139726712Y-111324656D01*
X139818814Y-111175334D01*
X139873999Y-111008797D01*
X139884500Y-110906009D01*
X139884499Y-110105992D01*
X139883580Y-110097000D01*
X139873999Y-110003203D01*
X139873998Y-110003200D01*
X139865267Y-109976853D01*
X139818814Y-109836666D01*
X139726712Y-109687344D01*
X139602656Y-109563288D01*
X139453334Y-109471186D01*
X139286797Y-109416001D01*
X139286795Y-109416000D01*
X139184010Y-109405500D01*
X138183998Y-109405500D01*
X138183980Y-109405501D01*
X138081203Y-109416000D01*
X138081200Y-109416001D01*
X137914668Y-109471185D01*
X137914663Y-109471187D01*
X137765342Y-109563289D01*
X137641289Y-109687342D01*
X137549182Y-109836672D01*
X137547779Y-109839682D01*
X137546267Y-109841398D01*
X137545395Y-109842813D01*
X137545153Y-109842663D01*
X137501604Y-109892120D01*
X137434410Y-109911269D01*
X137367530Y-109891050D01*
X137329282Y-109851423D01*
X137245072Y-109712122D01*
X137124877Y-109591927D01*
X136979395Y-109503980D01*
X136979396Y-109503980D01*
X136817105Y-109453409D01*
X136817106Y-109453409D01*
X136746572Y-109447000D01*
X136741498Y-109447000D01*
X136674459Y-109427315D01*
X136628704Y-109374511D01*
X136618760Y-109305353D01*
X136635959Y-109257904D01*
X136642862Y-109246712D01*
X136654814Y-109227334D01*
X136709999Y-109060797D01*
X136720500Y-108958009D01*
X136720499Y-107957992D01*
X136720208Y-107955147D01*
X136709999Y-107855203D01*
X136709998Y-107855200D01*
X136696180Y-107813500D01*
X136654814Y-107688666D01*
X136641450Y-107667000D01*
X140592001Y-107667000D01*
X140592001Y-108341986D01*
X140602494Y-108444697D01*
X140657641Y-108611119D01*
X140657643Y-108611124D01*
X140749684Y-108760345D01*
X140873654Y-108884315D01*
X141022875Y-108976356D01*
X141022880Y-108976358D01*
X141189302Y-109031505D01*
X141189309Y-109031506D01*
X141292019Y-109041999D01*
X142116999Y-109041999D01*
X142117000Y-109041998D01*
X142117000Y-107667000D01*
X142617000Y-107667000D01*
X142617000Y-109041999D01*
X143441972Y-109041999D01*
X143441986Y-109041998D01*
X143544697Y-109031505D01*
X143711119Y-108976358D01*
X143711124Y-108976356D01*
X143860345Y-108884315D01*
X143984315Y-108760345D01*
X144076356Y-108611124D01*
X144076358Y-108611119D01*
X144131505Y-108444697D01*
X144131506Y-108444690D01*
X144141999Y-108341986D01*
X144142000Y-108341973D01*
X144142000Y-107667000D01*
X142617000Y-107667000D01*
X142117000Y-107667000D01*
X140592001Y-107667000D01*
X136641450Y-107667000D01*
X136562712Y-107539344D01*
X136438656Y-107415288D01*
X136327097Y-107346478D01*
X136289336Y-107323187D01*
X136289331Y-107323185D01*
X136288936Y-107323054D01*
X136262231Y-107314205D01*
X136204788Y-107274433D01*
X136177965Y-107209917D01*
X136190280Y-107141142D01*
X136237823Y-107089942D01*
X136301237Y-107072500D01*
X136746613Y-107072500D01*
X136746616Y-107072500D01*
X136817196Y-107066086D01*
X136979606Y-107015478D01*
X137125185Y-106927472D01*
X137143756Y-106908901D01*
X137218839Y-106833819D01*
X137280162Y-106800334D01*
X137306520Y-106797500D01*
X137370245Y-106797500D01*
X137437284Y-106817185D01*
X137483039Y-106869989D01*
X137493603Y-106908901D01*
X137494000Y-106912795D01*
X137494001Y-106912799D01*
X137549185Y-107079331D01*
X137549187Y-107079336D01*
X137558484Y-107094409D01*
X137641288Y-107228656D01*
X137765344Y-107352712D01*
X137914666Y-107444814D01*
X138081203Y-107499999D01*
X138183991Y-107510500D01*
X139184008Y-107510499D01*
X139184016Y-107510498D01*
X139184019Y-107510498D01*
X139240302Y-107504748D01*
X139286797Y-107499999D01*
X139453334Y-107444814D01*
X139602656Y-107352712D01*
X139726712Y-107228656D01*
X139818814Y-107079334D01*
X139873999Y-106912797D01*
X139884500Y-106810009D01*
X139884499Y-106759843D01*
X139904182Y-106692806D01*
X139956985Y-106647051D01*
X140022382Y-106636624D01*
X140075969Y-106642661D01*
X140133587Y-106649154D01*
X140133589Y-106649154D01*
X140133593Y-106649154D01*
X140312838Y-106628958D01*
X140312840Y-106628957D01*
X140312844Y-106628957D01*
X140312847Y-106628955D01*
X140312851Y-106628955D01*
X140427045Y-106588997D01*
X140496824Y-106585435D01*
X140557451Y-106620163D01*
X140589679Y-106682157D01*
X140592000Y-106706038D01*
X140592000Y-107167000D01*
X144141999Y-107167000D01*
X144141999Y-106593089D01*
X144161684Y-106526050D01*
X144214488Y-106480295D01*
X144265999Y-106469089D01*
X144984278Y-106469089D01*
X145051317Y-106488774D01*
G37*
%TD.AperFunction*%
%TA.AperFunction,Conductor*%
G36*
X136083039Y-110116685D02*
G01*
X136128794Y-110169489D01*
X136140000Y-110221000D01*
X136140000Y-111246999D01*
X136746581Y-111246999D01*
X136817102Y-111240591D01*
X136817107Y-111240590D01*
X136979396Y-111190018D01*
X137124877Y-111102072D01*
X137245070Y-110981879D01*
X137263865Y-110950789D01*
X137315393Y-110903601D01*
X137384252Y-110891762D01*
X137448581Y-110919030D01*
X137487956Y-110976748D01*
X137493341Y-111002336D01*
X137494001Y-111008797D01*
X137494001Y-111008799D01*
X137549185Y-111175331D01*
X137549187Y-111175336D01*
X137557516Y-111188839D01*
X137622968Y-111294955D01*
X137641289Y-111324657D01*
X137734951Y-111418319D01*
X137768436Y-111479642D01*
X137763452Y-111549334D01*
X137734951Y-111593681D01*
X137641289Y-111687342D01*
X137549187Y-111836663D01*
X137549185Y-111836668D01*
X137494000Y-112003205D01*
X137492202Y-112020807D01*
X137465804Y-112085499D01*
X137456525Y-112095883D01*
X135942228Y-113610181D01*
X135880905Y-113643666D01*
X135854547Y-113646500D01*
X135033384Y-113646500D01*
X135014145Y-113648248D01*
X134962807Y-113652913D01*
X134800390Y-113703523D01*
X134798643Y-113704580D01*
X134797192Y-113704962D01*
X134793555Y-113706600D01*
X134793282Y-113705994D01*
X134731087Y-113722412D01*
X134664615Y-113700890D01*
X134620331Y-113646847D01*
X134610500Y-113598459D01*
X134610500Y-111294955D01*
X134630185Y-111227916D01*
X134682989Y-111182161D01*
X134752147Y-111172217D01*
X134793703Y-111187070D01*
X134793762Y-111186940D01*
X134795397Y-111187676D01*
X134798651Y-111188839D01*
X134800602Y-111190018D01*
X134800603Y-111190019D01*
X134962894Y-111240590D01*
X134962893Y-111240590D01*
X135033427Y-111246999D01*
X135639999Y-111246999D01*
X135640000Y-111246998D01*
X135640000Y-110221000D01*
X135659685Y-110153961D01*
X135712489Y-110108206D01*
X135764000Y-110097000D01*
X136016000Y-110097000D01*
X136083039Y-110116685D01*
G37*
%TD.AperFunction*%
%TA.AperFunction,Conductor*%
G36*
X148529039Y-105909685D02*
G01*
X148574794Y-105962489D01*
X148586000Y-106014000D01*
X148586000Y-107212638D01*
X148570000Y-107267127D01*
X148570000Y-108330000D01*
X148550315Y-108397039D01*
X148497511Y-108442794D01*
X148446000Y-108454000D01*
X148194000Y-108454000D01*
X148126961Y-108434315D01*
X148081206Y-108381511D01*
X148070000Y-108330000D01*
X148070000Y-107031362D01*
X148086000Y-106976872D01*
X148086000Y-106014000D01*
X148105685Y-105946961D01*
X148158489Y-105901206D01*
X148210000Y-105890000D01*
X148462000Y-105890000D01*
X148529039Y-105909685D01*
G37*
%TD.AperFunction*%
%TA.AperFunction,Conductor*%
G36*
X134349463Y-101722000D02*
G01*
X136016000Y-101722000D01*
X136083039Y-101741685D01*
X136128794Y-101794489D01*
X136140000Y-101846000D01*
X136140000Y-101993500D01*
X136120315Y-102060539D01*
X136067511Y-102106294D01*
X136016000Y-102117500D01*
X133559743Y-102117500D01*
X133544122Y-102115775D01*
X133544096Y-102116061D01*
X133536334Y-102115327D01*
X133536333Y-102115327D01*
X133467186Y-102117500D01*
X133437649Y-102117500D01*
X133430766Y-102118369D01*
X133424949Y-102118826D01*
X133378373Y-102120290D01*
X133359129Y-102125881D01*
X133340079Y-102129825D01*
X133320211Y-102132334D01*
X133276884Y-102149488D01*
X133271358Y-102151379D01*
X133226614Y-102164379D01*
X133226610Y-102164381D01*
X133209366Y-102174579D01*
X133191905Y-102183133D01*
X133173274Y-102190510D01*
X133173262Y-102190517D01*
X133135570Y-102217902D01*
X133130687Y-102221109D01*
X133090580Y-102244829D01*
X133076414Y-102258995D01*
X133061624Y-102271627D01*
X133045414Y-102283404D01*
X133045411Y-102283407D01*
X133015710Y-102319309D01*
X133011777Y-102323631D01*
X132919316Y-102416092D01*
X132857993Y-102449577D01*
X132788301Y-102444593D01*
X132732368Y-102402721D01*
X132707951Y-102337257D01*
X132708107Y-102317603D01*
X132712130Y-102271627D01*
X132715334Y-102235000D01*
X132696035Y-102014409D01*
X132683741Y-101968528D01*
X132685404Y-101898679D01*
X132715834Y-101848756D01*
X132810773Y-101753818D01*
X132872096Y-101720334D01*
X132898453Y-101717500D01*
X134334138Y-101717500D01*
X134349463Y-101722000D01*
G37*
%TD.AperFunction*%
%TA.AperFunction,Conductor*%
G36*
X130976318Y-99909040D02*
G01*
X131055605Y-100032413D01*
X131166438Y-100128451D01*
X131299839Y-100189373D01*
X131303633Y-100189918D01*
X130744656Y-100748894D01*
X130810083Y-100794706D01*
X130810085Y-100794707D01*
X130933683Y-100852342D01*
X130986122Y-100898514D01*
X131005274Y-100965708D01*
X130985058Y-101032589D01*
X130933683Y-101077106D01*
X130809833Y-101134857D01*
X130628444Y-101261868D01*
X130471868Y-101418444D01*
X130416258Y-101497864D01*
X130375114Y-101556624D01*
X130370075Y-101563820D01*
X130315497Y-101607445D01*
X130245999Y-101614637D01*
X130183644Y-101583115D01*
X130148231Y-101522885D01*
X130144500Y-101492696D01*
X130144500Y-100436432D01*
X130164185Y-100369393D01*
X130216989Y-100323638D01*
X130286147Y-100313694D01*
X130349703Y-100342719D01*
X130370075Y-100365309D01*
X130391104Y-100395341D01*
X130391105Y-100395342D01*
X130953866Y-99832580D01*
X130976318Y-99909040D01*
G37*
%TD.AperFunction*%
%TA.AperFunction,Conductor*%
G36*
X133663703Y-95305739D02*
G01*
X133670181Y-95311771D01*
X135105162Y-96746753D01*
X135138647Y-96808076D01*
X135133663Y-96877768D01*
X135091791Y-96933701D01*
X135028704Y-96957925D01*
X134962806Y-96963913D01*
X134881599Y-96989218D01*
X134800394Y-97014522D01*
X134800392Y-97014522D01*
X134800392Y-97014523D01*
X134755295Y-97041784D01*
X134687740Y-97059619D01*
X134677265Y-97058886D01*
X134620005Y-97052435D01*
X134619996Y-97052435D01*
X134440750Y-97072630D01*
X134440745Y-97072631D01*
X134270476Y-97132211D01*
X134117737Y-97228184D01*
X133990184Y-97355737D01*
X133894211Y-97508476D01*
X133834631Y-97678745D01*
X133834630Y-97678750D01*
X133814435Y-97857996D01*
X133814435Y-97858003D01*
X133834630Y-98037249D01*
X133834631Y-98037254D01*
X133894211Y-98207523D01*
X133954260Y-98303090D01*
X133990184Y-98360262D01*
X134117738Y-98487816D01*
X134270478Y-98583789D01*
X134434272Y-98641103D01*
X134440745Y-98643368D01*
X134440750Y-98643369D01*
X134619997Y-98663565D01*
X134620000Y-98663565D01*
X134677263Y-98657112D01*
X134746083Y-98669165D01*
X134755289Y-98674210D01*
X134800394Y-98701478D01*
X134962804Y-98752086D01*
X135033384Y-98758500D01*
X135854548Y-98758500D01*
X135921587Y-98778185D01*
X135942229Y-98794819D01*
X136513228Y-99365819D01*
X136546713Y-99427142D01*
X136541729Y-99496834D01*
X136499857Y-99552767D01*
X136434393Y-99577184D01*
X136425547Y-99577500D01*
X135096105Y-99577500D01*
X135030133Y-99558494D01*
X134900773Y-99477211D01*
X134730504Y-99417631D01*
X134730499Y-99417630D01*
X134551254Y-99397435D01*
X134551246Y-99397435D01*
X134372000Y-99417630D01*
X134371995Y-99417631D01*
X134201726Y-99477211D01*
X134048987Y-99573184D01*
X133921434Y-99700737D01*
X133825461Y-99853476D01*
X133765881Y-100023745D01*
X133765880Y-100023750D01*
X133745685Y-100202996D01*
X133745685Y-100203003D01*
X133759838Y-100328617D01*
X133747783Y-100397438D01*
X133700434Y-100448818D01*
X133636618Y-100466500D01*
X132675658Y-100466500D01*
X132608619Y-100446815D01*
X132562864Y-100394011D01*
X132552920Y-100324853D01*
X132563276Y-100290096D01*
X132638249Y-100129314D01*
X132638254Y-100129300D01*
X132695538Y-99915509D01*
X132695540Y-99915499D01*
X132714832Y-99695000D01*
X132714832Y-99694999D01*
X132695540Y-99474500D01*
X132695538Y-99474490D01*
X132638254Y-99260699D01*
X132638250Y-99260690D01*
X132544707Y-99060085D01*
X132544706Y-99060083D01*
X132498894Y-98994657D01*
X132498894Y-98994656D01*
X131936132Y-99557418D01*
X131913682Y-99480960D01*
X131834395Y-99357587D01*
X131723562Y-99261549D01*
X131590161Y-99200627D01*
X131586366Y-99200081D01*
X132145342Y-98641105D01*
X132145341Y-98641103D01*
X132079919Y-98595295D01*
X131956316Y-98537657D01*
X131903877Y-98491484D01*
X131884725Y-98424291D01*
X131904941Y-98357410D01*
X131956312Y-98312895D01*
X132080167Y-98255142D01*
X132261555Y-98128132D01*
X132418132Y-97971555D01*
X132545142Y-97790167D01*
X132638723Y-97589480D01*
X132696035Y-97375591D01*
X132715041Y-97158345D01*
X132715334Y-97155001D01*
X132715334Y-97154998D01*
X132696035Y-96934414D01*
X132696035Y-96934409D01*
X132683741Y-96888528D01*
X132685404Y-96818679D01*
X132715833Y-96768756D01*
X133216788Y-96267801D01*
X133229042Y-96257986D01*
X133228859Y-96257764D01*
X133234866Y-96252792D01*
X133234877Y-96252786D01*
X133265775Y-96219882D01*
X133282227Y-96202364D01*
X133292671Y-96191918D01*
X133303120Y-96181471D01*
X133307379Y-96175978D01*
X133311152Y-96171561D01*
X133343062Y-96137582D01*
X133352713Y-96120024D01*
X133363396Y-96103761D01*
X133375673Y-96087936D01*
X133394185Y-96045153D01*
X133396738Y-96039941D01*
X133419197Y-95999092D01*
X133424180Y-95979680D01*
X133430481Y-95961280D01*
X133438437Y-95942896D01*
X133445729Y-95896852D01*
X133446906Y-95891171D01*
X133458500Y-95846019D01*
X133458500Y-95825983D01*
X133460027Y-95806582D01*
X133463160Y-95786804D01*
X133458775Y-95740415D01*
X133458500Y-95734577D01*
X133458500Y-95399452D01*
X133478185Y-95332413D01*
X133530989Y-95286658D01*
X133600147Y-95276714D01*
X133663703Y-95305739D01*
G37*
%TD.AperFunction*%
%TA.AperFunction,Conductor*%
G36*
X142537334Y-96646548D02*
G01*
X142581681Y-96675049D01*
X142591344Y-96684712D01*
X142592148Y-96685208D01*
X142592583Y-96685691D01*
X142597011Y-96689193D01*
X142596412Y-96689949D01*
X142638873Y-96737156D01*
X142650096Y-96806118D01*
X142622252Y-96870201D01*
X142566056Y-96908453D01*
X142462881Y-96942641D01*
X142462876Y-96942643D01*
X142313655Y-97034684D01*
X142189684Y-97158655D01*
X142097643Y-97307876D01*
X142097641Y-97307881D01*
X142042494Y-97474303D01*
X142042493Y-97474310D01*
X142032000Y-97577014D01*
X142032000Y-98302000D01*
X144532000Y-98302000D01*
X144532000Y-97912730D01*
X144551685Y-97845691D01*
X144604489Y-97799936D01*
X144673647Y-97789992D01*
X144737203Y-97819017D01*
X144743681Y-97825049D01*
X145245181Y-98326549D01*
X145278666Y-98387872D01*
X145281500Y-98414230D01*
X145281500Y-99527015D01*
X145292000Y-99629795D01*
X145292001Y-99629797D01*
X145302935Y-99662795D01*
X145304825Y-99668496D01*
X145307227Y-99738324D01*
X145271495Y-99798366D01*
X145208975Y-99829559D01*
X145187119Y-99831500D01*
X144626354Y-99831500D01*
X144559315Y-99811815D01*
X144513560Y-99759011D01*
X144503616Y-99689853D01*
X144508648Y-99668496D01*
X144521505Y-99629696D01*
X144521506Y-99629689D01*
X144531999Y-99526985D01*
X144532000Y-99526972D01*
X144532000Y-98802000D01*
X142032000Y-98802000D01*
X142032000Y-99526985D01*
X142042493Y-99629689D01*
X142042494Y-99629696D01*
X142055352Y-99668496D01*
X142057754Y-99738324D01*
X142022022Y-99798366D01*
X141959502Y-99829559D01*
X141937646Y-99831500D01*
X141534452Y-99831500D01*
X141467413Y-99811815D01*
X141446771Y-99795181D01*
X141123819Y-99472228D01*
X141090334Y-99410905D01*
X141087500Y-99384547D01*
X141087500Y-97872742D01*
X141089224Y-97857122D01*
X141088939Y-97857096D01*
X141089671Y-97849340D01*
X141089673Y-97849333D01*
X141087500Y-97780185D01*
X141087500Y-97750650D01*
X141086631Y-97743772D01*
X141086172Y-97737943D01*
X141085704Y-97723061D01*
X141084709Y-97691373D01*
X141079122Y-97672144D01*
X141075174Y-97653084D01*
X141072663Y-97633204D01*
X141055512Y-97589887D01*
X141053619Y-97584358D01*
X141040618Y-97539609D01*
X141040616Y-97539606D01*
X141030423Y-97522371D01*
X141021861Y-97504894D01*
X141014487Y-97486270D01*
X141014486Y-97486268D01*
X140987079Y-97448545D01*
X140983888Y-97443686D01*
X140974270Y-97427423D01*
X140960170Y-97403580D01*
X140960168Y-97403578D01*
X140960165Y-97403574D01*
X140946006Y-97389415D01*
X140933368Y-97374619D01*
X140921594Y-97358413D01*
X140918360Y-97355738D01*
X140885688Y-97328709D01*
X140881376Y-97324786D01*
X140479519Y-96922928D01*
X140446035Y-96861607D01*
X140451019Y-96791915D01*
X140492891Y-96735982D01*
X140558355Y-96711565D01*
X140626628Y-96726417D01*
X140632297Y-96729710D01*
X140708659Y-96776810D01*
X140708660Y-96776810D01*
X140708666Y-96776814D01*
X140875203Y-96831999D01*
X140977991Y-96842500D01*
X141978008Y-96842499D01*
X141978016Y-96842498D01*
X141978019Y-96842498D01*
X142034522Y-96836726D01*
X142080797Y-96831999D01*
X142247334Y-96776814D01*
X142396656Y-96684712D01*
X142406319Y-96675049D01*
X142467642Y-96641564D01*
X142537334Y-96646548D01*
G37*
%TD.AperFunction*%
%TA.AperFunction,Conductor*%
G36*
X149713484Y-96582396D02*
G01*
X149762482Y-96618361D01*
X149763548Y-96617380D01*
X149803733Y-96661033D01*
X149834655Y-96723687D01*
X149826795Y-96793113D01*
X149808047Y-96824055D01*
X149779712Y-96858308D01*
X149775778Y-96862631D01*
X149095208Y-97543199D01*
X149082951Y-97553020D01*
X149083134Y-97553241D01*
X149077123Y-97558213D01*
X149029772Y-97608636D01*
X149008889Y-97629519D01*
X149008877Y-97629532D01*
X149004621Y-97635017D01*
X149000837Y-97639447D01*
X148968937Y-97673418D01*
X148968936Y-97673420D01*
X148959284Y-97690976D01*
X148948610Y-97707226D01*
X148936329Y-97723061D01*
X148936324Y-97723068D01*
X148917815Y-97765838D01*
X148915245Y-97771084D01*
X148892803Y-97811906D01*
X148887822Y-97831307D01*
X148881521Y-97849710D01*
X148873562Y-97868102D01*
X148873561Y-97868105D01*
X148866271Y-97914127D01*
X148865087Y-97919846D01*
X148853501Y-97964972D01*
X148853500Y-97964982D01*
X148853500Y-97985016D01*
X148851973Y-98004413D01*
X148848840Y-98024196D01*
X148850170Y-98038262D01*
X148853225Y-98070583D01*
X148853500Y-98076421D01*
X148853500Y-99130547D01*
X148833815Y-99197586D01*
X148817181Y-99218228D01*
X148240228Y-99795181D01*
X148178905Y-99828666D01*
X148152547Y-99831500D01*
X147876881Y-99831500D01*
X147809842Y-99811815D01*
X147764087Y-99759011D01*
X147754143Y-99689853D01*
X147759175Y-99668496D01*
X147771999Y-99629797D01*
X147782500Y-99527008D01*
X147782500Y-97576992D01*
X147771999Y-97474203D01*
X147716814Y-97307666D01*
X147685732Y-97257275D01*
X147624713Y-97158348D01*
X147624710Y-97158344D01*
X147500655Y-97034289D01*
X147500651Y-97034286D01*
X147376383Y-96957636D01*
X147329658Y-96905688D01*
X147318437Y-96836726D01*
X147346280Y-96772644D01*
X147376380Y-96746562D01*
X147476656Y-96684712D01*
X147486319Y-96675049D01*
X147547642Y-96641564D01*
X147617334Y-96646548D01*
X147661681Y-96675049D01*
X147671344Y-96684712D01*
X147820666Y-96776814D01*
X147987203Y-96831999D01*
X148089991Y-96842500D01*
X149090008Y-96842499D01*
X149090016Y-96842498D01*
X149090019Y-96842498D01*
X149146522Y-96836726D01*
X149192797Y-96831999D01*
X149359334Y-96776814D01*
X149508656Y-96684712D01*
X149582473Y-96610894D01*
X149643792Y-96577412D01*
X149713484Y-96582396D01*
G37*
%TD.AperFunction*%
%TA.AperFunction,Conductor*%
G36*
X130349703Y-97803590D02*
G01*
X130370070Y-97826174D01*
X130471868Y-97971555D01*
X130628445Y-98128132D01*
X130809833Y-98255142D01*
X130933682Y-98312893D01*
X130986122Y-98359065D01*
X131005274Y-98426258D01*
X130985059Y-98493139D01*
X130933683Y-98537657D01*
X130810084Y-98595293D01*
X130744657Y-98641104D01*
X131303634Y-99200081D01*
X131299839Y-99200627D01*
X131166438Y-99261549D01*
X131055605Y-99357587D01*
X130976318Y-99480960D01*
X130953866Y-99557419D01*
X130391103Y-98994656D01*
X130370076Y-99024689D01*
X130315500Y-99068315D01*
X130246001Y-99075509D01*
X130183646Y-99043987D01*
X130148232Y-98983758D01*
X130144500Y-98953567D01*
X130144500Y-97897303D01*
X130164185Y-97830264D01*
X130216989Y-97784509D01*
X130286147Y-97774565D01*
X130349703Y-97803590D01*
G37*
%TD.AperFunction*%
%TA.AperFunction,Conductor*%
G36*
X158026539Y-77007585D02*
G01*
X158072294Y-77060389D01*
X158083500Y-77111900D01*
X158083500Y-83171534D01*
X158063815Y-83238573D01*
X158011011Y-83284328D01*
X157941853Y-83294272D01*
X157885190Y-83270801D01*
X157852335Y-83246206D01*
X157852328Y-83246202D01*
X157717482Y-83195908D01*
X157717483Y-83195908D01*
X157657883Y-83189501D01*
X157657881Y-83189500D01*
X157657873Y-83189500D01*
X157657864Y-83189500D01*
X156032129Y-83189500D01*
X156032123Y-83189501D01*
X155972516Y-83195908D01*
X155837671Y-83246202D01*
X155837664Y-83246206D01*
X155722455Y-83332452D01*
X155722452Y-83332455D01*
X155636206Y-83447664D01*
X155636202Y-83447671D01*
X155585908Y-83582517D01*
X155579501Y-83642116D01*
X155579500Y-83642135D01*
X155579500Y-85267870D01*
X155579501Y-85267876D01*
X155585908Y-85327483D01*
X155636202Y-85462328D01*
X155636206Y-85462335D01*
X155722452Y-85577544D01*
X155722455Y-85577547D01*
X155837664Y-85663793D01*
X155837671Y-85663797D01*
X155972517Y-85714091D01*
X155972516Y-85714091D01*
X155979444Y-85714835D01*
X156032127Y-85720500D01*
X156065564Y-85720499D01*
X156132601Y-85740182D01*
X156178357Y-85792984D01*
X156188302Y-85862143D01*
X156159279Y-85925699D01*
X156136689Y-85946073D01*
X156028447Y-86021866D01*
X156028441Y-86021871D01*
X155871868Y-86178444D01*
X155744857Y-86359834D01*
X155744856Y-86359836D01*
X155651279Y-86560513D01*
X155651275Y-86560524D01*
X155593965Y-86774407D01*
X155593964Y-86774414D01*
X155574666Y-86994998D01*
X155574666Y-86995001D01*
X155593964Y-87215585D01*
X155593965Y-87215592D01*
X155651275Y-87429475D01*
X155651279Y-87429486D01*
X155737583Y-87614565D01*
X155744858Y-87630167D01*
X155871868Y-87811555D01*
X156028445Y-87968132D01*
X156209833Y-88095142D01*
X156271828Y-88124050D01*
X156333091Y-88152618D01*
X156385531Y-88198790D01*
X156404683Y-88265983D01*
X156384467Y-88332865D01*
X156333091Y-88377382D01*
X156209836Y-88434856D01*
X156209834Y-88434857D01*
X156028444Y-88561868D01*
X155871868Y-88718444D01*
X155744857Y-88899833D01*
X155665889Y-89069182D01*
X155619717Y-89121621D01*
X155552523Y-89140773D01*
X155485642Y-89120557D01*
X155465826Y-89104458D01*
X155350657Y-88989289D01*
X155350656Y-88989288D01*
X155217967Y-88907445D01*
X155201336Y-88897187D01*
X155201331Y-88897185D01*
X155199862Y-88896698D01*
X155034797Y-88842001D01*
X155034795Y-88842000D01*
X154932010Y-88831500D01*
X153931998Y-88831500D01*
X153931980Y-88831501D01*
X153829203Y-88842000D01*
X153829200Y-88842001D01*
X153662668Y-88897185D01*
X153662663Y-88897187D01*
X153513342Y-88989289D01*
X153389289Y-89113342D01*
X153297187Y-89262663D01*
X153297185Y-89262668D01*
X153294305Y-89271360D01*
X153242001Y-89429203D01*
X153242001Y-89429204D01*
X153242000Y-89429204D01*
X153231500Y-89531983D01*
X153231500Y-89650893D01*
X153211815Y-89717932D01*
X153159011Y-89763687D01*
X153089853Y-89773631D01*
X153033189Y-89750159D01*
X152917093Y-89663249D01*
X152917086Y-89663245D01*
X152782379Y-89613003D01*
X152782372Y-89613001D01*
X152722844Y-89606600D01*
X152225000Y-89606600D01*
X152225000Y-91032600D01*
X152205315Y-91099639D01*
X152152511Y-91145394D01*
X152101000Y-91156600D01*
X151849000Y-91156600D01*
X151781961Y-91136915D01*
X151736206Y-91084111D01*
X151725000Y-91032600D01*
X151725000Y-89606600D01*
X151227155Y-89606600D01*
X151167627Y-89613001D01*
X151167620Y-89613003D01*
X151032913Y-89663245D01*
X151032906Y-89663249D01*
X150917812Y-89749409D01*
X150917809Y-89749412D01*
X150831649Y-89864506D01*
X150831645Y-89864513D01*
X150781403Y-89999220D01*
X150781401Y-89999227D01*
X150775000Y-90058755D01*
X150775000Y-90082100D01*
X150755315Y-90149139D01*
X150702511Y-90194894D01*
X150651000Y-90206100D01*
X150277130Y-90206100D01*
X150277123Y-90206101D01*
X150217516Y-90212508D01*
X150168332Y-90230853D01*
X150098640Y-90235837D01*
X150081667Y-90230853D01*
X150032482Y-90212508D01*
X150032483Y-90212508D01*
X149972883Y-90206101D01*
X149972881Y-90206100D01*
X149972873Y-90206100D01*
X149972864Y-90206100D01*
X149177129Y-90206100D01*
X149177123Y-90206101D01*
X149117516Y-90212508D01*
X149068332Y-90230853D01*
X148998640Y-90235837D01*
X148981667Y-90230853D01*
X148932482Y-90212508D01*
X148932483Y-90212508D01*
X148872883Y-90206101D01*
X148872881Y-90206100D01*
X148872873Y-90206100D01*
X148872864Y-90206100D01*
X148077129Y-90206100D01*
X148077123Y-90206101D01*
X148017517Y-90212508D01*
X147967616Y-90231120D01*
X147897925Y-90236103D01*
X147880953Y-90231119D01*
X147832383Y-90213003D01*
X147832372Y-90213001D01*
X147772844Y-90206600D01*
X147625000Y-90206600D01*
X147625000Y-90650746D01*
X147624645Y-90657377D01*
X147624500Y-90658722D01*
X147624500Y-91632600D01*
X147604815Y-91699639D01*
X147552011Y-91745394D01*
X147500500Y-91756600D01*
X147249500Y-91756600D01*
X147182461Y-91736915D01*
X147136706Y-91684111D01*
X147125500Y-91632600D01*
X147125499Y-90658729D01*
X147125498Y-90658718D01*
X147125355Y-90657385D01*
X147125000Y-90650755D01*
X147125000Y-90206600D01*
X147108786Y-90190386D01*
X147096964Y-90186915D01*
X147051209Y-90134111D01*
X147046961Y-90123554D01*
X147029788Y-90074476D01*
X146963814Y-89969480D01*
X146933816Y-89921738D01*
X146806262Y-89794184D01*
X146773552Y-89773631D01*
X146653523Y-89698211D01*
X146483254Y-89638631D01*
X146483249Y-89638630D01*
X146304004Y-89618435D01*
X146303996Y-89618435D01*
X146124746Y-89638631D01*
X146124567Y-89638694D01*
X146124443Y-89638700D01*
X146117956Y-89640181D01*
X146117696Y-89639044D01*
X146054788Y-89642253D01*
X145994162Y-89607523D01*
X145987763Y-89600316D01*
X145871883Y-89459116D01*
X145719539Y-89334090D01*
X145719532Y-89334086D01*
X145545733Y-89241188D01*
X145545727Y-89241186D01*
X145357132Y-89183976D01*
X145357129Y-89183975D01*
X145161000Y-89164659D01*
X144964870Y-89183975D01*
X144776266Y-89241188D01*
X144602467Y-89334086D01*
X144602460Y-89334090D01*
X144450116Y-89459116D01*
X144325090Y-89611460D01*
X144325086Y-89611467D01*
X144232188Y-89785266D01*
X144174975Y-89973870D01*
X144163119Y-90094254D01*
X144136958Y-90159041D01*
X144079924Y-90199400D01*
X144039716Y-90206100D01*
X143677130Y-90206100D01*
X143677123Y-90206101D01*
X143617516Y-90212508D01*
X143568332Y-90230853D01*
X143498640Y-90235837D01*
X143481667Y-90230853D01*
X143432482Y-90212508D01*
X143432483Y-90212508D01*
X143372883Y-90206101D01*
X143372881Y-90206100D01*
X143372873Y-90206100D01*
X143372864Y-90206100D01*
X142577129Y-90206100D01*
X142577123Y-90206101D01*
X142517516Y-90212508D01*
X142468332Y-90230853D01*
X142398640Y-90235837D01*
X142381667Y-90230853D01*
X142332482Y-90212508D01*
X142332483Y-90212508D01*
X142272883Y-90206101D01*
X142272881Y-90206100D01*
X142272873Y-90206100D01*
X142272864Y-90206100D01*
X141477129Y-90206100D01*
X141477123Y-90206101D01*
X141417516Y-90212508D01*
X141282671Y-90262802D01*
X141282664Y-90262806D01*
X141167455Y-90349052D01*
X141167452Y-90349055D01*
X141081206Y-90464264D01*
X141081202Y-90464271D01*
X141030908Y-90599117D01*
X141024501Y-90658716D01*
X141024500Y-90658735D01*
X141024500Y-91719546D01*
X141004815Y-91786585D01*
X140988181Y-91807227D01*
X140640228Y-92155181D01*
X140578905Y-92188666D01*
X140552547Y-92191500D01*
X140453743Y-92191500D01*
X140438122Y-92189775D01*
X140438095Y-92190061D01*
X140430333Y-92189326D01*
X140361172Y-92191500D01*
X140331649Y-92191500D01*
X140324778Y-92192367D01*
X140318959Y-92192825D01*
X140272374Y-92194289D01*
X140272368Y-92194290D01*
X140253126Y-92199880D01*
X140234087Y-92203823D01*
X140214217Y-92206334D01*
X140214203Y-92206337D01*
X140170883Y-92223488D01*
X140165358Y-92225380D01*
X140120613Y-92238380D01*
X140120610Y-92238381D01*
X140103366Y-92248579D01*
X140085905Y-92257133D01*
X140067274Y-92264510D01*
X140067262Y-92264517D01*
X140029570Y-92291902D01*
X140024687Y-92295109D01*
X139984580Y-92318829D01*
X139970414Y-92332995D01*
X139955624Y-92345627D01*
X139939414Y-92357404D01*
X139939411Y-92357407D01*
X139909710Y-92393309D01*
X139905777Y-92397631D01*
X139698227Y-92605181D01*
X139636904Y-92638666D01*
X139610546Y-92641500D01*
X138945998Y-92641500D01*
X138945980Y-92641501D01*
X138843203Y-92652000D01*
X138843200Y-92652001D01*
X138676668Y-92707185D01*
X138676663Y-92707187D01*
X138527342Y-92799289D01*
X138403289Y-92923342D01*
X138311187Y-93072663D01*
X138311186Y-93072666D01*
X138256001Y-93239203D01*
X138256001Y-93239204D01*
X138256000Y-93239204D01*
X138245500Y-93341983D01*
X138245500Y-94142001D01*
X138245501Y-94142019D01*
X138256000Y-94244796D01*
X138256001Y-94244799D01*
X138295471Y-94363909D01*
X138311186Y-94411334D01*
X138401649Y-94557999D01*
X138403289Y-94560657D01*
X138496951Y-94654319D01*
X138530436Y-94715642D01*
X138525452Y-94785334D01*
X138496951Y-94829681D01*
X138403288Y-94923343D01*
X138403287Y-94923344D01*
X138377024Y-94965924D01*
X138325076Y-95012648D01*
X138256113Y-95023869D01*
X138230531Y-95017867D01*
X138101262Y-94972633D01*
X138101249Y-94972630D01*
X137922004Y-94952435D01*
X137921996Y-94952435D01*
X137742750Y-94972630D01*
X137742745Y-94972631D01*
X137572476Y-95032211D01*
X137419737Y-95128184D01*
X137292184Y-95255737D01*
X137196211Y-95408476D01*
X137136631Y-95578745D01*
X137136630Y-95578750D01*
X137116435Y-95757996D01*
X137116435Y-95758003D01*
X137136630Y-95937249D01*
X137136633Y-95937262D01*
X137197268Y-96110545D01*
X137200830Y-96180324D01*
X137166102Y-96240951D01*
X137104108Y-96273179D01*
X137080227Y-96275500D01*
X136454453Y-96275500D01*
X136387414Y-96255815D01*
X136366772Y-96239181D01*
X134892988Y-94765397D01*
X134859503Y-94704074D01*
X134864487Y-94634382D01*
X134906359Y-94578449D01*
X134971823Y-94554032D01*
X134991892Y-94554225D01*
X135033430Y-94557999D01*
X135639999Y-94557999D01*
X135640000Y-94557998D01*
X135640000Y-93908000D01*
X136140000Y-93908000D01*
X136140000Y-94557999D01*
X136746581Y-94557999D01*
X136817102Y-94551591D01*
X136817107Y-94551590D01*
X136979396Y-94501018D01*
X137124877Y-94413072D01*
X137245072Y-94292877D01*
X137333019Y-94147395D01*
X137383590Y-93985106D01*
X137390000Y-93914572D01*
X137390000Y-93908000D01*
X136140000Y-93908000D01*
X135640000Y-93908000D01*
X135640000Y-92758000D01*
X136140000Y-92758000D01*
X136140000Y-93408000D01*
X137389999Y-93408000D01*
X137389999Y-93401417D01*
X137383591Y-93330897D01*
X137383590Y-93330892D01*
X137333018Y-93168603D01*
X137245072Y-93023122D01*
X137124877Y-92902927D01*
X136979395Y-92814980D01*
X136979396Y-92814980D01*
X136817105Y-92764409D01*
X136817106Y-92764409D01*
X136746572Y-92758000D01*
X136140000Y-92758000D01*
X135640000Y-92758000D01*
X135112619Y-92758000D01*
X135045580Y-92738315D01*
X134999825Y-92685511D01*
X134989881Y-92616353D01*
X134994910Y-92595008D01*
X135047999Y-92434797D01*
X135058500Y-92332009D01*
X135058499Y-91531992D01*
X135047999Y-91429203D01*
X134992814Y-91262666D01*
X134989072Y-91256600D01*
X135775000Y-91256600D01*
X135775000Y-91754444D01*
X135781401Y-91813972D01*
X135781403Y-91813979D01*
X135831645Y-91948686D01*
X135831649Y-91948693D01*
X135917809Y-92063787D01*
X135917812Y-92063790D01*
X136032906Y-92149950D01*
X136032913Y-92149954D01*
X136167620Y-92200196D01*
X136167627Y-92200198D01*
X136227155Y-92206599D01*
X136227172Y-92206600D01*
X136925000Y-92206600D01*
X136925000Y-91256600D01*
X137425000Y-91256600D01*
X137425000Y-92206600D01*
X138122828Y-92206600D01*
X138122844Y-92206599D01*
X138182372Y-92200198D01*
X138182379Y-92200196D01*
X138317086Y-92149954D01*
X138317093Y-92149950D01*
X138432187Y-92063790D01*
X138432190Y-92063787D01*
X138518350Y-91948693D01*
X138518354Y-91948686D01*
X138568596Y-91813979D01*
X138568598Y-91813972D01*
X138574999Y-91754444D01*
X138575000Y-91754427D01*
X138575000Y-91256600D01*
X137425000Y-91256600D01*
X136925000Y-91256600D01*
X135775000Y-91256600D01*
X134989072Y-91256600D01*
X134900712Y-91113344D01*
X134807049Y-91019681D01*
X134773564Y-90958358D01*
X134778548Y-90888666D01*
X134807049Y-90844319D01*
X134847351Y-90804017D01*
X134894768Y-90756600D01*
X135775000Y-90756600D01*
X136925000Y-90756600D01*
X136925000Y-89806600D01*
X137425000Y-89806600D01*
X137425000Y-90756600D01*
X138575000Y-90756600D01*
X138575000Y-90258772D01*
X138574999Y-90258755D01*
X138568598Y-90199227D01*
X138568596Y-90199220D01*
X138518354Y-90064513D01*
X138518350Y-90064506D01*
X138432190Y-89949412D01*
X138432187Y-89949409D01*
X138317093Y-89863249D01*
X138317086Y-89863245D01*
X138182379Y-89813003D01*
X138182372Y-89813001D01*
X138122844Y-89806600D01*
X137425000Y-89806600D01*
X136925000Y-89806600D01*
X136227155Y-89806600D01*
X136167627Y-89813001D01*
X136167620Y-89813003D01*
X136032913Y-89863245D01*
X136032906Y-89863249D01*
X135917812Y-89949409D01*
X135917809Y-89949412D01*
X135831649Y-90064506D01*
X135831645Y-90064513D01*
X135781403Y-90199220D01*
X135781401Y-90199227D01*
X135775000Y-90258755D01*
X135775000Y-90756600D01*
X134894768Y-90756600D01*
X134900712Y-90750656D01*
X134992814Y-90601334D01*
X135047999Y-90434797D01*
X135058500Y-90332009D01*
X135058499Y-89531992D01*
X135047999Y-89429203D01*
X134992814Y-89262666D01*
X134900712Y-89113344D01*
X134776656Y-88989288D01*
X134643967Y-88907445D01*
X134627336Y-88897187D01*
X134627331Y-88897185D01*
X134625862Y-88896698D01*
X134460797Y-88842001D01*
X134460795Y-88842000D01*
X134358010Y-88831500D01*
X133357998Y-88831500D01*
X133357980Y-88831501D01*
X133255203Y-88842000D01*
X133255200Y-88842001D01*
X133088668Y-88897185D01*
X133088663Y-88897187D01*
X132939345Y-88989287D01*
X132824173Y-89104459D01*
X132762850Y-89137943D01*
X132693158Y-89132959D01*
X132637225Y-89091087D01*
X132624110Y-89069181D01*
X132552045Y-88914637D01*
X132545142Y-88899833D01*
X132418132Y-88718445D01*
X132261555Y-88561868D01*
X132080167Y-88434858D01*
X131956907Y-88377381D01*
X131904468Y-88331210D01*
X131885316Y-88264017D01*
X131905531Y-88197136D01*
X131956908Y-88152618D01*
X132080167Y-88095142D01*
X132261555Y-87968132D01*
X132418132Y-87811555D01*
X132545142Y-87630167D01*
X132638723Y-87429480D01*
X132696035Y-87215591D01*
X132715334Y-86995000D01*
X132696035Y-86774409D01*
X132638723Y-86560520D01*
X132545142Y-86359833D01*
X132418132Y-86178445D01*
X132261555Y-86021868D01*
X132080167Y-85894858D01*
X132080163Y-85894856D01*
X131956317Y-85837106D01*
X131903877Y-85790934D01*
X131884725Y-85723741D01*
X131904941Y-85656859D01*
X131956317Y-85612342D01*
X132079912Y-85554708D01*
X132079914Y-85554707D01*
X132145342Y-85508894D01*
X131586366Y-84949918D01*
X131590161Y-84949373D01*
X131723562Y-84888451D01*
X131834395Y-84792413D01*
X131913682Y-84669040D01*
X131936133Y-84592580D01*
X132498894Y-85155342D01*
X132544706Y-85089915D01*
X132638250Y-84889309D01*
X132638254Y-84889300D01*
X132695538Y-84675509D01*
X132695540Y-84675499D01*
X132714832Y-84455000D01*
X132714832Y-84454999D01*
X132695540Y-84234500D01*
X132695538Y-84234490D01*
X132638254Y-84020699D01*
X132638250Y-84020690D01*
X132544707Y-83820085D01*
X132544706Y-83820083D01*
X132498894Y-83754657D01*
X132498894Y-83754656D01*
X131936132Y-84317418D01*
X131913682Y-84240960D01*
X131834395Y-84117587D01*
X131723562Y-84021549D01*
X131590161Y-83960627D01*
X131586366Y-83960081D01*
X132145342Y-83401105D01*
X132145341Y-83401103D01*
X132079919Y-83355295D01*
X131879309Y-83261749D01*
X131879300Y-83261745D01*
X131665509Y-83204461D01*
X131665499Y-83204459D01*
X131445001Y-83185168D01*
X131444999Y-83185168D01*
X131224500Y-83204459D01*
X131224490Y-83204461D01*
X131010699Y-83261745D01*
X131010690Y-83261749D01*
X130810084Y-83355293D01*
X130744657Y-83401104D01*
X131303634Y-83960081D01*
X131299839Y-83960627D01*
X131166438Y-84021549D01*
X131055605Y-84117587D01*
X130976318Y-84240960D01*
X130953866Y-84317419D01*
X130391103Y-83754656D01*
X130370076Y-83784689D01*
X130315500Y-83828315D01*
X130246001Y-83835509D01*
X130183646Y-83803987D01*
X130148232Y-83743758D01*
X130144500Y-83713567D01*
X130144500Y-81656600D01*
X135075000Y-81656600D01*
X135075000Y-82554444D01*
X135081401Y-82613972D01*
X135081403Y-82613979D01*
X135131645Y-82748686D01*
X135131649Y-82748693D01*
X135217809Y-82863787D01*
X135217812Y-82863790D01*
X135332906Y-82949950D01*
X135332913Y-82949954D01*
X135467620Y-83000196D01*
X135467627Y-83000198D01*
X135527155Y-83006599D01*
X135527172Y-83006600D01*
X136025000Y-83006600D01*
X136025000Y-81656600D01*
X136525000Y-81656600D01*
X136525000Y-83006600D01*
X137022828Y-83006600D01*
X137022844Y-83006599D01*
X137082372Y-83000198D01*
X137082379Y-83000196D01*
X137217086Y-82949954D01*
X137217093Y-82949950D01*
X137332187Y-82863790D01*
X137332190Y-82863787D01*
X137418350Y-82748693D01*
X137418354Y-82748686D01*
X137468596Y-82613979D01*
X137468598Y-82613972D01*
X137474999Y-82554444D01*
X137475000Y-82554427D01*
X137475000Y-81656600D01*
X136525000Y-81656600D01*
X136025000Y-81656600D01*
X135075000Y-81656600D01*
X130144500Y-81656600D01*
X130144500Y-79883000D01*
X130982551Y-79883000D01*
X131002317Y-80134151D01*
X131061126Y-80379110D01*
X131157533Y-80611859D01*
X131289160Y-80826653D01*
X131289161Y-80826656D01*
X131289164Y-80826659D01*
X131452776Y-81018224D01*
X131538753Y-81091655D01*
X131644343Y-81181838D01*
X131644346Y-81181839D01*
X131859140Y-81313466D01*
X132086037Y-81407449D01*
X132091889Y-81409873D01*
X132336852Y-81468683D01*
X132492950Y-81480968D01*
X132525116Y-81483500D01*
X132525118Y-81483500D01*
X132650884Y-81483500D01*
X132680518Y-81481167D01*
X132839148Y-81468683D01*
X133084111Y-81409873D01*
X133316859Y-81313466D01*
X133531659Y-81181836D01*
X133561207Y-81156600D01*
X135075000Y-81156600D01*
X136025000Y-81156600D01*
X136025000Y-79806600D01*
X136525000Y-79806600D01*
X136525000Y-81156600D01*
X137475000Y-81156600D01*
X137475000Y-81091655D01*
X140374500Y-81091655D01*
X140415210Y-81256826D01*
X140494263Y-81407449D01*
X140523026Y-81439916D01*
X140607071Y-81534783D01*
X140697318Y-81597076D01*
X140747068Y-81631417D01*
X140747069Y-81631417D01*
X140747070Y-81631418D01*
X140906128Y-81691740D01*
X140982028Y-81700956D01*
X141032626Y-81707100D01*
X141032628Y-81707100D01*
X141117374Y-81707100D01*
X141159538Y-81701980D01*
X141243872Y-81691740D01*
X141402930Y-81631418D01*
X141542929Y-81534783D01*
X141655734Y-81407452D01*
X141734790Y-81256825D01*
X141775500Y-81091656D01*
X141775500Y-81091655D01*
X148374500Y-81091655D01*
X148415210Y-81256826D01*
X148494263Y-81407449D01*
X148523026Y-81439916D01*
X148607071Y-81534783D01*
X148697318Y-81597076D01*
X148747068Y-81631417D01*
X148747069Y-81631417D01*
X148747070Y-81631418D01*
X148906128Y-81691740D01*
X148982028Y-81700956D01*
X149032626Y-81707100D01*
X149032628Y-81707100D01*
X149117374Y-81707100D01*
X149159538Y-81701980D01*
X149243872Y-81691740D01*
X149336530Y-81656600D01*
X150775000Y-81656600D01*
X150775000Y-82554444D01*
X150781401Y-82613972D01*
X150781403Y-82613979D01*
X150831645Y-82748686D01*
X150831649Y-82748693D01*
X150917809Y-82863787D01*
X150917812Y-82863790D01*
X151032906Y-82949950D01*
X151032913Y-82949954D01*
X151167620Y-83000196D01*
X151167627Y-83000198D01*
X151227155Y-83006599D01*
X151227172Y-83006600D01*
X151725000Y-83006600D01*
X151725000Y-81656600D01*
X152225000Y-81656600D01*
X152225000Y-83006600D01*
X152722828Y-83006600D01*
X152722844Y-83006599D01*
X152782372Y-83000198D01*
X152782379Y-83000196D01*
X152917086Y-82949954D01*
X152917093Y-82949950D01*
X153032187Y-82863790D01*
X153032190Y-82863787D01*
X153118350Y-82748693D01*
X153118354Y-82748686D01*
X153168596Y-82613979D01*
X153168598Y-82613972D01*
X153174999Y-82554444D01*
X153175000Y-82554427D01*
X153175000Y-81656600D01*
X152225000Y-81656600D01*
X151725000Y-81656600D01*
X150775000Y-81656600D01*
X149336530Y-81656600D01*
X149402930Y-81631418D01*
X149542929Y-81534783D01*
X149655734Y-81407452D01*
X149734790Y-81256825D01*
X149759493Y-81156600D01*
X150775000Y-81156600D01*
X151725000Y-81156600D01*
X151725000Y-79806600D01*
X152225000Y-79806600D01*
X152225000Y-81156600D01*
X153175000Y-81156600D01*
X153175000Y-80258772D01*
X153174999Y-80258755D01*
X153168598Y-80199227D01*
X153168596Y-80199220D01*
X153118354Y-80064513D01*
X153118350Y-80064506D01*
X153032190Y-79949412D01*
X153032187Y-79949409D01*
X152943477Y-79883000D01*
X154096551Y-79883000D01*
X154116317Y-80134151D01*
X154175126Y-80379110D01*
X154271533Y-80611859D01*
X154403160Y-80826653D01*
X154403161Y-80826656D01*
X154403164Y-80826659D01*
X154566776Y-81018224D01*
X154652753Y-81091655D01*
X154758343Y-81181838D01*
X154758346Y-81181839D01*
X154973140Y-81313466D01*
X155200037Y-81407449D01*
X155205889Y-81409873D01*
X155450852Y-81468683D01*
X155606950Y-81480968D01*
X155639116Y-81483500D01*
X155639118Y-81483500D01*
X155764884Y-81483500D01*
X155794518Y-81481167D01*
X155953148Y-81468683D01*
X156198111Y-81409873D01*
X156430859Y-81313466D01*
X156645659Y-81181836D01*
X156837224Y-81018224D01*
X157000836Y-80826659D01*
X157132466Y-80611859D01*
X157228873Y-80379111D01*
X157287683Y-80134148D01*
X157307449Y-79883000D01*
X157287683Y-79631852D01*
X157228873Y-79386889D01*
X157132466Y-79154141D01*
X157132466Y-79154140D01*
X157000839Y-78939346D01*
X157000838Y-78939343D01*
X156963875Y-78896066D01*
X156837224Y-78747776D01*
X156710571Y-78639604D01*
X156645656Y-78584161D01*
X156645653Y-78584160D01*
X156430859Y-78452533D01*
X156198110Y-78356126D01*
X155953150Y-78297317D01*
X155764884Y-78282500D01*
X155764882Y-78282500D01*
X155639118Y-78282500D01*
X155639116Y-78282500D01*
X155450849Y-78297317D01*
X155205889Y-78356126D01*
X154973140Y-78452533D01*
X154758346Y-78584160D01*
X154758343Y-78584161D01*
X154566776Y-78747776D01*
X154403161Y-78939343D01*
X154403160Y-78939346D01*
X154271533Y-79154140D01*
X154175126Y-79386889D01*
X154116317Y-79631848D01*
X154096551Y-79883000D01*
X152943477Y-79883000D01*
X152917093Y-79863249D01*
X152917086Y-79863245D01*
X152782379Y-79813003D01*
X152782372Y-79813001D01*
X152722844Y-79806600D01*
X152225000Y-79806600D01*
X151725000Y-79806600D01*
X151227155Y-79806600D01*
X151167627Y-79813001D01*
X151167620Y-79813003D01*
X151032913Y-79863245D01*
X151032906Y-79863249D01*
X150917812Y-79949409D01*
X150917809Y-79949412D01*
X150831649Y-80064506D01*
X150831645Y-80064513D01*
X150781403Y-80199220D01*
X150781401Y-80199227D01*
X150775000Y-80258755D01*
X150775000Y-81156600D01*
X149759493Y-81156600D01*
X149775500Y-81091656D01*
X149775500Y-80921544D01*
X149734790Y-80756375D01*
X149734789Y-80756373D01*
X149655736Y-80605750D01*
X149636560Y-80584105D01*
X149542929Y-80478417D01*
X149493177Y-80444075D01*
X149402931Y-80381782D01*
X149243874Y-80321460D01*
X149243868Y-80321459D01*
X149117374Y-80306100D01*
X149117372Y-80306100D01*
X149032628Y-80306100D01*
X149032626Y-80306100D01*
X148906131Y-80321459D01*
X148906125Y-80321460D01*
X148747068Y-80381782D01*
X148607072Y-80478416D01*
X148494263Y-80605750D01*
X148415210Y-80756373D01*
X148374500Y-80921544D01*
X148374500Y-81091655D01*
X141775500Y-81091655D01*
X141775500Y-80921544D01*
X141734790Y-80756375D01*
X141734789Y-80756373D01*
X141655736Y-80605750D01*
X141636560Y-80584105D01*
X141542929Y-80478417D01*
X141493177Y-80444075D01*
X141402931Y-80381782D01*
X141243874Y-80321460D01*
X141243868Y-80321459D01*
X141117374Y-80306100D01*
X141117372Y-80306100D01*
X141032628Y-80306100D01*
X141032626Y-80306100D01*
X140906131Y-80321459D01*
X140906125Y-80321460D01*
X140747068Y-80381782D01*
X140607072Y-80478416D01*
X140494263Y-80605750D01*
X140415210Y-80756373D01*
X140374500Y-80921544D01*
X140374500Y-81091655D01*
X137475000Y-81091655D01*
X137475000Y-80258772D01*
X137474999Y-80258755D01*
X137468598Y-80199227D01*
X137468596Y-80199220D01*
X137418354Y-80064513D01*
X137418350Y-80064506D01*
X137332190Y-79949412D01*
X137332187Y-79949409D01*
X137217093Y-79863249D01*
X137217086Y-79863245D01*
X137082379Y-79813003D01*
X137082372Y-79813001D01*
X137022844Y-79806600D01*
X136525000Y-79806600D01*
X136025000Y-79806600D01*
X135527155Y-79806600D01*
X135467627Y-79813001D01*
X135467620Y-79813003D01*
X135332913Y-79863245D01*
X135332906Y-79863249D01*
X135217812Y-79949409D01*
X135217809Y-79949412D01*
X135131649Y-80064506D01*
X135131645Y-80064513D01*
X135081403Y-80199220D01*
X135081401Y-80199227D01*
X135075000Y-80258755D01*
X135075000Y-81156600D01*
X133561207Y-81156600D01*
X133723224Y-81018224D01*
X133886836Y-80826659D01*
X134018466Y-80611859D01*
X134114873Y-80379111D01*
X134173683Y-80134148D01*
X134193449Y-79883000D01*
X134173683Y-79631852D01*
X134114873Y-79386889D01*
X134018466Y-79154141D01*
X134018466Y-79154140D01*
X133886839Y-78939346D01*
X133886838Y-78939343D01*
X133849875Y-78896066D01*
X133723224Y-78747776D01*
X133596571Y-78639604D01*
X133531656Y-78584161D01*
X133531653Y-78584160D01*
X133316859Y-78452533D01*
X133084110Y-78356126D01*
X132839150Y-78297317D01*
X132650884Y-78282500D01*
X132650882Y-78282500D01*
X132525118Y-78282500D01*
X132525116Y-78282500D01*
X132336849Y-78297317D01*
X132091889Y-78356126D01*
X131859140Y-78452533D01*
X131644346Y-78584160D01*
X131644343Y-78584161D01*
X131452776Y-78747776D01*
X131289161Y-78939343D01*
X131289160Y-78939346D01*
X131157533Y-79154140D01*
X131061126Y-79386889D01*
X131002317Y-79631848D01*
X130982551Y-79883000D01*
X130144500Y-79883000D01*
X130144500Y-77111900D01*
X130164185Y-77044861D01*
X130216989Y-76999106D01*
X130268500Y-76987900D01*
X157959500Y-76987900D01*
X158026539Y-77007585D01*
G37*
%TD.AperFunction*%
%TA.AperFunction,Conductor*%
G36*
X130976318Y-84669040D02*
G01*
X131055605Y-84792413D01*
X131166438Y-84888451D01*
X131299839Y-84949373D01*
X131303633Y-84949918D01*
X130744656Y-85508894D01*
X130810083Y-85554706D01*
X130810085Y-85554707D01*
X130933683Y-85612342D01*
X130986122Y-85658514D01*
X131005274Y-85725708D01*
X130985058Y-85792589D01*
X130933683Y-85837106D01*
X130809833Y-85894857D01*
X130628444Y-86021868D01*
X130471868Y-86178444D01*
X130370075Y-86323820D01*
X130315497Y-86367445D01*
X130245999Y-86374637D01*
X130183644Y-86343115D01*
X130148231Y-86282885D01*
X130144500Y-86252696D01*
X130144500Y-85196432D01*
X130164185Y-85129393D01*
X130216989Y-85083638D01*
X130286147Y-85073694D01*
X130349703Y-85102719D01*
X130370075Y-85125309D01*
X130391104Y-85155341D01*
X130391105Y-85155342D01*
X130953866Y-84592580D01*
X130976318Y-84669040D01*
G37*
%TD.AperFunction*%
%TD*%
M02*
