%TF.GenerationSoftware,KiCad,Pcbnew,7.0.8*%
%TF.CreationDate,2023-10-30T21:57:11-05:00*%
%TF.ProjectId,fujinet-adam-devkit-mini,66756a69-6e65-4742-9d61-64616d2d6465,rev?*%
%TF.SameCoordinates,Original*%
%TF.FileFunction,Legend,Top*%
%TF.FilePolarity,Positive*%
%FSLAX46Y46*%
G04 Gerber Fmt 4.6, Leading zero omitted, Abs format (unit mm)*
G04 Created by KiCad (PCBNEW 7.0.8) date 2023-10-30 21:57:11*
%MOMM*%
%LPD*%
G01*
G04 APERTURE LIST*
%ADD10C,0.150000*%
%ADD11C,0.120000*%
%ADD12C,0.127000*%
%ADD13C,0.100000*%
G04 APERTURE END LIST*
D10*
X155363104Y-114871190D02*
X155363104Y-114395000D01*
X155648819Y-114966428D02*
X154648819Y-114633095D01*
X154648819Y-114633095D02*
X155648819Y-114299762D01*
X155601200Y-113537857D02*
X155648819Y-113633095D01*
X155648819Y-113633095D02*
X155648819Y-113823571D01*
X155648819Y-113823571D02*
X155601200Y-113918809D01*
X155601200Y-113918809D02*
X155553580Y-113966428D01*
X155553580Y-113966428D02*
X155458342Y-114014047D01*
X155458342Y-114014047D02*
X155172628Y-114014047D01*
X155172628Y-114014047D02*
X155077390Y-113966428D01*
X155077390Y-113966428D02*
X155029771Y-113918809D01*
X155029771Y-113918809D02*
X154982152Y-113823571D01*
X154982152Y-113823571D02*
X154982152Y-113633095D01*
X154982152Y-113633095D02*
X155029771Y-113537857D01*
X154982152Y-113252142D02*
X154982152Y-112871190D01*
X154648819Y-113109285D02*
X155505961Y-113109285D01*
X155505961Y-113109285D02*
X155601200Y-113061666D01*
X155601200Y-113061666D02*
X155648819Y-112966428D01*
X155648819Y-112966428D02*
X155648819Y-112871190D01*
X155648819Y-112537856D02*
X154982152Y-112537856D01*
X154648819Y-112537856D02*
X154696438Y-112585475D01*
X154696438Y-112585475D02*
X154744057Y-112537856D01*
X154744057Y-112537856D02*
X154696438Y-112490237D01*
X154696438Y-112490237D02*
X154648819Y-112537856D01*
X154648819Y-112537856D02*
X154744057Y-112537856D01*
X154982152Y-112156904D02*
X155648819Y-111918809D01*
X155648819Y-111918809D02*
X154982152Y-111680714D01*
X155648819Y-111299761D02*
X154982152Y-111299761D01*
X154648819Y-111299761D02*
X154696438Y-111347380D01*
X154696438Y-111347380D02*
X154744057Y-111299761D01*
X154744057Y-111299761D02*
X154696438Y-111252142D01*
X154696438Y-111252142D02*
X154648819Y-111299761D01*
X154648819Y-111299761D02*
X154744057Y-111299761D01*
X154982152Y-110966428D02*
X154982152Y-110585476D01*
X154648819Y-110823571D02*
X155505961Y-110823571D01*
X155505961Y-110823571D02*
X155601200Y-110775952D01*
X155601200Y-110775952D02*
X155648819Y-110680714D01*
X155648819Y-110680714D02*
X155648819Y-110585476D01*
X154982152Y-110347380D02*
X155648819Y-110109285D01*
X154982152Y-109871190D02*
X155648819Y-110109285D01*
X155648819Y-110109285D02*
X155886914Y-110204523D01*
X155886914Y-110204523D02*
X155934533Y-110252142D01*
X155934533Y-110252142D02*
X155982152Y-110347380D01*
X155125009Y-104449523D02*
X155172628Y-104306666D01*
X155172628Y-104306666D02*
X155220247Y-104259047D01*
X155220247Y-104259047D02*
X155315485Y-104211428D01*
X155315485Y-104211428D02*
X155458342Y-104211428D01*
X155458342Y-104211428D02*
X155553580Y-104259047D01*
X155553580Y-104259047D02*
X155601200Y-104306666D01*
X155601200Y-104306666D02*
X155648819Y-104401904D01*
X155648819Y-104401904D02*
X155648819Y-104782856D01*
X155648819Y-104782856D02*
X154648819Y-104782856D01*
X154648819Y-104782856D02*
X154648819Y-104449523D01*
X154648819Y-104449523D02*
X154696438Y-104354285D01*
X154696438Y-104354285D02*
X154744057Y-104306666D01*
X154744057Y-104306666D02*
X154839295Y-104259047D01*
X154839295Y-104259047D02*
X154934533Y-104259047D01*
X154934533Y-104259047D02*
X155029771Y-104306666D01*
X155029771Y-104306666D02*
X155077390Y-104354285D01*
X155077390Y-104354285D02*
X155125009Y-104449523D01*
X155125009Y-104449523D02*
X155125009Y-104782856D01*
X154648819Y-103925713D02*
X154648819Y-103354285D01*
X155648819Y-103639999D02*
X154648819Y-103639999D01*
X154648819Y-97091332D02*
X155648819Y-96853237D01*
X155648819Y-96853237D02*
X154934533Y-96662761D01*
X154934533Y-96662761D02*
X155648819Y-96472285D01*
X155648819Y-96472285D02*
X154648819Y-96234190D01*
X155648819Y-95853237D02*
X154982152Y-95853237D01*
X154648819Y-95853237D02*
X154696438Y-95900856D01*
X154696438Y-95900856D02*
X154744057Y-95853237D01*
X154744057Y-95853237D02*
X154696438Y-95805618D01*
X154696438Y-95805618D02*
X154648819Y-95853237D01*
X154648819Y-95853237D02*
X154744057Y-95853237D01*
X155125009Y-95043714D02*
X155125009Y-95377047D01*
X155648819Y-95377047D02*
X154648819Y-95377047D01*
X154648819Y-95377047D02*
X154648819Y-94900857D01*
X155648819Y-94519904D02*
X154982152Y-94519904D01*
X154648819Y-94519904D02*
X154696438Y-94567523D01*
X154696438Y-94567523D02*
X154744057Y-94519904D01*
X154744057Y-94519904D02*
X154696438Y-94472285D01*
X154696438Y-94472285D02*
X154648819Y-94519904D01*
X154648819Y-94519904D02*
X154744057Y-94519904D01*
X133931819Y-113760095D02*
X133455628Y-114093428D01*
X133931819Y-114331523D02*
X132931819Y-114331523D01*
X132931819Y-114331523D02*
X132931819Y-113950571D01*
X132931819Y-113950571D02*
X132979438Y-113855333D01*
X132979438Y-113855333D02*
X133027057Y-113807714D01*
X133027057Y-113807714D02*
X133122295Y-113760095D01*
X133122295Y-113760095D02*
X133265152Y-113760095D01*
X133265152Y-113760095D02*
X133360390Y-113807714D01*
X133360390Y-113807714D02*
X133408009Y-113855333D01*
X133408009Y-113855333D02*
X133455628Y-113950571D01*
X133455628Y-113950571D02*
X133455628Y-114331523D01*
X133884200Y-112950571D02*
X133931819Y-113045809D01*
X133931819Y-113045809D02*
X133931819Y-113236285D01*
X133931819Y-113236285D02*
X133884200Y-113331523D01*
X133884200Y-113331523D02*
X133788961Y-113379142D01*
X133788961Y-113379142D02*
X133408009Y-113379142D01*
X133408009Y-113379142D02*
X133312771Y-113331523D01*
X133312771Y-113331523D02*
X133265152Y-113236285D01*
X133265152Y-113236285D02*
X133265152Y-113045809D01*
X133265152Y-113045809D02*
X133312771Y-112950571D01*
X133312771Y-112950571D02*
X133408009Y-112902952D01*
X133408009Y-112902952D02*
X133503247Y-112902952D01*
X133503247Y-112902952D02*
X133598485Y-113379142D01*
X133884200Y-112521999D02*
X133931819Y-112426761D01*
X133931819Y-112426761D02*
X133931819Y-112236285D01*
X133931819Y-112236285D02*
X133884200Y-112141047D01*
X133884200Y-112141047D02*
X133788961Y-112093428D01*
X133788961Y-112093428D02*
X133741342Y-112093428D01*
X133741342Y-112093428D02*
X133646104Y-112141047D01*
X133646104Y-112141047D02*
X133598485Y-112236285D01*
X133598485Y-112236285D02*
X133598485Y-112379142D01*
X133598485Y-112379142D02*
X133550866Y-112474380D01*
X133550866Y-112474380D02*
X133455628Y-112521999D01*
X133455628Y-112521999D02*
X133408009Y-112521999D01*
X133408009Y-112521999D02*
X133312771Y-112474380D01*
X133312771Y-112474380D02*
X133265152Y-112379142D01*
X133265152Y-112379142D02*
X133265152Y-112236285D01*
X133265152Y-112236285D02*
X133312771Y-112141047D01*
X133884200Y-111283904D02*
X133931819Y-111379142D01*
X133931819Y-111379142D02*
X133931819Y-111569618D01*
X133931819Y-111569618D02*
X133884200Y-111664856D01*
X133884200Y-111664856D02*
X133788961Y-111712475D01*
X133788961Y-111712475D02*
X133408009Y-111712475D01*
X133408009Y-111712475D02*
X133312771Y-111664856D01*
X133312771Y-111664856D02*
X133265152Y-111569618D01*
X133265152Y-111569618D02*
X133265152Y-111379142D01*
X133265152Y-111379142D02*
X133312771Y-111283904D01*
X133312771Y-111283904D02*
X133408009Y-111236285D01*
X133408009Y-111236285D02*
X133503247Y-111236285D01*
X133503247Y-111236285D02*
X133598485Y-111712475D01*
X133265152Y-110950570D02*
X133265152Y-110569618D01*
X132931819Y-110807713D02*
X133788961Y-110807713D01*
X133788961Y-110807713D02*
X133884200Y-110760094D01*
X133884200Y-110760094D02*
X133931819Y-110664856D01*
X133931819Y-110664856D02*
X133931819Y-110569618D01*
X144862779Y-114804866D02*
X145624684Y-114804866D01*
X145243731Y-115185819D02*
X145243731Y-114423914D01*
X140322493Y-79006819D02*
X140322493Y-79721104D01*
X140322493Y-79721104D02*
X140274874Y-79863961D01*
X140274874Y-79863961D02*
X140179636Y-79959200D01*
X140179636Y-79959200D02*
X140036779Y-80006819D01*
X140036779Y-80006819D02*
X139941541Y-80006819D01*
X141274874Y-80006819D02*
X140798684Y-80006819D01*
X140798684Y-80006819D02*
X140798684Y-79006819D01*
X142179636Y-79911580D02*
X142132017Y-79959200D01*
X142132017Y-79959200D02*
X141989160Y-80006819D01*
X141989160Y-80006819D02*
X141893922Y-80006819D01*
X141893922Y-80006819D02*
X141751065Y-79959200D01*
X141751065Y-79959200D02*
X141655827Y-79863961D01*
X141655827Y-79863961D02*
X141608208Y-79768723D01*
X141608208Y-79768723D02*
X141560589Y-79578247D01*
X141560589Y-79578247D02*
X141560589Y-79435390D01*
X141560589Y-79435390D02*
X141608208Y-79244914D01*
X141608208Y-79244914D02*
X141655827Y-79149676D01*
X141655827Y-79149676D02*
X141751065Y-79054438D01*
X141751065Y-79054438D02*
X141893922Y-79006819D01*
X141893922Y-79006819D02*
X141989160Y-79006819D01*
X141989160Y-79006819D02*
X142132017Y-79054438D01*
X142132017Y-79054438D02*
X142179636Y-79102057D01*
X142893922Y-79006819D02*
X142893922Y-79721104D01*
X142893922Y-79721104D02*
X142846303Y-79863961D01*
X142846303Y-79863961D02*
X142751065Y-79959200D01*
X142751065Y-79959200D02*
X142608208Y-80006819D01*
X142608208Y-80006819D02*
X142512970Y-80006819D01*
X143846303Y-80006819D02*
X143370113Y-80006819D01*
X143370113Y-80006819D02*
X143370113Y-79006819D01*
X144751065Y-79911580D02*
X144703446Y-79959200D01*
X144703446Y-79959200D02*
X144560589Y-80006819D01*
X144560589Y-80006819D02*
X144465351Y-80006819D01*
X144465351Y-80006819D02*
X144322494Y-79959200D01*
X144322494Y-79959200D02*
X144227256Y-79863961D01*
X144227256Y-79863961D02*
X144179637Y-79768723D01*
X144179637Y-79768723D02*
X144132018Y-79578247D01*
X144132018Y-79578247D02*
X144132018Y-79435390D01*
X144132018Y-79435390D02*
X144179637Y-79244914D01*
X144179637Y-79244914D02*
X144227256Y-79149676D01*
X144227256Y-79149676D02*
X144322494Y-79054438D01*
X144322494Y-79054438D02*
X144465351Y-79006819D01*
X144465351Y-79006819D02*
X144560589Y-79006819D01*
X144560589Y-79006819D02*
X144703446Y-79054438D01*
X144703446Y-79054438D02*
X144751065Y-79102057D01*
X145465351Y-79006819D02*
X145465351Y-79721104D01*
X145465351Y-79721104D02*
X145417732Y-79863961D01*
X145417732Y-79863961D02*
X145322494Y-79959200D01*
X145322494Y-79959200D02*
X145179637Y-80006819D01*
X145179637Y-80006819D02*
X145084399Y-80006819D01*
X146417732Y-80006819D02*
X145941542Y-80006819D01*
X145941542Y-80006819D02*
X145941542Y-79006819D01*
X147322494Y-79911580D02*
X147274875Y-79959200D01*
X147274875Y-79959200D02*
X147132018Y-80006819D01*
X147132018Y-80006819D02*
X147036780Y-80006819D01*
X147036780Y-80006819D02*
X146893923Y-79959200D01*
X146893923Y-79959200D02*
X146798685Y-79863961D01*
X146798685Y-79863961D02*
X146751066Y-79768723D01*
X146751066Y-79768723D02*
X146703447Y-79578247D01*
X146703447Y-79578247D02*
X146703447Y-79435390D01*
X146703447Y-79435390D02*
X146751066Y-79244914D01*
X146751066Y-79244914D02*
X146798685Y-79149676D01*
X146798685Y-79149676D02*
X146893923Y-79054438D01*
X146893923Y-79054438D02*
X147036780Y-79006819D01*
X147036780Y-79006819D02*
X147132018Y-79006819D01*
X147132018Y-79006819D02*
X147274875Y-79054438D01*
X147274875Y-79054438D02*
X147322494Y-79102057D01*
X148036780Y-79006819D02*
X148036780Y-79721104D01*
X148036780Y-79721104D02*
X147989161Y-79863961D01*
X147989161Y-79863961D02*
X147893923Y-79959200D01*
X147893923Y-79959200D02*
X147751066Y-80006819D01*
X147751066Y-80006819D02*
X147655828Y-80006819D01*
X148989161Y-80006819D02*
X148512971Y-80006819D01*
X148512971Y-80006819D02*
X148512971Y-79006819D01*
X149893923Y-79911580D02*
X149846304Y-79959200D01*
X149846304Y-79959200D02*
X149703447Y-80006819D01*
X149703447Y-80006819D02*
X149608209Y-80006819D01*
X149608209Y-80006819D02*
X149465352Y-79959200D01*
X149465352Y-79959200D02*
X149370114Y-79863961D01*
X149370114Y-79863961D02*
X149322495Y-79768723D01*
X149322495Y-79768723D02*
X149274876Y-79578247D01*
X149274876Y-79578247D02*
X149274876Y-79435390D01*
X149274876Y-79435390D02*
X149322495Y-79244914D01*
X149322495Y-79244914D02*
X149370114Y-79149676D01*
X149370114Y-79149676D02*
X149465352Y-79054438D01*
X149465352Y-79054438D02*
X149608209Y-79006819D01*
X149608209Y-79006819D02*
X149703447Y-79006819D01*
X149703447Y-79006819D02*
X149846304Y-79054438D01*
X149846304Y-79054438D02*
X149893923Y-79102057D01*
X133337541Y-84166152D02*
X133575636Y-84832819D01*
X133575636Y-84832819D02*
X133813731Y-84166152D01*
X134718493Y-84832819D02*
X134147065Y-84832819D01*
X134432779Y-84832819D02*
X134432779Y-83832819D01*
X134432779Y-83832819D02*
X134337541Y-83975676D01*
X134337541Y-83975676D02*
X134242303Y-84070914D01*
X134242303Y-84070914D02*
X134147065Y-84118533D01*
X135147065Y-84737580D02*
X135194684Y-84785200D01*
X135194684Y-84785200D02*
X135147065Y-84832819D01*
X135147065Y-84832819D02*
X135099446Y-84785200D01*
X135099446Y-84785200D02*
X135147065Y-84737580D01*
X135147065Y-84737580D02*
X135147065Y-84832819D01*
X135813731Y-83832819D02*
X135908969Y-83832819D01*
X135908969Y-83832819D02*
X136004207Y-83880438D01*
X136004207Y-83880438D02*
X136051826Y-83928057D01*
X136051826Y-83928057D02*
X136099445Y-84023295D01*
X136099445Y-84023295D02*
X136147064Y-84213771D01*
X136147064Y-84213771D02*
X136147064Y-84451866D01*
X136147064Y-84451866D02*
X136099445Y-84642342D01*
X136099445Y-84642342D02*
X136051826Y-84737580D01*
X136051826Y-84737580D02*
X136004207Y-84785200D01*
X136004207Y-84785200D02*
X135908969Y-84832819D01*
X135908969Y-84832819D02*
X135813731Y-84832819D01*
X135813731Y-84832819D02*
X135718493Y-84785200D01*
X135718493Y-84785200D02*
X135670874Y-84737580D01*
X135670874Y-84737580D02*
X135623255Y-84642342D01*
X135623255Y-84642342D02*
X135575636Y-84451866D01*
X135575636Y-84451866D02*
X135575636Y-84213771D01*
X135575636Y-84213771D02*
X135623255Y-84023295D01*
X135623255Y-84023295D02*
X135670874Y-83928057D01*
X135670874Y-83928057D02*
X135718493Y-83880438D01*
X135718493Y-83880438D02*
X135813731Y-83832819D01*
X147783779Y-97532866D02*
X148545684Y-97532866D01*
X148164731Y-97913819D02*
X148164731Y-97151914D01*
X139138819Y-115450857D02*
X138662628Y-115784190D01*
X139138819Y-116022285D02*
X138138819Y-116022285D01*
X138138819Y-116022285D02*
X138138819Y-115641333D01*
X138138819Y-115641333D02*
X138186438Y-115546095D01*
X138186438Y-115546095D02*
X138234057Y-115498476D01*
X138234057Y-115498476D02*
X138329295Y-115450857D01*
X138329295Y-115450857D02*
X138472152Y-115450857D01*
X138472152Y-115450857D02*
X138567390Y-115498476D01*
X138567390Y-115498476D02*
X138615009Y-115546095D01*
X138615009Y-115546095D02*
X138662628Y-115641333D01*
X138662628Y-115641333D02*
X138662628Y-116022285D01*
X138234057Y-115069904D02*
X138186438Y-115022285D01*
X138186438Y-115022285D02*
X138138819Y-114927047D01*
X138138819Y-114927047D02*
X138138819Y-114688952D01*
X138138819Y-114688952D02*
X138186438Y-114593714D01*
X138186438Y-114593714D02*
X138234057Y-114546095D01*
X138234057Y-114546095D02*
X138329295Y-114498476D01*
X138329295Y-114498476D02*
X138424533Y-114498476D01*
X138424533Y-114498476D02*
X138567390Y-114546095D01*
X138567390Y-114546095D02*
X139138819Y-115117523D01*
X139138819Y-115117523D02*
X139138819Y-114498476D01*
X139138819Y-113546095D02*
X139138819Y-114117523D01*
X139138819Y-113831809D02*
X138138819Y-113831809D01*
X138138819Y-113831809D02*
X138281676Y-113927047D01*
X138281676Y-113927047D02*
X138376914Y-114022285D01*
X138376914Y-114022285D02*
X138424533Y-114117523D01*
X133762761Y-123232057D02*
X133667523Y-123184438D01*
X133667523Y-123184438D02*
X133572285Y-123089200D01*
X133572285Y-123089200D02*
X133429428Y-122946342D01*
X133429428Y-122946342D02*
X133334190Y-122898723D01*
X133334190Y-122898723D02*
X133238952Y-122898723D01*
X133286571Y-123136819D02*
X133191333Y-123089200D01*
X133191333Y-123089200D02*
X133096095Y-122993961D01*
X133096095Y-122993961D02*
X133048476Y-122803485D01*
X133048476Y-122803485D02*
X133048476Y-122470152D01*
X133048476Y-122470152D02*
X133096095Y-122279676D01*
X133096095Y-122279676D02*
X133191333Y-122184438D01*
X133191333Y-122184438D02*
X133286571Y-122136819D01*
X133286571Y-122136819D02*
X133477047Y-122136819D01*
X133477047Y-122136819D02*
X133572285Y-122184438D01*
X133572285Y-122184438D02*
X133667523Y-122279676D01*
X133667523Y-122279676D02*
X133715142Y-122470152D01*
X133715142Y-122470152D02*
X133715142Y-122803485D01*
X133715142Y-122803485D02*
X133667523Y-122993961D01*
X133667523Y-122993961D02*
X133572285Y-123089200D01*
X133572285Y-123089200D02*
X133477047Y-123136819D01*
X133477047Y-123136819D02*
X133286571Y-123136819D01*
X134096095Y-122232057D02*
X134143714Y-122184438D01*
X134143714Y-122184438D02*
X134238952Y-122136819D01*
X134238952Y-122136819D02*
X134477047Y-122136819D01*
X134477047Y-122136819D02*
X134572285Y-122184438D01*
X134572285Y-122184438D02*
X134619904Y-122232057D01*
X134619904Y-122232057D02*
X134667523Y-122327295D01*
X134667523Y-122327295D02*
X134667523Y-122422533D01*
X134667523Y-122422533D02*
X134619904Y-122565390D01*
X134619904Y-122565390D02*
X134048476Y-123136819D01*
X134048476Y-123136819D02*
X134667523Y-123136819D01*
X149979142Y-115389819D02*
X149645809Y-114913628D01*
X149407714Y-115389819D02*
X149407714Y-114389819D01*
X149407714Y-114389819D02*
X149788666Y-114389819D01*
X149788666Y-114389819D02*
X149883904Y-114437438D01*
X149883904Y-114437438D02*
X149931523Y-114485057D01*
X149931523Y-114485057D02*
X149979142Y-114580295D01*
X149979142Y-114580295D02*
X149979142Y-114723152D01*
X149979142Y-114723152D02*
X149931523Y-114818390D01*
X149931523Y-114818390D02*
X149883904Y-114866009D01*
X149883904Y-114866009D02*
X149788666Y-114913628D01*
X149788666Y-114913628D02*
X149407714Y-114913628D01*
X150931523Y-115389819D02*
X150360095Y-115389819D01*
X150645809Y-115389819D02*
X150645809Y-114389819D01*
X150645809Y-114389819D02*
X150550571Y-114532676D01*
X150550571Y-114532676D02*
X150455333Y-114627914D01*
X150455333Y-114627914D02*
X150360095Y-114675533D01*
X151550571Y-114389819D02*
X151645809Y-114389819D01*
X151645809Y-114389819D02*
X151741047Y-114437438D01*
X151741047Y-114437438D02*
X151788666Y-114485057D01*
X151788666Y-114485057D02*
X151836285Y-114580295D01*
X151836285Y-114580295D02*
X151883904Y-114770771D01*
X151883904Y-114770771D02*
X151883904Y-115008866D01*
X151883904Y-115008866D02*
X151836285Y-115199342D01*
X151836285Y-115199342D02*
X151788666Y-115294580D01*
X151788666Y-115294580D02*
X151741047Y-115342200D01*
X151741047Y-115342200D02*
X151645809Y-115389819D01*
X151645809Y-115389819D02*
X151550571Y-115389819D01*
X151550571Y-115389819D02*
X151455333Y-115342200D01*
X151455333Y-115342200D02*
X151407714Y-115294580D01*
X151407714Y-115294580D02*
X151360095Y-115199342D01*
X151360095Y-115199342D02*
X151312476Y-115008866D01*
X151312476Y-115008866D02*
X151312476Y-114770771D01*
X151312476Y-114770771D02*
X151360095Y-114580295D01*
X151360095Y-114580295D02*
X151407714Y-114485057D01*
X151407714Y-114485057D02*
X151455333Y-114437438D01*
X151455333Y-114437438D02*
X151550571Y-114389819D01*
X154886819Y-88177666D02*
X154410628Y-88510999D01*
X154886819Y-88749094D02*
X153886819Y-88749094D01*
X153886819Y-88749094D02*
X153886819Y-88368142D01*
X153886819Y-88368142D02*
X153934438Y-88272904D01*
X153934438Y-88272904D02*
X153982057Y-88225285D01*
X153982057Y-88225285D02*
X154077295Y-88177666D01*
X154077295Y-88177666D02*
X154220152Y-88177666D01*
X154220152Y-88177666D02*
X154315390Y-88225285D01*
X154315390Y-88225285D02*
X154363009Y-88272904D01*
X154363009Y-88272904D02*
X154410628Y-88368142D01*
X154410628Y-88368142D02*
X154410628Y-88749094D01*
X154886819Y-87225285D02*
X154886819Y-87796713D01*
X154886819Y-87510999D02*
X153886819Y-87510999D01*
X153886819Y-87510999D02*
X154029676Y-87606237D01*
X154029676Y-87606237D02*
X154124914Y-87701475D01*
X154124914Y-87701475D02*
X154172533Y-87796713D01*
X136297200Y-113780332D02*
X136344819Y-113637475D01*
X136344819Y-113637475D02*
X136344819Y-113399380D01*
X136344819Y-113399380D02*
X136297200Y-113304142D01*
X136297200Y-113304142D02*
X136249580Y-113256523D01*
X136249580Y-113256523D02*
X136154342Y-113208904D01*
X136154342Y-113208904D02*
X136059104Y-113208904D01*
X136059104Y-113208904D02*
X135963866Y-113256523D01*
X135963866Y-113256523D02*
X135916247Y-113304142D01*
X135916247Y-113304142D02*
X135868628Y-113399380D01*
X135868628Y-113399380D02*
X135821009Y-113589856D01*
X135821009Y-113589856D02*
X135773390Y-113685094D01*
X135773390Y-113685094D02*
X135725771Y-113732713D01*
X135725771Y-113732713D02*
X135630533Y-113780332D01*
X135630533Y-113780332D02*
X135535295Y-113780332D01*
X135535295Y-113780332D02*
X135440057Y-113732713D01*
X135440057Y-113732713D02*
X135392438Y-113685094D01*
X135392438Y-113685094D02*
X135344819Y-113589856D01*
X135344819Y-113589856D02*
X135344819Y-113351761D01*
X135344819Y-113351761D02*
X135392438Y-113208904D01*
X135344819Y-112875570D02*
X136344819Y-112637475D01*
X136344819Y-112637475D02*
X135630533Y-112446999D01*
X135630533Y-112446999D02*
X136344819Y-112256523D01*
X136344819Y-112256523D02*
X135344819Y-112018428D01*
X135344819Y-111732713D02*
X135344819Y-111113666D01*
X135344819Y-111113666D02*
X135725771Y-111446999D01*
X135725771Y-111446999D02*
X135725771Y-111304142D01*
X135725771Y-111304142D02*
X135773390Y-111208904D01*
X135773390Y-111208904D02*
X135821009Y-111161285D01*
X135821009Y-111161285D02*
X135916247Y-111113666D01*
X135916247Y-111113666D02*
X136154342Y-111113666D01*
X136154342Y-111113666D02*
X136249580Y-111161285D01*
X136249580Y-111161285D02*
X136297200Y-111208904D01*
X136297200Y-111208904D02*
X136344819Y-111304142D01*
X136344819Y-111304142D02*
X136344819Y-111589856D01*
X136344819Y-111589856D02*
X136297200Y-111685094D01*
X136297200Y-111685094D02*
X136249580Y-111732713D01*
X140358905Y-85036819D02*
X140358905Y-84036819D01*
X140358905Y-84036819D02*
X140739857Y-84036819D01*
X140739857Y-84036819D02*
X140835095Y-84084438D01*
X140835095Y-84084438D02*
X140882714Y-84132057D01*
X140882714Y-84132057D02*
X140930333Y-84227295D01*
X140930333Y-84227295D02*
X140930333Y-84370152D01*
X140930333Y-84370152D02*
X140882714Y-84465390D01*
X140882714Y-84465390D02*
X140835095Y-84513009D01*
X140835095Y-84513009D02*
X140739857Y-84560628D01*
X140739857Y-84560628D02*
X140358905Y-84560628D01*
X141882714Y-85036819D02*
X141311286Y-85036819D01*
X141597000Y-85036819D02*
X141597000Y-84036819D01*
X141597000Y-84036819D02*
X141501762Y-84179676D01*
X141501762Y-84179676D02*
X141406524Y-84274914D01*
X141406524Y-84274914D02*
X141311286Y-84322533D01*
X143811666Y-123406819D02*
X143811666Y-124121104D01*
X143811666Y-124121104D02*
X143764047Y-124263961D01*
X143764047Y-124263961D02*
X143668809Y-124359200D01*
X143668809Y-124359200D02*
X143525952Y-124406819D01*
X143525952Y-124406819D02*
X143430714Y-124406819D01*
X144811666Y-124406819D02*
X144240238Y-124406819D01*
X144525952Y-124406819D02*
X144525952Y-123406819D01*
X144525952Y-123406819D02*
X144430714Y-123549676D01*
X144430714Y-123549676D02*
X144335476Y-123644914D01*
X144335476Y-123644914D02*
X144240238Y-123692533D01*
X140454142Y-104848819D02*
X140120809Y-104372628D01*
X139882714Y-104848819D02*
X139882714Y-103848819D01*
X139882714Y-103848819D02*
X140263666Y-103848819D01*
X140263666Y-103848819D02*
X140358904Y-103896438D01*
X140358904Y-103896438D02*
X140406523Y-103944057D01*
X140406523Y-103944057D02*
X140454142Y-104039295D01*
X140454142Y-104039295D02*
X140454142Y-104182152D01*
X140454142Y-104182152D02*
X140406523Y-104277390D01*
X140406523Y-104277390D02*
X140358904Y-104325009D01*
X140358904Y-104325009D02*
X140263666Y-104372628D01*
X140263666Y-104372628D02*
X139882714Y-104372628D01*
X140835095Y-103944057D02*
X140882714Y-103896438D01*
X140882714Y-103896438D02*
X140977952Y-103848819D01*
X140977952Y-103848819D02*
X141216047Y-103848819D01*
X141216047Y-103848819D02*
X141311285Y-103896438D01*
X141311285Y-103896438D02*
X141358904Y-103944057D01*
X141358904Y-103944057D02*
X141406523Y-104039295D01*
X141406523Y-104039295D02*
X141406523Y-104134533D01*
X141406523Y-104134533D02*
X141358904Y-104277390D01*
X141358904Y-104277390D02*
X140787476Y-104848819D01*
X140787476Y-104848819D02*
X141406523Y-104848819D01*
X142025571Y-103848819D02*
X142120809Y-103848819D01*
X142120809Y-103848819D02*
X142216047Y-103896438D01*
X142216047Y-103896438D02*
X142263666Y-103944057D01*
X142263666Y-103944057D02*
X142311285Y-104039295D01*
X142311285Y-104039295D02*
X142358904Y-104229771D01*
X142358904Y-104229771D02*
X142358904Y-104467866D01*
X142358904Y-104467866D02*
X142311285Y-104658342D01*
X142311285Y-104658342D02*
X142263666Y-104753580D01*
X142263666Y-104753580D02*
X142216047Y-104801200D01*
X142216047Y-104801200D02*
X142120809Y-104848819D01*
X142120809Y-104848819D02*
X142025571Y-104848819D01*
X142025571Y-104848819D02*
X141930333Y-104801200D01*
X141930333Y-104801200D02*
X141882714Y-104753580D01*
X141882714Y-104753580D02*
X141835095Y-104658342D01*
X141835095Y-104658342D02*
X141787476Y-104467866D01*
X141787476Y-104467866D02*
X141787476Y-104229771D01*
X141787476Y-104229771D02*
X141835095Y-104039295D01*
X141835095Y-104039295D02*
X141882714Y-103944057D01*
X141882714Y-103944057D02*
X141930333Y-103896438D01*
X141930333Y-103896438D02*
X142025571Y-103848819D01*
X149044819Y-89320666D02*
X148568628Y-89653999D01*
X149044819Y-89892094D02*
X148044819Y-89892094D01*
X148044819Y-89892094D02*
X148044819Y-89511142D01*
X148044819Y-89511142D02*
X148092438Y-89415904D01*
X148092438Y-89415904D02*
X148140057Y-89368285D01*
X148140057Y-89368285D02*
X148235295Y-89320666D01*
X148235295Y-89320666D02*
X148378152Y-89320666D01*
X148378152Y-89320666D02*
X148473390Y-89368285D01*
X148473390Y-89368285D02*
X148521009Y-89415904D01*
X148521009Y-89415904D02*
X148568628Y-89511142D01*
X148568628Y-89511142D02*
X148568628Y-89892094D01*
X148378152Y-88463523D02*
X149044819Y-88463523D01*
X147997200Y-88701618D02*
X148711485Y-88939713D01*
X148711485Y-88939713D02*
X148711485Y-88320666D01*
X145208819Y-111512857D02*
X144732628Y-111846190D01*
X145208819Y-112084285D02*
X144208819Y-112084285D01*
X144208819Y-112084285D02*
X144208819Y-111703333D01*
X144208819Y-111703333D02*
X144256438Y-111608095D01*
X144256438Y-111608095D02*
X144304057Y-111560476D01*
X144304057Y-111560476D02*
X144399295Y-111512857D01*
X144399295Y-111512857D02*
X144542152Y-111512857D01*
X144542152Y-111512857D02*
X144637390Y-111560476D01*
X144637390Y-111560476D02*
X144685009Y-111608095D01*
X144685009Y-111608095D02*
X144732628Y-111703333D01*
X144732628Y-111703333D02*
X144732628Y-112084285D01*
X145208819Y-110560476D02*
X145208819Y-111131904D01*
X145208819Y-110846190D02*
X144208819Y-110846190D01*
X144208819Y-110846190D02*
X144351676Y-110941428D01*
X144351676Y-110941428D02*
X144446914Y-111036666D01*
X144446914Y-111036666D02*
X144494533Y-111131904D01*
X144304057Y-110179523D02*
X144256438Y-110131904D01*
X144256438Y-110131904D02*
X144208819Y-110036666D01*
X144208819Y-110036666D02*
X144208819Y-109798571D01*
X144208819Y-109798571D02*
X144256438Y-109703333D01*
X144256438Y-109703333D02*
X144304057Y-109655714D01*
X144304057Y-109655714D02*
X144399295Y-109608095D01*
X144399295Y-109608095D02*
X144494533Y-109608095D01*
X144494533Y-109608095D02*
X144637390Y-109655714D01*
X144637390Y-109655714D02*
X145208819Y-110227142D01*
X145208819Y-110227142D02*
X145208819Y-109608095D01*
X134312819Y-88288857D02*
X133836628Y-88622190D01*
X134312819Y-88860285D02*
X133312819Y-88860285D01*
X133312819Y-88860285D02*
X133312819Y-88479333D01*
X133312819Y-88479333D02*
X133360438Y-88384095D01*
X133360438Y-88384095D02*
X133408057Y-88336476D01*
X133408057Y-88336476D02*
X133503295Y-88288857D01*
X133503295Y-88288857D02*
X133646152Y-88288857D01*
X133646152Y-88288857D02*
X133741390Y-88336476D01*
X133741390Y-88336476D02*
X133789009Y-88384095D01*
X133789009Y-88384095D02*
X133836628Y-88479333D01*
X133836628Y-88479333D02*
X133836628Y-88860285D01*
X134312819Y-87336476D02*
X134312819Y-87907904D01*
X134312819Y-87622190D02*
X133312819Y-87622190D01*
X133312819Y-87622190D02*
X133455676Y-87717428D01*
X133455676Y-87717428D02*
X133550914Y-87812666D01*
X133550914Y-87812666D02*
X133598533Y-87907904D01*
X133646152Y-86479333D02*
X134312819Y-86479333D01*
X133265200Y-86717428D02*
X133979485Y-86955523D01*
X133979485Y-86955523D02*
X133979485Y-86336476D01*
X153320761Y-123486057D02*
X153225523Y-123438438D01*
X153225523Y-123438438D02*
X153130285Y-123343200D01*
X153130285Y-123343200D02*
X152987428Y-123200342D01*
X152987428Y-123200342D02*
X152892190Y-123152723D01*
X152892190Y-123152723D02*
X152796952Y-123152723D01*
X152844571Y-123390819D02*
X152749333Y-123343200D01*
X152749333Y-123343200D02*
X152654095Y-123247961D01*
X152654095Y-123247961D02*
X152606476Y-123057485D01*
X152606476Y-123057485D02*
X152606476Y-122724152D01*
X152606476Y-122724152D02*
X152654095Y-122533676D01*
X152654095Y-122533676D02*
X152749333Y-122438438D01*
X152749333Y-122438438D02*
X152844571Y-122390819D01*
X152844571Y-122390819D02*
X153035047Y-122390819D01*
X153035047Y-122390819D02*
X153130285Y-122438438D01*
X153130285Y-122438438D02*
X153225523Y-122533676D01*
X153225523Y-122533676D02*
X153273142Y-122724152D01*
X153273142Y-122724152D02*
X153273142Y-123057485D01*
X153273142Y-123057485D02*
X153225523Y-123247961D01*
X153225523Y-123247961D02*
X153130285Y-123343200D01*
X153130285Y-123343200D02*
X153035047Y-123390819D01*
X153035047Y-123390819D02*
X152844571Y-123390819D01*
X154225523Y-123390819D02*
X153654095Y-123390819D01*
X153939809Y-123390819D02*
X153939809Y-122390819D01*
X153939809Y-122390819D02*
X153844571Y-122533676D01*
X153844571Y-122533676D02*
X153749333Y-122628914D01*
X153749333Y-122628914D02*
X153654095Y-122676533D01*
X148074142Y-103070819D02*
X147740809Y-102594628D01*
X147502714Y-103070819D02*
X147502714Y-102070819D01*
X147502714Y-102070819D02*
X147883666Y-102070819D01*
X147883666Y-102070819D02*
X147978904Y-102118438D01*
X147978904Y-102118438D02*
X148026523Y-102166057D01*
X148026523Y-102166057D02*
X148074142Y-102261295D01*
X148074142Y-102261295D02*
X148074142Y-102404152D01*
X148074142Y-102404152D02*
X148026523Y-102499390D01*
X148026523Y-102499390D02*
X147978904Y-102547009D01*
X147978904Y-102547009D02*
X147883666Y-102594628D01*
X147883666Y-102594628D02*
X147502714Y-102594628D01*
X149026523Y-103070819D02*
X148455095Y-103070819D01*
X148740809Y-103070819D02*
X148740809Y-102070819D01*
X148740809Y-102070819D02*
X148645571Y-102213676D01*
X148645571Y-102213676D02*
X148550333Y-102308914D01*
X148550333Y-102308914D02*
X148455095Y-102356533D01*
X149359857Y-102070819D02*
X150026523Y-102070819D01*
X150026523Y-102070819D02*
X149597952Y-103070819D01*
X153185905Y-131772819D02*
X153185905Y-130772819D01*
X153185905Y-130772819D02*
X153424000Y-130772819D01*
X153424000Y-130772819D02*
X153566857Y-130820438D01*
X153566857Y-130820438D02*
X153662095Y-130915676D01*
X153662095Y-130915676D02*
X153709714Y-131010914D01*
X153709714Y-131010914D02*
X153757333Y-131201390D01*
X153757333Y-131201390D02*
X153757333Y-131344247D01*
X153757333Y-131344247D02*
X153709714Y-131534723D01*
X153709714Y-131534723D02*
X153662095Y-131629961D01*
X153662095Y-131629961D02*
X153566857Y-131725200D01*
X153566857Y-131725200D02*
X153424000Y-131772819D01*
X153424000Y-131772819D02*
X153185905Y-131772819D01*
X154614476Y-131106152D02*
X154614476Y-131772819D01*
X154376381Y-130725200D02*
X154138286Y-131439485D01*
X154138286Y-131439485D02*
X154757333Y-131439485D01*
X136297200Y-97091332D02*
X136344819Y-96948475D01*
X136344819Y-96948475D02*
X136344819Y-96710380D01*
X136344819Y-96710380D02*
X136297200Y-96615142D01*
X136297200Y-96615142D02*
X136249580Y-96567523D01*
X136249580Y-96567523D02*
X136154342Y-96519904D01*
X136154342Y-96519904D02*
X136059104Y-96519904D01*
X136059104Y-96519904D02*
X135963866Y-96567523D01*
X135963866Y-96567523D02*
X135916247Y-96615142D01*
X135916247Y-96615142D02*
X135868628Y-96710380D01*
X135868628Y-96710380D02*
X135821009Y-96900856D01*
X135821009Y-96900856D02*
X135773390Y-96996094D01*
X135773390Y-96996094D02*
X135725771Y-97043713D01*
X135725771Y-97043713D02*
X135630533Y-97091332D01*
X135630533Y-97091332D02*
X135535295Y-97091332D01*
X135535295Y-97091332D02*
X135440057Y-97043713D01*
X135440057Y-97043713D02*
X135392438Y-96996094D01*
X135392438Y-96996094D02*
X135344819Y-96900856D01*
X135344819Y-96900856D02*
X135344819Y-96662761D01*
X135344819Y-96662761D02*
X135392438Y-96519904D01*
X135344819Y-96186570D02*
X136344819Y-95948475D01*
X136344819Y-95948475D02*
X135630533Y-95757999D01*
X135630533Y-95757999D02*
X136344819Y-95567523D01*
X136344819Y-95567523D02*
X135344819Y-95329428D01*
X136344819Y-94424666D02*
X136344819Y-94996094D01*
X136344819Y-94710380D02*
X135344819Y-94710380D01*
X135344819Y-94710380D02*
X135487676Y-94805618D01*
X135487676Y-94805618D02*
X135582914Y-94900856D01*
X135582914Y-94900856D02*
X135630533Y-94996094D01*
X133408009Y-98043714D02*
X133455628Y-97900857D01*
X133455628Y-97900857D02*
X133503247Y-97853238D01*
X133503247Y-97853238D02*
X133598485Y-97805619D01*
X133598485Y-97805619D02*
X133741342Y-97805619D01*
X133741342Y-97805619D02*
X133836580Y-97853238D01*
X133836580Y-97853238D02*
X133884200Y-97900857D01*
X133884200Y-97900857D02*
X133931819Y-97996095D01*
X133931819Y-97996095D02*
X133931819Y-98377047D01*
X133931819Y-98377047D02*
X132931819Y-98377047D01*
X132931819Y-98377047D02*
X132931819Y-98043714D01*
X132931819Y-98043714D02*
X132979438Y-97948476D01*
X132979438Y-97948476D02*
X133027057Y-97900857D01*
X133027057Y-97900857D02*
X133122295Y-97853238D01*
X133122295Y-97853238D02*
X133217533Y-97853238D01*
X133217533Y-97853238D02*
X133312771Y-97900857D01*
X133312771Y-97900857D02*
X133360390Y-97948476D01*
X133360390Y-97948476D02*
X133408009Y-98043714D01*
X133408009Y-98043714D02*
X133408009Y-98377047D01*
X133265152Y-96948476D02*
X133931819Y-96948476D01*
X133265152Y-97377047D02*
X133788961Y-97377047D01*
X133788961Y-97377047D02*
X133884200Y-97329428D01*
X133884200Y-97329428D02*
X133931819Y-97234190D01*
X133931819Y-97234190D02*
X133931819Y-97091333D01*
X133931819Y-97091333D02*
X133884200Y-96996095D01*
X133884200Y-96996095D02*
X133836580Y-96948476D01*
X133265152Y-96615142D02*
X133265152Y-96234190D01*
X132931819Y-96472285D02*
X133788961Y-96472285D01*
X133788961Y-96472285D02*
X133884200Y-96424666D01*
X133884200Y-96424666D02*
X133931819Y-96329428D01*
X133931819Y-96329428D02*
X133931819Y-96234190D01*
X133265152Y-96043713D02*
X133265152Y-95662761D01*
X132931819Y-95900856D02*
X133788961Y-95900856D01*
X133788961Y-95900856D02*
X133884200Y-95853237D01*
X133884200Y-95853237D02*
X133931819Y-95757999D01*
X133931819Y-95757999D02*
X133931819Y-95662761D01*
X133931819Y-95186570D02*
X133884200Y-95281808D01*
X133884200Y-95281808D02*
X133836580Y-95329427D01*
X133836580Y-95329427D02*
X133741342Y-95377046D01*
X133741342Y-95377046D02*
X133455628Y-95377046D01*
X133455628Y-95377046D02*
X133360390Y-95329427D01*
X133360390Y-95329427D02*
X133312771Y-95281808D01*
X133312771Y-95281808D02*
X133265152Y-95186570D01*
X133265152Y-95186570D02*
X133265152Y-95043713D01*
X133265152Y-95043713D02*
X133312771Y-94948475D01*
X133312771Y-94948475D02*
X133360390Y-94900856D01*
X133360390Y-94900856D02*
X133455628Y-94853237D01*
X133455628Y-94853237D02*
X133741342Y-94853237D01*
X133741342Y-94853237D02*
X133836580Y-94900856D01*
X133836580Y-94900856D02*
X133884200Y-94948475D01*
X133884200Y-94948475D02*
X133931819Y-95043713D01*
X133931819Y-95043713D02*
X133931819Y-95186570D01*
X133265152Y-94424665D02*
X133931819Y-94424665D01*
X133360390Y-94424665D02*
X133312771Y-94377046D01*
X133312771Y-94377046D02*
X133265152Y-94281808D01*
X133265152Y-94281808D02*
X133265152Y-94138951D01*
X133265152Y-94138951D02*
X133312771Y-94043713D01*
X133312771Y-94043713D02*
X133408009Y-93996094D01*
X133408009Y-93996094D02*
X133931819Y-93996094D01*
X133646104Y-93567522D02*
X133646104Y-93091332D01*
X133931819Y-93662760D02*
X132931819Y-93329427D01*
X132931819Y-93329427D02*
X133931819Y-92996094D01*
X154940095Y-76637819D02*
X154940095Y-75637819D01*
X154940095Y-76114009D02*
X155511523Y-76114009D01*
X155511523Y-76637819D02*
X155511523Y-75637819D01*
X155940095Y-75733057D02*
X155987714Y-75685438D01*
X155987714Y-75685438D02*
X156082952Y-75637819D01*
X156082952Y-75637819D02*
X156321047Y-75637819D01*
X156321047Y-75637819D02*
X156416285Y-75685438D01*
X156416285Y-75685438D02*
X156463904Y-75733057D01*
X156463904Y-75733057D02*
X156511523Y-75828295D01*
X156511523Y-75828295D02*
X156511523Y-75923533D01*
X156511523Y-75923533D02*
X156463904Y-76066390D01*
X156463904Y-76066390D02*
X155892476Y-76637819D01*
X155892476Y-76637819D02*
X156511523Y-76637819D01*
X143470333Y-105642580D02*
X143422714Y-105690200D01*
X143422714Y-105690200D02*
X143279857Y-105737819D01*
X143279857Y-105737819D02*
X143184619Y-105737819D01*
X143184619Y-105737819D02*
X143041762Y-105690200D01*
X143041762Y-105690200D02*
X142946524Y-105594961D01*
X142946524Y-105594961D02*
X142898905Y-105499723D01*
X142898905Y-105499723D02*
X142851286Y-105309247D01*
X142851286Y-105309247D02*
X142851286Y-105166390D01*
X142851286Y-105166390D02*
X142898905Y-104975914D01*
X142898905Y-104975914D02*
X142946524Y-104880676D01*
X142946524Y-104880676D02*
X143041762Y-104785438D01*
X143041762Y-104785438D02*
X143184619Y-104737819D01*
X143184619Y-104737819D02*
X143279857Y-104737819D01*
X143279857Y-104737819D02*
X143422714Y-104785438D01*
X143422714Y-104785438D02*
X143470333Y-104833057D01*
X143851286Y-104833057D02*
X143898905Y-104785438D01*
X143898905Y-104785438D02*
X143994143Y-104737819D01*
X143994143Y-104737819D02*
X144232238Y-104737819D01*
X144232238Y-104737819D02*
X144327476Y-104785438D01*
X144327476Y-104785438D02*
X144375095Y-104833057D01*
X144375095Y-104833057D02*
X144422714Y-104928295D01*
X144422714Y-104928295D02*
X144422714Y-105023533D01*
X144422714Y-105023533D02*
X144375095Y-105166390D01*
X144375095Y-105166390D02*
X143803667Y-105737819D01*
X143803667Y-105737819D02*
X144422714Y-105737819D01*
X136297200Y-105473332D02*
X136344819Y-105330475D01*
X136344819Y-105330475D02*
X136344819Y-105092380D01*
X136344819Y-105092380D02*
X136297200Y-104997142D01*
X136297200Y-104997142D02*
X136249580Y-104949523D01*
X136249580Y-104949523D02*
X136154342Y-104901904D01*
X136154342Y-104901904D02*
X136059104Y-104901904D01*
X136059104Y-104901904D02*
X135963866Y-104949523D01*
X135963866Y-104949523D02*
X135916247Y-104997142D01*
X135916247Y-104997142D02*
X135868628Y-105092380D01*
X135868628Y-105092380D02*
X135821009Y-105282856D01*
X135821009Y-105282856D02*
X135773390Y-105378094D01*
X135773390Y-105378094D02*
X135725771Y-105425713D01*
X135725771Y-105425713D02*
X135630533Y-105473332D01*
X135630533Y-105473332D02*
X135535295Y-105473332D01*
X135535295Y-105473332D02*
X135440057Y-105425713D01*
X135440057Y-105425713D02*
X135392438Y-105378094D01*
X135392438Y-105378094D02*
X135344819Y-105282856D01*
X135344819Y-105282856D02*
X135344819Y-105044761D01*
X135344819Y-105044761D02*
X135392438Y-104901904D01*
X135344819Y-104568570D02*
X136344819Y-104330475D01*
X136344819Y-104330475D02*
X135630533Y-104139999D01*
X135630533Y-104139999D02*
X136344819Y-103949523D01*
X136344819Y-103949523D02*
X135344819Y-103711428D01*
X135440057Y-103378094D02*
X135392438Y-103330475D01*
X135392438Y-103330475D02*
X135344819Y-103235237D01*
X135344819Y-103235237D02*
X135344819Y-102997142D01*
X135344819Y-102997142D02*
X135392438Y-102901904D01*
X135392438Y-102901904D02*
X135440057Y-102854285D01*
X135440057Y-102854285D02*
X135535295Y-102806666D01*
X135535295Y-102806666D02*
X135630533Y-102806666D01*
X135630533Y-102806666D02*
X135773390Y-102854285D01*
X135773390Y-102854285D02*
X136344819Y-103425713D01*
X136344819Y-103425713D02*
X136344819Y-102806666D01*
X133408009Y-106370143D02*
X133455628Y-106227286D01*
X133455628Y-106227286D02*
X133503247Y-106179667D01*
X133503247Y-106179667D02*
X133598485Y-106132048D01*
X133598485Y-106132048D02*
X133741342Y-106132048D01*
X133741342Y-106132048D02*
X133836580Y-106179667D01*
X133836580Y-106179667D02*
X133884200Y-106227286D01*
X133884200Y-106227286D02*
X133931819Y-106322524D01*
X133931819Y-106322524D02*
X133931819Y-106703476D01*
X133931819Y-106703476D02*
X132931819Y-106703476D01*
X132931819Y-106703476D02*
X132931819Y-106370143D01*
X132931819Y-106370143D02*
X132979438Y-106274905D01*
X132979438Y-106274905D02*
X133027057Y-106227286D01*
X133027057Y-106227286D02*
X133122295Y-106179667D01*
X133122295Y-106179667D02*
X133217533Y-106179667D01*
X133217533Y-106179667D02*
X133312771Y-106227286D01*
X133312771Y-106227286D02*
X133360390Y-106274905D01*
X133360390Y-106274905D02*
X133408009Y-106370143D01*
X133408009Y-106370143D02*
X133408009Y-106703476D01*
X133265152Y-105274905D02*
X133931819Y-105274905D01*
X133265152Y-105703476D02*
X133788961Y-105703476D01*
X133788961Y-105703476D02*
X133884200Y-105655857D01*
X133884200Y-105655857D02*
X133931819Y-105560619D01*
X133931819Y-105560619D02*
X133931819Y-105417762D01*
X133931819Y-105417762D02*
X133884200Y-105322524D01*
X133884200Y-105322524D02*
X133836580Y-105274905D01*
X133265152Y-104941571D02*
X133265152Y-104560619D01*
X132931819Y-104798714D02*
X133788961Y-104798714D01*
X133788961Y-104798714D02*
X133884200Y-104751095D01*
X133884200Y-104751095D02*
X133931819Y-104655857D01*
X133931819Y-104655857D02*
X133931819Y-104560619D01*
X133265152Y-104370142D02*
X133265152Y-103989190D01*
X132931819Y-104227285D02*
X133788961Y-104227285D01*
X133788961Y-104227285D02*
X133884200Y-104179666D01*
X133884200Y-104179666D02*
X133931819Y-104084428D01*
X133931819Y-104084428D02*
X133931819Y-103989190D01*
X133931819Y-103512999D02*
X133884200Y-103608237D01*
X133884200Y-103608237D02*
X133836580Y-103655856D01*
X133836580Y-103655856D02*
X133741342Y-103703475D01*
X133741342Y-103703475D02*
X133455628Y-103703475D01*
X133455628Y-103703475D02*
X133360390Y-103655856D01*
X133360390Y-103655856D02*
X133312771Y-103608237D01*
X133312771Y-103608237D02*
X133265152Y-103512999D01*
X133265152Y-103512999D02*
X133265152Y-103370142D01*
X133265152Y-103370142D02*
X133312771Y-103274904D01*
X133312771Y-103274904D02*
X133360390Y-103227285D01*
X133360390Y-103227285D02*
X133455628Y-103179666D01*
X133455628Y-103179666D02*
X133741342Y-103179666D01*
X133741342Y-103179666D02*
X133836580Y-103227285D01*
X133836580Y-103227285D02*
X133884200Y-103274904D01*
X133884200Y-103274904D02*
X133931819Y-103370142D01*
X133931819Y-103370142D02*
X133931819Y-103512999D01*
X133265152Y-102751094D02*
X133931819Y-102751094D01*
X133360390Y-102751094D02*
X133312771Y-102703475D01*
X133312771Y-102703475D02*
X133265152Y-102608237D01*
X133265152Y-102608237D02*
X133265152Y-102465380D01*
X133265152Y-102465380D02*
X133312771Y-102370142D01*
X133312771Y-102370142D02*
X133408009Y-102322523D01*
X133408009Y-102322523D02*
X133931819Y-102322523D01*
X133408009Y-101512999D02*
X133455628Y-101370142D01*
X133455628Y-101370142D02*
X133503247Y-101322523D01*
X133503247Y-101322523D02*
X133598485Y-101274904D01*
X133598485Y-101274904D02*
X133741342Y-101274904D01*
X133741342Y-101274904D02*
X133836580Y-101322523D01*
X133836580Y-101322523D02*
X133884200Y-101370142D01*
X133884200Y-101370142D02*
X133931819Y-101465380D01*
X133931819Y-101465380D02*
X133931819Y-101846332D01*
X133931819Y-101846332D02*
X132931819Y-101846332D01*
X132931819Y-101846332D02*
X132931819Y-101512999D01*
X132931819Y-101512999D02*
X132979438Y-101417761D01*
X132979438Y-101417761D02*
X133027057Y-101370142D01*
X133027057Y-101370142D02*
X133122295Y-101322523D01*
X133122295Y-101322523D02*
X133217533Y-101322523D01*
X133217533Y-101322523D02*
X133312771Y-101370142D01*
X133312771Y-101370142D02*
X133360390Y-101417761D01*
X133360390Y-101417761D02*
X133408009Y-101512999D01*
X133408009Y-101512999D02*
X133408009Y-101846332D01*
X144740333Y-101261580D02*
X144692714Y-101309200D01*
X144692714Y-101309200D02*
X144549857Y-101356819D01*
X144549857Y-101356819D02*
X144454619Y-101356819D01*
X144454619Y-101356819D02*
X144311762Y-101309200D01*
X144311762Y-101309200D02*
X144216524Y-101213961D01*
X144216524Y-101213961D02*
X144168905Y-101118723D01*
X144168905Y-101118723D02*
X144121286Y-100928247D01*
X144121286Y-100928247D02*
X144121286Y-100785390D01*
X144121286Y-100785390D02*
X144168905Y-100594914D01*
X144168905Y-100594914D02*
X144216524Y-100499676D01*
X144216524Y-100499676D02*
X144311762Y-100404438D01*
X144311762Y-100404438D02*
X144454619Y-100356819D01*
X144454619Y-100356819D02*
X144549857Y-100356819D01*
X144549857Y-100356819D02*
X144692714Y-100404438D01*
X144692714Y-100404438D02*
X144740333Y-100452057D01*
X145692714Y-101356819D02*
X145121286Y-101356819D01*
X145407000Y-101356819D02*
X145407000Y-100356819D01*
X145407000Y-100356819D02*
X145311762Y-100499676D01*
X145311762Y-100499676D02*
X145216524Y-100594914D01*
X145216524Y-100594914D02*
X145121286Y-100642533D01*
X151412788Y-103026819D02*
X151412788Y-102026819D01*
X151412788Y-102026819D02*
X151650883Y-102026819D01*
X151650883Y-102026819D02*
X151793740Y-102074438D01*
X151793740Y-102074438D02*
X151888978Y-102169676D01*
X151888978Y-102169676D02*
X151936597Y-102264914D01*
X151936597Y-102264914D02*
X151984216Y-102455390D01*
X151984216Y-102455390D02*
X151984216Y-102598247D01*
X151984216Y-102598247D02*
X151936597Y-102788723D01*
X151936597Y-102788723D02*
X151888978Y-102883961D01*
X151888978Y-102883961D02*
X151793740Y-102979200D01*
X151793740Y-102979200D02*
X151650883Y-103026819D01*
X151650883Y-103026819D02*
X151412788Y-103026819D01*
X152365169Y-102122057D02*
X152412788Y-102074438D01*
X152412788Y-102074438D02*
X152508026Y-102026819D01*
X152508026Y-102026819D02*
X152746121Y-102026819D01*
X152746121Y-102026819D02*
X152841359Y-102074438D01*
X152841359Y-102074438D02*
X152888978Y-102122057D01*
X152888978Y-102122057D02*
X152936597Y-102217295D01*
X152936597Y-102217295D02*
X152936597Y-102312533D01*
X152936597Y-102312533D02*
X152888978Y-102455390D01*
X152888978Y-102455390D02*
X152317550Y-103026819D01*
X152317550Y-103026819D02*
X152936597Y-103026819D01*
X154773333Y-108023819D02*
X154440000Y-107547628D01*
X154201905Y-108023819D02*
X154201905Y-107023819D01*
X154201905Y-107023819D02*
X154582857Y-107023819D01*
X154582857Y-107023819D02*
X154678095Y-107071438D01*
X154678095Y-107071438D02*
X154725714Y-107119057D01*
X154725714Y-107119057D02*
X154773333Y-107214295D01*
X154773333Y-107214295D02*
X154773333Y-107357152D01*
X154773333Y-107357152D02*
X154725714Y-107452390D01*
X154725714Y-107452390D02*
X154678095Y-107500009D01*
X154678095Y-107500009D02*
X154582857Y-107547628D01*
X154582857Y-107547628D02*
X154201905Y-107547628D01*
X155344762Y-107452390D02*
X155249524Y-107404771D01*
X155249524Y-107404771D02*
X155201905Y-107357152D01*
X155201905Y-107357152D02*
X155154286Y-107261914D01*
X155154286Y-107261914D02*
X155154286Y-107214295D01*
X155154286Y-107214295D02*
X155201905Y-107119057D01*
X155201905Y-107119057D02*
X155249524Y-107071438D01*
X155249524Y-107071438D02*
X155344762Y-107023819D01*
X155344762Y-107023819D02*
X155535238Y-107023819D01*
X155535238Y-107023819D02*
X155630476Y-107071438D01*
X155630476Y-107071438D02*
X155678095Y-107119057D01*
X155678095Y-107119057D02*
X155725714Y-107214295D01*
X155725714Y-107214295D02*
X155725714Y-107261914D01*
X155725714Y-107261914D02*
X155678095Y-107357152D01*
X155678095Y-107357152D02*
X155630476Y-107404771D01*
X155630476Y-107404771D02*
X155535238Y-107452390D01*
X155535238Y-107452390D02*
X155344762Y-107452390D01*
X155344762Y-107452390D02*
X155249524Y-107500009D01*
X155249524Y-107500009D02*
X155201905Y-107547628D01*
X155201905Y-107547628D02*
X155154286Y-107642866D01*
X155154286Y-107642866D02*
X155154286Y-107833342D01*
X155154286Y-107833342D02*
X155201905Y-107928580D01*
X155201905Y-107928580D02*
X155249524Y-107976200D01*
X155249524Y-107976200D02*
X155344762Y-108023819D01*
X155344762Y-108023819D02*
X155535238Y-108023819D01*
X155535238Y-108023819D02*
X155630476Y-107976200D01*
X155630476Y-107976200D02*
X155678095Y-107928580D01*
X155678095Y-107928580D02*
X155725714Y-107833342D01*
X155725714Y-107833342D02*
X155725714Y-107642866D01*
X155725714Y-107642866D02*
X155678095Y-107547628D01*
X155678095Y-107547628D02*
X155630476Y-107500009D01*
X155630476Y-107500009D02*
X155535238Y-107452390D01*
X138549142Y-102562819D02*
X138215809Y-102086628D01*
X137977714Y-102562819D02*
X137977714Y-101562819D01*
X137977714Y-101562819D02*
X138358666Y-101562819D01*
X138358666Y-101562819D02*
X138453904Y-101610438D01*
X138453904Y-101610438D02*
X138501523Y-101658057D01*
X138501523Y-101658057D02*
X138549142Y-101753295D01*
X138549142Y-101753295D02*
X138549142Y-101896152D01*
X138549142Y-101896152D02*
X138501523Y-101991390D01*
X138501523Y-101991390D02*
X138453904Y-102039009D01*
X138453904Y-102039009D02*
X138358666Y-102086628D01*
X138358666Y-102086628D02*
X137977714Y-102086628D01*
X139501523Y-102562819D02*
X138930095Y-102562819D01*
X139215809Y-102562819D02*
X139215809Y-101562819D01*
X139215809Y-101562819D02*
X139120571Y-101705676D01*
X139120571Y-101705676D02*
X139025333Y-101800914D01*
X139025333Y-101800914D02*
X138930095Y-101848533D01*
X139977714Y-102562819D02*
X140168190Y-102562819D01*
X140168190Y-102562819D02*
X140263428Y-102515200D01*
X140263428Y-102515200D02*
X140311047Y-102467580D01*
X140311047Y-102467580D02*
X140406285Y-102324723D01*
X140406285Y-102324723D02*
X140453904Y-102134247D01*
X140453904Y-102134247D02*
X140453904Y-101753295D01*
X140453904Y-101753295D02*
X140406285Y-101658057D01*
X140406285Y-101658057D02*
X140358666Y-101610438D01*
X140358666Y-101610438D02*
X140263428Y-101562819D01*
X140263428Y-101562819D02*
X140072952Y-101562819D01*
X140072952Y-101562819D02*
X139977714Y-101610438D01*
X139977714Y-101610438D02*
X139930095Y-101658057D01*
X139930095Y-101658057D02*
X139882476Y-101753295D01*
X139882476Y-101753295D02*
X139882476Y-101991390D01*
X139882476Y-101991390D02*
X139930095Y-102086628D01*
X139930095Y-102086628D02*
X139977714Y-102134247D01*
X139977714Y-102134247D02*
X140072952Y-102181866D01*
X140072952Y-102181866D02*
X140263428Y-102181866D01*
X140263428Y-102181866D02*
X140358666Y-102134247D01*
X140358666Y-102134247D02*
X140406285Y-102086628D01*
X140406285Y-102086628D02*
X140453904Y-101991390D01*
X139900819Y-89320666D02*
X139424628Y-89653999D01*
X139900819Y-89892094D02*
X138900819Y-89892094D01*
X138900819Y-89892094D02*
X138900819Y-89511142D01*
X138900819Y-89511142D02*
X138948438Y-89415904D01*
X138948438Y-89415904D02*
X138996057Y-89368285D01*
X138996057Y-89368285D02*
X139091295Y-89320666D01*
X139091295Y-89320666D02*
X139234152Y-89320666D01*
X139234152Y-89320666D02*
X139329390Y-89368285D01*
X139329390Y-89368285D02*
X139377009Y-89415904D01*
X139377009Y-89415904D02*
X139424628Y-89511142D01*
X139424628Y-89511142D02*
X139424628Y-89892094D01*
X138900819Y-88415904D02*
X138900819Y-88892094D01*
X138900819Y-88892094D02*
X139377009Y-88939713D01*
X139377009Y-88939713D02*
X139329390Y-88892094D01*
X139329390Y-88892094D02*
X139281771Y-88796856D01*
X139281771Y-88796856D02*
X139281771Y-88558761D01*
X139281771Y-88558761D02*
X139329390Y-88463523D01*
X139329390Y-88463523D02*
X139377009Y-88415904D01*
X139377009Y-88415904D02*
X139472247Y-88368285D01*
X139472247Y-88368285D02*
X139710342Y-88368285D01*
X139710342Y-88368285D02*
X139805580Y-88415904D01*
X139805580Y-88415904D02*
X139853200Y-88463523D01*
X139853200Y-88463523D02*
X139900819Y-88558761D01*
X139900819Y-88558761D02*
X139900819Y-88796856D01*
X139900819Y-88796856D02*
X139853200Y-88892094D01*
X139853200Y-88892094D02*
X139805580Y-88939713D01*
X145280142Y-103070819D02*
X144946809Y-102594628D01*
X144708714Y-103070819D02*
X144708714Y-102070819D01*
X144708714Y-102070819D02*
X145089666Y-102070819D01*
X145089666Y-102070819D02*
X145184904Y-102118438D01*
X145184904Y-102118438D02*
X145232523Y-102166057D01*
X145232523Y-102166057D02*
X145280142Y-102261295D01*
X145280142Y-102261295D02*
X145280142Y-102404152D01*
X145280142Y-102404152D02*
X145232523Y-102499390D01*
X145232523Y-102499390D02*
X145184904Y-102547009D01*
X145184904Y-102547009D02*
X145089666Y-102594628D01*
X145089666Y-102594628D02*
X144708714Y-102594628D01*
X146232523Y-103070819D02*
X145661095Y-103070819D01*
X145946809Y-103070819D02*
X145946809Y-102070819D01*
X145946809Y-102070819D02*
X145851571Y-102213676D01*
X145851571Y-102213676D02*
X145756333Y-102308914D01*
X145756333Y-102308914D02*
X145661095Y-102356533D01*
X146803952Y-102499390D02*
X146708714Y-102451771D01*
X146708714Y-102451771D02*
X146661095Y-102404152D01*
X146661095Y-102404152D02*
X146613476Y-102308914D01*
X146613476Y-102308914D02*
X146613476Y-102261295D01*
X146613476Y-102261295D02*
X146661095Y-102166057D01*
X146661095Y-102166057D02*
X146708714Y-102118438D01*
X146708714Y-102118438D02*
X146803952Y-102070819D01*
X146803952Y-102070819D02*
X146994428Y-102070819D01*
X146994428Y-102070819D02*
X147089666Y-102118438D01*
X147089666Y-102118438D02*
X147137285Y-102166057D01*
X147137285Y-102166057D02*
X147184904Y-102261295D01*
X147184904Y-102261295D02*
X147184904Y-102308914D01*
X147184904Y-102308914D02*
X147137285Y-102404152D01*
X147137285Y-102404152D02*
X147089666Y-102451771D01*
X147089666Y-102451771D02*
X146994428Y-102499390D01*
X146994428Y-102499390D02*
X146803952Y-102499390D01*
X146803952Y-102499390D02*
X146708714Y-102547009D01*
X146708714Y-102547009D02*
X146661095Y-102594628D01*
X146661095Y-102594628D02*
X146613476Y-102689866D01*
X146613476Y-102689866D02*
X146613476Y-102880342D01*
X146613476Y-102880342D02*
X146661095Y-102975580D01*
X146661095Y-102975580D02*
X146708714Y-103023200D01*
X146708714Y-103023200D02*
X146803952Y-103070819D01*
X146803952Y-103070819D02*
X146994428Y-103070819D01*
X146994428Y-103070819D02*
X147089666Y-103023200D01*
X147089666Y-103023200D02*
X147137285Y-102975580D01*
X147137285Y-102975580D02*
X147184904Y-102880342D01*
X147184904Y-102880342D02*
X147184904Y-102689866D01*
X147184904Y-102689866D02*
X147137285Y-102594628D01*
X147137285Y-102594628D02*
X147089666Y-102547009D01*
X147089666Y-102547009D02*
X146994428Y-102499390D01*
X152233333Y-101164819D02*
X151900000Y-100688628D01*
X151661905Y-101164819D02*
X151661905Y-100164819D01*
X151661905Y-100164819D02*
X152042857Y-100164819D01*
X152042857Y-100164819D02*
X152138095Y-100212438D01*
X152138095Y-100212438D02*
X152185714Y-100260057D01*
X152185714Y-100260057D02*
X152233333Y-100355295D01*
X152233333Y-100355295D02*
X152233333Y-100498152D01*
X152233333Y-100498152D02*
X152185714Y-100593390D01*
X152185714Y-100593390D02*
X152138095Y-100641009D01*
X152138095Y-100641009D02*
X152042857Y-100688628D01*
X152042857Y-100688628D02*
X151661905Y-100688628D01*
X152566667Y-100164819D02*
X153233333Y-100164819D01*
X153233333Y-100164819D02*
X152804762Y-101164819D01*
X137247333Y-108912819D02*
X136914000Y-108436628D01*
X136675905Y-108912819D02*
X136675905Y-107912819D01*
X136675905Y-107912819D02*
X137056857Y-107912819D01*
X137056857Y-107912819D02*
X137152095Y-107960438D01*
X137152095Y-107960438D02*
X137199714Y-108008057D01*
X137199714Y-108008057D02*
X137247333Y-108103295D01*
X137247333Y-108103295D02*
X137247333Y-108246152D01*
X137247333Y-108246152D02*
X137199714Y-108341390D01*
X137199714Y-108341390D02*
X137152095Y-108389009D01*
X137152095Y-108389009D02*
X137056857Y-108436628D01*
X137056857Y-108436628D02*
X136675905Y-108436628D01*
X137723524Y-108912819D02*
X137914000Y-108912819D01*
X137914000Y-108912819D02*
X138009238Y-108865200D01*
X138009238Y-108865200D02*
X138056857Y-108817580D01*
X138056857Y-108817580D02*
X138152095Y-108674723D01*
X138152095Y-108674723D02*
X138199714Y-108484247D01*
X138199714Y-108484247D02*
X138199714Y-108103295D01*
X138199714Y-108103295D02*
X138152095Y-108008057D01*
X138152095Y-108008057D02*
X138104476Y-107960438D01*
X138104476Y-107960438D02*
X138009238Y-107912819D01*
X138009238Y-107912819D02*
X137818762Y-107912819D01*
X137818762Y-107912819D02*
X137723524Y-107960438D01*
X137723524Y-107960438D02*
X137675905Y-108008057D01*
X137675905Y-108008057D02*
X137628286Y-108103295D01*
X137628286Y-108103295D02*
X137628286Y-108341390D01*
X137628286Y-108341390D02*
X137675905Y-108436628D01*
X137675905Y-108436628D02*
X137723524Y-108484247D01*
X137723524Y-108484247D02*
X137818762Y-108531866D01*
X137818762Y-108531866D02*
X138009238Y-108531866D01*
X138009238Y-108531866D02*
X138104476Y-108484247D01*
X138104476Y-108484247D02*
X138152095Y-108436628D01*
X138152095Y-108436628D02*
X138199714Y-108341390D01*
X141932819Y-89320666D02*
X141456628Y-89653999D01*
X141932819Y-89892094D02*
X140932819Y-89892094D01*
X140932819Y-89892094D02*
X140932819Y-89511142D01*
X140932819Y-89511142D02*
X140980438Y-89415904D01*
X140980438Y-89415904D02*
X141028057Y-89368285D01*
X141028057Y-89368285D02*
X141123295Y-89320666D01*
X141123295Y-89320666D02*
X141266152Y-89320666D01*
X141266152Y-89320666D02*
X141361390Y-89368285D01*
X141361390Y-89368285D02*
X141409009Y-89415904D01*
X141409009Y-89415904D02*
X141456628Y-89511142D01*
X141456628Y-89511142D02*
X141456628Y-89892094D01*
X140932819Y-88463523D02*
X140932819Y-88653999D01*
X140932819Y-88653999D02*
X140980438Y-88749237D01*
X140980438Y-88749237D02*
X141028057Y-88796856D01*
X141028057Y-88796856D02*
X141170914Y-88892094D01*
X141170914Y-88892094D02*
X141361390Y-88939713D01*
X141361390Y-88939713D02*
X141742342Y-88939713D01*
X141742342Y-88939713D02*
X141837580Y-88892094D01*
X141837580Y-88892094D02*
X141885200Y-88844475D01*
X141885200Y-88844475D02*
X141932819Y-88749237D01*
X141932819Y-88749237D02*
X141932819Y-88558761D01*
X141932819Y-88558761D02*
X141885200Y-88463523D01*
X141885200Y-88463523D02*
X141837580Y-88415904D01*
X141837580Y-88415904D02*
X141742342Y-88368285D01*
X141742342Y-88368285D02*
X141504247Y-88368285D01*
X141504247Y-88368285D02*
X141409009Y-88415904D01*
X141409009Y-88415904D02*
X141361390Y-88463523D01*
X141361390Y-88463523D02*
X141313771Y-88558761D01*
X141313771Y-88558761D02*
X141313771Y-88749237D01*
X141313771Y-88749237D02*
X141361390Y-88844475D01*
X141361390Y-88844475D02*
X141409009Y-88892094D01*
X141409009Y-88892094D02*
X141504247Y-88939713D01*
X152773142Y-116024819D02*
X152439809Y-115548628D01*
X152201714Y-116024819D02*
X152201714Y-115024819D01*
X152201714Y-115024819D02*
X152582666Y-115024819D01*
X152582666Y-115024819D02*
X152677904Y-115072438D01*
X152677904Y-115072438D02*
X152725523Y-115120057D01*
X152725523Y-115120057D02*
X152773142Y-115215295D01*
X152773142Y-115215295D02*
X152773142Y-115358152D01*
X152773142Y-115358152D02*
X152725523Y-115453390D01*
X152725523Y-115453390D02*
X152677904Y-115501009D01*
X152677904Y-115501009D02*
X152582666Y-115548628D01*
X152582666Y-115548628D02*
X152201714Y-115548628D01*
X153725523Y-116024819D02*
X153154095Y-116024819D01*
X153439809Y-116024819D02*
X153439809Y-115024819D01*
X153439809Y-115024819D02*
X153344571Y-115167676D01*
X153344571Y-115167676D02*
X153249333Y-115262914D01*
X153249333Y-115262914D02*
X153154095Y-115310533D01*
X154582666Y-115024819D02*
X154392190Y-115024819D01*
X154392190Y-115024819D02*
X154296952Y-115072438D01*
X154296952Y-115072438D02*
X154249333Y-115120057D01*
X154249333Y-115120057D02*
X154154095Y-115262914D01*
X154154095Y-115262914D02*
X154106476Y-115453390D01*
X154106476Y-115453390D02*
X154106476Y-115834342D01*
X154106476Y-115834342D02*
X154154095Y-115929580D01*
X154154095Y-115929580D02*
X154201714Y-115977200D01*
X154201714Y-115977200D02*
X154296952Y-116024819D01*
X154296952Y-116024819D02*
X154487428Y-116024819D01*
X154487428Y-116024819D02*
X154582666Y-115977200D01*
X154582666Y-115977200D02*
X154630285Y-115929580D01*
X154630285Y-115929580D02*
X154677904Y-115834342D01*
X154677904Y-115834342D02*
X154677904Y-115596247D01*
X154677904Y-115596247D02*
X154630285Y-115501009D01*
X154630285Y-115501009D02*
X154582666Y-115453390D01*
X154582666Y-115453390D02*
X154487428Y-115405771D01*
X154487428Y-115405771D02*
X154296952Y-115405771D01*
X154296952Y-115405771D02*
X154201714Y-115453390D01*
X154201714Y-115453390D02*
X154154095Y-115501009D01*
X154154095Y-115501009D02*
X154106476Y-115596247D01*
X132961142Y-115770819D02*
X132627809Y-115294628D01*
X132389714Y-115770819D02*
X132389714Y-114770819D01*
X132389714Y-114770819D02*
X132770666Y-114770819D01*
X132770666Y-114770819D02*
X132865904Y-114818438D01*
X132865904Y-114818438D02*
X132913523Y-114866057D01*
X132913523Y-114866057D02*
X132961142Y-114961295D01*
X132961142Y-114961295D02*
X132961142Y-115104152D01*
X132961142Y-115104152D02*
X132913523Y-115199390D01*
X132913523Y-115199390D02*
X132865904Y-115247009D01*
X132865904Y-115247009D02*
X132770666Y-115294628D01*
X132770666Y-115294628D02*
X132389714Y-115294628D01*
X133913523Y-115770819D02*
X133342095Y-115770819D01*
X133627809Y-115770819D02*
X133627809Y-114770819D01*
X133627809Y-114770819D02*
X133532571Y-114913676D01*
X133532571Y-114913676D02*
X133437333Y-115008914D01*
X133437333Y-115008914D02*
X133342095Y-115056533D01*
X134818285Y-114770819D02*
X134342095Y-114770819D01*
X134342095Y-114770819D02*
X134294476Y-115247009D01*
X134294476Y-115247009D02*
X134342095Y-115199390D01*
X134342095Y-115199390D02*
X134437333Y-115151771D01*
X134437333Y-115151771D02*
X134675428Y-115151771D01*
X134675428Y-115151771D02*
X134770666Y-115199390D01*
X134770666Y-115199390D02*
X134818285Y-115247009D01*
X134818285Y-115247009D02*
X134865904Y-115342247D01*
X134865904Y-115342247D02*
X134865904Y-115580342D01*
X134865904Y-115580342D02*
X134818285Y-115675580D01*
X134818285Y-115675580D02*
X134770666Y-115723200D01*
X134770666Y-115723200D02*
X134675428Y-115770819D01*
X134675428Y-115770819D02*
X134437333Y-115770819D01*
X134437333Y-115770819D02*
X134342095Y-115723200D01*
X134342095Y-115723200D02*
X134294476Y-115675580D01*
X150441819Y-110751857D02*
X149965628Y-111085190D01*
X150441819Y-111323285D02*
X149441819Y-111323285D01*
X149441819Y-111323285D02*
X149441819Y-110942333D01*
X149441819Y-110942333D02*
X149489438Y-110847095D01*
X149489438Y-110847095D02*
X149537057Y-110799476D01*
X149537057Y-110799476D02*
X149632295Y-110751857D01*
X149632295Y-110751857D02*
X149775152Y-110751857D01*
X149775152Y-110751857D02*
X149870390Y-110799476D01*
X149870390Y-110799476D02*
X149918009Y-110847095D01*
X149918009Y-110847095D02*
X149965628Y-110942333D01*
X149965628Y-110942333D02*
X149965628Y-111323285D01*
X150441819Y-109799476D02*
X150441819Y-110370904D01*
X150441819Y-110085190D02*
X149441819Y-110085190D01*
X149441819Y-110085190D02*
X149584676Y-110180428D01*
X149584676Y-110180428D02*
X149679914Y-110275666D01*
X149679914Y-110275666D02*
X149727533Y-110370904D01*
X150441819Y-108847095D02*
X150441819Y-109418523D01*
X150441819Y-109132809D02*
X149441819Y-109132809D01*
X149441819Y-109132809D02*
X149584676Y-109228047D01*
X149584676Y-109228047D02*
X149679914Y-109323285D01*
X149679914Y-109323285D02*
X149727533Y-109418523D01*
X151407788Y-94712819D02*
X151407788Y-93712819D01*
X151407788Y-93712819D02*
X151645883Y-93712819D01*
X151645883Y-93712819D02*
X151788740Y-93760438D01*
X151788740Y-93760438D02*
X151883978Y-93855676D01*
X151883978Y-93855676D02*
X151931597Y-93950914D01*
X151931597Y-93950914D02*
X151979216Y-94141390D01*
X151979216Y-94141390D02*
X151979216Y-94284247D01*
X151979216Y-94284247D02*
X151931597Y-94474723D01*
X151931597Y-94474723D02*
X151883978Y-94569961D01*
X151883978Y-94569961D02*
X151788740Y-94665200D01*
X151788740Y-94665200D02*
X151645883Y-94712819D01*
X151645883Y-94712819D02*
X151407788Y-94712819D01*
X152931597Y-94712819D02*
X152360169Y-94712819D01*
X152645883Y-94712819D02*
X152645883Y-93712819D01*
X152645883Y-93712819D02*
X152550645Y-93855676D01*
X152550645Y-93855676D02*
X152455407Y-93950914D01*
X152455407Y-93950914D02*
X152360169Y-93998533D01*
X133627905Y-131772819D02*
X133627905Y-130772819D01*
X133627905Y-130772819D02*
X133866000Y-130772819D01*
X133866000Y-130772819D02*
X134008857Y-130820438D01*
X134008857Y-130820438D02*
X134104095Y-130915676D01*
X134104095Y-130915676D02*
X134151714Y-131010914D01*
X134151714Y-131010914D02*
X134199333Y-131201390D01*
X134199333Y-131201390D02*
X134199333Y-131344247D01*
X134199333Y-131344247D02*
X134151714Y-131534723D01*
X134151714Y-131534723D02*
X134104095Y-131629961D01*
X134104095Y-131629961D02*
X134008857Y-131725200D01*
X134008857Y-131725200D02*
X133866000Y-131772819D01*
X133866000Y-131772819D02*
X133627905Y-131772819D01*
X135104095Y-130772819D02*
X134627905Y-130772819D01*
X134627905Y-130772819D02*
X134580286Y-131249009D01*
X134580286Y-131249009D02*
X134627905Y-131201390D01*
X134627905Y-131201390D02*
X134723143Y-131153771D01*
X134723143Y-131153771D02*
X134961238Y-131153771D01*
X134961238Y-131153771D02*
X135056476Y-131201390D01*
X135056476Y-131201390D02*
X135104095Y-131249009D01*
X135104095Y-131249009D02*
X135151714Y-131344247D01*
X135151714Y-131344247D02*
X135151714Y-131582342D01*
X135151714Y-131582342D02*
X135104095Y-131677580D01*
X135104095Y-131677580D02*
X135056476Y-131725200D01*
X135056476Y-131725200D02*
X134961238Y-131772819D01*
X134961238Y-131772819D02*
X134723143Y-131772819D01*
X134723143Y-131772819D02*
X134627905Y-131725200D01*
X134627905Y-131725200D02*
X134580286Y-131677580D01*
X151412788Y-111401819D02*
X151412788Y-110401819D01*
X151412788Y-110401819D02*
X151650883Y-110401819D01*
X151650883Y-110401819D02*
X151793740Y-110449438D01*
X151793740Y-110449438D02*
X151888978Y-110544676D01*
X151888978Y-110544676D02*
X151936597Y-110639914D01*
X151936597Y-110639914D02*
X151984216Y-110830390D01*
X151984216Y-110830390D02*
X151984216Y-110973247D01*
X151984216Y-110973247D02*
X151936597Y-111163723D01*
X151936597Y-111163723D02*
X151888978Y-111258961D01*
X151888978Y-111258961D02*
X151793740Y-111354200D01*
X151793740Y-111354200D02*
X151650883Y-111401819D01*
X151650883Y-111401819D02*
X151412788Y-111401819D01*
X152317550Y-110401819D02*
X152936597Y-110401819D01*
X152936597Y-110401819D02*
X152603264Y-110782771D01*
X152603264Y-110782771D02*
X152746121Y-110782771D01*
X152746121Y-110782771D02*
X152841359Y-110830390D01*
X152841359Y-110830390D02*
X152888978Y-110878009D01*
X152888978Y-110878009D02*
X152936597Y-110973247D01*
X152936597Y-110973247D02*
X152936597Y-111211342D01*
X152936597Y-111211342D02*
X152888978Y-111306580D01*
X152888978Y-111306580D02*
X152841359Y-111354200D01*
X152841359Y-111354200D02*
X152746121Y-111401819D01*
X152746121Y-111401819D02*
X152460407Y-111401819D01*
X152460407Y-111401819D02*
X152365169Y-111354200D01*
X152365169Y-111354200D02*
X152317550Y-111306580D01*
X147012819Y-89320666D02*
X146536628Y-89653999D01*
X147012819Y-89892094D02*
X146012819Y-89892094D01*
X146012819Y-89892094D02*
X146012819Y-89511142D01*
X146012819Y-89511142D02*
X146060438Y-89415904D01*
X146060438Y-89415904D02*
X146108057Y-89368285D01*
X146108057Y-89368285D02*
X146203295Y-89320666D01*
X146203295Y-89320666D02*
X146346152Y-89320666D01*
X146346152Y-89320666D02*
X146441390Y-89368285D01*
X146441390Y-89368285D02*
X146489009Y-89415904D01*
X146489009Y-89415904D02*
X146536628Y-89511142D01*
X146536628Y-89511142D02*
X146536628Y-89892094D01*
X146012819Y-88987332D02*
X146012819Y-88368285D01*
X146012819Y-88368285D02*
X146393771Y-88701618D01*
X146393771Y-88701618D02*
X146393771Y-88558761D01*
X146393771Y-88558761D02*
X146441390Y-88463523D01*
X146441390Y-88463523D02*
X146489009Y-88415904D01*
X146489009Y-88415904D02*
X146584247Y-88368285D01*
X146584247Y-88368285D02*
X146822342Y-88368285D01*
X146822342Y-88368285D02*
X146917580Y-88415904D01*
X146917580Y-88415904D02*
X146965200Y-88463523D01*
X146965200Y-88463523D02*
X147012819Y-88558761D01*
X147012819Y-88558761D02*
X147012819Y-88844475D01*
X147012819Y-88844475D02*
X146965200Y-88939713D01*
X146965200Y-88939713D02*
X146917580Y-88987332D01*
X150106142Y-108277819D02*
X149772809Y-107801628D01*
X149534714Y-108277819D02*
X149534714Y-107277819D01*
X149534714Y-107277819D02*
X149915666Y-107277819D01*
X149915666Y-107277819D02*
X150010904Y-107325438D01*
X150010904Y-107325438D02*
X150058523Y-107373057D01*
X150058523Y-107373057D02*
X150106142Y-107468295D01*
X150106142Y-107468295D02*
X150106142Y-107611152D01*
X150106142Y-107611152D02*
X150058523Y-107706390D01*
X150058523Y-107706390D02*
X150010904Y-107754009D01*
X150010904Y-107754009D02*
X149915666Y-107801628D01*
X149915666Y-107801628D02*
X149534714Y-107801628D01*
X151058523Y-108277819D02*
X150487095Y-108277819D01*
X150772809Y-108277819D02*
X150772809Y-107277819D01*
X150772809Y-107277819D02*
X150677571Y-107420676D01*
X150677571Y-107420676D02*
X150582333Y-107515914D01*
X150582333Y-107515914D02*
X150487095Y-107563533D01*
X151391857Y-107277819D02*
X152010904Y-107277819D01*
X152010904Y-107277819D02*
X151677571Y-107658771D01*
X151677571Y-107658771D02*
X151820428Y-107658771D01*
X151820428Y-107658771D02*
X151915666Y-107706390D01*
X151915666Y-107706390D02*
X151963285Y-107754009D01*
X151963285Y-107754009D02*
X152010904Y-107849247D01*
X152010904Y-107849247D02*
X152010904Y-108087342D01*
X152010904Y-108087342D02*
X151963285Y-108182580D01*
X151963285Y-108182580D02*
X151915666Y-108230200D01*
X151915666Y-108230200D02*
X151820428Y-108277819D01*
X151820428Y-108277819D02*
X151534714Y-108277819D01*
X151534714Y-108277819D02*
X151439476Y-108230200D01*
X151439476Y-108230200D02*
X151391857Y-108182580D01*
X143964819Y-89320666D02*
X143488628Y-89653999D01*
X143964819Y-89892094D02*
X142964819Y-89892094D01*
X142964819Y-89892094D02*
X142964819Y-89511142D01*
X142964819Y-89511142D02*
X143012438Y-89415904D01*
X143012438Y-89415904D02*
X143060057Y-89368285D01*
X143060057Y-89368285D02*
X143155295Y-89320666D01*
X143155295Y-89320666D02*
X143298152Y-89320666D01*
X143298152Y-89320666D02*
X143393390Y-89368285D01*
X143393390Y-89368285D02*
X143441009Y-89415904D01*
X143441009Y-89415904D02*
X143488628Y-89511142D01*
X143488628Y-89511142D02*
X143488628Y-89892094D01*
X143060057Y-88939713D02*
X143012438Y-88892094D01*
X143012438Y-88892094D02*
X142964819Y-88796856D01*
X142964819Y-88796856D02*
X142964819Y-88558761D01*
X142964819Y-88558761D02*
X143012438Y-88463523D01*
X143012438Y-88463523D02*
X143060057Y-88415904D01*
X143060057Y-88415904D02*
X143155295Y-88368285D01*
X143155295Y-88368285D02*
X143250533Y-88368285D01*
X143250533Y-88368285D02*
X143393390Y-88415904D01*
X143393390Y-88415904D02*
X143964819Y-88987332D01*
X143964819Y-88987332D02*
X143964819Y-88368285D01*
X131826095Y-76637819D02*
X131826095Y-75637819D01*
X131826095Y-76114009D02*
X132397523Y-76114009D01*
X132397523Y-76637819D02*
X132397523Y-75637819D01*
X133397523Y-76637819D02*
X132826095Y-76637819D01*
X133111809Y-76637819D02*
X133111809Y-75637819D01*
X133111809Y-75637819D02*
X133016571Y-75780676D01*
X133016571Y-75780676D02*
X132921333Y-75875914D01*
X132921333Y-75875914D02*
X132826095Y-75923533D01*
D11*
%TO.C,R21*%
X137949000Y-111733064D02*
X137949000Y-111278936D01*
X139419000Y-111733064D02*
X139419000Y-111278936D01*
%TO.C,Q2*%
X132806000Y-119888000D02*
X132806000Y-121563000D01*
X132806000Y-119888000D02*
X132806000Y-119238000D01*
X135926000Y-119888000D02*
X135926000Y-120538000D01*
X135926000Y-119888000D02*
X135926000Y-119238000D01*
%TO.C,R10*%
X147092936Y-113565000D02*
X147547064Y-113565000D01*
X147092936Y-115035000D02*
X147547064Y-115035000D01*
%TO.C,R1*%
X155167000Y-90704936D02*
X155167000Y-91159064D01*
X153697000Y-90704936D02*
X153697000Y-91159064D01*
%TO.C,SW3*%
X134320000Y-114517000D02*
X134320000Y-110377000D01*
X134620000Y-114517000D02*
X134320000Y-114517000D01*
X137460000Y-114517000D02*
X137160000Y-114517000D01*
X134320000Y-110377000D02*
X134620000Y-110377000D01*
X137160000Y-110377000D02*
X137460000Y-110377000D01*
X137460000Y-110377000D02*
X137460000Y-114517000D01*
D12*
%TO.C,P1*%
X144748100Y-77536600D02*
X151682000Y-77536600D01*
X138225000Y-91506600D02*
X141325000Y-91506600D01*
X136696000Y-76520600D02*
X139227100Y-76520600D01*
X140227000Y-76704599D02*
G75*
G03*
X144748100Y-77536600I4521160J11868169D01*
G01*
X140226994Y-76704615D02*
G75*
G03*
X139227100Y-76520600I-999894J-2624585D01*
G01*
D11*
%TO.C,J1*%
X137044000Y-117864000D02*
X137044000Y-116334000D01*
X137514000Y-115864000D02*
X150714000Y-115864000D01*
D13*
X137514000Y-124814000D02*
X137514000Y-124884000D01*
D11*
X137514000Y-124884000D02*
X137514000Y-115864000D01*
X137514000Y-133864000D02*
X137514000Y-127084000D01*
X150714000Y-115864000D02*
X150714000Y-124884000D01*
D13*
X150714000Y-133744000D02*
X150714000Y-133864000D01*
X150714000Y-133854000D02*
X150714000Y-133864000D01*
D11*
X150714000Y-133864000D02*
X137514000Y-133864000D01*
X150714000Y-133864000D02*
X150714000Y-127084000D01*
%TO.C,R20*%
X137949000Y-105637064D02*
X137949000Y-105182936D01*
X139419000Y-105637064D02*
X139419000Y-105182936D01*
%TO.C,R4*%
X149325000Y-94514936D02*
X149325000Y-94969064D01*
X147855000Y-94514936D02*
X147855000Y-94969064D01*
%TO.C,R12*%
X145569000Y-111495064D02*
X145569000Y-111040936D01*
X147039000Y-111495064D02*
X147039000Y-111040936D01*
%TO.C,R14*%
X133123000Y-91159064D02*
X133123000Y-90704936D01*
X134593000Y-91159064D02*
X134593000Y-90704936D01*
%TO.C,Q1*%
X152110000Y-120317500D02*
X152110000Y-121992500D01*
X152110000Y-120317500D02*
X152110000Y-119667500D01*
X155230000Y-120317500D02*
X155230000Y-120967500D01*
X155230000Y-120317500D02*
X155230000Y-119667500D01*
%TO.C,R17*%
X149071000Y-104912936D02*
X149071000Y-105367064D01*
X147601000Y-104912936D02*
X147601000Y-105367064D01*
%TO.C,D4*%
X152274000Y-130542000D02*
X155574000Y-130542000D01*
X152274000Y-130542000D02*
X152274000Y-125032000D01*
X155574000Y-130542000D02*
X155574000Y-125032000D01*
%TO.C,SW1*%
X137460000Y-93688000D02*
X137460000Y-97828000D01*
X137160000Y-93688000D02*
X137460000Y-93688000D01*
X134320000Y-93688000D02*
X134620000Y-93688000D01*
X137460000Y-97828000D02*
X137160000Y-97828000D01*
X134620000Y-97828000D02*
X134320000Y-97828000D01*
X134320000Y-97828000D02*
X134320000Y-93688000D01*
%TO.C,C2*%
X140107000Y-115202000D02*
X144627000Y-115202000D01*
X144627000Y-115202000D02*
X144627000Y-106967000D01*
X140107000Y-106967000D02*
X140107000Y-115202000D01*
%TO.C,SW2*%
X137460000Y-102002000D02*
X137460000Y-106142000D01*
X137160000Y-102002000D02*
X137460000Y-102002000D01*
X134320000Y-102002000D02*
X134620000Y-102002000D01*
X137460000Y-106142000D02*
X137160000Y-106142000D01*
X134620000Y-106142000D02*
X134320000Y-106142000D01*
X134320000Y-106142000D02*
X134320000Y-102002000D01*
%TO.C,C1*%
X147542000Y-100062000D02*
X147542000Y-97042000D01*
X147542000Y-97042000D02*
X143157000Y-97042000D01*
X143157000Y-100062000D02*
X147542000Y-100062000D01*
%TO.C,D2*%
X153711000Y-105308000D02*
X153711000Y-105152000D01*
X153711000Y-102992000D02*
X153711000Y-102836000D01*
X150478666Y-105150608D02*
G75*
G03*
X153710999Y-105307515I1672334J1078608D01*
G01*
X151109871Y-105151836D02*
G75*
G03*
X153191960Y-105151999I1041129J1079836D01*
G01*
X153191960Y-102992001D02*
G75*
G03*
X151109871Y-102992164I-1040960J-1079999D01*
G01*
X153710999Y-102836485D02*
G75*
G03*
X150478666Y-102993392I-1559999J-1235515D01*
G01*
%TO.C,R8*%
X152881064Y-109955000D02*
X152426936Y-109955000D01*
X152881064Y-108485000D02*
X152426936Y-108485000D01*
%TO.C,R19*%
X137949000Y-99541064D02*
X137949000Y-99086936D01*
X139419000Y-99541064D02*
X139419000Y-99086936D01*
%TO.C,R5*%
X140181000Y-94514936D02*
X140181000Y-94969064D01*
X138711000Y-94514936D02*
X138711000Y-94969064D01*
%TO.C,R18*%
X145569000Y-105367064D02*
X145569000Y-104912936D01*
X147039000Y-105367064D02*
X147039000Y-104912936D01*
%TO.C,R7*%
X152627064Y-99795000D02*
X152172936Y-99795000D01*
X152627064Y-98325000D02*
X152172936Y-98325000D01*
%TO.C,R9*%
X134847064Y-109193000D02*
X134392936Y-109193000D01*
X134847064Y-107723000D02*
X134392936Y-107723000D01*
%TO.C,R6*%
X142213000Y-94514936D02*
X142213000Y-94969064D01*
X140743000Y-94514936D02*
X140743000Y-94969064D01*
%TO.C,R16*%
X153172936Y-116359000D02*
X153627064Y-116359000D01*
X153172936Y-117829000D02*
X153627064Y-117829000D01*
%TO.C,R15*%
X135101064Y-117575000D02*
X134646936Y-117575000D01*
X135101064Y-116105000D02*
X134646936Y-116105000D01*
%TO.C,R11*%
X147601000Y-111495064D02*
X147601000Y-111040936D01*
X149071000Y-111495064D02*
X149071000Y-111040936D01*
%TO.C,D1*%
X153706000Y-96994000D02*
X153706000Y-96838000D01*
X153706000Y-94678000D02*
X153706000Y-94522000D01*
X150473666Y-96836608D02*
G75*
G03*
X153705999Y-96993515I1672334J1078608D01*
G01*
X151104871Y-96837836D02*
G75*
G03*
X153186960Y-96837999I1041129J1079836D01*
G01*
X153186960Y-94678001D02*
G75*
G03*
X151104871Y-94678164I-1040960J-1079999D01*
G01*
X153705999Y-94522485D02*
G75*
G03*
X150473666Y-94679392I-1559999J-1235515D01*
G01*
%TO.C,D5*%
X136016000Y-123522000D02*
X132716000Y-123522000D01*
X136016000Y-123522000D02*
X136016000Y-129032000D01*
X132716000Y-123522000D02*
X132716000Y-129032000D01*
%TO.C,D3*%
X153711000Y-113683000D02*
X153711000Y-113527000D01*
X153711000Y-111367000D02*
X153711000Y-111211000D01*
X150478666Y-113525608D02*
G75*
G03*
X153710999Y-113682515I1672334J1078608D01*
G01*
X151109871Y-113526836D02*
G75*
G03*
X153191960Y-113526999I1041129J1079836D01*
G01*
X153191960Y-111367001D02*
G75*
G03*
X151109871Y-111367164I-1040960J-1079999D01*
G01*
X153710999Y-111211485D02*
G75*
G03*
X150478666Y-111368392I-1559999J-1235515D01*
G01*
%TO.C,R3*%
X147293000Y-94514936D02*
X147293000Y-94969064D01*
X145823000Y-94514936D02*
X145823000Y-94969064D01*
%TO.C,R13*%
X147547064Y-108939000D02*
X147092936Y-108939000D01*
X147547064Y-107469000D02*
X147092936Y-107469000D01*
%TO.C,R2*%
X144245000Y-94514936D02*
X144245000Y-94969064D01*
X142775000Y-94514936D02*
X142775000Y-94969064D01*
%TD*%
M02*
