%TF.GenerationSoftware,KiCad,Pcbnew,7.0.8*%
%TF.CreationDate,2023-10-30T21:57:11-05:00*%
%TF.ProjectId,fujinet-adam-devkit-mini,66756a69-6e65-4742-9d61-64616d2d6465,rev?*%
%TF.SameCoordinates,Original*%
%TF.FileFunction,Paste,Top*%
%TF.FilePolarity,Positive*%
%FSLAX46Y46*%
G04 Gerber Fmt 4.6, Leading zero omitted, Abs format (unit mm)*
G04 Created by KiCad (PCBNEW 7.0.8) date 2023-10-30 21:57:11*
%MOMM*%
%LPD*%
G01*
G04 APERTURE LIST*
G04 Aperture macros list*
%AMRoundRect*
0 Rectangle with rounded corners*
0 $1 Rounding radius*
0 $2 $3 $4 $5 $6 $7 $8 $9 X,Y pos of 4 corners*
0 Add a 4 corners polygon primitive as box body*
4,1,4,$2,$3,$4,$5,$6,$7,$8,$9,$2,$3,0*
0 Add four circle primitives for the rounded corners*
1,1,$1+$1,$2,$3*
1,1,$1+$1,$4,$5*
1,1,$1+$1,$6,$7*
1,1,$1+$1,$8,$9*
0 Add four rect primitives between the rounded corners*
20,1,$1+$1,$2,$3,$4,$5,0*
20,1,$1+$1,$4,$5,$6,$7,0*
20,1,$1+$1,$6,$7,$8,$9,0*
20,1,$1+$1,$8,$9,$2,$3,0*%
G04 Aperture macros list end*
%ADD10RoundRect,0.250000X0.450000X-0.350000X0.450000X0.350000X-0.450000X0.350000X-0.450000X-0.350000X0*%
%ADD11RoundRect,0.150000X0.150000X-0.587500X0.150000X0.587500X-0.150000X0.587500X-0.150000X-0.587500X0*%
%ADD12RoundRect,0.250000X-0.350000X-0.450000X0.350000X-0.450000X0.350000X0.450000X-0.350000X0.450000X0*%
%ADD13RoundRect,0.250000X-0.450000X0.350000X-0.450000X-0.350000X0.450000X-0.350000X0.450000X0.350000X0*%
%ADD14RoundRect,0.200000X0.800000X-0.200000X0.800000X0.200000X-0.800000X0.200000X-0.800000X-0.200000X0*%
%ADD15R,0.700000X1.600000*%
%ADD16R,1.400000X1.600000*%
%ADD17R,1.400000X2.200000*%
%ADD18R,1.800000X1.400000*%
%ADD19RoundRect,0.250000X0.650000X-1.000000X0.650000X1.000000X-0.650000X1.000000X-0.650000X-1.000000X0*%
%ADD20RoundRect,0.250000X1.025000X-0.875000X1.025000X0.875000X-1.025000X0.875000X-1.025000X-0.875000X0*%
%ADD21RoundRect,0.250001X0.499999X0.924999X-0.499999X0.924999X-0.499999X-0.924999X0.499999X-0.924999X0*%
%ADD22RoundRect,0.250000X0.350000X0.450000X-0.350000X0.450000X-0.350000X-0.450000X0.350000X-0.450000X0*%
%ADD23RoundRect,0.250000X-0.650000X1.000000X-0.650000X-1.000000X0.650000X-1.000000X0.650000X1.000000X0*%
G04 APERTURE END LIST*
D10*
%TO.C,R21*%
X138684000Y-112506000D03*
X138684000Y-110506000D03*
%TD*%
D11*
%TO.C,Q2*%
X133416000Y-120825500D03*
X135316000Y-120825500D03*
X134366000Y-118950500D03*
%TD*%
D12*
%TO.C,R10*%
X146320000Y-114300000D03*
X148320000Y-114300000D03*
%TD*%
D13*
%TO.C,R1*%
X154432000Y-89932000D03*
X154432000Y-91932000D03*
%TD*%
D14*
%TO.C,SW3*%
X135890000Y-114547000D03*
X135890000Y-110347000D03*
%TD*%
D15*
%TO.C,P1*%
X141875000Y-91506600D03*
X142975000Y-91506600D03*
X144075000Y-91506600D03*
X145175000Y-91506600D03*
X146275000Y-91506600D03*
X147375000Y-91506600D03*
X148475000Y-91506600D03*
X149575000Y-91506600D03*
X150675000Y-91506600D03*
D16*
X151975000Y-90906600D03*
D17*
X151975000Y-81406600D03*
X136275000Y-81406600D03*
D18*
X137175000Y-91006600D03*
%TD*%
D10*
%TO.C,R20*%
X138684000Y-106410000D03*
X138684000Y-104410000D03*
%TD*%
D13*
%TO.C,R4*%
X148590000Y-93742000D03*
X148590000Y-95742000D03*
%TD*%
D10*
%TO.C,R12*%
X146304000Y-112268000D03*
X146304000Y-110268000D03*
%TD*%
%TO.C,R14*%
X133858000Y-91932000D03*
X133858000Y-89932000D03*
%TD*%
D11*
%TO.C,Q1*%
X152720000Y-121255000D03*
X154620000Y-121255000D03*
X153670000Y-119380000D03*
%TD*%
D13*
%TO.C,R17*%
X148336000Y-104140000D03*
X148336000Y-106140000D03*
%TD*%
D19*
%TO.C,D4*%
X153924000Y-129032000D03*
X153924000Y-125032000D03*
%TD*%
D14*
%TO.C,SW1*%
X135890000Y-93658000D03*
X135890000Y-97858000D03*
%TD*%
D20*
%TO.C,C2*%
X142367000Y-113817000D03*
X142367000Y-107417000D03*
%TD*%
D14*
%TO.C,SW2*%
X135890000Y-101972000D03*
X135890000Y-106172000D03*
%TD*%
D21*
%TO.C,C1*%
X146532000Y-98552000D03*
X143282000Y-98552000D03*
%TD*%
D22*
%TO.C,R8*%
X153654000Y-109220000D03*
X151654000Y-109220000D03*
%TD*%
D10*
%TO.C,R19*%
X138684000Y-100314000D03*
X138684000Y-98314000D03*
%TD*%
D13*
%TO.C,R5*%
X139446000Y-93742000D03*
X139446000Y-95742000D03*
%TD*%
D10*
%TO.C,R18*%
X146304000Y-106140000D03*
X146304000Y-104140000D03*
%TD*%
D22*
%TO.C,R7*%
X153400000Y-99060000D03*
X151400000Y-99060000D03*
%TD*%
%TO.C,R9*%
X135620000Y-108458000D03*
X133620000Y-108458000D03*
%TD*%
D13*
%TO.C,R6*%
X141478000Y-93742000D03*
X141478000Y-95742000D03*
%TD*%
D12*
%TO.C,R16*%
X152400000Y-117094000D03*
X154400000Y-117094000D03*
%TD*%
D22*
%TO.C,R15*%
X135874000Y-116840000D03*
X133874000Y-116840000D03*
%TD*%
D10*
%TO.C,R11*%
X148336000Y-112268000D03*
X148336000Y-110268000D03*
%TD*%
D23*
%TO.C,D5*%
X134366000Y-125032000D03*
X134366000Y-129032000D03*
%TD*%
D13*
%TO.C,R3*%
X146558000Y-93742000D03*
X146558000Y-95742000D03*
%TD*%
D22*
%TO.C,R13*%
X148320000Y-108204000D03*
X146320000Y-108204000D03*
%TD*%
D13*
%TO.C,R2*%
X143510000Y-93742000D03*
X143510000Y-95742000D03*
%TD*%
M02*
