%TF.GenerationSoftware,KiCad,Pcbnew,7.0.8*%
%TF.CreationDate,2023-10-30T21:57:11-05:00*%
%TF.ProjectId,fujinet-adam-devkit-mini,66756a69-6e65-4742-9d61-64616d2d6465,rev?*%
%TF.SameCoordinates,Original*%
%TF.FileFunction,Soldermask,Bot*%
%TF.FilePolarity,Negative*%
%FSLAX46Y46*%
G04 Gerber Fmt 4.6, Leading zero omitted, Abs format (unit mm)*
G04 Created by KiCad (PCBNEW 7.0.8) date 2023-10-30 21:57:11*
%MOMM*%
%LPD*%
G01*
G04 APERTURE LIST*
%ADD10C,0.900000*%
%ADD11C,3.250000*%
%ADD12R,1.520000X1.520000*%
%ADD13C,1.520000*%
%ADD14C,2.700000*%
%ADD15R,1.800000X1.800000*%
%ADD16C,1.800000*%
%ADD17R,1.530000X1.530000*%
%ADD18C,1.530000*%
G04 APERTURE END LIST*
D10*
%TO.C,P1*%
X149075000Y-81006600D03*
X141075000Y-81006600D03*
%TD*%
D11*
%TO.C,J1*%
X139034000Y-125984000D03*
X149194000Y-125984000D03*
D12*
X140944000Y-117094000D03*
D13*
X142214000Y-119634000D03*
X143484000Y-117094000D03*
X144754000Y-119634000D03*
X146024000Y-117094000D03*
X147294000Y-119634000D03*
%TD*%
D14*
%TO.C,H2*%
X155702000Y-79883000D03*
%TD*%
D15*
%TO.C,D2*%
X153421000Y-104072000D03*
D16*
X150881000Y-104072000D03*
%TD*%
D15*
%TO.C,D1*%
X153416000Y-95758000D03*
D16*
X150876000Y-95758000D03*
%TD*%
D15*
%TO.C,D3*%
X153421000Y-112447000D03*
D16*
X150881000Y-112447000D03*
%TD*%
D14*
%TO.C,H1*%
X132588000Y-79883000D03*
%TD*%
D17*
%TO.C,U1*%
X156845000Y-84455000D03*
D18*
X156845000Y-86995000D03*
X156845000Y-89535000D03*
X156845000Y-92075000D03*
X156845000Y-94615000D03*
X156845000Y-97155000D03*
X156845000Y-99695000D03*
X156845000Y-102235000D03*
X156845000Y-104775000D03*
X156845000Y-107315000D03*
X156845000Y-109855000D03*
X156845000Y-112395000D03*
X156845000Y-114935000D03*
X156845000Y-117475000D03*
X156845000Y-120015000D03*
X156845000Y-122555000D03*
X156845000Y-125095000D03*
X156845000Y-127635000D03*
X156845000Y-130175000D03*
X131445000Y-130175000D03*
X131445000Y-127635000D03*
X131445000Y-125095000D03*
X131445000Y-122555000D03*
X131445000Y-120015000D03*
X131445000Y-117475000D03*
X131445000Y-114935000D03*
X131445000Y-112395000D03*
X131445000Y-109855000D03*
X131445000Y-107315000D03*
X131445000Y-104775000D03*
X131445000Y-102235000D03*
X131445000Y-99695000D03*
X131445000Y-97155000D03*
X131445000Y-94615000D03*
X131445000Y-92075000D03*
X131445000Y-89535000D03*
X131445000Y-86995000D03*
X131445000Y-84455000D03*
%TD*%
M02*
